<?xml version="1.0" encoding="UTF-8"?><svg id="Layer_1" xmlns="http://www.w3.org/2000/svg" width="754.48" height="261.63" viewBox="0 0 754.48 261.63"><path d="M720.87,171.26c-36-48.59-82.13-87.64-136.7-114.13-42.73-24.71-88.98-35.49-136.7-46.4-.4-.22-.82-.31-1.24-.31-1.24-.31-2.51-.65-3.77-.95-3.94-.92-7.85-2.03-11.9-2.53l.62,2.52c-3.6.67-6.56-1.58-9.72-2.21-2.4-.48-4.74-1.46-4.09,2.22-1.11-.23-2.29-1.06-3.76-1.25-1.51-1.29-8.48-5.67-9.66-6.02-5.83-1.73-37.44-1.4-43.69-.25-1.42.26-1.42.97-1.84,1.25-.75.5-.93,2.48-2.01,2.5-2.81.06-8.76-3.55-11.79,0-7.62-1.61-42.77,3.94-50.52,7.8-12.58,6.26-21.63,8.64-34.76,13.52-23.2,8.63-45.99,18.42-68.98,27.59-2.05-.2-4.2.14-6.27,0-15.49-4.24-29.97-.42-43.89,6.27-4.84,2.33-8.74,3.99-13.14,7.55-4.42,3.57-12.24,14.88-14.45,16.28-12.9,8.15-40.3,13.78-52.6,23.28-5.03,3.89-5.93,10.44-9.23,13.97-4.24,4.53-22.27,17.21-28.47,21.69-6.72,4.86-14.43,9.12-21.32,13.8v1.25c2.53,1.59,5.84,8.38,7.54,9.46,2.42,1.54,4.69-.76,5-.68,1.24.3,4.2,6.16,5.02,7.52,4.6,7.65,5.76,7.79,11.29,13.8,10.31,11.21,13.62,11.48,24.42,20.1,10.65,8.49,20.94,20.91,32,29.45.35.77-2.54.66-3.76,1.87-4.49,4.48,2.72,10.8,7.16,12.28,15.19.39,30.3,2.8,45.51,2.77l23.15,2.56,24.51-.05c28.85,1.41,58.82-1.05,87.79,0,20.72,5.22,72.55.92,97.25,1.2,85.06.97,170.57,2.22,255.81,1.33,2.12-.02,5.58.8,6.88-1.28,9.39,0,18.83.12,28.24.02,2.12-.02,5.58.8,6.88-1.28,9.38-.04,18.51-.74,27.59-1.25,2.49-.14,5.05.2,7.52,0,3.94-.32,7.42-.78,11.29-1.25,3.02-.37,4.58-.63,7.52-1.25,1.45-.31,3.48.28,5.32-.26,4.25-1.24,21.86-22.37,26.03-27.33.76-.91,1.64-1.71,2.51-2.51v-2.51c-10.15-17.87-20.39-33.68-32.61-50.17Z" style="fill:none; stroke:#000; stroke-miterlimit:10; stroke-width:2px;"/></svg>