<?xml version="1.0" encoding="UTF-8"?><svg id="Layer_1" xmlns="http://www.w3.org/2000/svg" width="396.7" height="754.48" viewBox="0 0 396.7 754.48"><path d="M392.34,397.98c-.38-13.77-.49-27.09-1.2-40.81-.2-3.94.21-7.94-.01-11.91-.31-5.39-1.23-12.94-2.5-18.19.4-15.35-2.53-30.55-3.76-45.78-5.03-62.31-9.6-137.22-22.95-197.77-.96-4.36-1.78-8.76-4.64-12.29-20.1-13.93-42.74-25.1-63.96-37.62-15.81-9.33-31.03-20.96-47.66-28.84-1.6-.76-3.61-.95-5.02-2.51v-1.25h-1.25c-1.65,11.5-2.1,25.93-1.25,37.62h-6.27c-14.19,0-28.45.15-42.64,0-3.48-.04-12.78.74-15.05,0-.04-8.56.13-17.16.02-25.73-.03-2.12.8-5.58-1.28-6.88V1h-2.51l-31.35,20.07-72.76,41.99c-3.91,4.37,2.09,15.64-3.74,19.46-.52-4.76-.48-10.98-2.51-15.05-.85-.87-21.38,7.88-22.57,8.78-2.89,2.17-4.07,7.85-5.02,11.29-2.22,8.03-2.87,16.15-3.76,24.46-2.09,19.69-2.6,39.79-3.77,59.56-.41,3.92-2.89,22.39,0,23.83-.43,2.76-.95,8-1.25,11.29-4.15,44.34.88,86.87-1.25,130.43-.15,2.99-.96,7.63-1.25,11.29l-12.36,79.82c-1.27,14.41-3.68,28.65-3.94,43.09l-3.86,30.71c.34,7.72,2.04,15.58,2.61,23.22.3,4.01-1.24,9.57,1.25,12.54.37,28.24,7.29,56.24,16.3,82.77,4.31,12.7,7.92,21.81,13.8,33.86,4.19,8.58,7.41,14.46,12.54,22.57,5,7.9,8.2,11.8,13.8,18.81,11.52,14.46,15.51,19.53,31.35,30.1,10.49,6.99,18.6,11.95,30.7,16.33,14.56,5.26,29.69,7.31,44.54,11.26h36.37l23.84-4.38c99.7-24.21,161.33-105.26,166.77-206.96,2.45-45.82-1.29-98.01-2.55-144.16Z" style="fill:none; stroke:#000; stroke-miterlimit:10; stroke-width:2px;"/></svg>