<?xml version="1.0" encoding="UTF-8"?><svg id="Layer_1" xmlns="http://www.w3.org/2000/svg" width="693.23" height="229.43" viewBox="0 0 693.23 229.43"><path d="M683.16,174.1c-5.35-10.69-11.88-20.29-18.75-29.95-.25-.35-.47-.74-.8-1.19-1.98-2.76-3.91-5.31-5.96-7.95-.13-.17-.49-.41-.8-.8-11.26-14.32-23.25-28.02-36.97-40.15-13.48-11.92-27.39-21.49-42.53-31.01-28.73-18.06-58.19-33.36-91.03-42.93-6.36-2.38-13.09-4.22-19.71-5.93-7.18-1.86-14.37-3.33-21.63-4.8-10.16-2.05-20.07-3.93-30.41-5.17-6.26-.75-12.79-.74-19.06-1.61-.61-.08-1.08-.74-1.64-.8-.88-.09-1.36.81-1.96.81-.5,0-1.09-.76-1.98-.84-1.79-.15-4.55.05-6.39,0-.8-.02-1.39-.82-2.33-.75-.68.05-1.22.69-1.69.73-.44.04-1.2-.77-2.32-.78-1.2,0-1.63.71-2.4.83-2,.32-5.87-.55-7.33.42-1.2.79-1.11,2.25-1.59,3.18-1.2,2.3-2.57,4.75-3.58,7.16.01-1.27.82-2.03.83-3.37.01-1.34-.79-2.63-.83-3.78,0-.06.38-.54.4-1.19.08-2.99-2.59-2.48-4.99-2.4-29.85.94-61.19,6.22-89.88,14.26-5.52,1.55-11.04,3.75-16.64,5.25-.65.18-1.13.52-1.78-.02-.15-.43-.23-.49-.4-.8-.87-1.57-3.32-1.34-4.87-1.1-4.66.74-18.85,6.47-23.49,8.71-5.15,2.49-8.48,5.6-12.98,8.69-8.71,5.98-23.78,9.02-33.39,14.31h-.4c.28-4.11-3.14-.4-3.57-.8-.1-.09-.02-2.01-1.06-2.34-1.47-.47-1.66,1.13-2.91,1.15-.41-4.77-3.01-.55-3.96-1.21-.61-.42-.79-4.65-3.39-.39-.99-.5-.82-2.29-1.99-2.41-1.54-.16-1.46,1.85-2.38,1.62-2.49-4.16-2.81-.59-3.59-.4-.77.19-1.41-1.61-2.38-1.61-.97,0-1.62,1.8-2.38,1.61-.53-.13-2-4.07-3.39.39-1.01.69-1.51-2.94-3.38-1.2-1.3,1.2.22,2.94-3.17.12-.8.11-1.55,2.17-2.01,2.27-.47.1-.95-.61-1.36-.79-2.19-.92-1.68,1.91-2.58,1.98-.67.05-2.93-3.33-3.39,1.2-.49.45-2.45-1.72-3.17-1.19-.14.1-.22,2.11-1.05,2.36-1.02.31-1.64-1.22-2.54-.38-.67.63-.73,1.53-.8,2.39-.66-.21-2.76-1.03-3.15-.76l-.43,2.75c-1.44.53-3.22-3.01-3.58,2.38-2.9-1.5-3.47-.78-3.18,2.38l-3.18-.4v2.78c-2.79-.52-4.04-.41-2.78,2.78-4.62-.99-2.65,2.63-3.18,3.18-.11.11-2.19-.55-2.76.03-.6.82,2.16,3.82-2.41,3.16l.4,3.18c-.39.04-.8-.04-1.19,0-3.22.39-.53,2.62-1.21,3.56-.31.43-2.14-.17-2.35.65-.14.55.3,2.11.37,2.94-.6-.01-1.53,0-1.99.4-1.12.96.39,2.09.4,3.17l-2.38.41c-.63,1.06,1.19,2.81,1.19,2.98,0,.59-4.43.63-1.98,3.38-.64,2.02-4.08,2.79-5.93,3.81-6.75,3.72-14.06,7.81-20.7,12.09-.84-.04-1.56.31-2.27.72-13.5,7.84-26.95,16.6-39.67,25.52-3.78,2.65-9.5,6.09-12.91,8.96-.41.35-2.52,2.95-2.61,3.32-.24,1.05,1.1,2.11.99,2.6-.12.51-1.77.92-1.93,1.68-.14.67.59,1,.75,1.34.33.7-.3,1.84,1.59,1.59,1.16.24,3.05-.1,4.37,0,1.28.09,2.6.37,3.76.41,4.93.17,11.02-.57,15.72-.02-.18,1.44.4,2.66.8,3.98.48,1.6.96,2.85,1.59,4.37-2.51.21-4.85-.63-7.37-.41-1.36.12-2.34.71-3.56.81-2.12.18-4.42-.14-6.56,0l.79.79-1.98.2,3.58,3.78c7.62,10.5,19.47,21.97,28.62,31.4,5.29,5.45,10.53,11.12,16.09,16.31,1.86,1.74,6.12,6.04,8.02,7.09,2.52,1.39,11.26,2.23,14.45,2.44.61.79,1.79.89,2.7,1.07,15.83,3.15,37.62,1.63,54.14,1.71v.4h48.89v-.4c.77.2,1.04-.1,1.59-.4.8-.43,1.28-1.26,2.09-1.69,82.16-.6,164.68,1.13,246.95.11.67,0,1.77.25,2.18-.4,27.29.01,54.6-.04,81.89,0,.47,1.72,1.8,1.87,3.36,2,13.95,1.18,32.18.17,46.53,0,.67,0,1.77.25,2.18-.4,8.4.02,16.84.11,25.25,0,.67,0,1.77.25,2.18-.4.79,0,1.59,0,2.39,0,4.17.02,8.36.06,12.53,0,.67,0,1.77.25,2.18-.4,5.79,0,12.75.07,18.44-.84,2.07-.33,4.31-.74,5.81-2.34,1.98-.24,4.24.21,6.25-.71,11.18-7.43,26.77-12.33,37.48-19.96,2.03-1.45.89-1.41,3.98-2.39.31-.1,1.01-.3,1.19-.4.11-.06.34.01.38-.21-1.41-8.95-5.03-17.44-9.06-25.5Z" style="fill:none; stroke:#000; stroke-miterlimit:10; stroke-width:2px;"/></svg>