<?xml version="1.0" encoding="UTF-8"?><svg id="Layer_1" xmlns="http://www.w3.org/2000/svg" width="384.11" height="676.35" viewBox="0 0 384.11 676.35"><path d="M378.09,218.36c-.16-1.91-.19-3.83-.38-5.75-2.8-35.73-7.38-71.29-13.14-106.63-1.6-9.85-7.47-51.28-11.39-57.21-.56-.85-1.88-1.8-2.68-2.49-1.26-1.11-2.07-1.49-3.45-2.3-2.65-1.56-4.66-2.33-7.47-3.46-36.08-14.5-75.98-25.11-112.49-39.09-.51-.49-1.34-.58-1.92-.2-1.19.8-1.53,25.17-1.53,28.56-.38,0-.77,0-1.15,0-1.26-.72-3.16-.37-4.6-.38-9.76-.08-19.58-.79-29.34-.79-2.84,0-20.68,1.3-21.63.79-.44-3.49,1.03-26.99-1.15-27.98-1.63-.74-14.6,3.93-17.23,4.81-29.83,9.94-60.87,21.48-90.47,32.37-4.9,1.8-9.55,2.7-14.18,5.37-3.26,1.87-5.15,2.92-6.9,6.52-2.44,5.03-3.66,14.82-4.87,20.62-8.56,41.3-15.12,85.55-19.65,127.52-.56,5.21.41,10.43-1.54,15.13-.52,1.24-2.01,2.74-2.6,4.49-3.32,9.97-6.15,56.61-5.85,68.5.19,7.57,1.17,5.1,4.23,9.79,1.19,1.83.62,1.68.77,3.83-.24.04-.56-.06-.77,0-2.17.6-1.91,8.68-1.55,10.57.22,1.16.78,1.24.79,1.31.06.51.59.69.77,2.68-3.35,3.05-5.04,6.36-5.38,10.91-1.66,21.92,3.3,61.65,8.26,83.38,4.58,20.05,8.72,40.67,13.48,60.87,3.62,15.34,7.93,30.57,12.39,45.67,3.18,12.25,6.41,24.5,10.73,36.41,6.4,17.65,14.65,34.88,24.91,50.59,3.85,5.89,7.67,11.83,12.65,16.86,3.58,6.62,14.79,16.06,20.7,21.08,7.65,6.49,13.84,11.12,22.61,16.1,11.05,6.28,22.72,11.53,35.26,14.18,27.25,8.28,58.03,4.03,83.93-6.52,9.8-3.99,17.46-8.01,26.06-14.18,12.67-8.33,24.56-19.46,34.1-31.25,1.98-2.45,6.74-7.85,7.68-10.53,10.48-13.68,18.39-29.46,24.98-45.35,5.6-13.52,8.64-24.84,12.2-38.97,30.34-98.9,38.34-202.86,26.83-305.84Z" style="fill:none; stroke:#000; stroke-miterlimit:10; stroke-width:2px;"/></svg>