<?xml version="1.0" encoding="UTF-8"?><svg id="Layer_1" xmlns="http://www.w3.org/2000/svg" viewBox="0 0 384 384"><rect width="384" height="384" style="fill:#fefefe;"/><path d="M319.63,199.86v121.64c0,6.56-7.48,13.74-13.91,14.53-21.69-1.34-45.95,2-67.33.1-6.34-.57-13.51-5.98-14.52-12.43-2.35-15.01,1.52-35.81-.05-51.6-.85-8.59-6.71-15.01-15.42-16.02-7.87-.91-23.3-.7-31.39-.11-10.5.76-16.68,6.28-17.59,16.85-1.34,15.64,2.02,34.99-.04,50.11-.96,7.06-7.53,12.57-14.5,13.19-21.38,1.91-45.65-1.44-67.33-.1-6.44-.8-13.91-7.97-13.91-14.53v-121.64c-14.92,18.87-41.54,2.5-27.69-18.34L178.14,55.01c8.44-8.49,18.52-8.5,26.97,0l141.46,125.77c15.56,20.65-11.47,38.46-26.94,19.08Z"/></svg>