<svg width="266" height="197" viewBox="0 0 266 197" fill="none" xmlns="http://www.w3.org/2000/svg">
<path d="M4.83099 94.3512C4.55904 94.4657 4.31308 94.6339 4.10797 94.8461C3.89745 95.0261 3.73082 95.252 3.62091 95.5062C3.62091 95.5062 16.432 112.143 21.107 112.143H208.78C208.78 112.143 211.603 109.714 213.334 107.801C215.211 105.608 216.859 103.229 218.252 100.701C218.343 100.154 202.587 76.0411 177.997 62.9151C153.407 49.7891 134.13 45.0911 111.756 46.0741" fill="#031F29"/>
<path d="M4.83099 94.3512C4.55904 94.4657 4.31308 94.6339 4.10797 94.8461C3.89745 95.0261 3.73082 95.252 3.62091 95.5062C3.62091 95.5062 16.432 112.143 21.107 112.143H208.78C208.78 112.143 211.603 109.714 213.334 107.801C215.211 105.608 216.859 103.229 218.252 100.701C218.343 100.154 202.587 76.0411 177.997 62.9151C153.407 49.7891 134.13 45.0911 111.756 46.0741" stroke="#003B50" stroke-linejoin="round"/>
<path d="M156.281 53.0061C156.281 53.0061 167.352 75.2339 183.004 87.7649C187.546 91.4358 192.797 94.1316 198.427 95.6838C204.057 97.2361 209.947 97.6117 215.729 96.7871C215.729 96.7871 205.936 83.7211 195.314 74.8191C180.985 62.8111 156.281 53.0061 156.281 53.0061Z" fill="#E10020"/>
<path d="M4.83099 94.3512C4.55904 94.4657 4.31308 94.6339 4.10797 94.8461C3.89745 95.0261 3.73082 95.252 3.62091 95.5062C3.62091 95.5062 16.432 112.143 21.107 112.143H208.78C208.78 112.143 211.603 109.714 213.334 107.801C215.211 105.608 216.859 103.229 218.252 100.701C218.343 100.154 202.587 76.0411 177.997 62.9151C153.407 49.7891 134.13 45.0911 111.756 46.0741" stroke="#003B50" stroke-linejoin="round"/>
<path d="M52.853 62.6642C50.6116 62.0488 48.2899 61.7766 45.967 61.8571C36.678 62.1731 28.7869 67.9941 24.9219 76.3041" fill="#031F29"/>
<path d="M52.853 62.6642C50.6116 62.0488 48.2899 61.7766 45.967 61.8571C36.678 62.1731 28.7869 67.9941 24.9219 76.3041" stroke="#003B50" stroke-linejoin="round"/>
<path d="M95.4849 66.481C95.4999 66.481 95.6939 65.7629 95.7079 65.7629C96.7779 62.6439 99.5619 59.224 103.408 55.252C107.552 50.971 110.785 49.727 111.757 46.071C103.936 46.6047 96.1646 47.7046 88.503 49.3621C79.2717 51.4363 70.1923 54.1369 61.3279 57.4451C61.3279 57.4451 60.9219 58.8949 55.5939 61.2629C51.3139 63.1629 0.949951 88.4031 0.949951 88.4031V90.3149C0.949951 90.3149 4.04996 95.156 8.19196 95.793C11.737 96.337 15.903 94.02 19.06 92.623C21.1293 91.606 23.4177 91.1159 25.722 91.196C28.045 91.184 30.0939 94.196 30.2759 94.323L95.3289 67.3059" fill="#031F29"/>
<path d="M95.4849 66.481C95.4999 66.481 95.6939 65.7629 95.7079 65.7629C96.7779 62.6439 99.5619 59.224 103.408 55.252C107.552 50.971 110.785 49.727 111.757 46.071C103.936 46.6047 96.1646 47.7046 88.503 49.3621C79.2717 51.4363 70.1923 54.1369 61.3279 57.4451C61.3279 57.4451 60.9219 58.8949 55.5939 61.2629C51.3139 63.1629 0.949951 88.4031 0.949951 88.4031V90.3149C0.949951 90.3149 4.04996 95.156 8.19196 95.793C11.737 96.337 15.903 94.02 19.06 92.623C21.1293 91.606 23.4177 91.1159 25.722 91.196C28.045 91.184 30.0939 94.196 30.2759 94.323L95.3289 67.3059" stroke="#003B50" stroke-linejoin="round"/>
<path d="M8.10895 84.3621C8.10895 84.3621 29.304 88.034 55.774 74.74C82.244 61.446 93.8959 49.0491 93.8959 49.0491C93.8959 49.0491 69.0999 53.9 50.9999 63.21C36.8399 70.5 8.10895 84.3621 8.10895 84.3621Z" fill="#E10020"/>
<path d="M95.4849 66.481C95.4999 66.481 95.6939 65.7629 95.7079 65.7629C96.7779 62.6439 99.5619 59.224 103.408 55.252C107.552 50.971 110.785 49.727 111.757 46.071C103.936 46.6047 96.1646 47.7046 88.503 49.3621C79.2717 51.4363 70.1923 54.1369 61.3279 57.4451C61.3279 57.4451 60.9219 58.8949 55.5939 61.2629C51.3139 63.1629 0.949951 88.4031 0.949951 88.4031V90.3149C0.949951 90.3149 4.04996 95.156 8.19196 95.793C11.737 96.337 15.903 94.02 19.06 92.623C21.1293 91.606 23.4177 91.1159 25.722 91.196C28.045 91.184 30.0939 94.196 30.2759 94.323L95.3289 67.3059" stroke="#003B50" stroke-linejoin="round"/>
<path d="M30.275 94.323C30.275 94.323 66.067 74.833 95.197 66.562C103.395 64.2872 111.842 63.0275 120.347 62.811C148.398 62.811 169.072 81.299 173.58 103.157V105.251C156.043 105.716 56.6859 109.322 51.4949 109.322C42.9339 109.322 37.984 106.059 30.275 94.323Z" fill="#031F29" stroke="#003B50" stroke-linejoin="round"/>
<path d="M95.7079 65.7629L93.1159 79.0439L112.484 74.9839C112.484 74.9839 120.56 73.952 123.717 62.811" stroke="#003B50" stroke-linejoin="round"/>
<path d="M93.9 66.938L91.4809 79.356L79.8229 82.8779C74.6619 83.8489 71.223 84.188 64.232 77.947" stroke="#003B50" stroke-linejoin="round"/>
<path d="M173.58 105.251C173.58 105.251 183.188 104.842 194.163 104.251C205.138 103.66 216.93 102.96 216.93 102.96" fill="#031F29"/>
<path d="M173.58 105.251C173.58 105.251 183.188 104.842 194.163 104.251C205.138 103.66 216.93 102.96 216.93 102.96" stroke="#003B50" stroke-linejoin="round"/>
<path d="M139.366 62.873L134.334 40.1211C134.334 40.1211 124.958 42.8991 117.558 40.9641C110.158 39.0291 106.653 35.0639 106.653 35.0639C106.653 35.0639 95.2869 36.893 89.0389 35.906C82.7909 34.919 73.9389 30.8501 73.9389 30.8501C72.8768 33.9593 70.8112 36.6272 68.067 38.4341C63.6 41.2341 57.1669 46.018 57.1669 46.018C57.1669 46.018 56.917 63.434 51.296 68.769C45.675 74.104 45.2699 75.688 40.0639 74.386C34.8579 73.084 36.1979 56.1299 36.1979 56.1299C36.1979 56.1299 32.069 44.7929 33.681 40.9619C35.293 37.1309 54.9239 5.71796 60.5219 3.88596C66.1199 2.05396 102.837 4.45296 106.655 3.88596C110.473 3.31896 122.023 0.977887 126.786 1.35789C131.549 1.73789 165.217 13.4061 172.92 14.8401C180.623 16.2741 247.571 31.6931 247.571 31.6931" stroke="white" stroke-width="2" stroke-miterlimit="10" stroke-linecap="round"/>
<path d="M264.984 92.3501C264.984 92.3501 232.902 96.0349 219.029 100.43C205.156 104.825 168.467 102.837 147.319 99.4199C126.171 96.0029 106.005 99.4851 87.729 101.945C69.453 104.405 68.207 99.0391 66.519 94.3701C64.831 89.7011 74.932 73.497 92.779 69.625C110.626 65.753 113.774 68.8671 124.594 67.1001C135.414 65.3331 144.625 59.09 153.884 58.01" stroke="white" stroke-width="2" stroke-miterlimit="10" stroke-linecap="round"/>
<path d="M89.17 151.498V154.454C86.2657 151.04 82.0876 149.104 77.7058 149.104C68.993 149.104 62.4711 156.084 62.4711 164.695C62.4711 174.783 70.8782 180.031 77.7567 180.031C81.1705 180.031 85.7052 178.656 89.17 174.885V177.84C85.7052 180.898 81.5272 182.07 77.8586 182.07C67.6682 182.07 60.1273 174.07 60.1273 164.593C60.1273 154.81 67.9739 147.065 77.7567 147.065C84.2276 147.065 88.1509 150.53 89.17 151.498ZM95.5764 144.365H97.6145V181.509H95.5764V144.365ZM121.847 164.338V160.721H123.885V181.509H121.847V177.79C119.758 181 116.446 182.07 113.746 182.07C108.294 182.07 103.606 177.942 103.606 171.115C103.606 164.695 107.682 160.262 113.746 160.262C117.006 160.262 119.86 161.536 121.847 164.338ZM113.847 162.198C109.72 162.198 105.746 165.306 105.746 170.962C105.746 175.65 108.65 180.133 113.898 180.133C119.096 180.133 121.949 175.751 121.949 170.962C121.949 164.797 117.414 162.198 113.847 162.198ZM127.942 160.721H130.184L137.368 177.891L144.552 159.447L151.737 177.891L159.125 160.721H161.367L151.737 182.783L144.552 164.338L137.368 182.783L127.942 160.721Z" fill="#F7F7F7"/>
</svg>
