<svg id="Layer_1" class="svg-base" enable-background="new 0 0 100 100" viewBox="0 0 100 100" xmlns="http://www.w3.org/2000/svg"><path d="m89.890358 2.5116255-27.0675698 1.8203337c-1.7355957.1436372-3.3631477.9012885-4.5904045 2.1369128l-53.6206917 53.5811234c-2.7865462 2.7458382-2.8195453 7.2307281-.0737066 10.0172729.0243888.0247498.0489569.0493164.0737066.0737l25.2472324 25.2472382c2.7458382 2.7865448 7.2307205 2.8195419 10.0172691.0737152.0247498-.0243988.049324-.0489655.0737114-.0737152l53.5811157-53.6206932c1.2066116-1.2390366 1.9355927-2.8652458 2.0577698-4.5904083l1.8994827-27.0675659c.2249146-3.9712949-2.8121262-7.3729973-6.7834244-7.5979137-.2712778-.0153645-.5432047-.0153645-.8144907.0000001zm-8.2310715 23.0311735c-2.4040833 2.386631-6.2877274 2.3724899-8.6743546-.0315914s-2.3724823-6.2877197.0315933-8.6743507c2.3917084-2.3743467 6.2510452-2.3743467 8.6427612 0 2.3945848 2.4080066 2.3945848 6.2979373.0000001 8.7059421z"/></svg>