<svg id="Layer_1" class="svg-base" enable-background="new 0 0 512 512" height="512" viewBox="0 0 512 512" width="512" xmlns="http://www.w3.org/2000/svg"><g><path d="m27.73 148.457v100.353l91.589 52.885v-105.804l-91.239-52.667c-.231 1.722-.35 3.47-.35 5.233z"/><path d="m149.319 319.018 91.681 52.937v-105.824l-91.681-52.923z"/><path d="m256 134.326-91.667 52.909 91.667 52.915 91.667-52.915z"/><path d="m271 371.955 91.681-52.937v-105.81l-91.681 52.923z"/><path d="m483.919 143.224-91.239 52.667v105.804l91.589-52.885v-100.353c.001-1.763-.118-3.511-.35-5.233z"/><path d="m464.539 114.271c-21.002-12.136-53.397-30.848-86.865-50.175l-91.668 52.91 91.666 52.909 91.273-52.687c-1.392-1.076-2.861-2.067-4.406-2.957z"/><path d="m347.673 46.774c-27.225-15.718-53.099-30.652-71.925-41.509-6.089-3.51-12.918-5.265-19.747-5.265-6.83 0-13.66 1.755-19.752 5.267-18.411 10.639-44.358 25.619-71.902 41.518l91.653 52.902z"/><path d="m134.342 64.105c-32.938 19.013-65.136 37.6-86.866 50.157-1.551.894-3.024 1.888-4.419 2.968l91.271 52.686 91.666-52.909z"/><path d="m27.73 366.482c0 14.073 7.561 27.172 19.731 34.187l.015.009c18.407 10.636 44.326 25.601 71.843 41.485v-105.826l-91.589-52.885z"/><path d="m149.319 459.48c32.965 19.029 65.197 37.635 86.944 50.201 1.536.885 3.119 1.657 4.737 2.319v-105.403l-91.681-52.938z"/><path d="m271 511.998c1.623-.663 3.211-1.437 4.751-2.325 22.261-12.839 54.378-31.377 86.929-50.172v-105.842l-91.68 52.938z"/><path d="m392.681 442.177c27.952-16.142 54.009-31.194 71.843-41.5 12.186-7.023 19.747-20.123 19.747-34.195v-83.031l-91.589 52.885v105.841z"/></g></svg>