<svg xmlns="http://www.w3.org/2000/svg" version="1.1" xmlns:xlink="http://www.w3.org/1999/xlink" width="512" height="512" x="0" y="0" viewBox="0 0 512 512" style="enable-background:new 0 0 512 512" xml:space="preserve" class=""><g><path d="M256 2.708C116.329 2.708 2.629 116.329 2.629 256.079c0 138.166 112.117 252.896 252.738 253.213H256c70.231 0 133.574-28.583 179.34-74.506 45.765-45.924 74.032-109.267 74.032-178.706C509.371 116.329 395.75 2.708 256 2.708zm42.44 265.486c26.208-14.807 44.023-42.915 44.023-75.14 0-47.666-38.797-86.384-86.463-86.384-47.586 0-86.384 38.718-86.384 86.384 0 32.225 17.815 60.333 44.023 75.14-68.252 14.805-124.152 64.53-145.847 132.386-30.879-40.065-49.328-90.184-49.328-144.501C18.464 125.038 125.039 18.544 256 18.544c131.04 0 237.536 106.495 237.536 237.536 0 54.316-18.369 104.436-49.249 144.501-21.696-67.778-77.596-117.582-145.847-132.387z" fill="#ffffff" opacity="1" data-original="#000000" class=""></path></g></svg>