<svg id="Capa_1" enable-background="new 0 0 512 512" height="512" viewBox="0 0 512 512" width="512" xmlns="http://www.w3.org/2000/svg"><path d="m121 250.24h90v90h-90z"/><path d="m426 0h-340c-30.327 0-55 24.673-55 55v402c0 30.327 24.673 55 55 55h340c30.327 0 55-24.673 55-55v-402c0-30.327-24.673-55-55-55zm-273.746 93.759c-.029-4.416 3.543-8.011 7.96-8.011h3.527c4.396 0 7.96 3.564 7.96 7.96v69.236c0 4.396-3.564 7.96-7.96 7.96h-8.197c-2.699 0-5.215-1.368-6.682-3.634l-35.042-54.124.319 49.747c.028 4.416-3.544 8.011-7.96 8.011h-3.529c-4.396 0-7.96-3.564-7.96-7.96v-69.237c0-4.396 3.564-7.96 7.96-7.96h9.027c2.718 0 5.249 1.387 6.711 3.679l34.184 53.585zm-46.254 126.481h120c8.284 0 15 6.716 15 15v120c0 8.284-6.716 15-15 15h-120c-8.284 0-15-6.716-15-15v-120c0-8.284 6.716-15 15-15zm121.552-101.171c4.396 0 7.96 3.564 7.96 7.96 0 4.396-3.564 7.96-7.96 7.96h-25.363v19.747h28.447c4.396 0 7.96 3.564 7.96 7.96v.247c0 4.396-3.564 7.96-7.96 7.96h-40.357c-4.396 0-7.96-3.564-7.96-7.96v-69.236c0-4.396 3.564-7.96 7.96-7.96h39.247c4.396 0 7.96 3.564 7.96 7.96s-3.564 7.96-7.96 7.96h-27.337v17.402zm20.902-33.322h4.096c3.63 0 6.8 2.456 7.708 5.971l13.269 51.417 13.727-51.479c.929-3.485 4.085-5.909 7.691-5.909h7.775c3.6 0 6.752 2.417 7.687 5.894l13.842 51.494 13.154-51.401c.901-3.522 4.075-5.986 7.711-5.986h4.083c5.301 0 9.121 5.084 7.645 10.176l-20.068 69.236c-.986 3.403-4.103 5.744-7.645 5.744h-8.081c-3.578 0-6.716-2.387-7.671-5.835l-14.552-52.54-14.551 52.54c-.955 3.448-4.094 5.835-7.671 5.835h-8.081c-3.543 0-6.659-2.341-7.645-5.744l-20.068-69.236c-1.476-5.092 2.344-10.177 7.645-10.177zm-142.454 314.493h293c8.284 0 15 6.716 15 15s-6.716 15-15 15h-293c-8.284 0-15-6.716-15-15s6.716-15 15-15zm293-30h-109c-8.284 0-15-6.716-15-15s6.716-15 15-15h109c8.284 0 15 6.716 15 15s-6.716 15-15 15zm0-60h-109c-8.284 0-15-6.716-15-15s6.716-15 15-15h109c8.284 0 15 6.716 15 15s-6.716 15-15 15zm0-60h-109c-8.284 0-15-6.716-15-15s6.716-15 15-15h109c8.284 0 15 6.716 15 15s-6.716 15-15 15zm-14.766-77.856c-9.061 0-17.39-3.459-23.913-7.837-3.677-2.468-4.67-7.439-2.185-11.104l.853-1.259c2.466-3.637 7.377-4.536 11.05-2.123 5.35 3.515 11.434 5.662 16.045 5.662 6.417 0 11.354-3.086 11.354-8.762 0-5.801-6.294-8.022-9.997-9.38-3.702-1.357-10.119-3.579-12.958-4.813-2.098-.987-6.418-2.591-10.12-6.17-3.702-3.456-6.664-8.392-6.664-16.414 0-8.146 3.949-14.563 8.886-18.635 4.813-4.073 12.588-6.788 22.461-6.788 6.916 0 14.557 2.301 20.509 5.672 3.864 2.189 5.058 7.211 2.743 11.001l-.174.285c-2.259 3.698-7.057 4.905-10.802 2.722-4.075-2.375-8.674-3.884-12.771-3.884-6.417 0-11.106 2.468-11.106 7.652s4.813 7.158 8.639 8.639c3.702 1.481 9.997 3.703 12.712 4.814 10.861 3.949 18.512 10.983 18.512 23.325.001 18.388-16.536 27.397-33.074 27.397z"/></svg>