<svg id="Icon" class="svg-base" enable-background="new 0 0 100 100" height="512" viewBox="0 0 100 100" width="512" xmlns="http://www.w3.org/2000/svg"><path id="Open_Book" d="m96.922 17.697c-.683-.571-1.588-.813-2.458-.649 0 0-3.439.625-8.464 1.566v-10.614c0-.87-.378-1.696-1.034-2.266-.656-.568-1.523-.826-2.391-.703-.851.121-19.841 2.976-32.575 16.409-12.74-13.434-31.724-16.288-32.575-16.409-.866-.123-1.733.135-2.391.703-.656.569-1.034 1.396-1.034 2.266v10.615c-5.024-.941-8.464-1.566-8.464-1.566-.873-.157-1.774.081-2.458.649-.684.569-1.078 1.413-1.078 2.302v63c0 1.541 1.167 2.832 2.701 2.985.296.029 29.754 3.028 44.184 8.801.04.016.085.01.125.024.317.111.645.19.99.19s.673-.078.989-.19c.041-.014.085-.008.125-.024 14.43-5.773 43.888-8.771 44.184-8.801 1.535-.154 2.702-1.444 2.702-2.985v-63c0-.889-.394-1.733-1.078-2.303zm-16.922-6.012v57.045c-5.198 1.581-18.057 6.159-27 14.833v-56.406c8.317-9.819 20.962-13.99 27-15.472zm-60 0c6.038 1.483 18.68 5.654 27 15.474v56.405c-8.943-8.674-21.802-13.252-27-14.833zm-12 11.915c1.593.294 3.648.676 6 1.118v46.282c0 1.375.938 2.575 2.271 2.911.181.045 14.378 3.723 24.398 12.041-12.206-3.097-26.723-4.961-32.669-5.643zm84 56.709c-5.946.682-20.463 2.546-32.669 5.642 10.02-8.318 24.217-11.995 24.398-12.041 1.333-.335 2.271-1.535 2.271-2.91v-46.282c2.352-.441 4.407-.823 6-1.118z"/></svg>