<?xml version="1.0" encoding="UTF-8"?>
<svg id="Capa_1" xmlns="http://www.w3.org/2000/svg" version="1.1" viewBox="0 0 512 512">
  <!-- Generator: Adobe Illustrator 29.5.1, SVG Export Plug-In . SVG Version: 2.1.0 Build 141)  -->
  <defs>
    <style>
      .st0 {
        fill: #51afe2;
      }
    </style>
  </defs>
  <path class="st0" d="M492.45,237.02l-118.21,49c-6.45-15.52-15.89-29.61-27.79-41.48l90.53-90.53c23.8,23.73,42.65,51.95,55.48,83.01h0Z"/>
  <path class="st0" d="M512,335.02h-128.01c.04-16.82-3.27-33.48-9.75-49l118.21-49c12.93,31.05,19.57,64.36,19.55,97.99h0Z"/>
  <path class="st0" d="M512,335.02c.01,33.63-6.63,66.94-19.55,97.99l-118.21-49c6.45-15.53,9.77-32.18,9.75-49h128.01Z"/>
  <path class="st0" d="M137.71,384.01l-118.32,49C6.55,401.94-.04,368.64,0,335.02h127.96c-.02,16.82,3.29,33.47,9.75,49Z"/>
  <path class="st0" d="M436.98,153.96l-90.53,90.53c-11.88-11.89-25.97-21.33-41.48-27.79l49-118.27c31.03,12.91,59.24,31.77,83.01,55.53h0Z"/>
  <path class="st0" d="M255.97,78.99v128.01c16.81-.04,33.46,3.26,49,9.7l49-118.27c-31.07-12.85-64.37-19.46-97.99-19.44h0Z"/>
  <path class="st0" d="M255.97,78.99v128.01c-16.81-.04-33.46,3.26-49,9.7l-49-118.27c31.07-12.86,64.37-19.47,97.99-19.44h0Z"/>
  <path class="st0" d="M206.98,216.7c-15.54,6.44-29.64,15.9-41.48,27.84l-90.53-90.53c23.75-23.78,51.93-42.66,82.96-55.58l49.05,118.26Z"/>
  <path class="st0" d="M137.71,286.02c-6.48,15.52-9.79,32.18-9.75,49H0c-.05-33.62,6.54-66.92,19.39-97.99l118.32,49Z"/>
  <path class="st0" d="M165.5,244.54c-11.9,11.86-21.35,25.96-27.79,41.48l-118.32-49c12.89-31.04,31.78-59.23,55.58-82.96l90.53,90.48Z"/>
  <path class="st0" d="M296.31,296.7c-16.15-16.25-42.41-16.33-58.66-.17s-16.33,42.41-.17,58.66c16.15,16.25,42.41,16.33,58.66.17.06-.06.12-.12.17-.17,16.08-16.18,16.08-42.31,0-58.48Z"/>
  <path class="st0" d="M255.4,389.09l132.83-183.13c1.3-1.43,1.2-3.65-.23-4.95s-3.65-1.2-4.95.23l-176.85,139.06c-3.48,2.7-4.12,7.72-1.41,11.2.21.27.44.53.68.77l37.8,37.75c3.1,3.13,8.16,3.15,11.29.05.31-.3.59-.63.84-.98h0Z"/>
</svg>