<?xml version="1.0" encoding="UTF-8"?><svg id="Layer_1" xmlns="http://www.w3.org/2000/svg" width="729.51" height="234.57" viewBox="0 0 729.51 234.57"><path d="M726.31,190.47c-.47-1.43-.81-3.15-1.24-4.33-7.49-20.94-19.28-40.06-32.8-57.55-6.56-8.49-12.88-15.29-20.42-22.9-16.15-16.29-31.48-28.38-50.74-40.84-10.89-7.05-20.44-12.27-32.18-17.95-7.16-3.46-14.29-6.89-21.66-9.9-8.94-3.65-18.06-6.86-27.23-9.9-7.67-2.55-15.14-4.72-22.9-6.81C466.89,6.76,415.54.15,363.35,1.09l-31.9,2.15c-3.36.93-1.19,12.07-1.8,15.2-.39.16-1.33-.11-1.86,0h-.62c-.07-2.05.04-4.13,0-6.19-.04-1.97.53-6.28-.62-7.43-1.04-1.04-2.68-.69-4.02-.61-22.77,1.3-53.84,9.19-75.94,15.64-11.75,3.43-31.5,8.97-41.95,14.36-3.5,1.81-7.82,5.49-11.75,7.74-.68-.87-2-.54-3.07-.96-5.61-2.2-11.41-4.28-17.74-5.05-1.39-.17-6.27.38-6.62.31-17.4-3.35-42.03,8.77-54.87,22.14-6.2,6.46-11.97,16.09-15.8,25.05-.56,1.31-.7,4.59-1.02,5.87-.43,1.72-1.77,3.03-1.14,5.24-6.25,2.62-5.04,2.11-11.42,2.49-2.29.13-34.29,21.03-39.02,24.11-11.58,7.51-26.48,16.41-37.01,24.87-1.86,1.5-4.28,3.17-4.18,5.75.07,1.91,5.3,11.49,6.9,12.35,2.75,1.48,15.74,3.12,19.46,3.44,3.75.32,8.37-1.06,11.44,1.24-6.37.69-14.37-.31-20.42,1.24-1.64.42-5.08,1.42-4.95,3.09.31,3.98,6.6,8.42,8.98,11.13,6.94,7.91,13.31,16.37,20.41,24.15,2.84,3.11,12.65,11.45,13.93,14.22.03.07-.77.73-.07,1.56.36.42,6.03,5.24,6.42,5.4,3.41,1.39,7.1-1.16,8.89,2.23,37.81,1.26,75.76.76,113.68.62,12.84.34,25.73.51,37.91.06,5.99.06,9,.98,15.43-.58,1.28-.31,2.19,0,2.15-1.87,8.71-1.4,27.46-.03,36.26,1.17,35.37-.47,73.68,2.95,108.88.71,3.37-.21,4.4-.54,7.09-1.89,7.34.14,48.98-1.11,51.99.31.39.18.47.84.61.93,1.05.66,3.92.98,5.57,1.24.22.03,1.25,1.08,2.1.66h22.6c20.56.57,41.36.37,62.21-.02l149.16-.03c2.34-.91,6.53-.56,8.58-1.34.91-.34.8-1.6,1.46-1.76.96-.23,2.23.33,3.29-.28.6-.34,2.24-5.03,2.97-6.31,6.45-11.33,13.16-15.35,21.76-23.72.14-.14,1.2-.14,1.87-.88,2.38-2.62-.37-5.72-1.25-8.4ZM83.97,166.96,69.74,166.96,62.94,169.43,77.79,172.53" style="fill:none; stroke:#000; stroke-miterlimit:10; stroke-width:2px;"/></svg>