<?xml version="1.0" encoding="UTF-8"?><svg id="Layer_1" xmlns="http://www.w3.org/2000/svg" width="368.39" height="729.17" viewBox="0 0 368.39 729.17"><path d="M367.3,529.96c.07-6.32.08-12.68,0-19-.02-1.34.51-3.52-.8-4.34,0-2.89.01-5.81,0-8.7-.01-2.73.66-6.61-.79-8.7-.54-10.5-1.52-21.14-2.37-31.64-.16-1.95.18-3.96,0-5.92l-7.11-65.26c.33-53.74,3.26-107.25,4.74-160.96,1.02-37.02,3.78-73.66-2.36-110.32-1.43-8.54-2.49-15.56-5.95-23.71-1.22-2.87-3.69-10.16-6.71-7.92-.31.23-.53.61-.79.79-5.2-2.38-2.33-7.76-3.33-12.09-.49-2.13-2.61-3.63-3.79-5.31-13.95-19.7-37.8-33.89-59.58-43.64-6.43-2.88-21.83-9.65-28.21-10.14-5.01-2.37-11.05-4.06-16.44-5.31-6.13-1.41-12.89-2.95-19.15-3.39-3.11-1.66-26.7-4.16-27.69-3.17.11,3.94-.14,7.93,0,11.87-1.07-.19-5.27.27-5.54,0-.82-.82,1.48-10.85-1.29-11.76-2.89-.94-17.89,1-21.93,1.58-4.61.66-9.45,1.87-13.95,3.06-6.59.05-18.47,4.06-25.12,6.12-27.35,8.45-56.02,21.7-76.9,41.34-5.54,5.2-9.3,8.42-13.45,15.03-.86,1.38-2.48,2.02-2.98,4.53-.78,3.92,1.79,10.47-3.35,11.28-.12-.18.12-.6,0-.79-2.35-3.74-4.96,2.77-5.9,4.77-3.57,7.59-7.54,20.09-7.54,28.45-3.11,13.32-2.75,27.16-3.13,40.76-.66,23.58-.65,47.97,1.55,71.54.1,1.04-.11,2.13,0,3.16l-3.16,1.17c-.12,8.32-1.69,17.95-1.65,26.12.1,19.1,2.65,39.34,4.03,58.52.27,3.8.72,8.6,1.57,12.27.28,4.33,2.81,4.38,3.16,5.54.26.87.18,6.67,0,7.91-.37,2.65-2.08,4.1-2.41,7.47-1.65,16.51,1.75,36.41.82,53.81-1.87,35.1-8.09,68.96-8.69,104.8-.37,22.37.14,42.97,4.2,65,6.36,34.47,21.22,67.93,45.62,93.18,9.04,13.3,34.22,31.08,48.5,38.89,30.81,16.85,60.03,22.05,95.08,21.24,1.5-.03,3.08.37,4.32-.81,40.62.51,89.67-27.84,116.67-56.93,18.75-20.2,42.05-58.5,44.67-86.22,4.45-15.72,5.78-33.45,6.33-49.83,1.31-.82.79-3,.8-4.34Z" style="fill:none; stroke:#000; stroke-miterlimit:10; stroke-width:2px;"/></svg>