<?xml version="1.0" encoding="UTF-8"?>
<svg id="Layer_1" data-name="Layer 1" xmlns="http://www.w3.org/2000/svg" width="700.12" height="226.15" viewBox="0 0 700.12 226.15">
  <defs>
    <style>
      .cls-1 {
        fill: none;
        stroke: #26272b;
        stroke-miterlimit: 10;
        stroke-width: 2px;
      }
    </style>
  </defs>
  <path class="cls-1" d="M632.06,102.78C543.12,7.69,398.3-20.86,280.31,17.51c-41.46,3.93-84.25,41.46-125,35.86-1.32-1.27-4.02-.67-4.85.96-5.04-1.15-7.94-.21-11.63,1.94-5.62.12-9.14,3.58-14.54,5.81-.68,1.08-1.87,3.65-3.87,2.91-5.31.17-3.79,3.89-6.78,6.78-3.61-2.25-3.43.12-3.87,2.91-.01,3.66-3.12,3.11-5.65,4.05.9,5.27-4.22,5.88-5.01,10.49.1,5.56-9.56,6.03-13.56,9.69-27.29,17.43-61.82,30.67-84.31,52.32,6.56,12.02,24.56,8.07,16.73,15.01,12.88,13.74,55.68,59.23,74.74,57.72,143.13-2.48,285.94-1.85,430.81-1.99,5.13,2.82,166.2,7.89,161.82-6.78,4.81-11.16,15.38-16.85,13.57-29.08-20.45-29.19-41.11-58.55-66.86-83.33Z"/>
</svg>