<?xml version="1.0" encoding="UTF-8"?>
<svg id="Layer_1" data-name="Layer 1" xmlns="http://www.w3.org/2000/svg" width="366.54" height="699.67" viewBox="0 0 366.54 699.67">
  <defs>
    <style>
      .cls-1 {
        fill: none;
        stroke: #000;
        stroke-miterlimit: 10;
        stroke-width: 2px;
      }
    </style>
  </defs>
  <path class="cls-1" d="M365.44,492.19c-.02-.71.03-1.43,0-2.15-.13-3.33-.92-6.32-1.07-8.6-.05-.71.06-1.44,0-2.15-.06-.71.06-1.44,0-2.15-.2-2.37-.95-4.19-1.07-5.37-.07-.7.08-1.45,0-2.15-.04-.35.04-.72,0-1.07s.04-.72,0-1.07c-.27-2.2-.9-4.02-1.07-5.37-.29-2.25-.76-4.33-1.07-6.45-.1-.68.1-1.47,0-2.15-.05-.35.05-.72,0-1.07-.25-1.63-1-2.78-1.07-3.22-.06-.35.06-.73,0-1.07-.11-.68.11-1.47,0-2.15-.26-1.58-1-2.77-1.07-3.22-.34-2.09-.79-4.54-1.07-6.45-.05-.35.06-.73,0-1.07-.11-.66.05-1.45,0-2.15-.08-1.17.35-2.69-1.07-3.22.46-3.39-.75-5.03-1.07-7.52-.05-.35.05-.72,0-1.07-.28-2.04-.86-3.83-1.07-5.37-.05-.35.05-.72,0-1.07-.28-2.01-.88-3.89-1.07-5.37-.05-.35.05-.72,0-1.07-.27-2.07-.94-4.19-1.07-5.37-.04-.35.04-.72,0-1.07-.12-1.05.11-2.17,0-3.22-.21-1.97-1.01-3.7-1.07-4.3-.07-.7.07-1.44,0-2.15-.47-4.91-.73-10.1-1.07-15.04-.34-4.88-.86-10.31-1.07-15.04-.02-.36.02-.72,0-1.07-.08-1.78.06-3.59,0-5.37-.01-.36.01-.72,0-1.07-.06-1.79.04-3.58,0-5.37,0-.36,0-.72,0-1.07-.02-.72,0-1.43,0-2.15-.01-1.07,0-2.15,0-3.22,0-.36,0-.72,0-1.07,0-1.79,0-3.58,0-5.37,0-1.43-.02-2.87,0-4.3.01-.72-.02-1.43,0-2.15,0-.36,0-.72,0-1.07.02-.72-.02-1.43,0-2.15,0-.36,0-.72,0-1.07s0-.72,0-1.07c.05-1.79-.03-3.58,0-5.37l2.15-36.53c-.4-.46-.87-2.05-1.07-2.15.3-.74.8-1.41,1.07-2.15,1.59-4.24,1.03-7.44,1.07-11.82.01-1.07.01-2.15,0-3.22,2.03-1.83.9-5.86,1.07-8.6,2.62-41.2,4.83-79.35,4.32-120.89-.02-1.82.69-4.78-1.09-5.89-.46-18.34-1.4-40.45-5.69-58.24-1.21-5.02-2.92-7.73-6.13-11.6-1.3-1.57-1.97-2-3.22-3.22-.67-.65-1.64-1.71-2.15-2.15-2.28-1.94-3.55-2.05-5.37-3.22-1.31-.84-1.97-2.02-4.3-3.22-.71-.37-1.42-.74-2.15-1.07-5.42-2.48-11.23-3.35-16.12-5.37-2.89-1.2-6.33-2.97-9.67-4.3-2.37-.94-4.77-2.17-7.52-3.22-2.39-.92-4.47-1.41-6.45-2.15-.74-.28-1.41-.8-2.15-1.07-2.9-1.07-5.53-1.42-7.52-2.15-.88-.32-2.37-1.44-4.3-2.15-3.16-1.16-6.01-3.41-9.67-3.22-.13-.11.61-1.34-.73-2.16-3.48-2.12-37.58-16.92-41.15-17.73-2.67-.6-7.55-1.76-8.61,1.62-.09.29.05.7,0,1.07-1.81,5.98-1.31,14.07-1.07,20.41-.77.29-2.46-.29-3.22,0-.04-.62-.9-2.24-1.08-3.72-.27-2.22.43-5.14,0-7.03-.45-2.03-1.85-1.69-3.22-2.15-2.76-.93-4.76-.87-7.52-1.07-.71-.05-1.44.03-2.15,0-1.12-1.78-4.08-1.07-5.89-1.09-5.12-.05-29.12-.39-31.16,4.27-1.04,2.36-.68,6.98-.55,9.71l-4.3,1.07c-.06-5.33,1.06-17.7-1.07-21.49-.19-.33-.74-.89-1.07-1.07-4.51-2.55-10.6.92-15.04,3.22-1.18.61-2.39,1.03-3.22,2.15-1.27.14-2.18.79-3.22,1.07-4.18,1.16-8.02,3.37-11.82,5.37-.78.41-2.11.41-3.22,1.07-.38.22-.69.77-1.07,1.07-.37.3-1.48.28-2.15,1.07-1.55-.34-2.18.49-3.22,1.07-1.67.94-2.34,1.42-4.3,2.15-2.81,1.05-5.87,2.19-8.6,3.22-4.69,1.77-9.31,3.57-13.97,5.37-2.84,1.1-5.73,2.1-8.6,3.22-.92.36-1.61.86-2.15,1.07-4.65,1.85-9.29,3.43-13.97,5.37-2.56,1.06-5,2.15-7.52,3.22-2.66,1.14-6.5,1.73-9.67,3.22-.72.34-1.43.72-2.15,1.07-.71.36-1.46.68-2.15,1.07-4.87,2.74-5.86,3.88-9.67,7.52-.37.35-.72.71-1.07,1.07-.35.36-.74.69-1.07,1.07-1.56,1.81-1.92,2.33-3.22,4.3-2.39,3.61-3.08,3.54-4.3,8.6-1.5,6.22-2.42,14.97-3.22,21.49-3.43,27.97-4.91,59.43-4.33,87.63.26,12.6,4.04,34.38,2.18,45.6-.04.25-.89,1.13-1.07,2.15-.92,5-1.86,6.85-2.15,12.89-.02.36.01.72,0,1.07-.69,20.64,2.15,45.83,4.3,66.62.26,2.52-.51,5.35.22,7.84.72,2.46,4.49,3.38,5.12,6.69.74,3.84-.1,7.68-1.05,11.26-.11.43-.83,1.16-1.07,2.15-.08.31-.91.91-1.07,2.15-1.2,8.98,1.07,18.8,1.07,27.4v32.23c0,1.73-1.32,4.61-1.07,8.06.02.35-.06.74,0,1.07-1.67.76-.96,2.9-1.07,4.3-.03.36.05.72,0,1.07-.09.7.09,1.45,0,2.15-.04.31-.84,1.66-1.07,3.22-.1.68.11,1.47,0,2.15-.05.35.05.72,0,1.07-.26.22-.28.4-.1.54-.25,1.35-.72,2.92-.97,4.84-.05.35.04.72,0,1.07-.1.81-.91,2.03-1.07,4.3-.05.7-.02,1.45,0,2.15l-.98.62c-.47,1.46.18,3.4-.09,4.75-.07.34.06.73,0,1.07-.1.56-.89,1.37-1.07,3.22-.03.35.02.72,0,1.07-.02.34-.04.74,0,1.07.04.37-.08.77,0,1.07-1.72.77-.9,2.94-1.07,4.3-.05.35.05.72,0,1.07s.05.72,0,1.07c-.05.36-.9,1.43-1.07,3.22-.06.67-.05,1.47,0,2.15.03.35-.07.75,0,1.07-1.66.5-.96,1.82-1.07,3.22-.09,1.05,0,2.16,0,3.22,0,.35-.04.73,0,1.07.04.37-.07.76,0,1.07-1.79,1.16-1.07,4.42-1.07,6.45,0,.71-.03,1.44,0,2.15-.41.14-.89-.09-.98.6-.34,2.3.04,4.63-.09,6.92-.02.36,0,.72,0,1.07,0,.71-.04,1.44,0,2.15.02.36-.04.72,0,1.07.04.37-.07.76,0,1.07-1.96,2.47-1.06,7.37-1.07,10.74-.02,4.28-.12,8.62,0,12.89.1,3.64.93,7.09,1.07,9.67.02.36-.02.72,0,1.07.04.71-.05,1.44,0,2.15.03.36-.03.72,0,1.07.11,1.42-.14,2.89,0,4.3.14,1.48.79,2.54,1,3.02,0,.08.02.16.07.2.08.7-.09,1.45,0,2.15.04.35-.05.72,0,1.07.29,2.21.83,3.82,1.07,5.37.05.35-.06.73,0,1.07.29,1.77.67,3.31.99,4.96-.1.12-.09.26.08.42.34,1.83.68,3.46,1.05,5.24-.02.05-.02.09.03.13.07.34-.07.73,0,1.07.32,1.49.92,2.53,1.07,3.22.08.34-.08.73,0,1.07s-.08.74,0,1.07c.24,1.03.97,1.75,1.07,2.15.09.34-.09.74,0,1.07.3,1.15.68,2.03.95,2.83-.09.11-.07.24.13.4.36,1.27.78,2.25,1.07,3.22.1.33-.1.75,0,1.07.1.33-.1.75,0,1.07.31.99.92,1.66,1.07,2.15.11.32-.11.75,0,1.07.3.92.84,1.54,1.07,2.15.21.55-.21,1.64,0,2.15.26.61.73,1.74,1.07,2.15.32.39.49.95,1.07,1.07v1.07c1.41,3.81,2.47,8.86,5.37,11.82,6.2,6.32,9.29,10.25,11.82,19.34.03.11-.87.89-.48,2.13.78,2.48,6.66,9.83,9.07,11.84.25.68.69,1.53,1.07,2.15,1.19,1.94,2.59,2.39,3.22,3.22,4.55,6.02,7.4,8.87,12.89,13.97,3.51,3.26,7.22,5.81,10.74,8.6,4.5,3.56,7.16,5.43,11.82,8.6,4.27,2.9,8.27,7.77,13.97,8.6,2.91,2.95,4.66,2.77,7.52,4.3,4.03,2.15,8.28,4.95,12.89,5.37.87.6,1.48.71,2.15,1.07,4.64,2.56,9.72,4.71,15.04,5.37,4.32,1.64,7.47,2.19,11.82,3.22,1.39.33,3.09.84,4.3,1.07,9.58,1.88,19.26,3.11,29.01,3.22,3.8.04,8.11.29,11.82,0,5.17.61,10.01-.49,15.04-1.07,2.61-.3,4.95-.67,7.52-1.07,2.2-.35,4.26-.65,6.45-1.07,1.81-.35,3.57-.66,5.37-1.07,4-.92,7.89-2.07,11.82-3.22,4.39-1.28,8.62-2.71,12.89-4.3,1.06-.39,2.14-.65,3.22-1.07,3.32-1.32,6.44-2.81,9.67-4.3,4.13-1.91,7.87-4.27,11.82-6.45,5.2-2.86,10.07-5.24,15.04-8.6,4.82-3.26,7.73-6.34,11.82-9.67,7.1-5.78,15.56-10.84,20.41-19.34,3.9-3.45,15.09-16.33,15.01-20.89-.02-1.2-.86-1.99-1.04-2.75,2.8-1.81,3.07-5.29,4.3-7.52.2-.36.84-.66,1.07-1.07.77-1.34,1.62-3.51,2.15-4.3,2.21-3.3,2.73-2.61,4.3-4.3,5.84-6.29,7.23-15.69,9.67-23.64,2.65-8.63,4.84-15.54,6.45-24.71,2.5-14.22,2.97-25.4,3.22-39.76.09-5.31.18-10.77,0-16.12Z"/>
</svg>