<?xml version="1.0" encoding="UTF-8"?><svg id="Layer_1" xmlns="http://www.w3.org/2000/svg" width="748.96" height="249.77" viewBox="0 0 748.96 249.77"><path d="M723.38,161.79c-3.99-5.37-8.82-10.35-13.23-15.38-7-7.97-18.23-21.6-27.4-26.59-.88-1.85-2.55-2.8-4.03-4.03-2.83-2.36-6.11-4.31-8.86-6.45-29.17-22.63-65.88-47.67-99.92-62.05-6.72-4.07-14.03-7.44-21.21-10.62C492.96,11.95,432.73-1.47,371.32,1.38c-7.29.34-26.62,1.6-31.84,4.83-.3.19-.52.61-.81.81-.91-1.89-1.68-1.72-3.55-1.63-7.76.38-19.3,3.4-27.22,5.1-42.6,9.17-81.93,23.69-121.01,42.57-7.66,3.7-15.3,8.82-23.08,11.97-1.19.02-2.24-1.47-3.28-1.28-2.25.4-1.43,2.93-3.59-1.15-4.15,3.02-2.78-.22-3.63-.79-.8-.54-2.25,1.35-2.8,1.33-.6-.02-1.3-1.37-2.27-1.22-1.34.21-2.76,3.69-3.8-.93-3.47,3.55-2.73,1.26-4.56.95-1.01-.17-1.63,1.12-2.28,1.19-1.91.21-1.97-3.37-4.03,1.09-1.02.23-2.22-1.61-2.4-1.61-.95.02-.77,4.76-4.03.81-1.87,4.04-2.05,1.57-3.62,1.6-1.26.02-2.12,3.17-2.82,3.2-.32.01-1.45-2.13-2.81-1.59-.15,5.62-2.81,1.31-3.21,1.61-.67.5.2,3.67-4.04,1.61v3.22c-4.91-2.34-3.02,1.66-4.04,2.42-.13.1-2.31-1.15-3.21-.82v3.23s-3.22-.8-3.22-.8v3.23s-3.22-.81-3.22-.81l-.02,4.03-3.21-.8.8,3.21h-3.23s.81,3.22.81,3.22c-5.41-1.16-2.25,2.85-3.31,3.99-.58.63-3.88-1.48-1.53,3.26h-3.22c2.17,6.22-.79,3.27-1.62,4.04-.52.49,2.92,3.99-2.41,4.03,2.03,2,.87,2.21.8,3.21-3.97,4.2-9.52,6.63-14.5,9.67-2.51.73-5.79,1.82-7.25,4.03-.55.24-1.07.55-1.61.81-13.35,6.36-29.84,15.38-42.33,23.35-3.75,2.39-14.12,8.84-14.12,13.32,0,3.19,2.96,4.74,3.02,5.64.03.43-1.24.92-.87,2.62.72,3.26,2.7,3.27,5.14,4.23,1.61.64,8.01,1.91,8.06,3.22-2.3.32-4.51.59-6.84.83-1.18.12-2.36-.71-2.02,1.17,9.75,12.59,18.29,26.12,28.59,38.29,1.1,1.3,2.8,2.26,3.64,3.22,4.74,5.46,15.16,19.01,20.68,22.43,3.95,2.45,17.06,5.12,22.03,5.77,6.21.81,47.06,1.88,49.96,0,.51-.33.67-1.9,2-1.67,120.71,1.04,241.54-1.06,362.22.86,2.42.04,7.26-.5,9.11-.02.84.22.77,1.93,1.87,2.32,5.85,2.05,19.38.13,25.66.09,8.74-.07,17.49.07,26.22.03,36.46-.15,81.45,1.87,116.84-3.22,3.04.53,5.47-.33,8.06-.81,1.4-.26,2.66-.52,4.03-.81,1.68-.35,2.79-1.28,4.03-1.61,1.06-.29,2.95.25,4.34-.07,7.66-1.8,31.49-18.05,39.6-23.28,1.05-.68,2.23-1.21,2.8-2.44.58-.25,1.07-.55,1.61-.81,3.47-1.64,7.03-2.1,4.83-7.25.21-.29.55-.54.81-.81.31-.33,1.28-.36,1.51-1.32,1.09-4.58-20.42-38.19-24.54-43.74Z" style="fill:none; stroke:#000; stroke-miterlimit:10; stroke-width:2px;"/></svg>