<?xml version="1.0" encoding="UTF-8"?><svg id="Layer_1" xmlns="http://www.w3.org/2000/svg" width="691.7" height="226.82" viewBox="0 0 691.7 226.82"><path d="M690.7,189.71c-.07-1.34-2.22-6.76-2.85-8.48-15.59-42.72-51.09-80.07-87.67-105.92-4.81-3.4-10.78-8.02-16.07-10.32-5.51-4.1-11.59-7.48-17.6-10.79-8.53-4.7-17.27-8.98-26.11-13.06-5.77-2.66-11.5-5.52-17.6-7.38-6.98-3.74-17.58-7.1-25.25-9.66C449.42,8.01,393.41-1.01,342.52,1.38c-1.48.07-9.18.71-9.68,1.1-1.22.96-.87,4.67-.8,6.3-.83.15-1.94-.08-2.83,0-.49-2.83.55-6.33-3.13-6.29-7.22.08-17.52,1.88-24.89,2.98-26.23,3.91-54.76,11.08-79.59,20.33-5.8,2.16-10.65,3.88-15.03,8.53-1.61.59-2.65,1.95-3.83,2.18-1.03.2-1.39-.41-1.85-.48-2.72-.41-1.92-.62-3.41-1.7-1.18-.86-1.98-.61-3.41-.57-.23-.14-.37-.4-.57-.57-1.5-1.23-1.02-.81-3.41-.57-.21-.11-.38-.48-.57-.57-1.46-.72-2.28-.7-3.97-.57-.21-.1-.37-.46-.57-.57-1.46-.82-1.76-.17-3.41,0-.22-.13-.37-.44-.57-.57-1.56-1.02-1.07-.07-1.7,0-2.25.26-4.7-.59-6.81-.57-.08-.85-1.62-.85-1.7,0-.33.02-1.05.52-1.7.57-1.46-2.1-2.49-.16-4.26-.01-.14,0-.24,0-.29.01-.18.03-.38-.02-.57,0-.83-1.5-2.11.45-3.09.5-6.89.35-16.12,3.62-22.03,6.45-1.98.95-4.38,3.32-5.08,3.72-.72.4-1.9-.18-2.62.23-.19.11-2.44,2.07-3.25,2.71-4.01,3.13-6.84,6.97-10.62,10.67-.51.5-1.75.4-2.03.81-.28.42,0,1.47-.4,2.13-.29.48-4.5,4.31-4.71,4.68-.41.72.18,1.9-.23,2.62-.39.69-2.75,3.17-3.72,5.08-2.21,4.35-4.12,10.41-5.74,15.32-.32.96-.64,1.32-.08,2.42-1.83.67-3.82,1.06-5.68,1.7-5.8-1.03-9.79,2.34-14.57,5.01-15.62,8.72-31.53,18.7-46.69,28.25-8.46,5.32-21.94,12.64-29,18.97-5.01,4.5-3.85,4.34-1.14,9.65.74,1.44,3.03,6.33,4,7.07,2.44,1.87,9.8,1.31,10.76,3.72,2.03,5.09-.72,2.21-3.41,3.97-2.1,1.38-1.81,1.34-.87,3.42,1.83,4.03,6.17,7.16,8.82,10.77,1.32,2.11,2.87,3.51,3.97,5.11l.47.7c.23.35.47.71.67,1.01,5.29,7.58,19.46,28.93,26.86,32.46,2.21,1.05,4.01,1.03,6.06,1.6,5.2,1.44,5.68,1.55,11.35,1.7.74,1.69,2.61,2.08,4.26,2.27,10.42,1.17,25.11-.03,36.05,0,40.42.12,81,.26,121.35-.43l1.85-1.84c14.5.06,29.23-.69,43.39,1.18,34.62,4.57,74.33-1.17,109.64,1.12,24.38-3.92,50.68-2.23,75.77-2.29l1.85,1.84c62.8.71,125.96.72,188.76,0,.94-.16,1.45-1.56,1.85-1.84,1.52-.03,5.94.34,6.84-.26,3-9.18,8.18-17.35,15.61-23.57,2.75-2.3,5.95-4.06,8.78-6.26.44-.34.74-.04,1.7-1.14.55-.63,1.06-.84,1-1.88ZM157.75,49.09c5.11-1.04,6.71.5,7.38,5.68-13.23,6.84-26.73,13.15-39.74,20.44-3.95,2.21,1.05-4.28,1.8-5.3,6.64-9.01,19.49-18.57,30.56-20.82Z" style="fill:none; stroke:#000; stroke-miterlimit:10; stroke-width:2px;"/></svg>