<?xml version="1.0" encoding="UTF-8"?><svg id="Layer_1" xmlns="http://www.w3.org/2000/svg" width="359.54" height="691.59" viewBox="0 0 359.54 691.59"><path d="M346.23,350.47c-1.2-33.49,2.45-66.05,2.77-99.09,1.27-2.83.67-7.03.69-10.28,0-.23,0-.46,0-.69,1.27-2.82.68-7.03.69-10.28,0-.23,0-.46,0-.69,1.27-3.3.68-7.94.69-11.65,0-.23,0-.46,0-.69,1.27-4.13.68-9.32.69-13.71,0-.23,0-.46,0-.69,1.26-4.61.68-10.23.69-15.08,0-1.37,0-2.74,0-4.11,0-14.58.42-29.31,0-43.88-.39-13.63-1.76-27.48-6.17-40.45-.52-3.07-1.81-7.67-3.43-10.28.4-1.35-2.18-6.13-3.09-6.16-.41-.01-.75,1.07-1.03,1.36-.21.22-.46.52-.69.69-4.78-2.33-1.92-8.25-2.89-12.54-1.47-6.57-20.15-24.46-25.91-29.28-7.75-6.5-16.48-11.68-25.37-16.45-19.58-10.52-39.84-17.09-61.7-21.25-9.13-1.74-18.41-3.61-27.77-4.11-2.23-.12-10.14-.49-11.31.68-1.61,1.61-.24,8.4-.69,10.97-.09.21.11.58,0,.69l-5.48-.69c.07-2.41.46-8.4,0-10.28-.48-1.99-3.29-1.29-4.8-1.37-4.46-.23-10.23.26-14.74.69-6.71.64-13.68,1.85-20.23,3.42-.45.03-.92-.05-1.37,0-1.3.14-1.95.67-2.06.69-17.77,3.1-33.24,8.78-49.36,16.45-10.18,4.85-16.82,8.62-26.05,15.08-9.48,6.64-32.96,25.62-34.28,37.36-.14,1.27.75,11.37-2.47,10.07-.08-.05-.17-.1-.27-.13-.07-.04-.1-.81-.69-1.37-.41-.4-.16-1.28-1.39-.37-2.22,1.63-5.18,13.6-6.15,16.82l-.17.51c-.16.44-.35.93-.52,1.55-.06.21.06.47,0,.69l-.14.43c-.16.42-.37.95-.54,1.63-.05.21.05.47,0,.69l-.09.26c-.15.39-.42.99-.6,1.8-.09.41.08.95,0,1.37-.04.18-.49.98-.69,2.06-.04.22.04.46,0,.69l-.12.5c-.16.56-.43,1.32-.56,2.24-.06.44.06.93,0,1.37l-.05.19c-.14.45-.54,1.35-.64,2.55-.04.45.01.92,0,1.37-1.15.75-.67,2.82-.69,4.11,0,.69,0,1.37,0,2.06-1.24,1.35-.67,4.24-.69,6.17,0,.23,0,.46,0,.69-1.26,1.81-.67,5.17-.69,7.54,0,1.83,0,3.66,0,5.48-.01,9.36,0,18.75,0,28.11,0,2.51,0,5.03,0,7.54,0,4.86-.58,10.47.69,15.08.03,5.84.16,10.68.69,16.45.49,5.3-.79,2.49-2.75,3.75-1.46.93-2.1,10.23-2.07,12.39.14,14.67,2.95,31.7,4.14,46.6,1.09,13.7.77,29.9,2.79,43.14.52,3.43,1.56,2.37,3.39,3.13.78,4.26-.59,7.26-1.37,10.97-.18.87-.49,1.71-.69,2.74-2.36,12.42-.55,31.27-.66,45.23l-.03,2.08c0,.23,0,.46,0,.69l-4.8,45.93c-5.77,43.54-9.21,88.51,3.25,131.47,6.32,21.81,17.05,43.83,31.72,61.18,2.12,6.81,25.62,27.47,32.29,32.49,93.86,70.73,226.6,32.14,270.05-75.69,30.55-75.83,5.51-150.8,2.71-228.61Z" style="fill:none; stroke:#000; stroke-miterlimit:10; stroke-width:2px;"/></svg>