<?xml version="1.0" encoding="UTF-8"?><svg id="Layer_1" xmlns="http://www.w3.org/2000/svg" width="743.93" height="236.24" viewBox="0 0 743.93 236.24"><path d="M741.93,201.93c.86-1.93.19-3.82-.26-5.77-7.75-33.83-30.96-72.83-54.77-97.81-3.21-3.37-7.8-8.13-11.57-10.72-.89-1.55-2.38-2.51-3.67-3.67-3.45-3.11-7.37-6.59-11.01-9.44-2.69-2.1-5.65-3.79-8.39-5.77-43.83-31.65-102.9-52.31-156.15-61.2-6.83-1.14-14.75-2.53-21.61-2.77l-17.05-2.09c-56.12-3.86-114.08-1.87-168.16,14.31-7.45,2.23-17.44,4.46-22.96,9.81-3.47,2.54-9.44,10.73-11.95,12.04-2.12,1.12-8.13,1.71-11.12,2.64l-26.74,4.72c-4.37.72-7.96,2.34-12.06,3.67-3.15,1.02-6.33,2-9.44,3.15-30.73-6.86-60.62,7.79-76.03,34.61-.69.54-1.41,1.02-2.1,1.57-1.54.2-3.26,1.18-4.66,1.9-5.54,2.83-10.9,6.18-16.32,9.11-7.98,4.31-15.76,8.54-23.6,13.11-1.78,1.04-3.49,2.09-5.24,3.15-.88.53-1.74,1.04-2.62,1.57-3.94,2.39-7.68,4.13-11.54,6.82-1.08.75-2.01,1.17-3.15,2.1-3.95,1.89-7.77,4.29-11.49,6.6-7.17,4.45-14.66,9-21.54,13.85-4.61,3.25-6.27,4.04-8.91,9.44-.87,1.78-3.22,6.29.79,6.29h18.61c.22.98-.32,1.02-.87,1.49-1.86,1.6-6.43,4.84-8.57,5.85-9.75.14-15.77-1.31-16.71,10.29-.61,7.54,2.34,5.09,8.32,5.44.2,2.01-2.34.43-4.19,1.57-.38.24-.85.3-.98.87-.52,2.18,9.91,18.17,11.88,21,3.65,5.26,8.7,12.27,12.96,16.93,2.05,2.24,2.82,2.92,5.51,4.19,5.91,2.78,13.15,2.71,19.64,3.69,9.72-.27,19.46-.41,29.22-.47,15.1.16,30.26.23,45.46.25,43.58.59,87.29,1.79,130.4.22,1-.04,1.98.03,2.86-.55,129.58.04,259.31.14,388.55-1.57,19.64-.26,39.97.44,59.54-.5,11.37-.55,21.94-3.56,28.36-13.59,2.88-4.51,5.97-11.31,3.34-16.32Z" style="fill:none; stroke:#000; stroke-miterlimit:10; stroke-width:2px;"/></svg>