<?xml version="1.0" encoding="UTF-8"?><svg id="Layer_1" xmlns="http://www.w3.org/2000/svg" width="373.67" height="743.2" viewBox="0 0 373.67 743.2"><path d="M367.35,485.28c-2.02-28.05-2.84-56.09-3.13-84.16.17-6.23.06-12.88-.13-19.59-.03-11.98,0-23.96.06-35.96.05-11.4-.17-22.84,0-34.23.86-59.06,3.85-118.3,6.4-177.11.64-14.79,3.74-39.83.76-52.98-5.49-24.25-23.92-40.4-45.38-50.95C273.77,4.62,205.39-3.53,148.1,3.31c-5.44.65-11.15,1.6-16.42,3.08-.26,0-.53-.02-.8,0-3.98.24-7.37,1.62-11.15,2.39-9.97,2.03-19.7,4.3-29.46,7.17-2.35.69-4.39,1.76-6.37,2.39-.82.26-1.59.53-2.39.8-29.26,9.61-57.96,21.23-69.27,52.55-4.82,13.34-3.42,28.32-3.22,42.63.49,33.81,2.78,67.97,3.26,101.84.16,11.38-.23,22.78,0,34.16-.15.55-1.69.81-2.42,1.31-.95.64-2.53.94-3.24,1.93-1.55,2.17-.63,28.67-.74,33.9-.26,12.61-2.08,25.28-.15,37.65.04.49.1.87.19,1.1.39,2.22.89,4.44,1.56,6.64.18.6-.13,1.66,0,2.39-.56,2.92-1.44,6.17-1.62,9.12-.88,14.54-.04,31.06.03,45.81.02,3.97-.08,7.98,0,11.94-1.92,4.47-.06,11.64,3.18,15.13.68.73,2.24.59,2.43,1.31.31,1.14-.11,3.56-.04,5.06-2.29,4.57.18,10.12.08,14.76-.03,1.4-.88,2.78-.88,3.15v12.74c0,5.33-1.63,11.71-1.59,17.91l-3.18,22.7c-.67,14.5-3.65,28.86-3.99,43.38-1.32.83-.8,3.02-.81,4.37-.3,29.04,2.87,46.89,13.55,73.66,5.31,13.31,11.17,26.84,19.9,38.22,1.5,4.06,4.04,6.26,6.37,9.55,4.49,6.34,9.3,13.21,15.13,18.31.79,2.13,11.18,12.76,13.52,14.75.98.84,1.97,1.55,3.2,1.97,1.61,3.62,14.44,11.84,18.31,14.33,9.31,5.99,19.19,11.32,29.47,15.51,5.11,2.09,21.74,8.55,26.26,8.37,4.64,2.17,10.14,2.47,15.13,3.18,9.37,1.33,15.95,1.62,25.48,1.59,3.51,0,8.15.68,11.15-.8,22.82-.3,45.1-7.31,65.29-17.52,4.06-2.05,8.9-3.36,11.94-7.17,2.41-.76,4.97-2.71,7.17-3.98,2.46-1.43,4.01-2.36,6.37-3.98,2.29-1.57,4.91-3.81,7.17-5.57,7.64-5.97,12.47-10.42,19.11-17.52,4.6-4.93,7.93-9.11,11.94-14.33.8-1.03,1.61-2.13,2.39-3.18,5.56-7.54,9.57-13.36,14.33-21.5,15.52-26.56,27.53-56.22,27.87-87.58,2.28-22.47-3.11-50.53-4.77-73.65Z" style="fill:none; stroke:#000; stroke-miterlimit:10; stroke-width:2px;"/></svg>