<?xml version="1.0" encoding="UTF-8"?><svg id="Layer_1" xmlns="http://www.w3.org/2000/svg" width="729.96" height="234.94" viewBox="0 0 729.96 234.94"><path d="M728.93,196.51c-.33-3.55-5.13-14.57-6.81-18.47-5.98-13.91-15.07-28.84-23.79-41.25-14.2-20.21-33.41-39.15-52.82-54.4-16.5-12.96-34.36-24.61-53.61-33.11-1.61-1.03-2.6-2.05-4.73-3.15-17.03-8.82-45.84-18.04-64.65-23.65-2.66-.79-5.16-1.64-7.88-2.37-12.74-3.4-25.7-6.09-38.63-8.67-.17-.03-1.21-.56-2.37-.79-1.84-.36-4.25-.41-6.31-.79-.12-.02-1.15-.57-2.37-.79-.72-.13-1.64.13-2.37,0-.12-.02-1.09-.58-2.37-.79-.97-.16-2.18.16-3.15,0-.12-.02-1.02-.58-2.37-.79-.74-.11-1.62.11-2.37,0l-.47-.12c-.63-.18-1.62-.52-2.68-.67-1-.14-2.15.13-3.15,0-.12-.02-.9-.61-2.37-.79-1.02-.13-2.13.12-3.15,0l-.2-.05c-.51-.15-1.73-.61-2.96-.74-1.29-.14-2.65.13-3.94,0-.6-.06-2.27-.64-3.94-.79-1.3-.11-2.64.1-3.94,0-.42-.03-2.2-.7-3.94-.79-1.83-.1-3.69.03-5.52,0-.86-1.32-3.24-.77-4.73-.79-2.36-.03-4.74.02-7.1,0-1.55-1.43-4.87-.77-7.1-.79-6.55-.04-13.15-.06-19.71,0-1-1.3-4.52-1.3-5.52,0-4.98.07-10.01-.15-14.98,0-.28,0-.6.03-.94.06-2.37.02-5.3-.75-6.95.73-2.09.07-4.21-.03-6.31,0-1.49.02-3.87-.54-4.73.79-11.71.31-8.26,1.93-8.67,12.26-.06,1.52.81,3.16-1.58,2.72,0-.12-.59-1.44-.79-2.37-.14-3.95.55-8.02-.82-11.81-28.2,3.36-56.17,8.95-83.35,17.12-16.74,5.03-30.16,9.61-45.12,18.34-1.32.77-2.64,1.61-3.94,2.37-1.05-.5-2.4-.05-3.37-.33-4.74-1.36-9.52-4.07-14.51-4.91-22.69-3.81-43.97,3.6-61.07,18.16-11.01,9.38-19.13,22.72-22.75,37.53-.23.96.59,2.41-.49,3.23-3.36,2.55-8.98,1.96-12.87,2.72-15.96,10.02-32.09,19.82-47.76,30.29-4.6,3.08-28,18.12-29.59,20.87-1.73,2.99,3.17,13.39,5.61,14.97,3.38,2.19,15.3,2.35,19.66,2.81.16.02.89.72,1.91.82,3.07.3,8.08-1.33,9.92,1.54-6.79.43-13.93-.91-20.5.8-1.76.46-3.51.86-4.73,2.37-1.43,1.76,3.03,7,4.42,8.59,12.35,14.11,25.37,28.05,38.15,41.87.15.17.1,1.29.74,1.99,6.26,6.89,13.03,4.38,20.9,8.3l156.23.02c1.12.52,2.3-.77,2.67-.84,2.12-.44,5.53-2.38,5.86-2.43,5.93-.78,24.79-.68,30.82.04,3.5.42,6.66,2.12,10.98,2.43,34.22,2.39,72.08-1.24,106.5-.8l3.52-1.61c15.79.23,41.99-2.23,55.98,1.58.12.03.38,1.06.82,1.16l239.3.47c1.84-.62,5.03-1.07,6.65-1.63.22-.08.53-1.16,1.42-1.51,1.02-.41,2.53.35,3.74-.82.77-.75,1.31-3.63,2.08-5.01,5.53-9.93,12.43-16.32,21.14-23.4v-.79c2.63-.27,4.08-1.08,3.79-4.14ZM147.25,65.05c-3.94-.13-2.5-4.53-3.15-6.31,5.67-4.66,16.61-5.66,23.65-3.94-6.8,3.45-13.74,6.72-20.5,10.25ZM129.91,67.41c.37,1.54,3.32,3.02,3.94,4.73-5.85,3.22-11.63,6.78-17.34,10.25-.22-.02-.59-.06-.79,0l1.73-4.19c3.28-3.7,6.99-10.72,12.47-10.79Z" style="fill:none; stroke:#000; stroke-miterlimit:10; stroke-width:2px;"/></svg>