<?xml version="1.0" encoding="UTF-8"?><svg id="Layer_1" xmlns="http://www.w3.org/2000/svg" width="368" height="728.93" viewBox="0 0 368 728.93"><path d="M356.09,338.56c1.24-43.93,4.22-87.97,5.54-131.92.19-6.2,0-12.5-.04-18.7,1.51-.95.91-3.45.93-4.99.28-26.23.21-63.96-9.1-88.33-1.15-3.02-3.44-10.96-7-11.2-1.35-.09-2.34,2.24-3.94.75-.58-5.85.87-6.75-1.82-12.74-1.88-4.19-5.13-7.42-8.19-10.92-14.95-17.09-59.55-44.93-81.93-47.33-12.21-4.52-25.25-7.82-38.23-9.1-2.87-1.57-24.58-3.65-25.49-2.74.12,3.93-.15,7.91,0,11.84-1.12-.2-5.18.29-5.47,0-.86-.87,1.63-10.69-1.49-11.71-5.68-1.86-23.81,2.33-30.37,3.51-13.56,2.44-27.64,4.91-40.05,10.92-7.02,1.54-14.91,5.03-21.55,8.03-21.75,9.82-45.11,23.76-58.55,43.85-4.44,3.67-3.24,5.1-3.64,10.01l-.92,6.37c-.95,1.07-2.88-3.8-6.25.59-5.75,7.5-9.77,29.5-10.93,39.12-4.24,35.01-1.53,72.09-.05,107.2-.3,1.05-4.08.34-3.72,2.82.08,10.98-1.32,21.81-.93,32.82.47,13.56,2.48,27.4,3.67,40.93.64,7.26-.15,15.37,1.83,22.29.78,2.73,1.95,3.57,2.73,5.46-.22,3.09.37,6.49-.04,9.52-.22,1.63-1.78,3.48-1.78,3.68v35.5c0,5.96,1.27,12.82.91,19.57-.02.3.02.61,0,.91-.01.19-.77,1.83-.91,3.64-3.62,47.88-11.02,92.53-7.28,141.09.15,1.99.84,3.86.91,4.55.12,1.19-.13,2.45,0,3.64.21,1.92.78,3.6.91,4.55.12.87-.13,1.86,0,2.73.23,1.58.89,2.59.91,2.73.13.85-.15,1.89,0,2.73.25,1.43.88,2.57.91,2.73.16.83-.17,1.92,0,2.73.23,1.14.67,2.07.84,2.52l.07.21c2.42,11.08,5.03,21.29,9.1,31.86,7.63,19.78,17.48,35.63,30.95,51.89.27.33.64.59.91.91,1.02,1.21,2,1.9,2.73,2.73,14.86,16.79,29.2,29.16,49.16,40.05,11.03,6.02,22.54,10.9,34.59,14.56,3.98,1.21,7.82,1.82,11.83,2.73l.22.07c.46.18,1.32.6,2.51.84.56.11,1.26-.1,1.82,0,.14.03,1.19.68,2.73.91.86.13,1.86-.11,2.73,0,.44.05,1.73.76,3.64.91.9.07,1.83-.03,2.73,0,.63,1.37,2.44.88,3.64.91.91.02,1.82,0,2.73,0,1.21.01,2.43,0,3.64,0,.95,1.51,3.45.91,4.99.93,5.96.06,13.06.69,18.67-.93,2.57-.02,6.4.74,8.19-.91.86.07,1.86.05,2.73,0,2.25-.13,3.49-.76,4.55-.91.86-.12,1.89.14,2.73,0,1.46-.25,2.56-.88,2.73-.91,5.32-1.02,10.27-2.16,15.47-3.64,20.98-5.95,38.1-14.27,55.53-27.31,43.65-32.65,68.91-75.45,76.33-129.84,10.05-73.62-10.22-149.78-8.1-224.75Z" style="fill:none; stroke:#000; stroke-miterlimit:10; stroke-width:2px;"/></svg>