<?xml version="1.0" encoding="UTF-8"?><svg id="Layer_1" xmlns="http://www.w3.org/2000/svg" width="675.4" height="237.83" viewBox="0 0 675.4 237.83"><path d="M582.84,67.38c-16.4-14.96-36.39-28.12-56.48-37.65-7.69-3.65-14.14-6.6-22.25-9.41-11.12-5.24-23.29-8.65-35.24-11.4-64.01-14.7-117.52-6.8-180.4,6.26-.23.05-2.21-.45-4.28,0-1.24-.07-2.36.24-3.36.73-15,3.31-26.92,6.43-41.99,11.25-17.04,5.45-34.3,12.25-51.34,17.97-5.05.06-14.39,5.65-18.54,5.74-18.88.42-23.5-9.31-49.03-.14-23,8.26-23.68,21.67-37.07,31.39-12.36,8.97-51.25,19.6-68.22,28.05-1.93.96-3.12.73-5.99,2.57-17.91,11.48,1.16,16.93,1.37,20.47.11,1.78-5.78,8.46,1.2,14.62,2.82,9.7,11.97,28.7,17.11,37.65,1.49,2.6,2.66,6.25,4.28,8.56,10,14.32,22.76,21.3,38.51,29.09,9.11,4.51,17.43,8.59,27.38,11.12.21.05-1.59,1.01,2.57,1.71.28.05.58-.04.86,0,1.38.18,2.88-.13,4.28,0,139.1-2.06,278.51,2.75,417.59,0,2.56-.05,5.14.06,7.7,0,25.76-.62,52.51-1.17,78.02-5.41,13.28-2.21,20.58-2.35,30.65-11.7,2.53-2.34,4.85-6.72,6.85-8.56,1.55-1.43,2.81-2.83,4.28-4.28,1.73-1.71,4.25-2.61,5.99-4.28,7.38-.79,11.03-8.17,14.55-13.69.77-1.21,1.46-2.47,2.57-3.42v-15.4c-26.74-37.08-55.59-73.26-91.56-101.83Z" style="fill:none; stroke:#000; stroke-miterlimit:10; stroke-width:2px;"/></svg>