<?xml version="1.0" encoding="UTF-8"?><svg id="Layer_1" xmlns="http://www.w3.org/2000/svg" width="384.66" height="675.51" viewBox="0 0 384.66 675.51"><path d="M382.35,281.6c-.06-5.39-.8-11.51-.8-16.47v-12.86c0-1.29-.69-4.69-.8-6.83-.33-6.11-.11-12.5-1.61-18.48-.03-.53.04-1.08,0-1.61-2.81-37.68-6.83-75.35-13.66-112.49-.02-.27.02-.54,0-.8-.69-7.82-2.1-15.7-4.02-23.3-1.77-12.59-2.25-31.84-11-41.72-.05-.5-.54-1.1-1.85-1.83-.98-.85-2.05-1.61-3.22-2.24-13.02-7.02-43.53-15.87-58.65-20.09-6.75-2.39-58.84-24.05-61.06-21.7-1.77,1.87.24,26.18-.93,28-.89,1.39-8.39.82-10.32.93-14.41-1.21-30.41.9-45,0-.02-.18-2-.67-2.39-2.83-1-5.59,3.74-31.98-5.65-24.49-16.38.7-46.35,18.5-63.48,22.5-4.96,1.44-11.01,2.64-15.27,5.62-2.96.84-5.86,1.5-8.84,2.41-9.06,2.78-31.63,7.88-36.07,16.56-8.44,16.51-15.96,86.51-19.37,108.79-2.42,15.81-2.77,37.95-5.63,51.76-.53,2.58-4.1,5.68-4.58,9.14-1.51,10.8-7.06,66.94-4.15,73.58.5,1.14,2.04,2.26,3.11,2.91-.25,4.87-4.04,11.24,0,16.07-.17.63-.74,3.41-.8,4.02-2.56,2.29-4.34,4.87-4.87,8.38-1.67,10.97,1.79,40.04,3.29,52.26,3.07,25.1,10.16,48.84,15.25,73.54,1.67,9.15,3.25,18.55,6.43,27.32.06.26-.06.55,0,.8,4,18.37,8.88,36.7,14.46,54.64,3.29,10.58,5.44,17.05,9.64,27.32,6.36,15.57,13.14,29.38,22.5,43.39,5.75,8.6,11.52,17.13,19.28,24.1,1.21,1.53,2.24,2.13,3.21,3.21,3.33,3.71,5.41,5.01,8.84,8.03,9.82,8.66,17.15,14.12,28.93,20.09.21.11.59-.11.8,0,1.13.56,1.98,1.04,3.21,1.61,10.02,4.58,20.1,9.42,31.34,10.45,3.33,1.01,5.49,1.19,8.84,1.61l4.02,1.61h27.32l4.02-1.61c8.38-.9,15.36-3.17,23.3-5.62,1.73-.53,3.13-1,4.82-1.61,15.11-5.41,25.2-10.9,37.76-20.89,1.03-.82,1.8-1.18,3.21-2.41,14.22-10.24,25.57-24.15,35.35-38.57,28.06-41.36,41.28-98.85,51.2-147.67,11.54-56.83,18.15-117.13,13.89-174.53Z" style="fill:none; stroke:#000; stroke-miterlimit:10; stroke-width:2px;"/></svg>