<?xml version="1.0" encoding="UTF-8"?><svg id="Layer_1" xmlns="http://www.w3.org/2000/svg" width="743.12" height="243.86" viewBox="0 0 743.12 243.86"><path d="M723.93,150.63c-11.47-22.4-40.36-62.8-62.31-74.94-8.12-7.05-17.53-14.77-27.56-18.74-8.6-7.29-42.1-23.74-52.92-25.36-14.32-6.56-30.52-11.42-45.84-15.35-16.71-4.29-36.23-8.71-53.38-10.01-2.78-1.28-7.46-1.74-10.6-2.07-38.83-4.08-75.54-4.34-114.39,0-10.16,1.14-20.6,2.67-30.46,5.38-5.11-.05-33.6,7.1-38.59,9.36-3.98,1.81-2.48,1.95-3.3,4.97-.08.29.01.72,0,1.1-1.25.06-2.25-.77-3.31-1.1-.5-.16-.82-1.16-2.64-1.17-4.36-.03-33.55,10.37-39.23,12.77-2.08.88-4.49,1.63-5.54,3.84-1.68.63-3.81,2.65-5.51,3.31-2.7,1.04-5.11,2.27-7.72,3.31-1.7.68-3.69,1.95-4.41,2.2-3.54,1.24-7.23,1.92-11.02,2.2-1.12-2.31-14.45-2.39-17.13-2.25-17.39.95-38.21,10.77-47.91,25.4-.95.98-3.45,5.6-4.41,6.61-7.27,7.67-17.83,10.45-26.46,16.54-2.94,1-5.34,3.24-7.72,4.41-.74.36-1.48.72-2.2,1.1-4.78,2.48-8.74,5.18-13.23,7.72-3.77,2.12-7.31,4.47-11.02,6.61-23.56,13.62-46.94,27.45-70.02,41.88-2.56,1.97-4.69,6-3.92,9.22.58,2.42,4.55-1.51,4.48,6.23-.15.55-.12,1.06.05,1.53.54,12.87,9.06,23.19,16.49,33.75,4.3,6.12,6.83,10.01,12.13,15.43,6.8,6.97,7.84,8.14,17.64,11.02,11.89,3.5,28.78,4.99,41.3,5.56,90.99,4.11,187.82-.34,279.52-.05,12.11.04,24.27-.05,36.38,0,1.84,0,3.68,0,5.51,0,49.81.23,99.51,1.74,149.4,1.12,1.86-.02,4.9.71,6.05-1.12,9.54.07,19.13,0,28.66,0,8.93,0,18.99.93,27.56-1.1,20.72-.18,42.68-.85,63.26-3.44,13.36-1.68,25.9-3.18,37.07-10.89,6.98-4.82,8.27-6.37,12.13-14.33.78-1.6,1.48-1.73,2.2-4.41.35-1.31,1.04-3.19,1.1-4.41.62-11.49-12.52-40.82-18.17-51.84Z" style="fill:none; stroke:#000; stroke-miterlimit:10; stroke-width:2px;"/></svg>