<?xml version="1.0" encoding="UTF-8"?><svg id="Layer_1" xmlns="http://www.w3.org/2000/svg" width="369.03" height="742.73" viewBox="0 0 369.03 742.73"><path d="M361.1,467.63c-3.97-53.06-2.85-106.86-2.56-160.17.37-68.48,2.98-136.63,3.78-204.9.2-17.24,3.93-22-5.05-38.88-.71-1.34-1.82-2.5-2.55-3.83-4.63-8.47-8.83-18.4-17.87-22.97-14.73-16.5-74.66-28.45-97-31.91-.16-.02-.81-1.01-1.99-1.19-9.31-1.4-19.17-2.12-28.44-2.38.28,1.36-1.47,3.37-1.48,3.57h-1.28l-47.8.09-.71-3.92-16.58,2.56c-6.49-.13-14.31.21-20.42,2.55-23.15,2.44-75.76,17.62-93.19,32.53-8.1,6.94-10.41,13.4-15.3,22.35-1.15,2.1-2.44,3.59-3.83,6.38-7.52,15.13-3.92,18.89-3.78,33.77.38,38.83,1.57,77.49,2.46,116.25.06,2.42-.6,4.96,1.31,6.97-.52,2.71-.12,8.37,0,11.49-3.4,2.43-4.61,4.07-5.13,8.27-2.64,21.6-.28,56.24,0,79.17.03,2.16-.82,5.68,1.3,7,.37,2.78,1.68,5.78,3.83,7.66-5.46,14.55-5.54,61.98-3.89,78.56.54,5.44,3.29,7.79,3.89,12.06,1.67,11.85-.41,36.25-1.29,49.13-1.97,28.75-6.75,54.91-6.39,84.27.03,2.16-.82,5.67,1.3,7-.12,11.4,3.23,23.94,7.66,34.46.13,17.9,27.15,60.7,39.6,74.63,90,100.7,238.8,78.12,296.98-42.45,3.54-7.33,9.81-19.35,10.58-27.07,7.2-15.53,8.8-32.89,10.21-49.78,2.5-29.97-4.11-61.07-6.37-91.27Z" style="fill:none; stroke:#000; stroke-miterlimit:10; stroke-width:2px;"/></svg>