<?xml version="1.0" encoding="UTF-8"?><svg id="Layer_1" xmlns="http://www.w3.org/2000/svg" width="717" height="279.56" viewBox="0 0 717 279.56"><path d="M714.44,201.42c-3.68-9.17-16.79-25.51-23.48-33.4-5.87-9.43-13.85-18.91-21.38-27.15C583.97,47.2,458.14-11.37,329.41,3.22c-20.63,2.34-41.31,6.58-61.19,12.4-5.08.13-7.94,3.23-12.53,1.04-.33-.16-.39-1.98-2.4-1.91-1.67.05-2.85,1.59-3.86,1.91-8.5,2.79-19.49,4.42-27.14,8.35-.31.16-1.57-.4-1.95.13-.64.91.59,3.16-.75,4.17-3.97,2.99-17.68,3.93-22.35,8.22-7.04.81-16.17,5.92-22.96,8.35-32.3-7.73-65.92,6.76-83.51,34.45-22.67,11.89-46.07,22.75-68.89,34.45-3.55,1.82-7.34,2.77-11.48,5.22-2.43,1.43-5.67,2.07-7.19,4.81-1.5,2.68-3.01,13.39-1.68,16.08.17.35,5.41,5.02,5.75,5.21-4.66.65-2.68,2.02-2.09,4.18.9,3.31,2.08,4.02,3.13,6.26,15.71,33.51,33.28,66.22,50.1,99.16.6,2.99,2.16,6.06,4.18,8.35-.07.33.05.71,0,1.04,1.16,2.76,24.53,6.55,28.85,7.16,14,1.96,28.04,2.34,42.13,3.28,10.76.72,21.55,2.03,32.36,2.09,8.56,2.08,12.52.11,20.31-.04,32.03-.63,64.05-.65,96.09-.98,1.76-.02,4.64.67,5.73-1.06,3.82.03,7.66-.03,11.48,0,36.7.25,73.46-.52,110.17-.04,51.07.66,101.75,3.37,152.88,2.13,2.08-.05,4.18.06,6.26,0,2.08-.06,4.18.02,6.26,0,5.99-.05,13.22.92,18.79-1.04,1.04-.02,2.09.03,3.13,0,5.48-.17,10.25-.58,15.66-1.04,6.07-.53,12.06-.68,17.74-2.09,6.45.51,12.62-1.83,18.79-3.13,9.02-1.9,18.31-3.34,26.8-7.12,12.71-5.65,14.4-14.56,21.21-25.24,4.66-7.3,9.27-14.54,13.57-21.92,3.74-6.42,7.37-5.34,3.65-14.61Z" style="fill:none; stroke:#000; stroke-miterlimit:10; stroke-width:2px;"/></svg>