<?xml version="1.0" encoding="UTF-8"?><svg id="Layer_1" xmlns="http://www.w3.org/2000/svg" width="393.69" height="717.66" viewBox="0 0 393.69 717.66"><path d="M389.18,417.74c-2.52-17.03-6.96-33.96-10.56-50.78-6.15-28.68-13.33-57.21-19.15-85.96-3.16-15.64-8-35.47-8.83-51.08-.26-4.8-.1-10.22,0-15.07.92-43.62,6.95-87.36,7.92-130.91.17-7.43.33-12.92-2.9-19.76-.13-.28-.6-.49-.72-.72-.43-.85-1.31-1.22-1.43-1.43-6.8-11.8-12.99-15.77-24.22-22.93-21.66-13.82-40.97-20.39-65.47-27.29-3.4-.96-6.47-1.95-10.04-2.87-1.8-.46-3.09-.42-4.3-.72-3.7-.9-8.51-2.7-12.91-3.59-4.1-.83-8.67-2.32-12.91-2.15-.48.02-.96-.04-1.43,0,.78,1.83-.71,4.85-.72,5.74-2.37.65-3.95-.88-5.74-1.43-5.08-1.56-9.71-1.72-15.07-2.15-1.89-.15-3.84.1-5.74,0-2.89-.16-6.16-.64-9.33-.72-1.67-.04-3.35,0-5.02,0-2.38,0-4.8-.09-7.17,0-.71.03-1.44-.05-2.15,0-2.12.14-2.31.08-4.3.72-.96.31-1.91,1.36-2.15,1.43-.73.21-2.01-.14-2.87,0-.07-1.61.52-3.06-.72-4.3-1.76-1.77-9.73-.02-12.2.72-8.46.43-16.16,2.16-24.39,3.59-3.94.69-7.53,1.3-11.48,2.15-23.21,4.98-46.03,11.9-67.44,22.24-9.24,4.46-14.2,6.9-21.52,14.35-2.1,2.14-4.16,3.68-5.74,6.46-.64,1.12-.92,1.65-1.43,2.87-2.68,3.68-8.29,11.33-9.17,15.59-.9,4.39-.24,13.55-.17,18.5.01,1.21-.46,3.19.73,3.94-.08,16.15,1.23,32.36,1.46,48.4.39,27.02-.36,54.08-.02,81.1.13.48.49.29.71.36-.36,1.65-.67,1.32-2.15,2.15-.25.04-.52-.06-.72,0-4.59,1.52-2.19,11.25-2.15,15.07.21,21.63-.28,43.3-.01,64.94.02,1.21-.46,3.19.73,3.94,0,10.44-.2,20.46.72,30.85.25,2.86,1.2,5.21,1.43,7.89.06.71-.06,1.44,0,2.15-1.29,5.4-2.28,10.98-2.87,16.5-2.02,18.93-3.63,40.86-4.33,59.88-.35,9.38-.65,17.46,2.9,26.22.18.43-.37,1.53.72,1.43l-2.9,37.64c-1.08,31.6,2.62,61.34,11.51,91.51.48,1.63.99,2.89,1.43,4.3,2.17,6.87,3.77,13.65,7.17,20.09.65,1.22,1.11,1.58,1.43,2.15l1.31,4.79c.55,1.91,2.2,3.67,3,5.25.24.48.47.95.72,1.43,12.56,24.19,25.72,41.39,47.35,58.11,2.64,2.04,4.63,3.25,7.17,5.02.75.52,1.41.94,2.15,1.43,67.98,45.65,152.84,41.68,217.33-8.31,11.16-8.65,23.07-19.55,32.35-29.71,51.73-56.67,65.22-155.41,54.33-229.03Z" style="fill:none; stroke:#000; stroke-miterlimit:10; stroke-width:2px;"/></svg>