<?xml version="1.0" encoding="UTF-8"?><svg id="Layer_1" xmlns="http://www.w3.org/2000/svg" width="740.28" height="284.09" viewBox="0 0 740.28 284.09"><path d="M738.7,197.03c-2.26,13.07-14.46,31.68-18.49,44.99-.65,3.05-1.37,4.8-3.08,7.39-1.25,1.9-.93,2.11-3.08,3.7-.98.72-2.13.8-3.08,1.23-.42.19-.78.44-1.23.62-.66.25-1.19.4-1.85.62-2.84.93-5.75,1.18-8.63,1.85-.37.09-.86-.08-1.23,0l-.77.19c-.54.14-1.09.3-1.69.42-.2.04-.42-.04-.62,0l-.66.17c-.51.14-1.11.32-1.8.45-.39.07-.84-.07-1.23,0-1,.18-2,.44-3.08.62-.39.06-.84-.06-1.23,0l-.46.11c-.5.15-1.21.38-2.01.5-.4.06-.84-.06-1.23,0l-.86.17c-.65.15-1.39.34-2.22.44-.4.05-.83-.05-1.23,0l-2.02.34c-.62.12-1.2.22-1.68.28-25.14,2.93-53.24,5.18-78.55,5.57-1.76.03-10.88.4-11.42-.64-13.11,3.4-37.25,1.44-53,4.31-13.24,2.42-25.17,7.65-38.82,9.24-50.51,5.89-117.63,2.54-169.74,2.5-26.24-.02-55.37,1.74-81.07-1.88-.83-.12-1.53-.36-2.03-.51l-.44-.11c-.2-.03-.42.03-.62,0-.97-.16-1.73-.6-1.85-.62-.2-.04-.42.04-.62,0-.82-.15-1.49-.48-1.76-.59l-.09-.03c-.38-.07-.85.07-1.23,0-.89-.17-1.16-.6-1.23-.62-.38-.08-.86.08-1.23,0-.88-.18-1.17-.6-1.23-.62-.38-.08-.86.08-1.23,0-12.6-2.65-25.01-6.64-37.59-9.24-.38-.08-.86.08-1.23,0-.74-.15-1.42-.46-1.72-.57l-.13-.04c-11.56-2.32-23.46-3.79-35.13-5.55-.4-.04-.83.05-1.23,0-.78-.1-1.15-1.22-1.23-1.23-19.77-2.58-39.99-8.84-56.69-20.34-.6-.42-1.21-.9-1.82-1.36l-.65-.49c-.13-.1-.48.1-.62,0-1.75-1.27-3.74-2.41-4.93-4.31-.12-.1-.5.1-.62,0-16.13-13.22-32.97-25.73-48.68-39.44-.8-.7-1.58-1.41-2.36-2.13-5.86-3.8-14.63-.92-19.51-5.27-5.22-4.65,1.25-6.05.3-11.08-1,.51-3.62.92-4.93,1.23-2.4.57-8.42,3.4-9.24-2.46-.14-.98-.05-1.98.59-2.79,10.19-11.69,18.66-19.84,31.46-28.64l.14-.14c.21-.25.52-.72,1.1-1.1.14-.09.47.09.62,0l1.85-1.85h.62c7.58-8.22,32.56-22.81,43.14-30.2,3.39-2.36,22.96-14.36,23.85-15.58,1.74-2.36,4.79-12.78,7.08-16.66,3.1-5.25,7.2-9.23,11.59-13.37,16.49-19.15,45.37-24.04,69.02-17.25C242.69,23.82,335.34-5.55,390.52,2.3c1.85,0,3.7,0,5.55,0,.62,0,1.23-.02,1.85,0l10.33-.52c.65-.04,1.31-.08,2-.1.82-.03,1.65.03,2.46,0,2.44-.1,4.95-.01,7.39,0,.41,0,.82,0,1.23,0,1.33.01,3.33-.47,4.31.62.41,0,.82,0,1.23,0,.62,0,1.23,0,1.85,0,1.16.02,2.89-.43,3.7.62.41,0,.83-.03,1.23,0,.98.07,2.26.43,2.82.56l.26.05c3.01.15,6.31-.29,9.24,0,1.17.12,1.75.61,1.85.62.4.05.83-.05,1.23,0,.95.11,1.16.61,1.23.62.2.03.42-.03.62,0,.95.17,1.75.6,1.85.62.59.09,1.25-.06,1.85,0,1.15.11,2.87-.5,3.7.62.41.02.83-.05,1.23,0,2.59.31,5.21,1.53,7.39,1.85,1.72.25,3.81-.22,5.55,0,1.08.14,1.75.6,1.85.62.2.03.42-.04.62,0,1.29.27,2.7.08,3.7,1.23.4.04.84-.06,1.23,0,.94.13,1.16.61,1.23.62.2.03.42-.04.62,0,.88.16,1.16.6,1.23.62.38.07.85-.07,1.23,0,.78.15,1.37.44,1.69.56l.16.05c.2.04.42-.04.62,0,.87.2,1.54.54,1.85.62.37.09.87-.09,1.23,0,.61.15,1.12.36,1.49.5l.35.12c.19.05.42-.05.62,0,.78.2,1.17.6,1.23.62.19.05.42-.05.62,0,.75.2,1.17.6,1.23.62.19.05.43-.05.62,0,.74.2,1.17.6,1.23.62.19.05.43-.05.62,0,.44.12.88.28,1.25.42l.6.2c.19.05.42-.05.62,0,2.05.51,4.47.53,6.16,1.85.38.07.86-.08,1.23,0,.87.19,1.17.6,1.23.62.19.05.42-.05.62,0,.8.19,1.17.6,1.23.62.19.05.42-.05.62,0,.78.19,1.17.6,1.23.62.19.05.43-.06.62,0,.68.21,1.16.59,1.23.62.19.06.43-.06.62,0,.65.19,1.25.43,1.85.62.19.06.43-.06.62,0,.92.29,1.89.22,2.46,1.23,14.75,4.06,24.69,8.7,38.21,15.41,2.61,1.3,5.39,2.34,8.01,3.7,1.31.68,2.94,1.05,3.7,2.46.95.44,1.99.67,3.08,1.23,14.6,7.49,31.33,18.45,44.99,27.73,9.65,6.55,19.66,13.04,27.73,21.57.2.02.42-.04.62,0,.75.16,2.6,1.67,3.08,2.46.15.09.47-.09.62,0,2.26,1.41,4.62,3.34,6.16,5.55.48.4,1.17,1.23,1.85,1.85.29.26.54.53.79.79l.44.44c.11.1.51-.1.62,0,.58.54,1.14,1.12,1.7,1.7l2,2c.1.09-.1.52,0,.62l3.3,2.8c1.62,1.3,3.24,2.57,4.71,3.98.11.1.51-.1.62,0,.64.62,1.23,1.25,1.85,1.85.1.1-.1.52,0,.62,2.95,2.87,5.83,6.06,8.74,9.17l3.59,3.77c.26.26.98.36,1.23.62,1.42,1.45,2.89,2.84,4.31,4.31,9.41,9.77,40.99,41.87,45.88,51.8,2.02,4.1,1.7,4.9.96,9.21Z" style="fill:none; stroke:#000; stroke-miterlimit:10; stroke-width:2px;"/></svg>