<?xml version="1.0" encoding="UTF-8"?><svg id="Layer_1" xmlns="http://www.w3.org/2000/svg" width="718.06" height="278.96" viewBox="0 0 718.06 278.96"><path d="M712.13,206.37c-18.05-32.08-43.7-61.39-70.36-86.46-.35-.33-.67-.69-1.03-1.03-8.42-7.84-16.81-15.51-25.83-22.73-3.21-2.57-6.58-4.75-9.82-7.23-3.29-2.52-6.44-5.3-9.82-7.75-11.28-8.21-22.69-15.65-34.62-22.73-.48-.29-.96-.69-1.55-1.03-.81-.47-1.51-.71-2.07-1.03-5.83-3.35-11.09-6.22-17.05-9.3-.35-.18-.69-.34-1.03-.52-4.84-2.48-9.53-4.92-14.47-7.23-.34-.16-.68-.35-1.03-.52-3.44-1.6-6.86-3.13-10.33-4.65-9.27-4.05-17.87-7.44-27.38-10.85-.27-.1-.6-.36-1.03-.52-6.56-2.32-13.01-4.28-19.63-6.2-2.97-.86-5.34-1.34-8.27-2.07-2.07-.51-4.37-1.54-7.23-2.07-.57-.11-.87-.44-2.07-.52-1.2-.95-3.04-.23-4.13-.52-.14-.04-.33-.47-.52-.52-3.2-.82-6.43-2.24-9.82-2.07-1.33-.34-1.85-.32-3.1-.52-1.17-.19-2.47-.58-3.62-.52-.18,0-.37-.04-.52,0-.54-.91-1.4-.92-2.32-1.04-9.21-1.18-18.39-2.51-27.65-3.61-21.72-2.57-43.48-2.7-65.36-1.03l-14.73,2.06c-1.96.09-2.64.71-4.13,1.03-4.64,1-9.32,2.04-13.95,3.1-1.19-1.24.45-2.22-1.74-2.01-16.76,1.59-41.47,8.82-57.78,14.05-3.91,1.25-18.36,5.66-20.74,7.57-.55.45-.24.78-.34,1.06-.1.27-.53.61-.52,1.03-1.73.47-3.57,1.52-5.17,2.07-.92.31-2.33,0-3.1,1.03-2.55.23-3.17.93-5.17,1.55-2.63.81-5.15,1.73-7.75,2.58-1.15.38-1.84.63-3.1,1.03-1.65.53-8.71,3.04-9.6,3.1-1.01.06-7.03-2.04-8.9-2.42-30.72-6.16-58.47,3.94-78.12,27.74-3.05,3.7-5.62,8.6-8.26,11.63-2.37,2.72-23.12,10.88-28.09,13.24-12.67,6-26.99,12.43-39.1,19.29-1.62.92-4.31,1.68-3.6,3.89-2.6,1.33-14.78,7.06-15.39,9.15-.63,2.14.64,9.99,1.07,12.67.88,5.51,2.81,10.62,3.99,15.9,1.15,5.14.98,11.77,3.6,16.81,1.16,2.24,1.74,3,4.15,2.31,3.52-1.01,7.97-3.39,11.54-4.77.79-.3,1.31.15,1.38.12-.13,1.35.73,2.47,1.03,3.62,3.62,13.47,8.39,28.32,13.43,41.34-3.74.79-2.46,4.45-1.71,7.13,2.5,8.85,9.38,26.9,13.5,35.07.46.91,1.09,2.5,2.16,2.75.36.09.77.13,1.22.14l7.57.89c1.2,2.5,3.48,7.77,5.68,9.3,2.67,1.86,8.63,2.06,11.88,2.58,1.98.93,4.57,1.05,6.72,1.03,8.4,1.14,16.28,1.94,24.8,2.07,2.93.96,6.68.51,9.82.52,5.85,0,11.72,0,17.57,0,3.83,0,8.23.44,11.88-.52,1.89,0,3.79,0,5.68,0,2.12,0,5,.44,6.72-.52,2.06,0,4.14,0,6.2,0,3.48,0,7.56.44,10.85-.52,2.41,0,4.83,0,7.23,0,2.28,0,5.29.44,7.23-.52,2.23,0,4.48,0,6.72,0,4.01,0,8.56.43,12.4-.52.69,0,1.38,0,2.07,0h82.15c1.37,0,2.76,0,4.13,0,.54.86,1.96.52,2.83.53,4.91.05,9.83-.01,14.73,0,2.06,0,4.14,0,6.2,0,1.72.95,4.59.51,6.72.52,1.55,0,3.1,0,4.65,0,2.75.96,6.34.51,9.3.52,1.72,0,3.45-.01,5.17,0,1.19.94,3.55.51,5.17.52,1.55,0,3.1,0,4.65,0,1.72.95,4.59.51,6.72.52,1.72,0,3.45-.01,5.17,0,1.19.94,3.55.51,5.17.52,1.03,0,2.07,0,3.1,0,2.31.96,5.64.51,8.27.52.69,0,1.38,0,2.07,0,1.72.95,4.59.51,6.72.52.69,0,1.38,0,2.07,0,.54.86,1.96.52,2.83.53,13.55.15,27.01.84,40.57,1.02.17,0,.34,0,.52,0l18.6.52c18.01,1.95,40.21.44,58.62-.02,37.36-.93,76.13-2.65,113.02-8.93,15.71-2.67,33.42-5.75,47.27-13.7,8.08-4.64,16.74-11.31,22.39-18.69,3.73-3.07,6.81-8.5,8.78-12.92.42-.93,1.25-2.34,1.55-3.1,1.6-4.14-2.4-9.41-4.56-13.26Z" style="fill:none; stroke:#000; stroke-miterlimit:10; stroke-width:2px;"/></svg>