<?xml version="1.0" encoding="UTF-8"?><svg id="Layer_1" xmlns="http://www.w3.org/2000/svg" width="391.95" height="717.84" viewBox="0 0 391.95 717.84"><path d="M384.79,400.44c-5.77-34.2-15.21-66.5-23.16-99.54-.54-2.23-.78-4.83-1.25-6.89-1.02-4.41-2.18-8.69-3.13-13.15-1.33-6.21-2.59-12.54-3.76-18.78-1.05-5.65-2.35-10.32-3.13-16.28-3.53-26.99-1.96-54.27-.63-81.38,1.21-24.67,3.61-49.23,5.01-73.87.72-1.29,1.17-3.87,1.24-5.33.22-4.2-.99-11.44-2.27-15.84-.02-.23-.09-.47-.22-.74-.23-.73-.9-1.74-1.25-2.5-.46-1.01-1.48-2.27-1.88-3.13-.93-2.03-1.53-4.53-2.58-6.5-8.94-16.75-47.44-31.54-65.03-37.95-9.48-3.45-18.22-6.32-28.17-8.76-6.81-1.67-13.08-3.09-20.03-4.38-3.51-.65-6.11-1.73-10.02-1.88-1.28-.92-5.93-.97-7.12-.55-1.3.46-.87,3.94-3.96,3.1-.07-.02-.13-.04-.19-.05-1.25-.2-2.5-.43-3.76-.63-1.55-.25-3.43-.46-5.01-.63-3.63-.39-9.28-1.25-12.83-1.25h-16.9c-3.22,0-6.96-.25-10.33,0-.21.02-.42-.03-.63,0-.4.05-.85-.05-1.25,0-1.71.08-3.45,1.06-5.2.52-1.39-.43-1.52-2.23-2.31-2.71-1.38-.84-13.36.08-15.96.32-3.58.34-7.45,1.11-10.96,1.87-20.64,2.68-41.66,7.79-61.21,14.86-.96.35-2.04.45-2.65,1.42-8.01,2.18-15.9,5.43-23.16,9.39-7.88,3.16-15.94,6.4-21.91,12.52-2.79,2.86-2.98,3.78-5.01,6.89-1.86,2.84-3.53,4.75-5.01,8.14-7.81,7.88-5.77,21.17-5.65,31.62.01,1.06-.4,2.78.64,3.43l2.42,57.97c0,.24.01.51.03.79l.06,1.34c-.06,1.66.02,3.34,0,5.01-.04,4.06-.06,8.15-.01,12.22.01,1.06-.4,2.78.64,3.43,0,13.65-.32,27.38-.03,41.03.07,3.07,1.28,6.71.66,10-.24,1.24-2.65,2.49-3.76,4.06-.1.15-.74.22-.93.63-.84,1.83-.4,15.86-.35,19.12.39,23.32,1.1,46.8,1.93,70.06.38,10.54-1.6,21.65,2.48,31.64-.57,9.4-2.97,18.49-3.75,27.86-.92,10.98-.78,22.73-1.26,33.79-.58,13.35-2.57,24.36,0,37.88.33,1.72,1.24,3.91,1.29,5.34.07,2.15-1.22,4.77-.66,7.18-2.09,8.11-1.73,21.46-1.88,30.05-.14,8.03.12,16.09-.03,24.13l1.9,15.31c-.12,16.83,6.88,51.83,12.51,67.93,19.89,56.9,85.32,105.76,143.85,115.95,67.1,11.68,130.97-22.25,172.93-72.45,1.59-1.9,3.92-3.67,5.63-5.96,1.45-1.95,3.09-5.03,4.39-7.19,1.66-1.38,3.09-3.31,4.38-5.01,1.11-1.46,1.66-2.58,2.5-3.76.42-.58.83-1.27,1.25-1.88,2.49-3.63,4.09-6.33,6.26-10.02.58-.98.86-1.82,1.25-2.5,1.4-2.44,3-4.86,4.38-7.51,31.56-60.65,33.74-131.38,22.54-197.82Z" style="fill:none; stroke:#000; stroke-miterlimit:10; stroke-width:2px;"/></svg>