<?xml version="1.0" encoding="UTF-8"?><svg id="Layer_1" xmlns="http://www.w3.org/2000/svg" width="754.21" height="242.9" viewBox="0 0 754.21 242.9"><path d="M752.78,197.88c-.67.61-2.24-.03-3.02.17-.33.08-.72-.07-1.06,0-.31.07-1.13.82-2.12,1.06-.11.67.16,1.55,0,2.12-.53,1.88-2.24,2.21-3.18,3.18-6.48,6.72-14.04,12.08-21.18,18-4.88,4.05-10.15,11.39-16.52,12.64-1.88.37-4.11-.25-5.72.07-1.41.27-2.9.89-4.24,1.06-6.01.74-14.7,2.63-20.12,3.18-10.89,1.09-21.91.65-32.83,1.06-37.06,1.4-75.05,1.96-112.26,1.06-.27,0-.82-1.05-1.06-1.06-9.28-.25-23.32-1.63-31.77-1.06-2.22.15-2.99-.29-4.24,2.12-60.35-.34-120.74-.46-181.09-1.06-14.43-.14-29.23-.88-43.42-1.06-23.33-.29-52.19,2.26-74.65-.01-4.88-.49-6.72-1.67-10.55-4.28-.92-.62-2.87-3.54-3.76-1,.1.23-.03.68,0,1.06l3.17,4.23c-7.4.05-14.84-.05-22.23,0-1.06,0-2.12,0-3.18,0-5.63.03-11.32.12-16.94,0-4.94-.11-9.41-.82-13.77-1.06-4.76-.26-10.77,1.08-14.83-1.06-9.63.28-20.33.43-29.65-2.12-4.33-1.19-7.25-3.13-10.92-5.49-14.42-9.28-40.93-28.57-53.15-40.08-1.2-1.13-1.71-1.95-2.65-3.15-2.39-3.08-4.64-6.21-3.18-10.59.73-2.19,7.38-.61,9.53-1.07-.77-1.72-2.76-3.06-4.24-4.23-1.15-.91-10.31-6.49-8.47-8.46,10.04-2.23,19.81-5.57,29.65-8.48,1.09-.32,2.12-.74,3.18-1.06l3.17-3.71c-12.76,1.01-24.7,7.5-38.12,6.89-2.86-.13-5.24-5.1-6.39-7.9,0-.75,5.18-2.39,6.39-2.69,25.1-12.89,48.12-29.24,72.36-43.6,5.37-3.18,28.25-14.25,30.14-17.52.72-1.26,1.03-3.1,1.31-4.54l2.09,1.07c-.84-5.85,2.36-10.72,5.3-15.41.56-.89,1.89-1.21,2.12-1.54,16.33-23.6,42.46-33.74,71.01-28.12,7.49,1.47,13.8,5.43,21.12,6.94,23.33-8.15,47.79-13.67,71.39-21.06,1.7-1.23-.54-5.16,1.67-7.02,2.68-2.26,16.9-3.97,21.2-4.75,19.49-3.54,36.42-2.73,55.07-5.3.28-.04.74-1.01,1.06-1.06,2.81-.44,4.02,1.06,4.24,1.06.47,0,.8-1.87,1.89-2.07,5.47-1.01,12.33-3.42,12.94,4.19,72.94-6.98,166.43,2.91,232.98,33.89,5.18,2.41,9.8,4.7,14.83,7.41,11.46,6.18,18.1,10.65,28.59,18,24.03,16.83,38.59,30.33,56.13,54.01,14.24,19.23,26.32,40.04,34.95,62.48,1.63,3.44,4.31,10.59,3.18,13.77-.15.42.36,1.49-.16,1.95Z" style="fill:none; stroke:#000; stroke-miterlimit:10; stroke-width:2px;"/></svg>