<?xml version="1.0" encoding="UTF-8"?><svg id="Layer_1" xmlns="http://www.w3.org/2000/svg" width="372.88" height="755.39" viewBox="0 0 372.88 755.39"><path d="M367.77,601.54c7.75-25.46,2.77-69.21-.58-95.89-1.39-11.11-4.75-23.73-3.95-34.82.53-7.39,2.79-15.74,3.45-23.25.09-1.07.1-2.13.07-3.2l1.51-10.33c.63-16.26,3.38-33.05,2.02-49.11-.02-.28-.06-.79,0-1.01,1.42-5.01.43-5.13.5-9.57.42-25.26.32-50.5,0-75.82-.01-.85.32-2.24-.51-2.76-.05-22.74-.4-47.48-2.52-70.02l-1.52-28.46c-.83-8.88-1.78-17.8-2.01-26.7l-6.04-61.72c-.37-6.08-2.22-9.43-7.05-13.35-.99-.8-2.55-1.36-3.03-1.76-.42-.35-.88-.4-1.01-.5-.13-.1-1.13-1.84-2.02-2.52-15.95-12.28-34.28-23.32-50.84-35.06-12.9-9.14-25.46-18.74-38.33-27.91l-7.05-5.04c-7.32-6.82-15.03-13.31-23.17-19.14-1.42-1.02-4.37-4.62-5.54-1.01-.5,1.54.03,4.34,0,6.32-.01.73-.49,1.46-.5,1.74-1.93-.49-5.36-1.49-7.21-.91-1.42.44-2.37,4.21-4.6,3.96l-37.2-.02c-3.01-5.42-6.23-4.02-11.44-3.03-.26-2.55,1.41-5.69,0-8.06-1.52-2.55-5.18.51-7.02,1.79-8.27,5.79-16.55,13.38-24.76,19.57-28.7,21.66-58.24,42.22-87.77,62.74-.5.23-.26.77-.35,1.03-1.13,3.09-.03,4.11.02,6.78.05,2.61-.11,5.23-.02,7.83-.96.49-1.02,1.26-1.52-.23-1.22-3.63-1.68-7.63-2.52-11.36-1.38-.28-2.09.82-3.02,1.51-2.94,2.2-9.36,8.61-10.43,11.98-.48,1.51-.46,3.1-.65,4.64-.33,2.61-.27,4.76-.51,7.3-2.46,25.72-6,52.89-7.04,78.6-.13,3.27-.49,6.93,1,9.82-.02,4.17-.58,2.15-1.64,4.15-.51.96-.46,2.55-.88,3.41-.76,1.54-1.79,2.9-2.52,4.53-1.59,3.58-1.07,6.53-1.51,10.32-4.05,34.91-6.17,69.69-7.05,104.79-.17,6.8.18,6.72,3.02,12.34.53,1.04.46,2.79,1.49,3.81.89.89,1.58.49,2.04.72,1.23.61,1.42,3.13,1.01,3.53-.24.23-2.69-.49-3.03.5-.64.26-.8,2.59-1.01,3.02-.79,1.65-2.05,3.34-2.54,5.27-1.5,5.91.09,22.75.51,29.77,1.1,18.39,3.08,37.58,5.63,55.82.96,6.86,1.9,16.1,3.59,22.6,1.34,5.14,4.74,7.94,4.33,13.68-.75,10.27-4.96,22.81-4.47,33.06l-2.01,13.35c-1.74,19.93-2.34,40.02,0,59.94.25,2.13,1.72,12.37,2.51,13.36,2.61,3.22,7.58-2.05,7.56,3.02,0,1.61-1.58,2.53-3.02,3.53-.65.45-2.33.89-3.02,1.51-1.33,1.2-.96,2.63,0,4.03.69,8.15,5.55,19.54,8.56,27.2.71,1.81,1.18,4.16,2.02,6.05.55,1.26,1.39,2.73,2.02,4.03.32.65.8,1.11,1.01,1.51,2.18,4.32,4.06,7.47,6.55,11.59,4.31,7.13,8.47,13.54,13.6,20.15,1.97,2.54,3.94,5.13,6.05,7.56,1.4,1.62,2.74,3.31,4.53,4.53.17,1.7,1.62,2.07,2.52,3.02.57.61.85.92,1.51,1.51.95.85.94,1.39,2.52,2.02.53,1.17,1.64,1.73,2.52,2.52,1,.89,1.66,1.3,2.52,2.02,3.18,2.64,6.15,5.2,9.57,7.56,1.07.74,1.21,1.64,3.02,2.02,2.45,2.38,5.45,4.2,8.3,6.06,72.3,46.96,157.79,38.42,221.92-17.64.42-.37.71-.74,1.01-1.01,1.28-1.14,2.68-2.21,4.03-3.53.53-.51,1-.99,1.51-1.51.87-.87,1.63-1.56,2.52-2.52.44-.48.96-.9,1.51-1.51.76-.85,1.12-1.57,1.51-2.02,5.2-6.02,10.03-12.15,14.61-18.64,5.94-8.42,8.67-13.74,13.1-22.67.79-1.58,2.27-3.38,3.02-5.04,5.2-11.53,8.13-22.99,11.34-35.21.1-1.96-2.01-2.55-3.28-3.58-1.77-1.44-3.6-1.78-3.02-4.53.81-1.67-.76-1.77,2.52-2.02.88.85,4.68.81,5.04,0,.1-.22-.09-.72,0-1.01Z" style="fill:none; stroke:#000; stroke-miterlimit:10; stroke-width:2px;"/></svg>