<?xml version="1.0" encoding="UTF-8"?><svg id="Layer_1" xmlns="http://www.w3.org/2000/svg" width="695.99" height="269.93" viewBox="0 0 695.99 269.93"><path d="M692.84,175.34c.17-.56-.16-1.27,0-1.84.16-.56-.14-1.26,0-1.84.15-.6-1.93-2.92-1.84-3.67.08-.6-.07-1.23,0-1.84.11-1.05,1.58-2.53,1.84-3.67.82-3.62,2.93-6.9,1.84-11.01-2.44-1.23-3.79-3.54-5.51-5.51-1.32-1.51-2.75-2.61-3.67-3.67l-.2-.4c-.27-.74-.51-2.15-1.63-3.27-2.31-2.3-3.4-6.05-7.34-7.34v-1.84c-2.84-3.43-8.21-6.11-11.01-9.18-6.4-7.01-11.29-13.41-18.35-20.19-11.94-11.46-19.71-21.04-34.87-29.36-2.33-4.61-7.09-6.45-11.01-9.18-6.92-4.82-11.4-6.98-18.35-11.01-4.84-2.8-7.22-4.51-12.85-7.34-.49-.25-1.34.24-1.84,0-.84-.43-3.36-1.77-3.67-1.84-1.24-.57-2.36-1.28-3.67-1.84-.62-.26-1.2-1.59-1.84-1.84-2.17-.84-5.45-4.64-9.18-5.51-1.01-.23-2.49.07-3.67,0-16.46-9.42-34.96-13.95-53.22-18.35-.3-.07-.62-.04-.94,0h-.9c-18.33-4.25-34.23-7.95-53.22-9.18-1.09-2.32-3.44-1.73-5.51-1.84v-1.84h-42.21v1.84c-3.22.37-4.92,1.74-5.51,1.84-1.22.05-2.45-.06-3.67,0-11.64.55-21.73,2.48-33.03,3.67-.6.06-1.23-.07-1.84,0-.6.07-1.23-.08-1.84,0-1.19.15-2.48-.16-3.67,0-1.55.21-2.99,1.73-3.67,1.84-2.28.37-5.1-.41-7.34,0-1.64.3-2.99,1.7-3.67,1.84-2.45.49-4.27,1.57-5.51,1.84-3.25.69-6.32.81-10.43,1.71-.24,0-.44.03-.58.13-2.57.6-4.85,1.21-7.34,1.84h-.91c-.32-.04-.64-.07-.93,0-3.01.77-6.48,1.05-9.18,1.84-.72.21-1.37,1.22-1.84,1.84h-3.67c-4.89,0-9.79-.04-14.68,0-4.53.03-11.17-1.47-14.68,1.84-.57-.01-1.29-.11-1.84,0-4.59.94-5.21,2.82-7.34,3.67-2.55,1.01-7.12-.35-9.18,3.67-2.79.39-4.69.27-7.34,1.84-.7.41-1.23,1.28-1.84,1.84-1.07.27-2.69-.31-3.67,0-2.51.79-1.71,1.8-1.84,1.84h-.86c-.35-.05-.7-.11-.98,0-.61.25-1.17,1.42-1.84,1.84h-.91c-.35-.07-.71-.14-.93,0-.71.46-1.24,1.24-1.84,1.84-1.14.19-2.65-.28-3.67,0-2.96.81-4.67,3.26-5.51,3.67h-.92c-.34-.06-.67-.12-.92,0-.68.33-1.2,1.52-1.84,1.84h-.93c-.33-.06-.66-.12-.91,0-.67.33-1.18,1.49-1.84,1.84-.48.25-1.36-.25-1.84,0-.68.36-1.17,1.46-1.84,1.84h-.92c-.34-.07-.69-.13-.92,0-.69.39-1.17,1.44-1.84,1.84h-.91c-.35-.07-.71-.14-.93,0-1.98,1.24-1.73,1.76-1.84,1.84h-1.84c-.68.44-1.23,1.53-1.84,1.84-1.2.6-2.48,1.29-3.67,1.84-.51.23-1.32-.22-1.84,0-.66.28-1.24,1.33-1.84,1.84-.49-.09-1.35-.1-1.84,0-1.03.21-1.61.82-1.84,1.84-.59-.1-1.23.06-1.84,0-.77-.08-2.79,1.85-3.67,1.84-1.2-.01-2.49-.12-3.67,0-.61.06-1.23-.08-1.84,0-2.07.27-5.77-3.77-7.34,1.84-2.18.11-2.3-1.93-5.51,0-.59.35-1.09,1.44-1.84,1.84-3.81-.55-13.31-.12-11.01,3.67-.58.13-1.27-.15-1.84,0-2.08.56-2.75,1.48-3.67,1.84-.61.24-1.18,1.5-1.84,1.84-1.26.65-2.4.99-3.67,1.84-.69.46-1.16,1.34-1.84,1.84-.49.37-1.82.26-3.67,1.84-.3.26.3,1.57,0,1.84-.57.2-1.36-.22-1.84,0-3.57,1.67-3.87,4.23-5.51,5.51-.97.76-3.01,1.12-3.67,1.84-1.12,1.22-2.29,1.34-3.67,3.67-.24.4.19,1.22,0,1.84-.16.53.1,1.22,0,1.84-.57.56-1.5,1.25-1.84,1.84-.82,1.43-1.17,2.12-1.84,3.67-1.15.7-2.58,1.07-3.67,1.84-.69.48-1.18,1.31-1.84,1.84-.66.53-1.23,1.23-1.84,1.84-.61.61-1.22,1.22-1.84,1.84-.57.23-1.46-.26-1.84,0-1.72,1.22-2.71,1.26-3.67,3.67-.58.15-1.3-.18-1.84,0-.81.28-1.35,1.6-1.84,1.84-.7.34-1.25,1.28-1.84,1.84-.59.19-1.39-.23-1.84,0-2.5,1.26-2.52,2.65-3.67,3.67-.64.56-1.27,1.2-1.84,1.84-.54.18-1.36-.24-1.84,0-.7.36-1.26,1.26-1.84,1.84-.61.62-1.25,1.2-1.84,1.84-1.31.61-2.4,1.14-3.67,1.84-6.01,3.31-17.98,9.72-22.02,14.68-.31.12-.62.53-.94.95-.31.29-.63.57-.9.89-6.52,3.15-9.1,5.49-14.68,9.18-4.78,3.16-8.42,5.18-12.85,9.18-.34.3-1.52-.31-1.84,0-.62.6-1.27,1.18-1.84,1.84-3.94,4.58-2.47,5.94-3.67,11.01-.72.45-1.18,1.37-1.84,1.84-.69.49-1.2,1.28-1.84,1.84h-1.84v3.67h1.84c.82,3.87,1.77,3.48,1.84,3.67v.87c-.06.35-.12.7,0,.97,1.1,2.4,1.76,1.73,1.84,1.84.1,1.2-.15,2.48,0,3.67.33,2.66,1.76,4.88,1.84,5.51.2,1.79-.25,3.73,0,5.51.24,1.73-.37,4.01,0,5.51.14.58-.15,1.27,0,1.84,1.81,6.66,3.07,2.61,3.67,3.67v.91c-.07.37-.15.73,0,.92,1.13,1.44,1.32,4.43,3.67,5.51h1.84c.14.57-.19,1.3,0,1.84.31.89,1.24,1.34,1.65,1.65l.18.18c.24.49-.24,1.34,0,1.84.35.73,1.23,1.3,1.84,1.84v1.45c-.07.82-.18,1.65,0,2.22.85,2.68,2.03,5.05,3.67,7.34.58.81.51,2.57,1.84,3.67,6.55,5.43,8.22,2.2,12.85,3.67.27.09,1.05,1.31,3.67,1.84,1.66.33,3.8-.29,5.51,0,.2.03.84,1.45,3.67,1.84,1.74.24,3.73,0,5.51,0,.68,1.7,2.17,1.65,3.67,1.84,1.76.22,3.8-.3,5.51,0,.2.04.97,1.32,3.67,1.84,1.7.32,3.81-.33,5.51,0,.2.04.99,1.32,3.67,1.84,1.69.33,3.81-.32,5.51,0l.25.08c.76.3,2.81,1.31,5.26,1.75,1.14.21,2.51-.19,3.67,0,.29.05,2.32,1.41,5.51,1.84,1.78.24,3.71-.2,5.51,0,.29.03,1.94,1.52,5.51,1.84,1.81.16,3.69-.14,5.51,0,.29.02,1.76,1.59,5.51,1.84,10.28.67,20.87-.34,31.2,0,45.11,3.63,90.59,1.47,135.8,1.84,30.63.25,61.19,1.56,91.76,1.84v1.84h121.12v-1.84c2.96-.08,7.23,1.14,9.18-1.84,4.89-.09,9.8.06,14.68,0,3.45-.04,8.61,1.28,11.01-1.84,4.16.2,8.69.26,12.85,0,3.73-.24,5.22-1.81,5.51-1.84,1.8-.18,3.72.23,5.51,0,.6-.08,1.24.09,1.84,0,2.72-.41,3.47-1.8,3.67-1.84,3.06-.58,6.23-1.3,9.18-1.84h3.52c.68.04,1.36.07,1.99,0,1.5-.16,2.99-.15,3.67-1.84h2.12c1.14.06,2.29.15,3.39,0,4.46-.61,8.72-2.74,12.85-3.67h1.78c.66.07,1.33.13,1.89,0,3.72-.89,7.96-1.01,11.01-3.67,1.12.1,2.57.14,3.67,0,4.32-.54,3.47-1.78,3.67-1.84h.84c.36.05.71.11,1,0,1.46-.54,2.37-.92,3.67-1.84h1.84c2.06-.45,2.67-2.79,3.67-3.67.65-.57,1.21-1.25,1.84-1.84,2.08-1.94,3.57-3.42,5.51-5.51,1.72-1.85,3.39-2.99,5.51-5.51.79-.94,1.06-2.7,1.84-3.67.08-.1.17-.18.25-.28.55-.56,1.64-1.42,1.59-1.56.84-1.02,2.4-2.19,3.67-3.67,2.12-2.48,3.1-4.84,3.67-5.51l11.01-12.85c3.29-4.06,7.52-8.81,11.01-12.85,1-1.15,2.31-1.78,3.67-3.67,1.03-1.43,3.77-2.11,5.51-5.51.32-.62,1.6-1.16,1.84-1.84.19-.54-.17-1.28,0-1.84ZM81.75,116.61c-.96,1.03-1.07,3.56-1.84,0h1.84Z" style="fill:none; stroke:#000; stroke-miterlimit:10; stroke-width:2px;"/></svg>