<?xml version="1.0" encoding="UTF-8"?><svg id="Layer_1" xmlns="http://www.w3.org/2000/svg" width="418.8" height="695.98" viewBox="0 0 418.8 695.98"><path d="M415.74,458.86c-.18-3.83-1.3-7.06-1.81-9.05l-.24-1.22c-.12-1.35.14-2.76,0-4.11-.07-.68.07-1.38,0-2.05v-2.91c.01-.4.02-.8,0-1.2-.12-2.8,1.02-6.52-2.05-8.21v-3.18c.04-1.68.11-3.37,0-5.03-.04-.68.08-1.38,0-2.05-.49-4.08-2.01-5.84-2.05-6.16-.29-1.98.19-4.15,0-6.16-.22-2.26.62-4.91-2.05-6.16.16-2.01.03-4.14,0-6.16-.07-5.09-1.9-5.65-2.05-6.16-.07-1.36.11-2.75,0-4.11-.18-2.29.59-4.92-2.05-6.16v-1.57c.03-.85.08-1.7,0-2.53-.33-3.33-1.78-4.78-2.05-6.16-.37-1.85.42-4.41,0-6.16-1-4.13-1.98-3.89-2.05-4.11-.04-1.37.06-2.74,0-4.11-.21-5.02-1.51-4.67-2.05-6.16-.15-2.03.23-4.15,0-6.16-.19-1.68-.16-3.34-2.05-4.11-.04-1.36.09-2.75,0-4.11-.15-2.3.56-4.92-2.05-6.16-.17-1.33.17-2.77,0-4.11-.21-1.68-.16-3.33-2.05-4.11-.1-2.04.1-4.12,0-6.16-.08-1.67-2.03-3.58-2.05-4.11-.05-1.37.04-2.74,0-4.11-.17-6.14.09-12.33,0-18.48-.01-.68,0-1.37,0-2.05-.06-4.78,0-9.59,0-14.37-.01-7.51.03-15.07,0-22.59-.03-6.36,1.74-15.22-2.05-20.53,0-.68,0-1.37,0-2.05v-4.11c0-.68,0-1.37,0-2.05v-2.05c-.01-2.05.03-4.11,0-6.16,0-.68.01-1.37,0-2.05-.08-3.86,1.45-9.62-2.05-12.32-.03-2.05.09-4.12,0-6.16-.03-.68.04-1.37,0-2.05-.08-1.36.08-2.75,0-4.11-.25-4.17-2.02-7.79-2.05-8.21-.05-.68.06-1.37,0-2.05-.06-.68.06-1.37,0-2.05-.19-2.01.06-4.13,0-6.16-.09-3.31,1.28-8.09-2.05-10.27-.04-1.36.11-2.76,0-4.11-.41-5.12-1.67-8.84-2.05-12.32v-2.94c.06-1.09.13-2.17,0-3.22-.45-3.78-1.84-6.61-2.05-8.21-.17-1.33.18-2.78,0-4.11-.58-4.28-1.52-7.08-2.05-10.27-.11-.67.12-1.39,0-2.05-.33-1.9.37-4.3,0-6.16-.59-2.98-2.01-3.88-2.05-4.11-.39-1.82.42-4.39,0-6.16-.69-2.95-1.26-5.31-2.05-8.21-.46-1.7.52-4.66,0-6.16-.62-1.8-1.41-2.74-2.05-4.11-1.48-3.15-.26-4.77-4.11-8.21-1.65-1.48-2.92-1.36-4.11-2.05-2.11-1.22-4.62-1.26-6.16-2.05-.86-.44-3.13.43-4.11,0-.17-.15-.36-.22-.55-.23-2.17-.91-3.3-1.15-5.61-1.82-2.74-.8-5.86-5.43-12.32-6.16-2.94-4.48-8.58-4.31-12.32-6.16-2.56-1.27-5.8-2.78-8.21-4.11-8.21-4.51-16.27-9.78-24.64-14.37-2.42-1.33-5.05-4.44-8.21-6.16-2.14-1.16-3.98-2.99-6.16-4.11-.28-.14-.66-.07-1.04,0h-1.01c-.72-.35-1.33-1.75-2.05-2.05-.57-.24-1.44.22-2.05,0-.05-.17-.29-.37-.58-.6-.41-.56-.91-1.32-1.47-1.46-.44-.11-1.35-2.03-2.05-2.05-.65-.02-1.64-.17-2.05,0-.63-.64-1.4-1.67-2.05-2.05-.64-.38-1.21-1.76-2.05-2.05-.49-.17-1.34.04-2.05,0-.41-1.02-1.63-1.45-2.05-2.05-1.35-1.9-6.66-6.49-8.21-2.05-.28.26.19,1.34,0,2.05-.64,2.42.18,7.2,0,10.27-.08,1.36.06,2.74,0,4.11h-4.11c-.17-.69.22-1.51,0-2.05-.7-1.73-.15-2.17-2.05-4.11-1.54-1.57-1.86-1.76-4.11-2.05-1.33-.18-2.76.12-4.11,0-.22-.06.82-1.66-4.11-2.05-2.03-.16-4.12.09-6.16,0-6.76-.31-13.75-.09-20.53,0-1.37.02-2.74-.04-4.11,0-1.96.06-4.35-.33-6.16,0-.88.16-1.68,1.24-2.05,2.05h-1.39c-1.08-.08-2.2-.24-2.71,0-1.39.65-2.37-.12-4.11,2.05-2.52,3.15-1.44,3.26-2.05,6.16h-4.11c.05-3.41-.15-6.86,0-10.27.09-2.01-.27-4.19,0-6.16-1.19-.37-3.27-2.12-4.11-2.05-3.18.27-2.87,1.38-4.11,2.05-.74.41-1.31,1.55-2.05,2.05-.71.48-1.43,1.4-2.05,2.05-.67.7-1.38,1.35-2.05,2.05-.6.2-1.54-.28-2.05,0-2.45,1.31-3.39,3.68-4.11,4.11-.51.3-1.54-.3-2.05,0-.76.45-1.3,1.59-2.05,2.05-1.29.8-2.81,1.27-4.11,2.05-2.17,1.32-4.11,2.85-6.16,4.11-.77.47-1.32,1.61-2.05,2.05-.5.3-1.55-.3-2.05,0-2.14,1.3-4.15,2.92-6.16,4.11-.76.45-1.33,1.63-2.05,2.05h-1.03c-.38-.07-.77-.15-1.02,0-.76.44-1.33,1.64-2.05,2.05-1.28.73-2.75,1.3-4.11,2.05-.76.42-1.32,1.65-2.05,2.05-.53.29-1.53-.29-2.05,0-2.42,1.32-4.44,3.19-6.16,4.11-.53.28-1.52-.28-2.05,0-3.51,1.85-6.62,4.33-10.27,6.16-2.73,1.37-5.46,2.77-8.21,4.11-2.75,1.33-5.43,2.86-8.21,4.11-4.7,2.1-9.41,4.7-14.37,6.16-1.86.55-4.75-.67-6.16,2.05-.42-.18-1.35.02-2.05,0-2.23-.05-5.39-.71-6.16,2.05v2.05c-1.33.14-1.57,1.02-2.05,2.05-.26.55.19,1.44,0,2.05-2.12.77-1.55,2.7-2.05,4.11-.21.57.16,1.38,0,2.05-.66,2.8-1.45,5.13-2.05,8.21-.25,1.27.24,2.83,0,4.11l-.37,1.49c-.5,1.72-1.25,3.81-1.68,6.72-.1.67.1,1.38,0,2.05l-.28,1.11c-.48,1.6-1.4,4.17-1.77,7.1-.17,1.33.16,2.77,0,4.11-3.29,1.71-1.64,5.61-2.05,8.21-.21,1.31.17,2.78,0,4.11-.35,2.68-1.7,5.33-2.05,10.27-.1,1.36.05,2.74,0,4.11-3.49,2.7-2,8.46-2.05,12.32,0,.68-.03,1.37,0,2.05-6.4,34.51-8.33,69.7-10.27,104.71-.08,1.36.06,2.74,0,4.11-.63,13.76-4.51,21.68,0,36.96.55,1.87-.51,4.65,2.05,6.16v2.05c-.33.73-1.92,1.46-2.05,2.05-2.19,9.61-8.58,21.66-2.05,32.85-.86,4.56-1.53,9.74-2.05,14.37-.15,1.34.12,2.76,0,4.11-.14.26-.24.5-.31.74-.55,1.04-1.67,2.87-1.75,5.42-.04,1.35-.07,2.76,0,4.11-2.64,1.23-1.87,3.87-2.05,6.16-.1,1.25-.04,2.53,0,3.8v2.36c-2.6,1.22-1.92,3.85-2.05,6.16-.12,2.04.08,4.11,0,6.16-.09.34-1.91,1.18-2.05,6.16-.06,2.05.04,4.11,0,6.16-.66,1.97-1.32,2.58-2.05,6.16-.38,1.84.28,4.23,0,6.16-.1.67.1,1.38,0,2.05-.14.95-1.7,2.94-2.05,6.16-.22,2.01.24,4.16,0,6.16-.08.67.06,1.37,0,2.05-3.05,1.69-1.94,5.42-2.05,8.21H1v47.22h2.05c.03.68-.05,1.37,0,2.05.17,2.29-.58,4.88,2.05,6.16,0,1.31-.2,2.85,0,4.11.74,4.72,1.99,3.89,2.05,4.11v.95c-.06.4-.13.79,0,1.1.53,1.3-.07,3.34,2.05,4.11-.13.6-.02,1.42,0,2.05.06,2.16,2.53,6.37,4.11,8.21-.02.61-.16,1.51,0,2.05,2.22,7.78,8.44,15.54,12.32,22.59v1.01c-.08.39-.15.79,0,1.04,1.53,2.54,3.57,3.31,4.11,4.11v1.02c-.08.4-.16.81,0,1.04,2.69,3.8,4.1,9.42,8.21,12.32.58.41,1.21,1.39,2.05,2.05.14.65-.18,1.42,0,2.05.85,3.04,3.05,4.25,4.11,6.16,2.28,4.14,2.22,4.92,6.16,8.21.72.6,1.35,1.64,2.05,2.05.2.6-.27,1.53,0,2.05,1.47,2.81,2.83,2.74,4.11,4.11.3.51-.31,1.56,0,2.05.5.8,1.58,1.34,2.05,2.05,1.43,2.16,3.39,3.12,4.11,4.11.48.67,1.1,1.13,1.57,1.55.22.28.4.5.49.5.33.44-.33,1.64,0,2.05,1.58,1.97,3.1,2.93,4.11,4.11.62.73,1.38,1.37,2.05,2.05.71,1.24.85,2.59,2.05,4.11.59.75,1.43,1.33,2.05,2.05.63.72,1.45,1.31,2.05,2.05.6.74,1.44,1.32,2.05,2.05.64.64,1.37,1.62,2.05,2.05.33.4.72.75,1.1,1.11.37.45.69.86.96.95.34.39-.34,1.66,0,2.05,1.52,1.74,2.94,2.83,4.11,4.11.65.71,1.39,1.35,2.05,2.05,5.56,5.86,10.31,11.03,16.43,16.43,1.3,1.15,2.24,2.62,4.11,4.11.74.59,1.29,1.51,2.05,2.05.7.5,1.21,1.56,2.05,2.05.49.29,1.47-.27,2.05,0,.68.69,1.36,1.38,2.05,2.05.67.64,1.32,1.55,2.05,2.05,2.15,1.47,3.86,2.74,6.16,4.11.51.3,1.54-.3,2.05,0l2.05,2.05h2.05c1.75.92,3.39,2.8,6.16,4.11.28.13.65.07,1.02,0h1.04c3.95,1.91,7.56,5.12,12.32,6.16,1.23.27,2.81-.18,4.11,0,4.5,2.1,5.04,2.66,10.27,4.11.35.1.74.04,1.12,0h.93c.22.05-.47,1.21,4.11,2.05.69.13,1.45.06,2.22,0h1.89c2.01.32,4.26,1.58,8.21,2.05,2,.24,4.14-.18,6.16,0,.79,2.97,3.99,1.84,6.16,2.05v2.05h20.53v-2.05c1.69-.2,3.3-.21,4.11-2.05,3.41-.14,6.86.17,10.27,0,2.31-.12,4.95.54,6.16-2.05,1.36-.07,2.76.13,4.11,0,4.88-.49,3.89-1.98,4.11-2.05,1.33-.14,2.8.21,4.11,0,7.21-1.17,9.45-4.15,14.37-6.16h2.04c.78.1,1.57.21,2.06,0,.85-.36,1.47-1.8,2.05-2.05h2.05l2.05-2.05c.57-.26,1.49.26,2.05,0,.76-.35,1.35-1.7,2.05-2.05h1.01c.39.07.77.14,1.04,0,.77-.4,1.32-1.64,2.05-2.05h1.01c.39.07.78.15,1.04,0,.77-.45,1.31-1.6,2.05-2.05h1.02c.39.08.79.16,1.04,0,4.52-2.89,7.9-4.83,12.32-8.21.75-.58,1.31-1.46,2.05-2.05,6.71-5.34,10.78-10.26,16.43-16.43.65-.71,1.43-1.32,2.05-2.05.62-.73,1.45-1.31,2.05-2.05.96-1.19,2.65-2.08,4.11-4.11.78-1.09,3-1.76,4.11-4.11.31-.66,1.88-1.33,2.05-2.05.16-.64-.15-1.4,0-2.05.66-.7,1.42-1.33,2.05-2.05.63-.72,1.43-1.32,2.05-2.05.97-1.15,2.63-2.36,4.11-4.11,1.18-1.4,1.46-3.4,2.05-4.11.72-.62,1.39-1.37,2.05-2.05,1.38-1.43,2.52-2.04,4.11-4.11,1.03-1.34,1.28-2.78,2.05-4.11.59-.75,1.47-1.3,2.05-2.05.74-.95,2.61-2.23,4.11-4.11.33-.42-.33-1.64,0-2.05.59-.74,1.47-1.29,2.05-2.05.74-.98,2.57-1.98,4.11-4.11.32-.45-.32-1.59,0-2.05.52-.76,1.53-1.28,2.05-2.05.49-.73,1.56-1.25,2.05-2.05v-2.05c1.21-1.34,2.42-1.79,4.11-4.11.16-.22.08-.63,0-1.03v-1.02c.64-.89,2.51-1.77,4.11-4.11.16-.24.08-.63,0-1.03v-1.02c.5-.76,2.62-1.78,4.11-4.11.31-.49-.31-1.56,0-2.05.47-.74,1.58-1.28,2.05-2.05,2.09-3.4,2.83-6.04,4.11-8.21.44-.75,1.61-1.29,2.05-2.05.3-.51-.29-1.54,0-2.05.41-.73,1.63-1.3,2.05-2.05,1.64-2.95,2.67-5.51,4.11-8.21.39-.73,1.66-1.31,2.05-2.05.28-.54-.28-1.52,0-2.05.38-.72,1.68-1.31,2.05-2.05.14-.28.07-.66,0-1.04v-1.02c.79-1.63,2.84-3.43,4.11-6.16.14-.29.06-.68,0-1.07v-.98c.05-.13,1.35.74,2.05-2.05.3-1.17-.2-2.82,0-4.11.08-.12.85.65,2.05-2.05.41-.92-.37-2.98,0-4.11,1.07-3.24,3.51-5.2,4.11-10.27.23-1.99-.06-4.14,0-6.16,3.05-1.69,1.96-5.41,2.05-8.21h2.05v-26.69h-2.05Z" style="fill:none; stroke:#000; stroke-miterlimit:10; stroke-width:2px;"/></svg>