<svg id="Layer_1" enable-background="new 0 0 468 468" height="512" viewBox="0 0 468 468" width="512" xmlns="http://www.w3.org/2000/svg"><g><g><g><path d="m132 185h75v283h-75z"/><path d="m261 245h75v223h-75z"/><path d="m390 139h75v329h-75z"/><path d="m3 292h75v176h-75z"/></g></g><path d="m424.918 0c-20.972 0-37.972 16.989-37.972 37.946 0 4.905.941 9.588 2.637 13.891l-73.183 62.343c-5.37-2.907-11.521-4.558-18.057-4.558-10.853 0-20.635 4.557-27.555 11.852l-63.176-25.874c.005-.245.019-.488.019-.735 0-20.957-17.001-37.946-37.973-37.946s-37.972 16.989-37.972 37.946c0 2.121.182 4.198.517 6.224l-65.635 38.807c-6.463-5.092-14.615-8.139-23.484-8.139-20.972 0-37.973 16.989-37.973 37.946s17.001 37.946 37.973 37.946 37.972-16.989 37.972-37.946c0-2.121-.182-4.198-.517-6.224l65.635-38.807c6.463 5.092 14.615 8.139 23.485 8.139 10.853 0 20.635-4.557 27.555-11.852l63.176 25.874c-.005.245-.019.488-.019.734 0 20.957 17.001 37.946 37.973 37.946s37.972-16.989 37.972-37.946c0-4.391-.755-8.604-2.128-12.527l73.991-63.032c5.051 2.483 10.73 3.884 16.74 3.884 20.972 0 37.973-16.989 37.973-37.946s-17.002-37.946-37.974-37.946z"/></g></svg>