<?xml version="1.0" encoding="UTF-8"?>
<svg xmlns="http://www.w3.org/2000/svg" viewBox="0 0 64 64" width="512" height="512"><g id="Icon"><path d="M60.375,23.958,33.73828,5.00977a3.00213,3.00213,0,0,0-3.47656,0h-.001L3.626,23.95752A2.98608,2.98608,0,0,0,2.5166,27.34814L12.67578,57.94531A2.99634,2.99634,0,0,0,15.52344,60H48.47656a2.99634,2.99634,0,0,0,2.84766-2.05469L61.4834,27.34766A2.98564,2.98564,0,0,0,60.375,23.958Zm-1.84314,1.1438-5.40448,1.80151a2.98391,2.98391,0,0,0-4.15106-.09833L34.95691,19.42633A2.96936,2.96936,0,0,0,33,16.18427V6.93909ZM34.0274,21.19708l14.009,7.373c-.00159.011-.00605.02179-.00751.03271L33,33.61249V21.81573A2.99,2.99,0,0,0,34.0274,21.19708ZM44,52a1,1,0,1,1,1-1A1.001,1.001,0,0,1,44,52Zm-2.65283-2.371L24.9375,47.39136a2.95636,2.95636,0,0,0-.29407-.77973l7.3617-9.93829,9.49945,12.66595A3.0035,3.0035,0,0,0,41.34717,49.629ZM22,49a1,1,0,1,1,1-1A1.001,1.001,0,0,1,22,49ZM32,18a1,1,0,1,1-1,1A1.001,1.001,0,0,1,32,18Zm-1.68787,3.47736A2.99017,2.99017,0,0,0,31,21.81567V33.61249L20.73212,30.18988a2.96348,2.96348,0,0,0-.39313-1.39844ZM18.73926,30.26025a1,1,0,1,1-1-1A1.001,1.001,0,0,1,18.73926,30.26025ZM20.1012,32.088l10.27441,3.42481-7.20435,9.72583a2.98666,2.98666,0,0,0-.961-.21735L18.88013,33.03217A3.00315,3.00315,0,0,0,20.1012,32.088Zm1.33392,18.855A2.99018,2.99018,0,0,0,24.653,49.37085L41.0625,51.60852a2.994,2.994,0,0,0,3.82556,2.242L48.00012,58H16.20758ZM43.90173,48.01a2.96194,2.96194,0,0,0-.78979.13946L33.63245,35.51007l14.82727-4.94244a2.97922,2.97922,0,0,0,.73394.8106Zm6.77808-18.06256a1,1,0,1,1,1.26758-.6272A1.0011,1.0011,0,0,1,50.67981,29.94739ZM31,6.93909v9.24518a2.97841,2.97841,0,0,0-1.86023,3.67266L18.777,27.45624a2.97216,2.97216,0,0,0-3.38184.95465l-9.92694-3.309ZM4.46747,26.87671l10.276,3.42529a2.9918,2.9918,0,0,0,2.08008,2.80017l3.45727,12.44629a3.00113,3.00113,0,0,0-.5722,4.36475l-5.24237,7.07715ZM49.59784,56.7973l-3.10242-4.13653a3.00721,3.00721,0,0,0-.68872-4.04L51.09857,31.989a3.00561,3.00561,0,0,0,2.88416-3.26233l5.54962-1.84985Z"/></g></svg>
