<svg enable-background="new 0 0 492 492" viewBox="0 0 492 492" xmlns="http://www.w3.org/2000/svg"><g id="Master_Layer_2"/><g id="Layer_1"><g><g clip-rule="evenodd" fill="rgb(0,0,0)" fill-rule="evenodd"><path d="m338.585 428.829c0 1.23 1.001 2.231 2.231 2.231h28.724c1.23 0 2.231-1.001 2.231-2.231v-13.098h-33.185v13.098z"/><path d="m120.75 428.829c0 1.23 1.001 2.231 2.231 2.231h28.724c1.23 0 2.231-1.001 2.231-2.231v-13.098h-33.186z"/><path d="m111.018 318.916c4.033 0 7.315-3.28 7.315-7.312v-30.631c0-1.951-.762-3.789-2.145-5.174-1.378-1.378-3.215-2.138-5.17-2.138-4.032 0-7.312 3.28-7.312 7.312v30.631c0 4.032 3.28 7.312 7.312 7.312z"/><path d="m111 196.391c.006 0 .012-.001.018-.001s.012.001.018.001c4.025-.01 7.297-3.287 7.297-7.314v-30.631c0-1.952-.761-3.787-2.143-5.169s-3.219-2.143-5.172-2.143c-4.032 0-7.312 3.28-7.312 7.312v30.63c0 4.028 3.27 7.305 7.294 7.315z"/><ellipse cx="246.267" cy="235.024" rx="16.338" ry="16.338" transform="matrix(.937 -.35 .35 .937 -66.731 101.175)"/><path d="m204.051 235.025c0 2.237-1.814 4.051-4.051 4.051h-11.622c.865 12.629 5.77 24.468 14.089 34.011l8.177-8.174c.736-.758 1.766-1.229 2.906-1.229 2.237 0 4.051 1.812 4.051 4.05 0 1.075-.427 2.108-1.187 2.868l-8.219 8.216c9.542 8.32 21.381 13.224 34.014 14.089v-11.622c0-2.237 1.814-4.051 4.051-4.051s4.051 1.814 4.051 4.051v11.622c12.63-.865 24.469-5.769 34.013-14.089l-8.218-8.216c-1.582-1.582-1.582-4.147-.001-5.729 1.582-1.582 4.147-1.583 5.729-.001l8.219 8.217c8.32-9.543 13.224-21.382 14.089-34.013h-11.622c-2.237 0-4.051-1.814-4.051-4.051s1.814-4.051 4.051-4.051h11.622c-.865-12.633-5.769-24.471-14.089-34.013l-8.219 8.217c-.791.791-1.827 1.186-2.864 1.186s-2.074-.395-2.865-1.187c-1.582-1.582-1.582-4.147.001-5.729l8.218-8.217c-9.544-8.32-21.382-13.223-34.013-14.089v11.622c0 2.237-1.814 4.051-4.051 4.051s-4.051-1.814-4.051-4.051v-11.622c-12.633.865-24.472 5.77-34.014 14.09l8.22 8.218c1.582 1.582 1.582 4.147.001 5.729-.791.791-1.828 1.187-2.865 1.187s-2.073-.395-2.864-1.186l-8.219-8.218c-8.32 9.542-13.224 21.38-14.089 34.011h11.621c2.238.001 4.051 1.815 4.051 4.052zm42.209-24.44c13.476 0 24.44 10.964 24.44 24.44s-10.964 24.44-24.44 24.44-24.44-10.964-24.44-24.44 10.964-24.44 24.44-24.44z"/><path d="m126.434 158.446v30.63c0 7.099-4.824 13.089-11.366 14.873v62.149c2.567.694 4.92 2.045 6.85 3.974 2.913 2.916 4.516 6.787 4.516 10.901v30.631c0 7.097-4.825 13.087-11.366 14.87v37.2c0 1.402 1.139 2.542 2.54 2.542h257.303c1.4 0 2.54-1.14 2.54-2.542v-257.298c0-1.402-1.139-2.542-2.539-2.542h-257.303c-1.4 0-2.54 1.14-2.54 2.542v37.196c2.566.695 4.919 2.046 6.85 3.977 2.911 2.911 4.515 6.782 4.515 10.897zm220.916 61.124c0-2.237 1.814-4.051 4.051-4.051s4.051 1.814 4.051 4.051v30.909c0 2.237-1.814 4.051-4.051 4.051s-4.051-1.814-4.051-4.051zm-147.82-31.328c12.484-12.473 29.078-19.342 46.73-19.342 17.662 0 34.266 6.878 46.756 19.367 0 .001.001.001.001.001.001.001.001.001.002.002 12.48 12.479 19.357 29.071 19.365 46.722 0 .011.002.021.002.032s-.001.021-.002.032c-.009 17.648-6.884 34.239-19.364 46.721-.001.001-.002.002-.003.004-.001.001-.002.002-.003.003-12.489 12.488-29.093 19.365-46.754 19.365-17.66 0-34.262-6.875-46.747-19.359-.019-.019-.036-.039-.054-.058-12.452-12.476-19.314-29.047-19.323-46.673 0-.012-.002-.023-.002-.035s.002-.023.002-.035c.009-17.621 6.864-34.185 19.307-46.657.029-.03.057-.06.087-.09z"/><path d="m411.325 407.63c4.158 0 7.54-3.382 7.54-7.54v-330.13c0-4.158-3.383-7.54-7.54-7.54h-330.13c-4.158 0-7.54 3.382-7.54 7.54v330.13c0 4.158 3.382 7.54 7.54 7.54zm-304.358-43.956v-37.2c-6.54-1.784-11.363-7.773-11.363-14.87v-30.631c0-7.097 4.823-13.086 11.363-14.87v-62.154c-6.54-1.784-11.363-7.774-11.363-14.872v-30.631c0-7.097 4.823-13.086 11.363-14.87v-37.2c0-5.869 4.774-10.644 10.642-10.644h257.303c5.868 0 10.642 4.775 10.642 10.644v257.298c0 5.869-4.774 10.644-10.642 10.644h-257.303c-5.868 0-10.642-4.775-10.642-10.644z"/></g></g></g></svg>