<?xml version="1.0" encoding="UTF-8"?><svg id="Layer_1" xmlns="http://www.w3.org/2000/svg" width="511.98" height="740.93" viewBox="0 0 511.98 740.93"><path d="M510.24,191.64c-3.13-27.08-35.47-25.35-55.42-29.56-.31-.06-.62-.13-.94-.19l-2.75-.55c-.23-.05-.51.06-.74,0l-2.96-.74c-1.59-2.46-8.47-31.61-10.35-37.69-6.43-20.82-22.88-72.68-39.55-85.69-3.29-2.57-7.5-4.56-11.43-5.93-9.7-5.62-90.96-31.88-94.58-28.08-.9.95,4.95,23.65-2.22,8.13-.54-7.24.78-8.59-6.65-9.61v-.74h-26.6v.74c-2.05.13-9.94.12-11.12,1.07-1.41,1.13-.97,6.11-1.44,7.8-.25.9-.86,4.17-2.13,5.36-.8-.53-1.41-.39-1.9.12-.13-.09-.27-.19-.41-.32-.37-.34,2.35-8.87.74-10-3.86-2.71-82.86,17.83-91.64,21.83-11.79,3.01-22.16,13.86-28.09,24-4.72,8.06-10.54,21.66-8.11,30.68.03.25-.06.53,0,.74-5.57,4.13-6.39,16.23-7.9,23.5-5.48,26.39-13.44,66.98-14.26,93.25,0,.24,0,.49,0,.74-20.63,18.27-48.04,29.65-70.13,46.26-5.25,3.95-8.12,5.64-11.9,11.38-3.52,2.46-4.26,6.52-5.17,10.35-.06.23.05.5,0,.74-.07.2-.12.38-.16.56-.38,1.17-1.23,3.09-1.32,3.88-.37,3.24.27,7.03,0,10.35l7.2,138.99c.01.31.03.62.05.92l.14,2.71c-.02.49,0,.99,0,1.48-.04,10.14.78,21.31,3.69,31.04.03.24-.03.5,0,.74.25,1.82-.08,3.74,1.48,5.17.04.24-.05.51,0,.74,1.34,5.99,3.28,9.12,6.65,14.04,2.79,4.08,5.13,6.43,8.87,9.61,1.33,1.13,1.76,1.33,2.96,2.22,3.07,2.26,4.72,2.76,7.39,4.43,4.86,3.05,11.22,5.38,15.52,8.13,3.12,2,6.26,4.02,9.37,6.1.24.47.73.87,1.61,1.08,10.22,6.95,19.97,14.65,27.45,24.59,10.36,42.23,39.3,109.17,65.03,144.09,15.55,24.67,38.91,45.33,67.54,53.08.17.06.32.1.44.12.24.05.51-.06.74,0,1.4,1.67,3.54,1.09,5.17,1.48,10.13,2.37,19.89,3.91,30.3,4.43v.74h25.86v-.74c19-.89,36.67-3.82,53.94-11.82,34.3-15.9,54.98-51.25,71.68-83.5,4.46-8.61,8.68-16.96,12.56-25.86.49-1.13,1.54-2.16,1.48-3.69,4.15-7.99,7.68-17.45,11.08-25.86,2.91-7.21,5.47-14.13,8.13-21.43,4.54-12.5,7.73-25.22,12.56-37.69,2.16-5.58,4.31-10.13,6.65-15.52.75-1.72,1.48-3.45,2.22-5.17,1.16-2.71,3.06-5.78,4.43-8.87,6.08-13.72,13.72-26.99,16.26-42.12,3.59-8.03,5.3-17.92,6.65-26.6,11.93-46.94,12.84-147.12,14.04-198.77h.74v-40.64h-.74Z" style="fill:none; stroke:#000; stroke-miterlimit:10; stroke-width:2px;"/></svg>