<?xml version="1.0" encoding="UTF-8"?><svg id="Layer_1" xmlns="http://www.w3.org/2000/svg" width="676.17" height="230.72" viewBox="0 0 676.17 230.72"><path d="M675.07,174.79c-5.02-8.63-10.58-17.16-16.91-24.89-2.14-3.95-5.24-7.29-7.98-10.8-23.67-30.31-47.62-55.65-77.97-79.38-1.58-1.23-3.07-2.53-4.7-3.76-9.14-6.9-17.23-13.03-27.24-18.79-1.2-.69-2.54-1.21-3.76-1.88-4.18-2.3-8.36-4.53-12.68-6.58-.13-.06-.34.06-.47,0l-.19-.19c-.09-.11-.17-.23-.28-.28-5.16-2.39-11.01-5.54-16.44-7.05-20.39-9.29-43-14.44-65.28-16.91-52.53-6.83-106.17-2.13-158.28,5.64-13.33,1.99-27.07,3.56-39.92,7.51-.57.16-.66.34-.94.47l-68.57,17.38c-30.44-8.72-62.86-.27-79.38,28.18-16.32,6.18-32.73,12.29-48.84,19.03-9.07,3.79-20.36,7.5-28.66,12.44-2.11,1.25-9.5,6.62-10.33,8.45-.98,2.17-1.84,7.91-1.43,10.12.31,1.63,2.82,3.33,2.37,3.96-.14.2-2.75.45-4.23,2.35-.8,1.04-1.28,1.14-.94,2.82-.07.61.03,1.26,0,1.88-.86,1.05-.46,2.92-.47,4.23-.76.5-.46,1.59-.47,2.35-.02,1.24-.06,2.52,0,3.76v.06c-.01.26-.18.23,0,1.35.05.3-.07.67,0,.94,1.24,5.04,15.3,20.85,19.26,25.83,1.4,1.76,2.81,3.43,4.23,5.17,1.5,1.84,3.33,3.52,4.7,5.17,2.38,2.87,4.72,5.99,7.05,8.92,2.35,2.96,4.45,6.17,7.05,8.92.06.13-.06.35,0,.47.28.52.72.75.88.88l.06.06c2.11,3.57,4.56,7.02,7.05,10.33.06.13-.05.33,0,.47.18.45.48.76.94.94.06.12-.06.34,0,.47.41.84,1.09,1.43,1.88,1.88.08.1-.08.38,0,.47,1.44,1.66,2.51,2.14,4.23,3.29.47.31,1.13.3,1.41.47.4.24.62.52,1.41.94.12.07.35-.06.47,0,.15.08.28.37.47.47.5.25,1.03.29,1.41.47.31.15.6.31.94.47.13.06.34-.06.47,0l.54.27c.39.21.81.44,1.34.67.47.2.97.29,1.41.47l.28.14c.19.1.4.22.65.33,14.6,5.99,28.87,11.14,45.09,9.86,148.99-1.57,298.66,8.17,447.6,3.29,20.42-.67,40.86-1.69,61.06-4.7,4.83-.72,9.33-1,14.09-2.35,9.43-2.68,14.87-9.58,22.59-15.22,4.21-3.07,9.42-4.65,13.1-8.5l2.17-21.03c.28-.22.39-.62.18-1.74Z" style="fill:none; stroke:#000; stroke-miterlimit:10; stroke-width:2px;"/></svg>