<?xml version="1.0" encoding="UTF-8"?><svg id="Layer_1" xmlns="http://www.w3.org/2000/svg" width="381.69" height="676.18" viewBox="0 0 381.69 676.18"><path d="M378.75,265.28c0-2.37.4-5.27-.47-7.47-.01-.31.03-.63,0-.93l-1.87-29.4c.02-.93,0-1.87,0-2.8,0-1.3.39-3.15-.47-4.2,0-.62,0-1.24,0-1.87,0-1.3.39-3.15-.47-4.2-.39-17.75-3.01-36.93-5.13-54.61l-.47-3.73c0-.16,0-.31,0-.47,0-1.01.35-2.52-.47-3.27-.02-.15.02-.32,0-.47-1.58-15.18-3.79-30.3-6.22-45.36-1.81-11.23-3.78-29.97-7.32-40.06-1.34-9.02-7.37-15.99-14.47-21-16.18-11.43-56.67-24.96-76.57-31.48-6.44-2.11-19.15-7.27-25.15-7.98-3.2-.38-5.71.86-7.22.69-4.33-.48-9.58-3.41-14.28-3.24-11.39-3.83-29.33-2.39-41.15-.78-3.8.52-12.48,3.55-15.09,3.54-1.81,0-3.43-1.52-6.88-1.24-10.97.9-40.57,12.08-52.41,16.2-13.92,4.84-36.73,12.08-48.76,19.62-10.59,6.64-14.44,14.38-17.42,26.22-10.4,41.46-16.13,93.18-20.84,135.98-.37,3.32-.35,14.46-.94,16.33-.49,1.55-2.22.94-3.74,2.56-1.27,1.36-2.51,2.68-3.27,4.43-3.42,7.83-5.97,56.54-6.08,67.66-.04,4.35-.87,14.91,4.68,16.12.14.03.32-.01.47,0l3.73.47c0,.93.02,1.87,0,2.8-.44.06-1-.09-1.4,0-1.92.45-1.89,7.97-1.4,9.57.58,1.88,1.57.83,2.33,1.17-.04,2.35,1.91,1.88-1.87,2.8-.29-.02-.66-.04-.93,0-4.38.62-5.81,5.56-6.09,9.55-1.02,14.55,3.78,71.12,8.99,83.93,1.53,3.76,4.64,5.28,5.65,7.88,3.22,8.26,5.03,27.31,7.45,37.36,2.99,12.42,6.72,24.5,10.13,36.78,14.97,53.95,26.41,100.45,70.94,138.15,8.04,6.81,14.09,11.18,23.34,16.34,3.86,2.15,7.14,3.81,11.2,5.6,9.81,4.32,19.25,7.85,29.87,9.8,30.91,7.05,70.17,1.24,96.61-16.8,24.05-13.64,42.38-33.91,56.48-57.41,14.57-24.3,22.25-49.57,28.94-77.01,1.19-4.04,2.19-8.07,3.27-12.14,24.45-78.33,30.31-161.79,24.74-243.64Z" style="fill:none; stroke:#000; stroke-miterlimit:10; stroke-width:2px;"/></svg>