<?xml version="1.0" encoding="UTF-8"?><svg id="Layer_1" xmlns="http://www.w3.org/2000/svg" viewBox="0 0 512 512"><path d="M256,0C115.03,0,0,115.05,0,256s115.05,256,256,256,256-115.05,256-256S396.95,0,256,0ZM256,482c-124.62,0-226-101.38-226-226S131.38,30,256,30s226,101.38,226,226-101.38,226-226,226Z"/><path d="M370,206.05l-45,45c-3,3-6,4.5-10.5,4.5s-7.5-1.5-10.5-4.5c-6-6-6-15,0-21l19.5-19.5h-174c-7.5,0-15-7.5-15-15s7.5-15,15-15h174l-19.5-19.5c-6-6-6-15,0-21s15-6,21,0l45,45c6,6,6,15,0,21Z"/><path d="M374.5,315.55c0,7.5-7.5,15-15,15h-174l19.5,19.5c6,6,6,15,0,21-3,3-6,4.5-10.5,4.5s-7.5-1.5-10.5-4.5l-45-45c-6-6-6-15,0-21l45-45c6-6,15-6,21,0s6,15,0,21l-19.5,19.5h174c7.5,0,15,7.5,15,15Z"/></svg>