<?xml version="1.0" encoding="UTF-8"?><svg id="Layer_1" xmlns="http://www.w3.org/2000/svg" viewBox="0 0 512 512"><path d="M256,0C115.03,0,0,115.05,0,256s115.05,256,256,256,256-115.05,256-256S396.95,0,256,0ZM256,482c-124.62,0-226-101.38-226-226S131.38,30,256,30s226,101.38,226,226-101.38,226-226,226Z"/><g id="Icon"><path d="M437.3,193.12l-167.84-119.4c-6.56-4.66-15.35-4.66-21.91,0h0l-167.83,119.39c-6.8,4.79-9.64,13.48-6.99,21.37l64.02,192.8c2.56,7.74,9.8,12.96,17.94,12.95h207.65c8.15,0,15.38-5.21,17.94-12.95l64.02-192.8c2.65-7.88-.19-16.56-6.98-21.36ZM425.68,200.33l-34.05,11.35c-7.12-7.23-18.7-7.51-26.16-.62l-88.34-46.49c1.33-8.89-3.85-17.46-12.33-20.43v-58.26l160.88,114.45ZM271.28,175.73l88.27,46.46c-.01.07-.04.14-.05.21l-94.7,31.57v-74.33c2.4-.85,4.6-2.17,6.47-3.9ZM334.12,369.82c-3.48,0-6.3-2.82-6.3-6.3s2.82-6.3,6.3-6.3,6.3,2.82,6.3,6.3c0,3.48-2.82,6.3-6.3,6.3ZM317.4,354.88l-103.4-14.1c-.38-1.72-1.01-3.37-1.85-4.91l46.39-62.62,59.86,79.81c-.36.59-.69,1.2-.99,1.83ZM195.49,350.92c-3.48,0-6.3-2.82-6.3-6.3s2.82-6.3,6.3-6.3,6.3,2.82,6.3,6.3c0,3.48-2.82,6.3-6.3,6.3ZM258.5,155.58c3.48,0,6.3,2.82,6.3,6.3s-2.82,6.3-6.3,6.3-6.3-2.82-6.3-6.3c0-3.48,2.82-6.3,6.3-6.3ZM247.86,177.49c1.35.89,2.8,1.61,4.33,2.13v74.33l-64.7-21.57c-.08-3.1-.93-6.13-2.48-8.81l62.84-46.09ZM174.94,232.84c0,3.48-2.82,6.3-6.3,6.3s-6.3-2.82-6.3-6.3,2.82-6.3,6.3-6.3c3.48,0,6.3,2.82,6.3,6.3ZM183.52,244.35l64.74,21.58-45.4,61.28c-1.93-.79-3.98-1.25-6.06-1.37l-20.98-75.55c3.04-1.28,5.69-3.33,7.69-5.95ZM191.93,363.16c8.21,1.56,16.46-2.47,20.28-9.91l103.4,14.1c2.14,10.2,12.14,16.73,22.34,14.59.6-.13,1.19-.28,1.77-.46l19.61,26.15h-200.33l32.94-44.47ZM333.5,344.68c-1.69.07-3.37.36-4.98.88l-59.73-79.64,93.43-31.14c1.21,1.97,2.78,3.71,4.62,5.11l-33.35,104.8ZM376.21,230.87c-3.3-1.11-5.07-4.69-3.95-7.99s4.69-5.07,7.99-3.95c3.3,1.11,5.07,4.69,3.95,7.99-1.12,3.29-4.69,5.06-7.99,3.95h0ZM252.2,85.88v58.26c-9.47,3.34-14.63,13.53-11.72,23.14l-65.3,47.89c-7.65-2.86-16.28-.42-21.31,6.02l-62.55-20.85,160.88-114.45ZM85.01,211.52l64.75,21.58c.13,8.08,5.41,15.18,13.11,17.64l21.79,78.43c-8.52,6.04-10.52,17.85-4.48,26.37.28.39.57.77.87,1.14l-33.03,44.59-63-189.75ZM369.39,400.05l-19.55-26.07c5.45-8.31,3.56-19.42-4.34-25.46l33.35-104.8c10.45-.38,18.62-9.17,18.23-19.62-.01-.31-.03-.62-.06-.94l34.97-11.66-62.6,188.54Z"/></g></svg>