<?xml version="1.0" encoding="UTF-8"?><svg id="Layer_1" xmlns="http://www.w3.org/2000/svg" viewBox="0 0 512 512"><path d="M256,0C115.03,0,0,115.05,0,256s115.05,256,256,256,256-115.05,256-256S396.95,0,256,0ZM256,482c-124.62,0-226-101.38-226-226S131.38,30,256,30s226,101.38,226,226-101.38,226-226,226Z"/><g id="Layer_2"><g id="circle_and_square"><path d="M257.91,194.64c30.46-.08,59.86,11.08,82.62,31.31l9.98-9.98c15.07-15.07,15.11-39.54,0-54.64l-70.56-70.56c-15.11-15.11-39.58-15.07-54.64,0l-70.61,70.61c-15.07,15.07-15.11,39.54,0,54.64l15.15,15.15c23.29-23.45,55.01-36.61,88.07-36.52h0Z"/><circle cx="257.91" cy="319.23" r="110.22"/></g></g></svg>