<?xml version="1.0" encoding="UTF-8"?><svg id="Layer_1" xmlns="http://www.w3.org/2000/svg" viewBox="0 0 512 512"><path d="M256,0C115.03,0,0,115.05,0,256s115.05,256,256,256,256-115.05,256-256S396.95,0,256,0ZM256,482c-124.62,0-226-101.38-226-226S131.38,30,256,30s226,101.38,226,226-101.38,226-226,226Z"/><path d="M187.35,223.52h50.48v190.48h-50.48v-190.48Z"/><path d="M274.17,263.9h50.48v150.1h-50.48v-150.1Z"/><path d="M361,192.56h50.48v221.44h-50.48v-221.44Z"/><path d="M100.52,295.54h50.48v118.46h-50.48v-118.46Z"/><path d="M384.5,99c-14.12,0-25.56,11.43-25.56,25.54,0,3.3.63,6.45,1.77,9.35l-49.26,41.96c-3.61-1.96-7.75-3.07-12.15-3.07-7.3,0-13.89,3.07-18.55,7.98l-42.52-17.42c0-.16.01-.33.01-.49,0-14.11-11.44-25.54-25.56-25.54s-25.56,11.43-25.56,25.54c0,1.43.12,2.83.35,4.19l-44.18,26.12c-4.35-3.43-9.84-5.48-15.81-5.48-14.12,0-25.56,11.43-25.56,25.54s11.44,25.54,25.56,25.54,25.56-11.43,25.56-25.54c0-1.43-.12-2.83-.35-4.19l44.18-26.12c4.35,3.43,9.84,5.48,15.81,5.48,7.3,0,13.89-3.07,18.55-7.98l42.52,17.42c0,.16-.01.33-.01.49,0,14.11,11.44,25.54,25.56,25.54s25.56-11.43,25.56-25.54c0-2.96-.51-5.79-1.43-8.43l49.8-42.43c3.4,1.67,7.22,2.61,11.27,2.61,14.12,0,25.56-11.43,25.56-25.54s-11.44-25.54-25.56-25.54h0Z"/></svg>