<?xml version="1.0" encoding="UTF-8"?><svg id="Layer_1" xmlns="http://www.w3.org/2000/svg" viewBox="0 0 512 512"><path d="M256,0C115.03,0,0,115.05,0,256s115.05,256,256,256,256-115.05,256-256S396.95,0,256,0ZM256,482c-124.62,0-226-101.38-226-226S131.38,30,256,30s226,101.38,226,226-101.38,226-226,226Z"/><path d="M265.62,95.12c-5.05-2.81-11.19-2.81-16.24,0l-122.87,68.26,131.25,79.89,136.72-76.56-128.87-71.59ZM407.97,187.91l-137.93,77.24v152.87l129.33-71.85c5.31-2.95,8.6-8.54,8.6-14.61v-143.65ZM244.96,418.02v-153.17l-137.93-83.96v150.67c0,6.07,3.29,11.67,8.6,14.61l129.33,71.85Z" style="fill-rule:evenodd;"/></svg>