<?xml version="1.0" encoding="UTF-8"?><svg id="Layer_1" xmlns="http://www.w3.org/2000/svg" width="371.98" height="693.1" viewBox="0 0 371.98 693.1"><path d="M366.18,220.27c-.45-5.24-.85-10.46-1.39-15.71-.34-3.36-.23-10.54-1.39-13.4-.32-9.76-2.68-19.32-4.09-28.95-3.8-25.86-6.82-52.97-12.61-78.42-.17-.76-.18-1.6-.86-2.14-2.06-10.99-3.75-25.31-8.78-35.12-.67-1.3-1.15-3.28-2.31-4.16-.73-.55-1.13-.11-1.85-.46-.32-1.18-.38-1.73-1.14-2.79-5.92-8.38-30.92-17.22-40.91-20.77-22.76-8.09-44.62-13.39-68.85-15.25l-12.25-1.38c-4.32,1.03-13.39-1.59-17.03-.4-.61.2-.66.53-.76,1.09-.48,2.6.04,7.7.02,10.66,0,.85-.48,1.73-.48,2.05h-3.24c-.42-2.48.75-11.73-.41-13.21-1.11-1.4-3.38-.2-4.88-.17-40.02.87-88.32,9.26-123.63,28.85-4.37,2.42-11.8,6.66-12.93,11.79-.85-.12-1.18-.09-1.85.46-3.16,2.59-5.69,13.53-6.47,17.56-2.64,9.36-3.98,19.06-5.54,28.65-5.62,26.86-9.26,54.13-12.94,81.32-.74,5.45-1.16,14.13-2.32,19.1-.08.35-.87.29-.93.62-.16.85.55,2.32.5,3.6-.39,8.31-3.14,18.25-3.25,26.13-4.61,4.71-3.66,12.29-4.62,18.48-3.26,21.05-6.42,41.67-7.41,63.05-.22,4.67-.86,12.33-.47,16.68.42,4.59,4.63,4.14,8.34,4.37.33,3.16-.66,7.31.46,10.17.18.46.46.86.46,1.39-.3.04-.62-.03-.92,0-1.55-.73-5.37-.82-6.93,0-2.55,1.34-.98,3.31-.93,5.32.76,28.91,6.01,61.08,11.7,89.49.62,3.09.9,6.33,3.09,8.69.57,6.7,2.09,13.27,3.23,19.87.14.8.33,1.56.46,2.31,1.14,6.42,2.4,12.66,3.7,18.94.16.77.3,1.53.46,2.31,2.27,10.82,4.66,21.18,7.39,31.88,4.83,18.9,9.97,36.53,16.63,54.99,1.05,2.91,1.76,5.97,2.89,8.89,6.14,15.93,13.63,31.83,22.99,46.09.54,1.64,1.51,2.51,2.31,3.7.65.97,1.55,2.1,2.31,3.23,4.17,6.24,7.47,10.16,12.48,15.71.15.16.32.3.46.46.1.11.16.87.66,1.4,3.22,3.43,6.91,7.19,10.89,9.69,1.7,2.17,4.75,4.43,6.98,6.19,19.1,15.05,47.45,27.97,72.03,28.46.48.77,1.75.46,2.53.47,22.82.24,39.85-3.67,60.31-13.41,36.51-17.39,66.84-55.43,79.94-93.34.15-.45.32-.94.46-1.39.18-.6.65-.87.92-2.31.05-.29-.05-.64,0-.92,1.07.23,1-.52,1.31-1.21,1.25-2.69,1.87-5.34,2.85-8.04,41.7-115.29,46.02-229.83,35.58-351.17Z" style="fill:none; stroke:#000; stroke-miterlimit:10; stroke-width:2px;"/></svg>