<?xml version="1.0" encoding="UTF-8"?><svg id="Layer_1" xmlns="http://www.w3.org/2000/svg" width="732.63" height="254.76" viewBox="0 0 732.63 254.76"><path d="M729.66,196.49c-1.07-4.83-3.2-5.86-3.95-7.9-.37-1.02.39-3,0-3.95-3.29-8-11.56-26.37-17.77-31.59-.04-.63.14-1.38,0-1.97-.21-.88-1.77-1.51-1.97-1.97-.24-.55-.86-.97-1.36-1.36l-.61-.61c-.27-.52.28-1.48,0-1.97-1.43-2.49-2.99-2.79-3.95-3.95-.59-.72-1.35-1.3-1.97-1.97-.33-.35.33-1.62,0-1.97-2.32-2.49-3.1-3.53-5.92-5.92v-1.97c-.56-.74-1.38-1.28-1.97-1.97-1.4-1.63-2.94-2.77-3.95-3.95-1.38-1.6-2.95-2.79-3.95-3.95-1.27-1.48-1.73-3.82-3.95-5.92-.67-.64-1.27-1.38-1.97-1.97-1.89-1.6-2.5-3.65-5.92-5.92-1.4-.93-2.96-1.32-3.95-1.97-.34-.42-.75-.79-1.15-1.17-.26-.31-.53-.61-.83-.81-10.3-11.36-19.35-17.12-31.59-25.67-.44-.31-1.53.31-1.97,0-2.07-1.43-3.85-2.58-5.92-3.95-1.87-1.24-4.79-1.26-5.92-1.97-.59-.37-1.12-1.44-1.97-1.97-7.69-4.78-15.49-12.74-25.67-17.77-.53-.26-1.44.26-1.97,0-.69-.33-1.27-1.64-1.97-1.97-.89-.41-3.01.41-3.95,0-.67-.29-1.28-1.69-1.97-1.97-.56-.23-1.41.23-1.97,0-2.45-.97-4.76-2.91-7.9-3.95-.3-.1-.66-.05-1.01,0h-.96c-2.09-.66-4.74-3.28-7.9-3.95-.63-.13-1.33.1-1.97,0-.75-1.72-2.29-2.02-3.95-1.97-.66.02-1.32-.01-1.97,0-6.39-4.42-14.23-6.44-21.72-7.9-.63-.12-1.33.1-1.97,0-.74-1.9-2.42-1.56-3.95-1.97-.61-.17-1.38.18-1.97,0-43.72-13.45-84.6-18.37-130.33-19.75-1.97-.06-3.95.03-5.92,0-3.95-.07-7.9.04-11.85,0h-9.87c-1.97-.04-3.96.1-5.92,0-3.47-.18-6.82.13-9.87-1.97,0-.66,0-1.32,0-1.97v-1.97h-13.82v1.97c-1.95.13-3.99-.2-5.92,0-1.61.17-3.22.16-3.95,1.97-1.22.23-2.76-.26-3.95,0-.64.14-1.41,1.84-1.97,1.97h-.9c-.37-.04-.75-.09-1.08,0-2.11.6-3.89,1.21-5.92,1.97-1.95.74-3.74,1.88-5.92,1.97-4.26.43-3.92.12-7.9,1.97-1.31.03-2.63-.04-3.95,0-5.56.17-12.21,3.55-15.8,3.95-.65.07-1.33-.08-1.97,0-1.93.22-3.98-.14-5.92,0-4.95.35-11.91-1.82-15.8,1.97-.65.03-1.33-.07-1.97,0-1.62.19-3.17.21-3.95,1.97-1.28.16-2.87-.27-3.95,0-10.33,2.64-9.29,7.66-9.87,7.9h-1.96c-.78-.1-1.54-.21-1.99,0-.88.41-2.98-.4-3.95,0-1.24.51-1.84,1.93-1.97,1.97-1.11.35-3.12-.4-3.95,0-.96.46-1.89.67-1.97,1.97-.65.08-1.34-.11-1.97,0-.66.11-1.41-.17-1.97,0-.84.26-1.52,1.22-1.97,1.97-.64.1-1.35-.14-1.97,0-4.92,1.1-5.11,2.62-7.9,3.95h-.97c-.37-.07-.74-.14-1.01,0-3.63,1.89-3.69,2.46-5.92,3.95-.51.34-.94.88-1.38,1.38l-.59.59c-.64.54-2.62,1-3.95,1.97h-1.97l-1.97,1.97c-.63-.02-1.36-.08-1.97,0-2.6.35-7.82,3.81-9.87,5.92-1.32,0-2.63,0-3.95,0-2.63,0-5.27,0-7.9,0-1.97,0-3.96-.07-5.92,0-2.7.09-6.28-.96-7.9,1.97-1.87-.12-4.07-.2-5.92,0-.54.06-1.4,1.86-1.97,1.97-1.21.25-2.89-.31-3.95,0-.64.19-1.33,1.73-1.97,1.97h-.95c-.37-.06-.73-.12-1.02,0-.67.28-1.27,1.6-1.97,1.97-.52.28-1.5-.29-1.97,0-.74.44-1.26,1.47-1.97,1.97h-1.97c-.74.58-1.39,1.24-1.97,1.97-.51.64-1.68,1.17-1.97,1.97-.58.19-1.48-.26-1.97,0-2.64,1.39-2.71,2.87-3.95,3.95-.19.1-.46.41-.77.75-.4.41-.79.83-1.21,1.22-.68.63-1.3,1.33-1.97,1.97-.67.64-1.36,1.29-1.97,1.97-.62.68-1.41,1.26-1.97,1.97-.49.62-1.23,1.11-1.75,1.71-.1.09-.19.18-.22.26-.5.72-1.54,1.25-1.97,1.97-.38.64-1.63,1.17-1.97,1.97-.22.51.18,1.32,0,1.97-.75.51-1.27,1.49-1.97,1.97-2.37,1.61-6.18,5.04-7.9,5.92-2.51,1.3-7.54.58-9.87,3.95-.61-.1-1.34,0-1.97,0-.53,0-1.41,1.84-1.97,1.97h-.86c-.39-.05-.77-.1-1.11,0-.66.21-1.32,1.71-1.97,1.97h-.96c-.36-.06-.72-.12-1.01,0-2.36,1-3.43,3.7-3.95,3.95-.54.26-1.48-.28-1.97,0-4.05,2.28-5.15,3.99-7.9,5.92-.44.31-1.54-.31-1.97,0-1.5,1.07-1.64,1.69-1.97,1.97h-1.97c-.78.52-1.29,1.38-1.97,1.97-.7.61-1.32,1.32-1.97,1.97h-1.97c-2.33.43-2.85,2.92-3.95,3.95-.67.05-1.47-.17-1.97,0-1.78.58-4.04,2.9-5.92,3.95-1.97,1.1-4.14,2.56-5.92,3.95-.71.56-1.33,1.33-1.97,1.97h-1.97c-.77.47-1.28,1.52-1.97,1.97-.75.49-1.25,1.47-1.97,1.97-.44.31-1.51-.3-1.97,0-.73.46-1.29,1.4-1.97,1.97-.7.59-1.33,1.32-1.97,1.97-.33.33-1.64-.33-1.97,0-1.46,1.44-2.33,1.9-3.95,3.95-.55.25-1.45-.26-1.97,0-.77.39-1.28,1.51-1.97,1.97-.74.5-1.28,1.39-1.97,1.97h-1.97v7.9h1.97c.51,2.5,1.37,2.71,1.97,3.95.35.73,1.69,1.32,1.97,1.97.12.83,1.54,1.38,1.97,1.97.02.04.05.09.11.13.49.64,1.25,1.37,1.87,1.84.1.28-1.41,2.28,0,5.92.22.57-.21,1.39,0,1.97,2.38,6.51,4.86,20.96,11.85,21.72.66,2.12,1.23,3.85,1.97,5.92.71,2,.4,4.19,1.97,7.9,3.3,7.79,2.93,8.15,7.9,15.8,1.39,2.14.46,8.91,5.92,11.85.95.51,4.25-.37,5.92,0,.62.14,1.33-.08,1.97,0,1.26.15,2.66,0,3.95,0h13.82c.63.59,1.35,1.34,1.97,1.97.32.33,1.63-.33,1.97,0,.64.62,1.27,1.5,1.97,1.97.44.29,1.43-.27,1.97,0,.71.36,1.36,1.78,1.97,1.97.59.19,1.35-.15,1.97,0,.14.03.11,1.65,1.97,1.97,1.22.21,2.67-.11,3.95,0,1.2,2.59,3.76,1.74,5.92,1.97,1.93.21,4-.24,5.92,0,.89.11,2.72,1.81,5.92,1.97,3.26.17,6.6.03,9.87,0,.77,2.88,3.85,1.74,5.92,1.97,1.28.15,2.65-.07,3.95,0v1.97h205.37v-1.97c9.19,0,18.45,0,27.65,0h49.37c19.06,0,38.2,0,57.27,0,22.86,0,46.47,1.66,69.11-1.97,17.08,0,34.26.04,51.34,0,8.03-.02,18.49,1.71,25.67-1.97,4.6,0,9.22.03,13.82,0,.66,0,1.32,0,1.97,0,4.28-.05,10.66,1.5,13.82-1.97,3.94-.03,7.91.12,11.85,0,2.7-.08,6.28.95,7.9-1.97,1.95.11,3.97.05,5.92,0,.66-.02,1.32.04,1.97,0,2.21-.15,4.69.55,5.92-1.97,1.95-.06,3.99.19,5.92,0,1.62-.16,3.21-.17,3.95-1.97,1.29-.14,2.66.13,3.95,0,.63-.07,1.39.16,1.97,0,.84-.22,1.55-1.22,1.97-1.97.64-.11,1.36.15,1.97,0,1.93-.48,2.63-1.33,3.95-1.97,1.42-.69,2.6-.82,3.95-1.97.71-.61,1.33-1.31,1.97-1.97,1.39-1.44,1.54-3.48,1.97-3.95.84-.92,1.13-3.05,1.97-3.95.63-.68,1.36-1.28,1.97-1.97.84-.94,1.14-2.96,1.97-3.95l1.97-1.97c.48-.52,4.14-2.45,5.92-3.95.71-.59,1.31-1.34,1.97-1.97.67-.64,1.32-1.32,1.97-1.97.66-.66,1.33-1.3,1.97-1.97.6-.17,1.43.23,1.97,0,2.65-1.1,2.72-2.86,3.95-3.95.7-.62,1.35-1.29,1.97-1.97h1.97v-3.95h-1.97ZM583.53,50.37h1.97v1.97c-.59-.16-1.34.09-1.97,0v-1.97Z" style="fill:none; stroke:#000; stroke-miterlimit:10; stroke-width:2px;"/></svg>