<?xml version="1.0" encoding="UTF-8"?><svg id="Layer_1" xmlns="http://www.w3.org/2000/svg" width="374.33" height="732.52" viewBox="0 0 374.33 732.52"><path d="M370.77,489.81c-24.75-128.93,18.55-275.29-14.18-401.59C331.81,33.49,257.34,8.92,202.43,1,134.12,3.54,42.75,30.66,19.88,100.43c-11.56,30.7-2.23,62.16-12.17,95.28C5.54,220.73-.04,239.34,1.63,264.68c-3.37,17.36,7.88,15.84,8.12,28.39-16.19-2.12,3.55,92.19,4.05,105.47,4.38,67.22-17.45,144.71,8.12,206.88,21.32,75.75,102.62,131.06,180.51,125.75,122.16-10.86,184.69-130.76,168.34-241.36Z" style="fill:none; stroke:#000; stroke-miterlimit:10; stroke-width:2px;"/></svg>