<?xml version="1.0" encoding="UTF-8"?><svg id="Layer_1" xmlns="http://www.w3.org/2000/svg" width="724.24" height="242.79" viewBox="0 0 724.24 242.79"><path d="M402.91,2.87c-9.59.3-32.04-2.29-41.62-1.81-33.83,1.68-68.52,4.72-101.34,12.67-12.67,1.44-27.57,5.3-39.81,9.05-10.56,1.68-11.7,3.76-19.91,7.24-3.61,1.53-3.88,2.73-5.43,3.62-3.35,1.93-5.78,3.35-9.05,5.43-2.94,1.87-6.79,2.4-9.05,5.43-3.91-1.04-9.26.17-12.67,0-2.39-.12-4.84-.02-7.24,0-1.2,0-2.42-.06-3.62,0-1.8.09-3.65-.16-5.43,0-6.06.53-6.3.38-12.67,1.81-5.33,1.2-5.52,1.07-9.98,3.2-.27.07-.56.2-.88.42-3.59,1.73-5.83,3.16-9.05,5.43-3.15,2.21-4.21,2.98-7.24,5.43-.3.24.3,1.56,0,1.81-1.66.7-1.44.08-3.62,1.81-.3.24.29,1.46,0,1.81-.28.3-1.54-.3-1.81,0-.56.63-1.27,1.14-1.81,1.81-.8.99-2.25,1.78-3.62,3.62-.78,1.04-1.07,2.54-1.81,3.62-.73,1.06-1.22,2.45-1.81,3.62-1.41,2.77-2.33,3.13-3.62,7.24-.25.81-1.85,1.55-1.81,3.62-.29.3-1.51-.3-1.81,0-2.54,2.52-1.68,3.47-1.81,3.62l-9.05,3.62c-1.08-.2-2.46.03-3.62,0-10.1-.23-10.83,2.75-18.1,7.24-4.64,2.87-6.27,6.87-9.05,9.05h-.9c-.36-.07-.73-.15-.91,0-2.59,2.08-3.81,4.05-5.43,5.43-.65.55-1.18,1.25-1.81,1.81-3.48,3.1-5.88,5.91-9.05,9.05-.61.6-1.21,1.2-1.81,1.81-1.81,1.85-3.6,3.49-5.43,5.43-1.16,1.23-2.42,2.32-3.62,3.62-1.77,1.92-3.47,1.96-5.43,5.43-.15.26-.06.67,0,1.06v.75c-3.04,1.41-3.66,3.08-5.43,5.43-.68.9-3.57,6.59-3.62,7.24-.56,7.53.68,4.27,3.62,5.43.48.19,1.2-.15,1.81,0,.96.23,2.47-.03,3.62,0,1.2.03,2.43.05,3.62,0,4.78,3.54,12.39,1.52,18.1,1.81v5.43c-6.91-.98-13.23.68-19.91,1.81-2.29.39-5.74-1.09-7.24,1.81-.14.13.02,1.2,0,1.81-.04,1.61,1.59,1.36,1.81,1.81.18.36.61.69,1.03,1.03l.78.78c.41.67,1.35,1.15,1.81,1.81l.25.5c.3.74.57,1.86,1.56,3.12.52.66,1.28,1.16,1.81,1.81s1.26,1.17,1.81,1.81c.55.65,1.25,1.17,1.81,1.81,2.05,2.36,3.65,3.57,5.43,5.43l1.81,1.81c1.94,1.93,3.23,3.49,5.43,5.43.64.56,1.16,1.26,1.81,1.81.64.55,1.16,1.27,1.81,1.81,4.02,3.31,5.87,5.47,10.86,9.05,6.29,4.51,7.48,5.36,14.48,9.05,4.03,2.12,12.3,8.3,14.48,9.05,1.22.42,2.4,1.47,3.62,1.81.55.15,1.23-.12,1.81,0,1.07,2.28,3.39,1.71,5.43,1.81v1.81h54.29v-1.81c1.2-.05,2.42.04,3.62,0,2.1-.08,4.49-1.79,5.43-1.81.66-.02,3.94-3.54,9.05-3.62h43.13c58.95.75,119.71,4.03,178.5,3.73,36.14-.19,74.98-2.7,112.72-3.74h54.73c1.78.07,3.68-.22,5.43,0,.2.03,3.1,1.5,3.62,1.81.71.42,1.75,3.33,3.62,3.62v1.81h59.72v-1.81c1.91-.21,4.73.82,5.43-1.81.58-.11,1.25.15,1.81,0,2.75-.73,4.22-3.13,5.43-3.62.57-.23,1.14-1.39,1.81-1.81.64-.41,1.18-1.28,1.81-1.81l1.81-1.81c.6-.48,2.41-1.03,3.62-1.81.54-.18,1.27.19,1.81,0,.7-.24,1.25-1.55,1.81-1.81h1.81c2.74-.5,5.07,1.32,7.24,1.81.57.13,1.25-.15,1.81,0,.71,1.56,2.1,1.81,3.62,1.81.56,0,1.29.13,1.81,0,.79-.19,1.44-1.09,1.81-1.81,1.98-.17,3.66-1.03,5.43-1.81,3.24-1.43,6.55-2.78,9.05-5.43,3.27-3.46,6.67-5.02,3.62-10.86.52-.18,1.23.15,1.81,0,1.39-.37,2.92-.13,3.62-1.81,8.44.26,37.79-8.87,38.01-16.28-9.11-17.5-20.79-40.57-34.39-59.72-2.72-3.84-6.06-7.21-9.05-10.86-2.06-2.51-3.91-3.72-5.43-5.43-1.19-1.34-2.48-2.38-3.62-3.62l-1.81-1.81c-6.67-7.06-12.48-13.46-19.91-19.91-6.72-5.83-12.68-11.02-19.91-16.29-15.75-11.47-27.78-18.55-45.24-27.15-9.57-4.71-18.87-9.11-28.96-12.67-6.63-2.34-13.06-5.36-19.91-7.24-1.81-.5-3.5-1.33-5.43-1.81-21.05-7.47-44.74-13.77-66.96-16.29-19.45-5.71-40.05-6.45-59.72-5.43v1.81M104.31,68.02l-1.81,1.81,1.81,1.81M388.44,4.68h1.81l7.24-1.81" style="fill:none; stroke:#000; stroke-miterlimit:10; stroke-width:2px;"/></svg>