<?xml version="1.0" encoding="UTF-8"?><svg id="Layer_1" xmlns="http://www.w3.org/2000/svg" width="386.11" height="725.83" viewBox="0 0 386.11 725.83"><path d="M381.54,428.13c-12.33-122.69,20.02-258.11-28.34-374.15-17.4-25.09-69.07-42.54-98.33-47.73-13.28-2.36-57.39-11.94-58.84,3.4-4.26-11.66-14.05-8.24-25.1-7.99-38.66.86-108.42,19.69-132,52.32C11.74,97.05,11.9,153.97,12.74,203.06-1.17,208.73.11,283.61,2.54,290.42c.83,2.32,10.85,1.27,8.2,8.32-.87,2.32-7.88-.54-9.54,3.95-.86,2.32,1.31,42.14,1.46,49.45.29,13.21-4.51,40.21,8.06,48.35-.07.66.07,1.35,0,2.01-.16,1.5.51,2.19,2.01,2.01-1.05,19.3-4.7,35.11-4.03,56.41-3.92,63.8,2.01,134.29,40.29,187.35,10.86,15.05,21.54,25.1,36.26,36.26,6.73,5.1,12.75,9.89,20.15,14.1,5.28,3.01,9.51,3.94,14.1,6.04,5.29,2.42,9.54,5.79,16.12,8.06,17.38,6,27.59,8.91,46.33,10.07v2.01h30.22v-2.01c14.72-1.04,24.51-4.17,38.28-8.06,1.54-.44,3.17-.29,4.03-2.01.62-.17,1.39.16,2.01,0,.82-.22,1.56-1.28,2.01-2.01,2.64-.77,5.46-1.12,8.06-2.01,5.37-1.86,7.41-4.75,10.07-6.04,103.27-47.67,116.76-173.5,104.89-274.54Z" style="fill:none; stroke:#000; stroke-miterlimit:10; stroke-width:2px;"/></svg>