<?xml version="1.0" encoding="UTF-8"?><svg id="Layer_1" xmlns="http://www.w3.org/2000/svg" width="688.67" height="249.8" viewBox="0 0 688.67 249.8"><path d="M687.37,186.57c-1.4-5.48-12.43-22.51-16.03-28.29-14.02-22.52-32.33-47.74-52.18-64.64-1.27-1.08-2.01-2.54-3.8-3.8-1.91-2.33-4.1-4.63-6.32-6.67-.85-.78-2.02-1.1-2.54-1.57-5.53-4.99-10.72-9.38-16.46-13.93-.88-.7-1.74-1.29-2.53-1.9-5.12-3.96-9.22-7.08-14.56-10.76-1.25-.86-2.3-1.32-3.17-1.9-3.32-2.23-6.62-5.03-10.18-7.23-5.37-3.32-11.17-6.97-17.04-9.23-1.42-.88-3.47-1.62-5.07-2.53-.95-.54-2.05-1.65-3.58-2.44-2.81-1.46-6.64-3.07-9.72-3.89-12.77-6.2-26.56-10.88-40.52-13.93-6.33-1.9-12.98-3.69-19.47-4.91-58.05-10.92-122.37-10.69-180.12,1.29-6.66,1.38-13.69,2.75-20.13,4.88l-33.56,10.13c-15.95,4.69-32.07,9.61-47.49,15.83-.43.18-.84.45-1.27.63-3.68,1.55-5.26-.8-7.95-1.23-13.07-2.06-23.32-2.05-36.4.88-1.09.24-2.43.68-3.13,1.62-7.16,1.67-13.19,5.67-19.04,9.77-11.12,7.81-12.89,11.52-20.22,22.52-.68,1.02-2.85,2.86-3.57,4.35-30.22,15.23-60.39,30.64-89.51,47.9-1.42,1.72-.82,8.44.83,10.25.82.9,2.35,1.01,2.97,1.46,5.29,3.92-2.32,3.89-.35,8.88,7.78,14.52,15.09,29.32,23.14,43.68,2.84,5.05,5.11,10.73,9.5,14.56.6,1.98,1.15,2.34,1.9,3.8,1.27,2.47,1.31,2.79,3.17,5.07,4.35,5.36,6.63,7.04,12.66,10.13.95.49,1.39.78,2.53,1.27,6.86,2.9,15.46,5.41,22.79,6.97,44.73,9.47,95.4,6.38,141.2,6.97,30.59.39,61.19.75,91.81,1.27.66,1.05,2.4.63,3.47.64,19.85.21,39.72.64,59.56,1.23,81.41,2.42,164.13,11.84,244.83-3.33,1.04-.2,2.3-.25,3.04-1.07.2-.04.43.04.63,0,5.46-1.19,10.68-4.54,15.2-7.6,1.89-1.28,4.42-3.57,6.33-5.07,1.58-1.23,2.23-1.74,3.8-3.17,3.06-2.77,7.52-6.57,10.13-9.5,2.39-1.22,4.95-3.57,6.97-5.37,3.05-2.71,6-5.65,8.86-8.56.21-.21.43-.42.63-.63,2.9-.75,4.48-3.97,6.32-6.03,2.51-2.8,4.79-2.28,3.64-6.79Z" style="fill:none; stroke:#000; stroke-miterlimit:10; stroke-width:2px;"/></svg>