<?xml version="1.0" encoding="UTF-8"?><svg id="Layer_1" xmlns="http://www.w3.org/2000/svg" width="366.76" height="688.79" viewBox="0 0 366.76 688.79"><path d="M361.22,404.68c-2.61-33.47-5.94-66.88-8.06-100.33l-1.14-9.49c-.07-1.04.05-2.11,0-2.88-.16-6.02-.23-12.12-.55-18.14-2.09-38.61-.67-73.92.55-112.39.02-.77-.03-1.81,0-2.88l1.14-10.64c.08-10.14.3-20.39,1.18-30.45-1.2-19.2,2.86-40.93,1.15-59.85-.36-4.01-1.98-6.68-4.62-9.46-5.23-5.5-14.61-12.9-21.85-14.95-.5-2.46-5.06-2.86-6.9-3.45-.58-.19-.98-.52-1.15-.58-.56-.89-1.55-.99-2.43-1.31-17.1-6.11-34.57-10.48-52.19-14.8-5.02-1.23-9.72-2.99-14.95-3.45-5.83-1.62-12.2-3.02-18.18-3.96-16.24-2.56-34.14-4.53-50.56-4.12-2.42.06-4.8.97-7.5.65-1.25-.15-.64-1.42-1.1-1.2-4.61,2.24-9.76.72-14.95,1.15l-16.97,1.72c-3.74.18-7.87-.06-11.5,1.15-11.5.78-23.38,2.41-34.5,5.18-8.38,1.06-16.69,2.58-24.73,5.18-8.91,1.82-18.39,5.04-26.45,9.2-6.11,2.33-11.37,5.26-16.1,9.78-3.02,1.59-6.45,5.04-8.05,8.05-1.88,2.05-2.8,3.26-4.03,5.75-.94.38-1.26,1.25-1.65,2.08-4.34,9.11-3.01,19.49-3.5,29.28-2.1,42.46-3.87,85.01-4.04,127.64-.02,2.02-3.19,1.45-3.91,2.14-.3.29-.04.88-.12,1.01-.67,1.06-.98.92-1.17,2.57-1.1,9.6.19,22.73.04,32.82-.3,20.45-.39,41.01-.58,61.53-.06,6.91-2.22,23.67.53,29.35,1.15,2.37,1.69.11,1.17,3.12-.07.2-.09.39-.09.57-2.49,15.93,3.66,39.25,2.39,56.06l1.14,10.64c.1,5.66.64,11.05,1.15,16.68l1.16,23.28c3.1,8.53,1.98,16.4,1.71,25.3-1.68,56.74-2.54,96.52,30.25,145.14,2.88,4.26,6.4,9.16,10.01,12.7.54,1.25,1.46,1.95,2.3,2.88.25,1.95,2.2,2.83,3.45,4.03.76.73,1.43,1.49,2.3,2.3.86,2.2,3.4,4.47,5.16,6.08.66.6,1.58.68,1.74.82.7.63,1.37,1.8,2.29,2.6,6.33,5.45,13.33,10.79,20.71,14.65,11.64,9.62,40.08,18.36,55.08,21.11,111.38,20.39,204.35-57.63,219.13-166.37,5.04-37.09.67-76.3-2.23-113.49Z" style="fill:none; stroke:#000; stroke-miterlimit:10; stroke-width:2px;"/></svg>