<?xml version="1.0" encoding="UTF-8"?><svg id="Layer_1" xmlns="http://www.w3.org/2000/svg" width="677.52" height="259.69" viewBox="0 0 677.52 259.69"><path d="M676.32,151.41c-.21-5.15-.56-9.05-2.53-13.79-.6-1.44-1.07-2.26-1.79-3.59-3.53-6.49-7.92-12.55-12.55-18.29-1.28-2.23-2.95-4.39-4.51-6.42C581.93,14.31,470.48-11.3,355.21,6.06c-18.85,2.84-38.32,6.8-56.97,10.81-6,1.29-24.2,4.45-28.52,6.99-1.23.73-1.81,1.94-3.13,2.6-4.15,2.07-10.8,2.56-15.23,4.47-.81.07-1.95-.94-2.9-1.26-2.04-.69-6.44.87-8.76,1.46-9.73,2.48-20.95,5.24-30.33,8.58-.99.35-2.36.69-3.23,1.08-3.24,1.44-6.07,5.42-8.61,7.89-11.3,4.94-24.06,8.16-35.42,13.2-4.47-1.37-8.74-3.33-13.28-4.49-32.2-8.23-65.97,9.21-78.28,39.86-.62,1.54-.59,3.58-1.87,5.13-19.91,9.58-39.66,19.5-59.07,30.05-1.59,1.88-3.12,3.94-4.25,6.15-1.46,2.82-2.04,6.55-4.37,8.72v1.08l32.28,3.59-1.08,1.07c-.25.09-.47.25-.72.36-4.05,1.42-7.97,3.48-11.83,5.38-1.07.53-2.35.64-3.41,1.43-1.14.86-1.39,2.22-2.33,3.23-.67.33-2.16.47-2.45,1.31-.23.66-.14,4.04-.07,4.98.22,3,3.35,14.14,4.76,16.76,1,1.85,1.7,1.07,3.14,1.34.03,0-.06.25.53.35.72.12,1.71-.2,2.34.18.15.09,1.14,1.83,1.36,2.22,3.91,7.04,7.99,15.77,10.47,23.42.95,2.93,1.41,6.5,2.5,9.52.53,1.47,2.3,5.81,3.23,6.81,1.3,1.39,6.08.92,8.08.9.61,0,1.59.23,1.97-.36,4.73-.02,9.43-.29,14.17-.35.61,0,1.59.23,1.97-.36.24,0,.48,0,.72,0,1.95-.05,3.52.23,5.38-.36,1.66-.52,1.28-1.03,3.23-1.43,1.42.26,5.46-.44,6.46.17.73.45,5.41,10.09,6.81,11.84,3.9,4.89,12.71,5.01,18.45,5.22,4.35.16,8.75-.15,13.1-.01,35.8,1.13,71.71,1.43,107.59,1.43.48,0,.96,0,1.43,0,.37.59,1.36.36,1.97.36,4.12.04,8.26,0,12.38,0,4.93,0,9.88-.06,14.82.07,2.07,2.61,3.98,4.22,6.7,6.03,4.93,3.28,8.89,4.33,14.87,4.68,30.35,1.76,62.39-1.37,92.92,0,36.51-.55,73.2-.4,109.71-.75,18.49-.18,35.71,1.5,53.71-3.67,1.77-.51,12.79-4.22,13.19-5.28,10.7-4.19,18.91-12.51,28.26-18.9,12.77-1.34,25.75-1.01,38.62-1.91,1.66-.12,7.03-.38,8.07-1.07.83-.55,1.04-2.06,1.43-2.87,4.41-8.95,4.73-22.66,9.89-31.89l15.94-22.1c.38-.28.68-.1,1.06-.01,2.2.5,5.7,2.85,8.25,3.79,2.77,1.02,5.13,2.26,8.15.79,1.84-.9,6.52-6.32,7.03-8.39.73-2.94.4-11.1.26-14.48Z" style="fill:none; stroke:#000; stroke-miterlimit:10; stroke-width:2px;"/></svg>