<?xml version="1.0" encoding="UTF-8"?><svg id="Layer_1" xmlns="http://www.w3.org/2000/svg" width="440.24" height="676.28" viewBox="0 0 440.24 676.28"><path d="M439.22,323.39c-.03-1.97-.92-4.12-.94-5.87-.02-2.09.66-4.29.48-6.75-.25-3.32-.08-3.92.01-7.18.07-2.53-.93-4.58-.96-6.78-.07-4.52.17-12.37-.45-16.63-.21-1.45-1.16-2.3-1.33-3.62-.6-4.44-.03-9.7-.48-14.4-.82-8.61-2.61-16.5-3.2-25.28-.26-3.83-2.2-6.33-2.53-8.68-.97-6.95-1.47-14.36-2.37-21.48-.82-6.53-1.75-12.73-2.27-19.36-.29-3.73-2.55-7.85-3.03-12.29-.45-4.2.57-6.64-.63-11.09-.18-.67-1.02-.96-1.23-1.93-1.13-5.38.18-11.43-1.34-16.24-5.19-16.38-4.9-35.11-8.27-52.13-.38-1.93-.19-2.58-1.67-3.96-1.78-1.67-6.48-2.68-9.01-3.16-.77-.55-2.57-1.32-3.43-1.35-1.2-.05-1.37.96-2.42.9l-4.62-33.92c-.55-1.65-1-3.65-2.44-4.77-38.5-14.85-77.51-28.44-115.88-43.7-1.33-.73-4.17,1.28-4.17,2.4v6.99c-1-.01-1.9-.44-2.91-.47-15.94-.54-36.61-1.08-52.32,0-1.03.07-2.15.11-2.91.92-1.41.31-3.36.69-3.86,2.23-.68,2.1-.12,7.36-.2,9.94-1.1.83-.04,3.62-.46,4.5h-.45s0-26.82,0-26.82c0-.35-1.57-2.29-2.09-2.39-.32-.06-3.93,1.23-4.66,1.5-23.54,8.58-46.85,17.86-70.34,26.56-14.23,5.27-30.03,9.77-43.82,15.68-2.33,1-2.58.96-3.94,3.05-.44.67-1.14,1.21-1.23,2.15-7.54,39.47-14.26,79.12-19.89,118.94-.35,2.48-.61,5.01-.5,7.53l-7.23,2.1c-1.24.26-2.72.26-3.61,1.35-2.64,5.5-2.24,12.81-3.16,18.93-.4,2.61-.91,4.46-.9,7.21-.75,1.49-.56,3.99-.47,5.65.12,2.32,1.3,7.93.81,9.79-.32,1.21-7.05,8.25-8.46,9.8-.8.89-.99,1.66-1.55,2.28-1.3,1.41-3.34,2.21-4.31,4.03-6.95,5.38-9.72,10.25-11.51,18.91-4.33,20.99-5.16,45.87-6.97,67.4-3.98,47.17-7.8,95.98-9.03,143.31-.34,13.19.29,26.2,6.33,38.1.16.67.28.85.45,1.35.92,2.65,2.29,4.79,3.61,7.21.47.87.63,1.49,1.35,2.7,2.25,3.74,4.78,7.08,7.66,10.37.68.78.82,1.42,1.8,2.25.39,1.8,2.56,3.22,3.61,4.51,1.68,2.06,3.25,4.24,4.96,6.31.75.9,1.51,1.8,2.25,2.7,2.52,3.05,5.12,6,7.66,9.01.91,1.08,1.52,2.92,3.16,3.61,4.6,6.59,11.03,13.44,16.89,18.94,4.59,4.31,9.58,8.49,14.66,12.16,10.34,7.27,25.34,19.55,38.12,21.15,6.99.87,5.51-3.38,4.25-8.53-.66-7.45-2.24-14.83-3.12-22.25.29-1.02,3.73-1.25,4.92-1.64,3.76-.28,2.34.03,2.83,2.81,3.09,17.51,6.75,36.75,10.91,53.99,1.99,8.25,4.26,13.53,9.51,20.24,5.05,6.47,10.54,11.39,18.67,13.56,3.63,2.28,8.36,3.94,12.62,4.51,4.19,1.35,9.8,2.17,14.2,2.7,25.12,3.02,54.12,2.92,79.32.9,1.85-.15,4.32-.41,6.09-.9,10.19-.58,22.83-1.46,32.45-4.96,2.88-.3,5.52-1.51,8.11-2.7,4.46-1.31,8.54-3.28,12.31-5.94,4.61-3.25,5.37-4.54,8.42-8.93.19-.27.27-.63.45-.9,3.29-4.88,5.53-7.52,7.43-13.52,4.52-14.23,7.07-32.04,10.14-46.87.17-.82.25-1.73.45-2.7,8.51-41.36,14.9-84.83,26.34-125.32.59-2.1,2.65-9.59,3.48-10.95.99-1.62,3.11,0,4.43-1.2.58.07.99.06,1.3.67-3.58,9.52-6.71,19.6-8.96,29.53-4.56,20.13-7.31,41.44-10.94,61.85-2.44,13.74-7.25,30.95-8.38,44.35-.17,2.07-.3,4.55.39,6.48.67,1.86,2.11,1.47,4.08,1.14,3.11-.51,10.86-3.25,13.94-4.53,19.19-7.97,28.99-41.12,34.83-59.37,6.75-21.09,13.35-43.89,17.24-65.69,3.62-20.28,3.48-39.87,3.37-60.41-.04-7.83.24-15.66-.45-23.44-.21-2.36-.27-2.49,0-4.96,0-.06.39-.47.47-1.08.17-1.34-.16-2.94-.02-4.33.14-.7.34-1.28.45-1.8.45-2.11.62-3.29.9-5.41.27-2.06.7-4.39.9-6.31.5-.9.87-2.84.89-3.84.27-9.3,1.55-19.01,1.39-28.4Z" style="fill:none; stroke:#000; stroke-miterlimit:10; stroke-width:2px;"/></svg>