<?xml version="1.0" encoding="UTF-8"?><svg id="Layer_1" xmlns="http://www.w3.org/2000/svg" width="696.4" height="266.2" viewBox="0 0 696.4 266.2"><path d="M695.25,217.9c-.09-.68-.68-.34-.77-1.02-.42-3.29.02-9.37-.69-12.39-.07-.29-.64-.1-.73-.75-.17-1.28.33-3.48.04-4.57-.1-.36-.78-.33-.99-.82-.33-.76.26-3.39.17-3.91-.06-.37-.87-.34-.98-.75-.37-1.4.97-4.05-1.06-4.37.06-.23.41-3.16.38-3.32-.05-.34-.88-.3-1.05-.8-.28-.81.25-1.6.17-2.11-.03-.22-1.59-3.05-1.63-3.24-.13-.57.18-1.35-.08-1.82-.27-.49-1.64,0-.28-1.48-2.3-.35-.91-.65-1.03-1.55,0-.07-.96-.84-1.1-.94-.26-.88-.62-1.82-1.07-2.62-.3-.54-.08-.8-1.06-.93,1.28-1.12-1.46-1.74-1.73-2.21-.13-.22.31-.7.13-1-.51-.83-1.49-2.03-2.31-2.83.45-1.59-.7-1.65-1.78-2.49,0-.2.5-.6.3-1-.05-.09-1.38-.9-1.61-1.24-.55-.83-1.37-2.83-1.85-3.62-.19-.31-1.83-1.91-2.17-1.6-.11-2.11-2.96-4.5-4.28-6.2-.37-.47-.22-1.2-.46-1.5-1.65-2.08-2.56-2.56-4.3-5.11-.45-.66-3.44-3.53-4.11-3.53l-.51-1.8c-8.21-6.92-15.6-17.16-23.8-23.79-.53-.43-.8-.83-1.61-.7-1.32-1.46-3.47-4.07-4.95-5.18-4.01-2.99-7.97-6.18-11.92-9.39-2.72-2.21-4.57-3.95-7.54-5.78-.31-.19-1.62-2.21-2.39-2.76-2.32-1.68-5.2-3.27-7.61-5.17-2.48-1.95-3.88-3.31-6.63-5.1-.23-.15-1.15-1.62-1.31-1.68-.58-.2-1.24.03-1.62-.18-.26-.14-.51-1.38-.88-1.61-.32-.2-.96-.06-1.29-.29-2.37-1.61-4.83-4.11-6.93-5.51-3.82-2.56-7.84-5.26-12.03-8.04-5.85-3.88-13-8.3-18.75-11.63-1.53-.88-3.62-1.72-4.95-2.53-2.39-1.45-4.86-3.01-7.45-4.41-1.54-.84-3.25-1.38-4.62-2.13-.24-.13-.53-.25-.71-.36-1.95-1.18-3.58-3.07-6.04-3.2-.3-.82-2.71-1.18-3.2-1.78-.07-.08.11-.58-.02-.68-.07-.05-1.3-.25-1.76-.38-1.13-.32-.83-.27-1.54-.59-4.66-2.12-9.35-4.22-14.09-6.51-.78-.38-.69-.54-2.13-1.07-1.76-.64-6.64-2.65-8.17-3.55-.14-.08-.2-.89-.4-1-.31-.17-1.55-.11-2.44-.42-.59-.2-3.05-.98-3.2-1.07-.03-.02.14-.63-.23-.72-.49-.12-1.12.12-1.65,0-.1-.02-1.01-.47-1.67-.7-1.94-.69-4.3-1.6-6.1-2.51-2.86-1.45-6.09-2.05-9.27-2.81-.42-.1-.38-.92-.82-1.04-.44-.12-1.02.36-1.37.28-.42-.09-.38-.92-.8-1.02-1.45-.35-3.5-.42-4.83-.71-.16-.04-2.38-1.31-2.73-1.42-.61-.63-1.7-.28-2.57-.45-2.36-.46-4.85-1.61-7.21-2.02-.88-.15-2.03.19-2.78-.07-.5-.17-.46-.97-.81-1.04-.73-.14-2.05.43-3.4,0-1.84-.59-2.36-.32-3.93-.69-.29-.07-.1-.64-.75-.73-1.34-.18-3.34.31-4.57.02-.29-.07-.1-.64-.75-.73-2.35-.31-2.75,0-5.17-.68-1.64-.46-5.2.33-7.1,0-.05-.37-.4-.56-.71-.71-.49-.23-8.9-.03-10.3,0-.59-.39-1.46-.56-2.13-.71-1.67-.37-15.15-.71-15.99-.17-.23.15-.26.69-.42.79-.66.41-13.66.02-15.64-.05-.58-.02-1.03-.49-1.34.48-2.91.02-8.5-.02-11.21.33-.68.09-.34.68-1.02.77-2.48.31-5.74-.37-8.22-.06-.68.09-.34.68-1.02.77-2.27.29-5.24-.34-7.51-.06-.68.09-.34.68-1.02.77-1.63.21-3.75-.27-5.37-.05-1.13.15-2.09.89-3.59.95-1,.04-2.36-.5-3.42-.22-.39.1-.24.91-1.12,1.08-1.33.25-3.26-.22-4.65-.03-5.74.81-11.23,1.81-17.05,2.84-.88.16-1.9-.17-2.75.09-.53.16-.77.91-1.51,1.01-.8.1-2.29-.56-3.13-.25-.55.21-.76.81-1.48.95-4.3.83-10.67.91-14.84,2.2-.49.15-.75.82-1.18.91-.5.11-2-.43-2.75-.15-4.01,1.48-6.3,1.5-10.29,2.37-.26.06-.21.63-.48.7-.98.24-2.51-.24-3.41,0-.4.11-.38.94-.8,1.03-.35.08-1.1-.41-1.74-.33-.73.09-.98.86-1.51,1.01-1.71.5-4.43,1.05-6.34,1.47-7.44,1.64-14.82,3.5-22.29,5.33-.38.09-.33.85-.81,1-.36.11-1.56-.29-2.1-.11-2.99.99-4.95,1.54-8.1,2.33-4.29,1.08-9.21,3.52-13.64,4.59-5.99,1.45-11.39,3.72-17.41,5.62-12.92,4.09-26,9.03-38.75,13.88-1.45.55-3.41.88-4.74,1.49-.47.22-.44.84-.87.99-.77.27-2.68.02-3.69.06-.12,0-.24,0-.36,0,0-.96-.42-1-1.23-1.08-1.47-.16-4.96-.16-6.43,0-.8.09-1.23.12-1.23,1.08-.36-.08-6.6-.27-6.94-.21-.39.06-.66.78-1.41.92-.76.14-1.66-.12-2.46.02-.75.13-1.33.85-2.2.94-.45.05-1.27-.43-1.52-.22-.14.11.03.61-.03.68-.57.68-1.52-.04-1.94.05-.44.1-.42.97-.79,1.05-.6.13-1.32-.43-1.69-.4-.33.02-.3.93-.78,1.06-.43.12-1.02-.36-1.37-.29-.39.09-.4.79-.64.94-1.56.96-3.8.81-5.15,1.59-1.33.77-2.63,2.17-4.29,3.06-1.32.71-3.69,1.51-4.93,2.27-.28.17-.97,1.61-1.68,2.05-1.88,1.17-3.8,2.55-5.71,3.87-.54.38-4.95,4.9-5.06,5.25-.15.45-.1,1.03-.07,1.51-3.15,1.7-5.79,3.68-9.18,5.29-12.77,6.07-26.58,11.75-39.12,18.15-.48.24-.94.46-1.42.71-8.28,4.39-16.36,8.44-23.81,12.95-.64.39-1.64-.23-1.41.9-1.53.08-1.65.46-2.84,1.07-3.77,1.92-5.39,3.95-6.41,7.92-.07.29-.63.23-.69.5-.72,3.01.34,4.85,1.38,7.16.42.95.71,2.76.92,3.24.22.51,1.38,1.26,1.8,1.77.54.22.92-1.03,1.34-1.27,1.29-.73,3.05-1.66,4.14-2.26,1.24-.69,2.94-1.69,4.26-1.78l-.36-.7c1.58.06,3.48-1.18,4.94-1.99,4.26-2.38,8.89-4.64,13.18-6.89,1.21-.63,2.94-2.15,4.26-2.84,1.11-.57,2.4-1.18,3.55-1.78.42-.22.98-.48,1.42-.71,1.09-.56,2.62-1.13,3.91-1.78,1.65-.84,3.32-1.63,4.97-2.49.47-.24.95-.46,1.42-.71,1.26-.67,2.01-.77,3.2-1.78,1.53-.37,2.89-1.19,4.32-1.81,3.2-1.39,6.75-2.8,10.24-4.93.13-.08.23-.27.36-.36.92-.21.79.38.74,1.26-.07,1.12-.69,1.06-.74,1.22-.18.68-.17,3.77-.92,4.3-.49.35-1.5.15-2,.35-.28.11-.27.51-.56.64-1.63.72-4.37,1.49-5.75,2.53-.37.28-.43.32-.71.71-1.01-.08-1.68.66-2.49,1.07-1.36.68-2.43,1.15-3.91,1.42-2.47.45-3.14.3-5.33,1.42-.45.23-1.68,1.2-2.13,1.42-.68.34-1.62.64-2.49,1.07-3.24,1.6-6.45,3.34-9.59,4.97-3.53,1.83-7.02,3.84-10.65,5.68-1.01.51-.94.63-1.07.71-.11.06-.74-.08-1.12.1-1.48.73-3.22,1.17-3.85,2.74-2,.13-1.42.5-2.22.97-.35.2-.92,0-1.22.2-.6.41-2.21,2.69-2.6,2.93-.48.3-1.28-.36-1.42-.21-.12.14-.68,3.11-.82,3.63-.77,2.88-.14,1.32.1,2.3.24.97-.23,2.49,0,3.42.1.4.85.4,1.1.75.36.5.23,1.16.53,1.63.18.29.73.3.81.41.09.12-.5,1.18-.3,1.37.07.07.71-.15.97.07.1.09,1.31,2.26,1.36,2.39.24.7-.08,1.67.51,2.15.05.46.53,1.61.71,2.13.45,1.32.25,1.54,1.42,2.49.07.93.9,1.28,1.32,2.05.69,1.24,1.11,2.75,1.73,3.94,3.26,6.37,6.92,13.04,9.74,18.87.59,1.21,1.3,3.55,1.97,4.61.18.28.73.3.82.44.15.23-.37,2.94-.27,3.27.14.45.87.46.99.64.13.2-.29.67-.11,1,.38.72,1.9,1.23,2.65,1.41,3.44,7.59,8.79,16.25,13.05,24.14.44.81,1.07,2.03,1.87,2.5,1.32,3.19,4.11,9.04,6.01,11.92.34.52,1.16.67,1.35.96.51.78.98,2.98,1.74,4.12.24.36,1.22,1.48,1.56,1.46-.43.66-.29.65,0,1.07.65.93.89,1.66,1.42,2.49,1.31,2.07,3.37,3.8,5.44,5.2,2.03,1.38,5.39,2.62,8.17,3.32.4.1.2.71.24.71h5.15c.14,0,1.13,1.66,2.31.71.87,1.52,1.41.61,2.84,1.07.02,1.5,2.11.17,3.2,1.07,85.91.59,172.29.59,258.21,0,4.72-.7,9.13-2.25,13.77-3.46,4.24-1.1,6.15-1.52,10.9-1.5,5.08.02,12.31-.63,17.08-.03,2.27.28,1.55,1.23,2.13,2.12.28.43.75.69,1.01,1.13.97,1.68.56,3.24,2.87,3.53,4.53.57,10.47-.65,14.95-.03,3.96.54,8.18,2,12.4,1.81,14.02-1.2,30.67,1.56,44.37-.03.13-.02.75-1.77,1.46,0,1.54-1.85,1.04,1.42,2.66-1.06.37,1.78.7.47,1.94.33,7.42-.81,17.48.13,25.25.04,8.34-.1,16.83-.87,25.22-.16.88-.13.8-1.87,1.76.14.76-1.18,1.91-.99,3.17-1.06,8.73-.52,16.79.5,25.58-.73,5.19-.73,12.25.76,17.44.04,5.32-.74,10.63-.71,15.95-1.46,4.42-.62,7.87.78,12.61-.89,3.9-1.38,5.16-.35,8.74-.85.83-.12,1.26-.63,2.09-.75,2.8-.39,6,.84,8.36-.69,2.05-.22,4.62.29,6.59.02,2.58-.36,5.49-.83,7.79-1.45,1.56-.42,3.49.3,4.55.02.37-.1.34-.85.82-1.02,1.25-.44,3.32.39,3.85.25.42-.11.4-.93.8-1.03,1.51-.39,3.76-.13,5.76-.91.7-.27,2.15-1.45,2.38-1.49.43-.08.98.36,1.33.31.36-.05.33-.78.56-.93.28-.18.79.27,1.01.14.17-.11.17-.81.65-.97,7.76-2.55,14.84-6.86,21.74-10.67,3.34-1.85,8.96-5.45,11.78-8.2.97-.95,1.38-.51,1.73-.77.18-.13,0-.59.05-.65.8-.94,1.5-.47,2.39-.82.1-.04,1.48-1.46,1.5-1.56.27-1.31.23-8.06.04-9.53Z" style="fill:none; stroke:#000; stroke-miterlimit:10; stroke-width:2px;"/></svg>