<svg width="263" height="190" viewBox="0 0 263 190" fill="none" xmlns="http://www.w3.org/2000/svg">
<path d="M4.41882 87.3512C4.14707 87.466 3.90129 87.6343 3.69592 87.8461C3.48538 88.026 3.31874 88.252 3.20886 88.5062C3.20886 88.5062 16.0198 105.143 20.6948 105.143H208.368C208.368 105.143 211.191 102.714 212.922 100.801C214.799 98.6081 216.447 96.229 217.84 93.701C217.931 93.154 202.175 69.0411 177.585 55.9151C152.995 42.7891 133.718 38.0911 111.344 39.0741" fill="#031F29"/>
<path d="M4.41882 87.3512C4.14707 87.466 3.90129 87.6342 3.69592 87.8461C3.48538 88.026 3.31874 88.252 3.20886 88.5062C3.20886 88.5062 16.0198 105.143 20.6948 105.143H208.368C208.368 105.143 211.191 102.714 212.922 100.801C214.799 98.6081 216.447 96.229 217.84 93.701C217.931 93.154 202.175 69.0411 177.585 55.9151C152.995 42.7891 133.718 38.0911 111.344 39.0741" stroke="#003B50" stroke-linejoin="round"/>
<path d="M21.6289 71.7791C45.9839 85.3461 81.6058 43.842 129.059 50.273C162.782 54.843 181.559 94.6991 215.285 90.2391C215.285 90.2391 185.5 47.7492 134.617 40.3392C83.2278 32.8492 21.6289 71.7791 21.6289 71.7791Z" fill="#E10020"/>
<path d="M4.41882 87.3512C4.14707 87.466 3.90129 87.6342 3.69592 87.8461C3.48538 88.026 3.31874 88.252 3.20886 88.5062C3.20886 88.5062 16.0198 105.143 20.6948 105.143H208.368C208.368 105.143 211.191 102.714 212.922 100.801C214.799 98.6081 216.447 96.229 217.84 93.701C217.931 93.154 202.175 69.0411 177.585 55.9151C152.995 42.7891 133.718 38.0911 111.344 39.0741" stroke="#003B50" stroke-linejoin="round"/>
<path d="M52.4409 55.6641C50.1999 55.0489 47.8785 54.7766 45.5559 54.857C36.2659 55.173 28.3749 60.994 24.5099 69.304" fill="#031F29"/>
<path d="M52.4409 55.6641C50.1999 55.0489 47.8785 54.7766 45.5559 54.857C36.2659 55.173 28.3749 60.994 24.5099 69.304" stroke="#003B50" stroke-linejoin="round"/>
<path d="M95.0729 59.481C95.0879 59.481 95.2819 58.7629 95.2959 58.7629C96.3659 55.6439 99.1498 52.224 102.996 48.252C107.14 43.971 110.373 42.727 111.345 39.071C103.524 39.6047 95.7524 40.7046 88.0908 42.3621C78.8595 44.4363 69.7802 47.1369 60.9159 50.4451C60.9159 50.4451 60.5099 51.8949 55.1829 54.2629C50.9019 56.1629 0.537842 81.4031 0.537842 81.4031V83.3149C0.537842 83.3149 3.63791 88.156 7.77991 88.793C11.3249 89.337 15.4908 87.02 18.6478 85.623C20.7171 84.606 23.0056 84.1159 25.3099 84.196C27.6329 84.184 29.6819 87.196 29.8639 87.323L94.9169 60.3059" fill="#031F29"/>
<path d="M95.0729 59.481C95.0879 59.481 95.2819 58.7629 95.2959 58.7629C96.3659 55.6439 99.1498 52.224 102.996 48.252C107.14 43.971 110.373 42.727 111.345 39.071C103.524 39.6047 95.7525 40.7046 88.0908 42.3621C78.8595 44.4363 69.7802 47.1369 60.9159 50.4451C60.9159 50.4451 60.5099 51.8949 55.1829 54.2629C50.9019 56.1629 0.537842 81.4031 0.537842 81.4031V83.3149C0.537842 83.3149 3.63791 88.156 7.77991 88.793C11.3249 89.337 15.4908 87.02 18.6478 85.623C20.7171 84.606 23.0056 84.1159 25.3099 84.196C27.6329 84.184 29.6819 87.196 29.8639 87.323L94.9169 60.3059" stroke="#003B50" stroke-linejoin="round"/>
<path d="M10.4889 76.421C34.8429 89.989 81.6058 43.8421 129.059 50.2731C162.782 54.8431 181.559 94.6991 215.285 90.2391C215.285 90.2391 177.624 47.6482 134.617 40.3392C112.31 36.5462 83.3089 42.1391 62.6289 49.8111C60.9149 50.4481 54.9739 54.9112 40.3359 61.5402C20.2999 70.6182 10.4889 76.421 10.4889 76.421Z" fill="#E10020"/>
<path d="M95.0729 59.481C95.0879 59.481 95.2819 58.7629 95.2959 58.7629C96.3659 55.6439 99.1498 52.224 102.996 48.252C107.14 43.971 110.373 42.727 111.345 39.071C103.524 39.6047 95.7525 40.7046 88.0908 42.3621C78.8595 44.4363 69.7802 47.1369 60.9159 50.4451C60.9159 50.4451 60.5099 51.8949 55.1829 54.2629C50.9019 56.1629 0.537842 81.4031 0.537842 81.4031V83.3149C0.537842 83.3149 3.63791 88.156 7.77991 88.793C11.3249 89.337 15.4908 87.02 18.6478 85.623C20.7171 84.606 23.0056 84.1159 25.3099 84.196C27.6329 84.184 29.6819 87.196 29.8639 87.323L94.9169 60.3059" stroke="#003B50" stroke-linejoin="round"/>
<path d="M29.8629 87.323C29.8629 87.323 65.6549 67.833 94.7849 59.562C102.983 57.2872 111.43 56.0275 119.935 55.811C147.986 55.811 168.66 74.299 173.168 96.157V98.251C155.631 98.716 56.2739 102.322 51.0829 102.322C42.5219 102.322 37.5719 99.059 29.8629 87.323Z" fill="#031F29" stroke="#003B50" stroke-linejoin="round"/>
<path d="M95.2999 58.7629L92.7079 72.0439L112.076 67.9839C112.076 67.9839 120.152 66.952 123.309 55.811" stroke="#003B50" stroke-linejoin="round"/>
<path d="M93.4839 59.938L91.0648 72.356L79.4069 75.8779C74.2459 76.8489 70.8069 77.188 63.8159 70.947" stroke="#003B50" stroke-linejoin="round"/>
<path d="M173.168 98.251C173.168 98.251 182.776 97.842 193.751 97.251C204.726 96.66 216.518 95.96 216.518 95.96" fill="#031F29"/>
<path d="M173.168 98.251C173.168 98.251 182.776 97.842 193.751 97.251C204.726 96.66 216.518 95.96 216.518 95.96" stroke="#003B50" stroke-linejoin="round"/>
<path d="M252.186 30.0641C233.701 31.4641 224.175 28.0421 196.636 20.4691C169.097 12.8961 139.251 1.17504 128.967 1.78404C118.683 2.39304 114.978 6.662 106.747 9.359C98.5158 12.056 92.8049 11.301 84.5269 14.409C76.2489 17.517 61.2828 20.6581 55.7418 23.4991C50.2008 26.3401 31.5139 44.278 23.4219 51.274C15.3299 58.27 6.25585 67.2822 8.27185 70.9742C10.2879 74.6662 19.3719 80.6342 36.0469 66.9342C52.7219 53.2342 43.9679 60.9341 54.2269 55.8241C64.4859 50.7141 66.8519 46.734 66.8519 46.734C66.8519 46.734 72.4598 47.1182 81.4968 44.7142C90.5338 42.3102 99.1719 39.6642 99.1719 39.6642C99.1719 39.6642 101.881 42.1572 110.282 43.7042C115.614 44.6415 121.034 44.9803 126.442 44.7142C126.442 44.7142 128.417 52.799 130.482 59.359" stroke="white" stroke-width="2" stroke-miterlimit="10" stroke-linecap="round"/>
<path d="M261.276 87.1289C261.276 87.1289 229.195 90.813 215.321 95.209C201.447 99.605 164.76 97.616 143.611 94.199C122.462 90.782 102.298 94.2631 84.0219 96.7241C65.7459 99.1851 64.4999 93.8179 62.8119 89.1489C61.1239 84.4799 71.2249 68.2751 89.0719 64.4041C106.919 60.5331 110.067 63.6459 120.887 61.8789C131.707 60.1119 140.918 53.8681 150.176 52.7891" stroke="white" stroke-width="2" stroke-miterlimit="10" stroke-linecap="round"/>
<path d="M75.6613 158.357H71.2795V174.509H69.0376V140.524H75.6104C81.1642 140.524 85.546 143.581 85.546 149.39C85.546 155.045 81.5208 158.357 75.6613 158.357ZM71.2795 142.562V156.319H75.7632C80.1961 156.319 83.2022 153.721 83.2022 149.441C83.2022 145.212 80.3489 142.562 75.4066 142.562H71.2795ZM105.636 157.338V153.721H107.674V174.509H105.636V170.79C103.547 174 100.235 175.07 97.5349 175.07C92.083 175.07 87.3954 170.942 87.3954 164.115C87.3954 157.695 91.4716 153.262 97.5349 153.262C100.796 153.262 103.649 154.536 105.636 157.338ZM97.6368 155.198C93.5097 155.198 89.5354 158.306 89.5354 163.962C89.5354 168.65 92.4397 173.133 97.6877 173.133C102.885 173.133 105.738 168.751 105.738 163.962C105.738 157.797 101.203 155.198 97.6368 155.198ZM114.992 137.365H117.03V174.509H114.992V137.365ZM124.347 174.509V153.721H126.385V156.319C127.964 153.619 130.359 153.262 131.786 153.262C135.862 153.262 137.187 155.963 137.594 157.032C138.766 154.536 141.008 153.262 143.759 153.262C146.052 153.262 147.53 154.077 148.447 154.994C150.128 156.676 150.23 158.969 150.23 160.65V174.509H148.192V160.65C148.192 159.274 148.09 157.542 146.969 156.37C146.052 155.402 144.829 155.198 143.861 155.198C138.359 155.198 138.308 160.701 138.308 161.975V174.509H136.27V161.16C136.27 159.835 136.168 155.198 131.684 155.198C128.066 155.198 126.385 158.357 126.385 162.484V174.509H124.347Z" fill="#F7F7F7"/>
</svg>
