<?xml version="1.0" encoding="UTF-8"?><svg id="Layer_1" xmlns="http://www.w3.org/2000/svg" width="387.1" height="714.98" viewBox="0 0 387.1 714.98"><path d="M382.41,329.34c-.13-.97.17-2.56.55-3.47.78-1.85,2.03-3.99,2.58-6.21.43-1.75.91-4.08.2-5.82,0-.1,0-.21,0-.31.02-8.07-.16-16.6-.27-24.93l-.04-3.76c0-.1,0-.21,0-.31-.08-8.73.04-17.68-.31-26.39-.02-.59.32-1.24-.62-1.07-.03-.19.04-.43,0-.62-.38-1.91,0-2.98-1.35-4.52-.13-.15-.46-.07-.5-.11-.05-.05.02-.54-.31-.76-.4-.28-1.13-.18-1.54-.47.81-4.11.69-8.31.63-12.51-.14-10.26.19-20.9-.31-31.16-.16-3.23-1.31-7.24-1.27-10.17.03-1.99,1.1-3.76,1.27-5.85.77-9.76.05-20.94.28-30.87.52-22.22,1.59-44.5,1.11-66.79l-7.73-12.94c-8.76-7.67-17.77-15.42-27.39-21.97-2.35-1.6-6.12-3.28-8.23-5.04-.53-.44-.82-1.3-1.26-1.52-.61-.31-1.47-.22-2.37-.71-.71-.39-1.07-1.07-1.65-1.43-6.53-4.06-13.14-7.79-19.75-11.72-.51-.3-.89-.54-1.52-.48-3.96-2.7-6.74-3.53-10.8-5.55-15.1-7.54-30.75-15.48-47.28-20.13-.76-.21-1.44-1.25-1.99-1.4-2.31-.64-5-1.16-7.32-1.93-4.71-1.57-9.97-3.88-14.96-4.78-.97-.18-2.13.02-2.89-.2-.55-.16-.8-.95-1.36-1.11-.78-.23-1.82.04-2.69-.09-1.38-.2-2.09-1.11-3.7-.89-2.83.4-3.67,2.93-3.88,5.39-.57,6.85-.63,14.1-.94,20.96-.25,5.62-.2,11.28-.38,16.9-.2.29-.43,1.08-.75,1.16-1.17.31-5.29-.02-6.88,0-.1,0-.21,0-.31,0-.21,0-.41,0-.62,0-9.14.06-18.31.07-27.46,0-.31,0-.62,0-.93,0-.1,0-.21,0-.31,0-1.85-.02-5,.3-6.62,0-1.81-.34-.73-3.54-.77-5.1-.28-10.95.09-22.04-.63-33-.17-2.59.75-5.64-2.7-6.56-1.59-.42-1.75.56-2.76.79-1.42.33-3.29-.22-4.78.4-.34.14-.6.94-1.4,1.13-4.38,1.05-8.67,2.24-12.95,3.41-.83.23-2.05.04-2.93.4-.31.13-.58.8-1.42,1.11-1.32.48-2.91.36-4.13.81-3.49,1.27-6.87,2.91-10.35,4.14-2.23.79-4.75,1.34-6.95,2-.63.19-1.11,1.26-1.84,1.56-.96.4-2.47.49-3.67.95-9.84,3.82-19.68,8.5-28.86,13.09-9.2,4.6-18.07,9.68-26.78,14.86-2.7,1.61-6.21,4.38-8.86,5.64-.58.27-1.29.13-1.76.4-.32.19-.52.91-.92,1.24-1.1.9-2.58,1.42-3.41,2.61-9.3,4.98-23.39,15.62-31.13,23.01-2.66,2.54-6.52,9.62-8.36,13.08-2.79.85-1.93,6.83-1.86,9.42.33,12.55,1.67,25.08,2.18,37.62.62,15.31-.02,31.04.92,46.28.22,3.56.54,4.54,1.16,7.79.79,4.2-.39,8.63-.55,12.86-.52,13.22.57,27.02.34,40.44-.02,1.11-.76,2.22.29,3.23-.1,1.96-.17.76-1.26,1.67-.49.4-.43.9-.59,1.11-.31.41-1.05,1.03-1.17,1.45-.2.71-.61,4.52-.68,5.49-.39,5.86-.17,12.02-.3,17.9-.32,14.2-2.23,36.82,2.22,49.89.4,1.17,2.73,1.61,1.3,3.3-.32.37-.98.51-1.22.95-.25.46-.06,1.03-.15,1.23-.84,1.91-1.63,2.06-1.56,4.49.2,7.3.49,14.63.94,21.89,1.26,20.56.47,43.66,4.09,63.78.36,2.02,1.53,3.61,1.77,5.63.63,5.28.59,12.79.64,18.2.17,17.33-1.89,34.06-3.11,51.21-1.89,26.65-2.06,53.83,4.14,79.76,2.74,11.44,7.99,23.32,13.06,33.83,3.36,6.96,7.04,14.01,11.22,20.87,6.08,9.97,13.15,18.63,21.24,27.34,8.75,9.42,17.46,16.79,28.38,23.75,3.14,2,6.04,3.69,9.25,5.55,13.93,8.07,26.66,12.77,42.26,17.12,27,7.54,54.06,10.21,82.21,6.63,15.61-1.98,30.99-5.5,45.82-10.33.89-.29,2.19-1.23,3.08-1.7,2.83-.03,5.29-2.17,7.8-3.15,27.73-10.9,51.72-30.71,68.57-55.44,10.43-15.3,20.32-32.75,26.05-50.61,1.27-.84,1.05-2.49,1.44-3.65,11.07-32.64,9.14-68.68,7.19-102.93-1-17.61-.51-34.3-.05-51.83.02-.92-.43-1.87-.23-3.07.17-1.03,1.05-1.66,1.44-2.56,2.22-5.12,2.1-11.91,2.55-17.5,1.48-18.47,2.44-37.02,3.07-55.54.18-5.15,1.31-13.36.64-18.2-.27-1.98-3.02-4.22-3.34-6.54Z" style="fill:none; stroke:#000; stroke-miterlimit:10; stroke-width:2px;"/></svg>