<?xml version="1.0" encoding="UTF-8"?><svg id="Layer_1" xmlns="http://www.w3.org/2000/svg" width="697.23" height="281.57" viewBox="0 0 697.23 281.57"><path d="M696.11,211.22c-.35-9.74-1.51-24.1-3.95-33.4-.75-7.85-4.53-15.06-8.89-21.47-6.73-9.87-15.43-19.47-23.43-28.33-15.32-16.96-30.09-32.16-48.48-45.86-2.98-2.22-5.76-4.02-8.74-6.11-15.54-10.92-30.44-20.2-47.17-29.26-.28-.15-.58-.28-.87-.44-3.81-2.06-7.46-4.16-11.36-6.11-1.41-.7-3.05-1.55-4.37-2.18-1.76-.85-3.45-1.78-5.24-2.62-2.72-1.28-6.96-3.43-9.61-4.37l-4.37-1.95v-.23c-.17-.06-.36-.05-.54-.01l-2.69-1.2c-1.1-.61-5.31-2.4-7.68-3.43l-1.32-.59c-30.61-14.44-59.67-19.67-93.47-20.09-.45-.72-1.66-.44-2.4-.44-10.2-.13-20.86-.29-31.04-.01-4.85.14-9.49,1.73-14.27-.02-.35-.13-.68-.8-2.09-1.28-4.97-1.69-9.91-.41-14.85.87-12.22,1.66-24.38,4.03-36.55,6.04-1.84.22-1.94,1.66-2.33,3.13-.15.58-.29,1.16-.44,1.75-.15,0-.35-.04-.44,0-2.22-.12-3.4,1.67-4.37-.87-.36-.95-.02-2.83-1.84-2.55-13.77,3.49-27.7,6.44-41.4,10.18-2.83.77-9.1,2.14-11.35,3.28-1.68.85-1.23,1.68-1.31,3.06-.03.53.26,1.43-.26,1.79-18.73,6.64-37.91,12.19-56.52,19.17-3.19.75-6.51,1.76-9.63,2.84-.44.15-.73.62-.85.66-.43.15-.87.29-1.31.44-3.42,1.18-12.31,4.79-15.17,5.15-1.05.13-2.42-.66-3.61-.35-20.09-2.53-40.08,2.06-56.78,13.1-8.96,5.93-16.29,13.14-23.62,20.71-.72.74-1.53,1.99-2.15,2.88-.51.73-.38,1.62-1.13,2.15-17.86,8.53-35.31,17.88-53.03,26.68-1.65.82-8.28,3.12-8.64,4.66-.11.48.34.85.35,1.02.08,1.92.51,3.76.43,5.68l15.29,1.75-.87,1.74c-2,.76-3.7,2.57-5.68,3.49-.97.45-2.6.01-2.11,2.29,2.2,2.23,4.25,10.52,6.04,12.12.42.38,1.61.44,1.75,1.31-2.95-1.1-1.01.47-2.19,1.53-3.54,1.6-7.23,2.92-10.77,4.51-4.28,1.93-12.35,5.04-15.87,7.5-2.63,1.84-2.78,3.74.87,2.62.49,1.33-1.26,4.24-1.22,4.95.04.84,1.31,2.57,1.66,3.35.14.32.32.61.44.87,5.5,12.7,10.55,24.35,18.34,35.82,1.91,3.69,3.97,7.35,6.87,10.39,15.11,5.11,32.03,8.03,46.86,13.64,2.48.94,1.49,1.14,2.66,2.37,2.86,3.02,13.51,15.87,15.7,17.04.81.44,2.67.96,3.92,1.56l1.74,2.62-2.84-2.62c-.83-.16-.84.25-.44.88,1.23,1.91,7.54,7.29,9.57,9.21,1.18,1.11,1.25,2.69,3.75,2.14,4.75.76,11.06.2,15.96.42,13.65.62,27.32,1.03,41.06,1.31,9.85.2,20.25,1.21,30.14.47,2.67-.2,5.09-.95,7.19-2.64,2.66-.62,3-.36,5.44-.41,41.17-.97,82.46.57,123.65,0,8.21-.11,19.2.3,27.06-.46,3.48-.34,9.24-2.3,12.9-3.26,11.21-2.94,22.26-6.98,33.57-9.33.02.51.31.84.49,1.24.14.3.35.64.44.87.94,2.41,1.28,3.71,2.62,6.11,1.17,2.11,1.82,4.01,4.06,5.33,2.57,1.51,6.96,2.35,9.92,2.53,4.76,1.39,10.96,2.11,15.95,2.62,30.2,3.04,63.43.57,93.68-1.74,12.26-.94,24.48-2.08,36.69-3.49,8.51-.98,20.39-1.65,28.39-3.93,16.86-2.42,32.89-8.03,48.14-15.41,9.48-4.59,18.59-9.93,27.42-15.6,1.52-.98,3.19-1.94,4.8-3.06.18-.12.53-.2.87-.44,1.28-.91,2.38-2.2,3.49-3.06.11-.05.19-.12.26-.2,3.45-2.63,7.97-5.3,10.16-9.26,1.42-2.57,1.07-8.63.96-11.75Z" style="fill:none; stroke:#000; stroke-miterlimit:10; stroke-width:2px;"/></svg>