<?xml version="1.0" encoding="UTF-8"?><svg id="Layer_1" xmlns="http://www.w3.org/2000/svg" width="445.41" height="696.93" viewBox="0 0 445.41 696.93"><path d="M443.24,273.24c-.66-24.12-1.42-49.08-6-72.85-4.04-20.94-11.82-23.52-23.41-39.09-5.02-6.75-10.94-15.38-14.96-22.72-1.56-2.84-2.42-6.77-4.67-9.35-.17-.67-.42-1.19-.58-1.75-.58-1.96-2.33-4.27-2.92-5.84-.58-1.55-1.18-3.12-1.75-4.67-1.76-4.81-3.74-10.34-5.26-15.19-.97-3.1-1.85-6.18-2.64-9.34-1.41-5.64-.51-8.84-4.37-13.44-2.01-2.39-3.93-3.98-6.43-5.84-.37-.27-1.46-1.37-1.75-1.17l-1.76,10.51c-1.27-.36-1.06-1.53-1.28-2.52-.74-3.31-1.78-11.31-3.14-13.8-.8-1.47-7.95-5.76-9.88-7.06-19.24-12.91-40.49-25.82-61.04-36.51-3.84-2-35.93-18.08-37.39-16.64-.12.72.16,1.7,0,2.34-5.2,20.79-4.15,52.09-4.09,74.18-.97.61-.58,2.22-.59,3.2-.23,22.13-.86,44.23-1.74,66.31-1.41,1.23-.06,8.25-.58,8.76h-4.68c.35-9.63-.66-18.78-.56-28.31.17-16.47,1.07-32.8,1.15-49.1.01-2.95.88-10.9-.08-12.77-.83-1.61-2.64-2.1-3.41-3.02-.63-.76-.59-1.76-1.19-2.61-1.17-1.65-1.04-2.07-2.92-3.5-2.2-1.68-3.53-2.19-6.43-2.34-.61-.97-2.22-.58-3.2-.59-4.31-.05-16.58-.71-19.76.72-.64.29-.69.76-.98,1.04-1.03.97-.67.86-1.17,1.75-.58,1.03-1.37,3.21-1.75,3.5-.18.14-1.09-.36-1.2.34-.02,9.24-.66,18.53-1.14,27.7-.63,12.03-1.46,24.66-1.7,36.5-.02,1.1-.68,5.86-1.52,6.13-2.69.89-2.39-5.07-2.64-6.71-.15-1.02.31-.98-1.15-.88v14.31c0,.2-.55.97-.61,1.73-.14,2.02,1,7.51-1.15,7.32-1.76.33-1.13-.89-1.17-2.02-.94-28.21.43-58.81.58-87.35.1-18.27,1.46-36.65,0-54.91-.88-.92-11.43,1.2-13.61.6-.49-.13-2.47-4.5-4.65-5.41-.48-.2-8.22-1.9-8.66-1.91-6.1-.14-30.81,6.31-36.75,9.06-.97.45-1.37.62-2.34,1.17-.43.24-1.27.19-1.95.65-3.26,2.24-3.79,6.31-5.06,9.86-1.4.49-2.76,1.27-4.09,1.75-1.13.41-2.34.75-3.5,1.17-3.14,1.12-6.22,2.38-9.35,3.5-1.24.44-2.47.88-3.71,1.32-.61.09-.93.21-1.1.39-10.72,3.8-21.4,7.47-31.99,11.72-6.67,2.68-13.59,4.84-19.86,8.47-1.24,1.33-2.94,12.79-3.51,15.48-1.48,3.45-5.38,4.56-8.16,6.76-.6.48-.91,1.19-1.19,1.41-2.35,1.89-5.17,3.3-6.72,6.42-4.24,8.49-7.41,24.77-10.22,34.47-4.56,15.77-9.37,31.52-12.89,47.6,4.32,10.12,11.25,19.14,17.27,28.36-.08,1.51-.13,3.14-.29,4.65-.23,2.15-.8,4.78-1.17,7.01-.61,3.69-1.34,7.86-2.24,11.49-2.78,11.2-3.85,23.7-4.23,35.52-.1,3.2.64,6.97.59,11.08-.22,20.61-.24,41.34.02,61.95.01.99-.37,2.6.59,3.2.17,7.95.02,20.59,2.01,28.07.21.79,1.34,1.54,1.41,2.11.1.71-.97,1.31-1.04,2.2-.44,6.38,3.29,28.03,4.62,35.37-13.68,11.46-18.12,29.14-17.55,46.46.53,15.85,3.8,31.59,7.03,47,5.33,25.4,10.46,45.86,23.26,68.74,16.16,28.86,38.42,58.36,62.6,80.8,15.36,14.26,30.95,26.1,49.07,36.8,59.42,35.11,108.37,29.36,160.91-14.03,9.88-8.16,19.55-17.32,28.93-25.69,6.2-5.52,14.08-18.56,19.28-25.7,27.9-38.37,46.39-73.47,63.52-117.85,14.42-37.36,21.86-76.01,26.43-115.8,3.73-32.45,2.04-67.87,1.14-100.74ZM238.25,134.77c.05,4.27.13,8.62-.01,12.89-.04,1.13.6,2.34-1.17,2.02,0-.58-.01-1.17,0-1.75.05-2.33-.04-4.68,0-7.01.05-2.84.55-6.24.58-9.35.97.61.58,2.22.59,3.2Z" style="fill:none; stroke:#000; stroke-miterlimit:10; stroke-width:2px;"/></svg>