<?xml version="1.0" encoding="UTF-8"?><svg id="Layer_1" xmlns="http://www.w3.org/2000/svg" width="384.87" height="718.37" viewBox="0 0 384.87 718.37"><path d="M383.49,485.66c.8-7.72.03-15.78.37-23.55l-.73-8.11c-.5-30.17-6.21-58.91-12.59-88.15-2.04-9.34-4.23-18.65-6.38-27.98-.82-3.56-2.03-13.33-3.33-15.91-1.71-10.23-3.81-20.48-4.99-30.81-2.04-17.78-1.6-35.83-1.47-53.58.18-24.85.9-49.98,1.42-75,.08-3.95.28-7.9.36-11.87.6-.37.36-1.37.37-1.97.06-5.72.5-11.38.35-17.1,0-.24,0-.48,0-.72.6-.37.36-1.37.37-1.97.1-9.12.34-18.27.7-27.36.16-4.04,1.07-7.84.73-12.04-.09-1.14-.61-1.97-.72-3.05-.21-2.12.48-3.97.32-6.08-.18-2.27-1.26-5.28-2.11-7.42-.37-2.01-1.04-2.97-1.8-4.68-3.68-8.29-6.47-10.53-13.56-15.77-30.99-22.88-72.99-38.51-110.84-45.31-2.15-.39-6.82-1.4-8.71-1.38-.3,0-.73.13-.73.39v8.1c-.59-.2-3.45-.26-3.58-.38-.18-.17-.2-2.77-.45-3.15-.15-.23-2.63-1.25-3.15-1.35-5.66-1.11-11.27-.37-16.76-.87-1.81-.17-4.13-1.11-6.11-1.11-1.56,0-3.18.51-5.05.4-5.33-.3-14.64-1.52-19.67.09-2.72.87-1.21,3.11-2.06,3.7-.59.42-4.1.55-4.34-.74-.41-2.21.07-6.3,0-8.82-.01-.36.02-.72,0-1.08-.54.01-1.09-.05-1.63-.01-6.42.38-12.91,1.25-19.24,2.17-1.63-.03-3.53.03-5.04.72-.12.01-.24-.01-.36,0-2.24.24-4.68.22-6.84,1.08-.12.01-.24-.01-.36,0-7.69.93-15.77,2.77-23.32,4.56-25.07,5.96-49.95,14.81-72.74,26.74-1.18.63-2.42,1.19-3.6,1.8-1,.52-1.57.85-2.52,1.44-6.17,3.81-8.91,7.39-12.23,13.67-1.08,2.04-2.21,3.95-3.05,6.13-5.67,14.69-2.84,30.72-2.69,46.21.39,40.37-.96,80.57-1.08,120.92-.19,1.45-2.17,2.8-3.26,3.76h-.36v41.74c.6.37.36,1.36.37,1.97.16,15.57.29,31.2.71,46.6.32,11.51-.15,24.54.73,35.79.06.78.77,4.99,1.03,5.38.36.52,1.67.04,1.84.21.25.23-.23,2.96-.36,3.6-.38,1.82-1.29,3.22-1.7,4.96-1.86,7.96-.58,20.21-.8,28.7-.43,15.84-1.51,31.94-1.81,47.66-.1,5.39.08,10.8,0,16.19.94,3,.56,6.58,2.16,9.35.01.13-.03.27,0,.36.06.19.3.27.36.36-.39,8.29-.59,16.7-.37,25.02.25,9.42,1.02,18.87,2.17,28.23,1.04,8.5,2.46,16.22,4.42,24.54.31,1.33.55,3.19,1.34,4.24.24,1.22.43,2.39.72,3.6,1.92,8.09,4.91,16.63,7.74,24.46,11.33,31.36,22.14,53.37,45.49,77.56.42.43.78.87,1.45.88,6.13,8.01,20.64,18.27,29.14,24.11,8.43,5.79,15.98,10.26,25.19,14.75,11,5.36,30.41,13.62,42.46,14.39.12,0,.24,0,.36,0,2.29.72,4.8,1.1,7.2,1.08,2.76.59,5.31.62,7.92,1.44h24.11c1.59-.95,3.48-.55,5.17-.76,15.78-2.01,30.79-6.72,45.2-13.27,1.33-.6,2.64-1.17,3.96-1.8,1.27-.61,2.67-1.5,3.96-2.16.06-.02.11-.05.16-.09.88-.45,1.75-.9,2.62-1.36.05.02.08.03.1.01.01-.01.01-.04.02-.07,14.52-7.7,27.09-16.69,39.56-27.64,6.9-6.06,13.21-12.17,19.43-19.07,37.09-41.16,56.21-93.08,59.71-148.33.01-.09.02-.18.02-.26.09-1.36.33-2.58.36-3.96,0-.36,0-.72,0-1.08,0-.24,0-.48,0-.72.6-.37.36-1.37.37-1.97.03-3.06.03-6.13,0-9.18Z" style="fill:none; stroke:#000; stroke-miterlimit:10; stroke-width:2px;"/></svg>