<?xml version="1.0" encoding="UTF-8"?><svg id="Layer_1" xmlns="http://www.w3.org/2000/svg" width="728.12" height="234.37" viewBox="0 0 728.12 234.37"><path d="M15.63,170.87l-1.82-3.65v-1.82l1.82-3.65,3.65-1.83c-.3.21-.58.55-.86.89-.34.3-.68.61-.97.93M23.79,153.19c-1.59.32-12.52,20.89-13.63,21.33-1.53.61-4.72-.55-6.47,1.76-1.72,2.27.3,3.12.86,3.55.05.06.08.1.14.16.83,7.21,9.6,16.73,14.59,21.89,1.26,2.89,2.32,5.85,5.47,7.3.26.47-.26,1.37,0,1.82.6,1.02,1.48,1.35,1.82,1.82.47.65,1.23,1.27,1.82,1.82,1.17,1.1,1.52,2.72,3.65,3.65,1.08.47,1.65,1.29,3.65,1.82.56.15,1.24-.11,1.82,0,1.91.36,5.1.05,7.3,0,5.44,2.04,12.46,2.81,18.24,3.65,2.83.41,5.09,1.53,9.12,1.82,2.41.18,4.88-.12,7.3,0,1.96,3.19,6.33,1.41,9.12,1.82,81.83,12.03,215.61,2.25,302.78,1.82v1.82h67.49v-1.82c2.9-.02,5.18-1.82,5.47-1.82h1.82c9.7-.08,19.48.09,29.18,0,4.25-.04,8.52.04,12.77,0,2.43-.02,4.86.02,7.3,0,39.46-.36,79.22,1.79,118.56-1.82,16.81,3.06,24.92-3.9,38.3-7.3,20.19-.59,39.25-10.15,54.72-21.88-6.87-25.15-37.73-63.96-62.02-85.73-12.48-14.5-28.59-26.95-43.78-38.3-1.29-.97-2.62-3.45-5.47-5.47-.4-.29-1.42.29-1.82,0-.67-.47-1.14-1.35-1.82-1.82-.63-.43-1.11-1.34-1.82-1.82-.42-.28-1.4.28-1.82,0-1.07-.71-2.06-1.09-2.82-1.42-.28-.14-.56-.28-.83-.41-.67-.43-1.15-1.4-1.82-1.82-.64-.4-1.13-1.4-1.82-1.82-.45-.27-1.37.26-1.82,0-1.23-.72-2.47-1.17-3.65-1.82-.6-.33-1.64-2.6-3.65-3.65-1.2-.63-2.43-1.21-3.65-1.82-1.21-.61-2.42-1.24-3.65-1.82-.5-.24-1.33.23-1.82,0-.67-.47-1.13-1.38-1.82-1.82-1.35-.86-2.6-1.21-3.65-1.82-1.72-1.01-3.24-2.43-5.47-3.65-.47-.26-1.35.25-1.82,0-1.22-.65-2.43-1.2-3.65-1.82-1.23-.63-2.4-1.23-3.65-1.82-1.23-.58-2.38-1.25-3.65-1.82-1.22-.56-2.37-1.27-3.65-1.82-1.22-.53-2.35-1.29-3.65-1.82C448.73-11.12,350.42-3.36,243.63,19.48c-6.54.25-15.75,1.45-21.89,3.65-2.91.32-5.55,1.06-7.3,3.65-.59.12-1.29-.17-1.82,0-.18.06-.4.33-.64.64l-1.18,1.18c-.64.26-1.23,1.6-1.82,1.82-2.76,1.05-5.58,4.78-7.3,5.47-4.76,1.91-4.19,1.95-9.12,1.82-1.2-.03-2.47.13-3.65,0-.53-.06-2.1-1.6-3.65-1.82-.56-.08-2.01-1.63-3.65-1.82-2.43-.29-4.86-1.42-7.3-1.82-1.16-.19-2.48.17-3.65,0-8.2-1.22-13.2-2.23-21.89-1.82-2.05.09-4.39-.47-5.47,1.82-.58-.06-1.24-.03-1.82,0-4.42.21-5.19,1.76-5.47,1.82h-.83c-.35-.04-.69-.09-1,0-1.62.47-2.66,1.48-3.65,1.82-.54.19-1.3-.2-1.82,0-2.61,1.01-3.92,2.88-5.47,3.65-1.36.68-2.22,1-3.65,1.82-1.22.7-3.68.64-5.47,1.82-.69.46-1.16,1.33-1.82,1.82-1.86,1.38-2.32,2.26-3.65,3.65-.43.28-.82.77-1.22,1.22-.2.2-.4.4-.6.6-.36.3-1.49-.3-1.82,0-1.43,1.31-2.34,2.28-3.65,3.65-.3.32.3,1.49,0,1.82-.58.63-1.29,1.18-1.82,1.82-.61.55-1.33,1.18-1.82,1.82-.73.95-2.4,1.21-3.65,3.65-.22.43.17,1.21,0,1.82-.43.66-1.44,1.16-1.82,1.82-1.73,3.01-2.25,4.33-3.65,7.3-.59,1.25-1.34,2.21-1.82,3.65l-1.19,1.19c-.32.24-.58.45-.64.64-.51,1.79-1.37,3-1.82,5.47-2.5.69-4.82,1.19-7.3,1.82-2.82.72-3.54.35-7.3,1.82-.92.36-2.82-.38-3.65,0-6.2,2.8-6.98,4.85-10.94,7.3-5.2,3.2-8.7,7.81-12.77,10.94-1.54,1.19-3.5,2.06-5.47,3.65-1.64,1.32-2.5,2.65-3.65,3.65-2.26,1.99-3.78,3.94-5.47,5.47-.64.57-1.19,1.25-1.82,1.82-.63.58-1.25,1.18-1.82,1.82-6.4,7.2-14.86,12.65-20.06,20.06h0c.33,1.5-2.3,4.53-1.82,5.47.51,1.01.82,1.3,1.82,1.82,4.82,2.51,14.48,1.95,20.06,1.82-.27.45.28,1.4,0,1.82" style="fill:none; stroke:#000; stroke-miterlimit:10; stroke-width:2px;"/></svg>