<?xml version="1.0" encoding="UTF-8"?><svg id="Layer_1" xmlns="http://www.w3.org/2000/svg" width="368.69" height="727.87" viewBox="0 0 368.69 727.87"><path d="M292.7,686.52c10.29-4.74,28-29.7,28.34-28.34,45.5-53.3,47.4-122.71,40.48-190.29-4.97-48.29,4.32-96.4,0-145.75,7.7-2.68,5.97-17.05,6.08-24.29.03-25.96-.02-94.69,0-121.46.46-28.31-2.51-116.79-28.34-129.56-7.4-4.96-.84,1.54-6.07,4.05-2.66-15.24-12.79-12.71-24.29-18.22-8.81-3.98-17.24-6.9-26.32-10.12-3.05-1.08-5.74-1.25-8.1-2.02-12.19-3.99-23.78-9.15-36.44-12.15-10.27-2.43-28.06-7.74-40.77-6.83-1.41-.24-3.42-.09-5.79.76-.93.33-3.57,1.55-4.05,2.02-.26.26.08,2.87,0,4.05-.04.67.03,1.35,0,2.02-3.66-.61-.9-6.56-4.05-8.1-.54-.26-1.45.25-2.02,0-14.06-6.18-61.38,11.35-76.92,16.19-36.34,15.04-71.54,16.93-85.03,46.55C-3.06,155.91-4.82,255.99,13.34,346.44c1.17,124.5-39.53,296.32,101.22,362.35M254.24,708.79c8.55,3.79,25.37-14.36,36.44-20.24M117.57,708.8c-7.63.26,11.98,7.34,15.21,8.09,40.48,15.17,82.77,12.96,121.46-6.07M213.75,721.95l-1.01,1.01M296.75,681.46l-1.01,1.01" style="fill:none; stroke:#000; stroke-miterlimit:10; stroke-width:2px;"/><path d="M290.67,686.52c-.25,3.14.61,1.24,2.02,0-.65.1-1.95-.17-2.02,0Z" style="fill:none; stroke:#000; stroke-miterlimit:10; stroke-width:2px;"/></svg>