<?xml version="1.0" encoding="UTF-8"?><svg id="Layer_1" xmlns="http://www.w3.org/2000/svg" width="705.64" height="250.75" viewBox="0 0 705.64 250.75"><path d="M700.02,187.68c-.44-.82-1.51-1.23-1.64-1.46-1.12-2.05-2.11-4.58-3.58-7.16-.38-.67-.63-1.34-.89-1.79-.9-1.55-1.77-2.96-2.68-4.47-1.84-3.04-2-5.33-4.47-8.05-3.88-8-9.16-15.21-14.32-22.37-4.25-5.91-8.92-11.32-13.42-17-5.76-7.27-10.7-13.62-17-20.58-4.68-5.17-7.68-7.88-12.53-12.53-.61-.58-1.15-1.19-1.79-1.79-5.34-4.96-7.82-8.19-14.32-12.53-.39-2.38-11.16-9.06-13.42-10.74-5.23-3.89-7.72-5.7-13.42-8.95-1.43-.81-2.6-1.67-4.47-2.68-4.07-2.21-8.41-4.12-12.53-6.26-9.76-5.09-19.45-10.75-29.53-15.21-.42-3.36-.34-2.46-2.68-3.58-1.13-.54-3.4-1.59-4.47-1.79-.28-.05-.6.01-.89,0-1.33-2.36-4.2-.85-4.47-.89-1.18-.19-1.67-.45-2.68-.89-1.97-.87-4.35-2.54-7.16-3.58-31.98-11.85-67.8-19.73-102.01-21.47v-.89h-37.58v.89c-4.25.31-9.67.74-13.42,1.79-12.12.04-24.19,2.96-35.79,6.26-.12-.12-1.16.22-1.57-.22-.65-.72-.04-1.93-.22-2.47-1.4-4.13-9.11-4.63-12.53-2.68-.6.34-1.18,1.32-1.79,1.79-.29-.03-.6.01-.89,0-1.45-3.58-4.65-1.1-6.26-.89-2.21.29-3.18.42-5.37.89-1.56.34-2.68.38-4.47.89-1.9.54-3.06,1.29-4.47,1.79-1.55.54-2.95,1.13-4.47,1.79-.79.34-1.73.44-2.68.89-1.78.85-3.65,1.71-5.37,2.68-2.96,1.67-3.95,1.55-6.26,4.47-.25.31-1.3.36-1.62,1.47-.46,1.61.19,5.08-.26,5.6-.35.4-8.59,2.02-10.28,2.72-1.47.6-2.11,1.35-3.05,1.84-4.86.21-17.43,5.29-22.85,7.12-10.07,3.41-20.35,7.19-29.94,11.67-.3.01-.6,0-.89,0-2.67.03-6.98,2.08-9.84,2.68-.3-.02-.6.02-.89,0v-.89c-2.35-1.03-6.38-1.64-8.95-1.79-3.9-1.45-9.74-1.15-13.91-.93-13.77.74-22.04,3.53-33.52,10.77-7.98,5.03-7.22,5.13-12.53,12.53-1.35,1.88-3.28,3.36-4.47,5.37v.89c-2.84,1.05-2.6,3.09-3.58,4.47-1.21,1.72-2.3,3.57-3.58,5.37-1.77,2.5-3.43,5-6.26,6.26.33-1.49.61-2.92,1.78-4.03.14-.67-.87-.57-1.32-.43-6.12,1.97-13.51,6.7-19.26,9.83-4.37.72-8.73,4.53-12.53,6.26-4.61,2.11-9.63,3.85-14.32,6.26-2.76,1.42-5.36,2.96-8.05,4.47-3.89,2.18-8.62,3.86-11.63,7.16-.28.31-.67.59-.89.89-1.86-1.62-2.53.38-3.58.89-1.35.66-2.12.96-3.58,1.79-.66.38-1.3.62-1.79.89-.95.54-2.01.82-2.68,1.79-2.83.59-3.32,1.53-5.37,2.68-1.11.63-1.95.72-3.58,1.79-1.2.78-2.77,2.47-4.47,3.58-1.99-1.55-3.61.89-5.37,1.79-1.63.84-5.41,2.21-6.31,3.32-1.73,2.14-2.62,9.64-1.74,11.89,1.27,3.25,4.13,4.97,6.26,7.16-.13.24.32,1.08-.18,1.58-1.03,1.02-6.88,1.22-3.4,5.58.21,2.32,1.07,1.81,1.79,2.68l.89,9.84c.66,1.73-1.95,1.8-1.79,2.23l2.68,2.24c0,2.72.1,6.36.89,8.95-.04,4.85,1.17,9.99,3.87,14.06.3.45,1.39.15,1.5.25,3.09,3.08,4.86,8.79,8.05,13.42,4.24,6.14,9.09,12.84,15.21,17,.54.37,1.22.56,1.79.89.96.57,2,.56,2.68.89,3.92,1.94,3.01,2.86,8.95,3.58,10.72,4.6,23.1,3.08,34.49,3.54,65.74,2.69,133.95-1.27,199.95-1.75,80.21-.59,160.49.38,240.7,0,2.09,0,4.18.01,6.26,0,7.44-.04,14.93.07,22.37,0,13.24-.12,26.36-.29,39.37-.89.59-.03,1.2.03,1.79,0,2.08-.11,4.18.07,6.26,0l22.37-2.68c.59.03,1.2.02,1.79,0,4.86-.15,9.54-1.09,14.32-1.79,1.63-.24,2.7-.74,3.58-.89.83-.14,1.87.15,2.68,0,2.63-.48,4.78-1.27,7.16-1.79,4.91-1.08,9.49-2.15,14.32-3.58,3.91-1.16,5.99-1.91,9.84-3.58.25-.11.65.11.89,0,2.74-1.25,2.38-1.26,4.47-2.68,4.53-3.09,3.25-2.63,6.26-6.26.26-.32.63-.56.89-.89.37-.47,1.11-.86,1.79-1.79.53-.72.63-1.39.89-1.79.6-.89,1.23-1.77,1.79-2.68,3.54-5.79,3.86-7.38,6.26-13.42.33-.83.63-2.21.89-2.68.09-.16.66-.7.89-.89.45-.37,1.26-.54,1.79-.89v-1.79c-2.13-2.37-3.12-5.59-4.63-8.38Z" style="fill:none; stroke:#000; stroke-miterlimit:10; stroke-width:2px;"/></svg>