<?xml version="1.0" encoding="UTF-8"?><svg id="Layer_1" xmlns="http://www.w3.org/2000/svg" width="391.78" height="704.87" viewBox="0 0 391.78 704.87"><path d="M388.22,471.29c1.17-2.51-1.09-5.11-1.28-6.39-.18-1.21.19-2.63,0-3.83-1.11-7.13-2.3-14.11-3.73-21.19-.44-2.18.37-4.78-2.66-5.65.1-5.1-.43-7.95-1.28-12.78-.26-1.48-1.07-2.76-1.28-3.83-.65-3.42-2.06-6.47-2.56-8.95-2.08-10.29-4.18-20.42-6.39-30.67-.5-2.33-.75-5.08-1.28-7.67-.26-1.29.52-3.1-1.28-3.83.09-1.23.07-2.6,0-3.83-.24-3.94-.72-9.3-2.56-12.78.06-1.24.09-2.59,0-3.83-.16-2.12-1.24-3.45-1.28-3.83-.14-1.25.15-2.59,0-3.83-.28-2.34-1.18-4.25-1.28-5.11-.77-6.49-1.7-13-2.56-19.17-.39-2.77.41-6.2,0-8.95l-2.56-26.84c.03-.85-.02-1.71,0-2.56.1-3.8.12-7.71,0-11.5-.08-2.53-1.27-4.8-1.28-5.11-.02-.6,1.29-1.95,1.28-2.56.61-20.38-.83-40.98,0-61.34.09-2.12-.13-4.28,0-6.39.06-.97,1.12-2.99,1.28-5.11.27-3.67,1.03-7.05,1.28-10.22.16-2.11-.17-4.29,0-6.39.1-1.16,1.05-3.7,1.28-6.39.18-2.1-.16-4.28,0-6.39.25-3.36,1.15-7.04,1.28-11.5.07-2.54.07-5.13,0-7.67,2.03-1.57,1.5-6.35,1.28-8.95v-17.89c0-5.94.13-11.95,0-17.89-.13-5.86.42-12.14,0-17.89-.23-3.16-.95-4.37-1.28-6.39-1.54-9.4-2.26-9.93-6.39-17.89-1.97-3.8-2.17-5.08-5.11-8.95-.36-.47-.91-.82-1.28-1.28-2.39-2.94-3.84-4-6.39-6.39-7.69-7.23-7.59-6.86-16.61-11.5-1.09-.56-2.05-1.79-3.83-2.56-3.3-1.42-4.62-1.59-7.67-2.56-2.18-.69-3.23-.8-5.11-1.28-9.11-2.29-17.48-3.99-26.84-5.11-4.14-.5-6.92-1.2-11.5-1.28-.42,0-.85,0-1.28,0-2.42-2.18-8.04-1.43-11.5-1.28-8.74-3.32-19.87-.65-28.11-5.11h-74.12l-3.83,2.56c-1.68-.09-3.43-.04-5.11,0-2.05.05-5.31-.77-6.39,1.28-.43,0-.85,0-1.28,0-3.19,0-8.11-.99-10.22,1.28-10.53-.42-19.26,2.06-29.39,3.83-1.95.34-3.6,1-5.11,1.28-1.17.22-2.69-.23-3.83,0l-5.21.87c-1.13.18-2.07.32-2.46.41-5.56,1.24-10.86,3.55-15.34,5.11-4.51,1.58-5.13,1.2-10.22,3.83-13.58,7.02-23.03,16.32-29.39,30.67-2.85,6.44-4.48,10.67-5.11,17.89-.04.42.03.85,0,1.28-.84,13.14-.36,26.76,0,40.35v29.94c-.03,1.7.02,3.41,0,5.11-.05,3.39-.02,6.8,0,10.21v10.24c-.02,1.7.02,3.41,0,5.11-.07,5.1,0,10.24,0,15.34,0,2.98,0,5.97,0,8.95-2.7.88-2.67,4.13-3.83,6.39-.57,1.11-1.81,1.97-2.56,3.83-.6,1.5-.79,3.48-1.28,5.11-.59,1.95-.91,3.01-1.28,5.11-.07.41.06.86,0,1.28-.8,5.43-1.64,12.06-1.28,17.89.19,3.01,1.13,4.94,1.28,6.39.36,3.45.94,6.82,1.28,10.22.33,3.33.89,6.83,1.28,10.22.57,5.02.3,8.68,1.04,13.79-.07.51-.01,1.04.24,1.54.43,2.43.49,2.79,1.28,5.11.9,2.66.69,6.43,3.83,7.67-.28,1.95.42,4.69,0,6.39-.23.92-2.88,5.31-3.83,7.67-.94,2.34-2.02,1.95-2.56,6.39-.24,1.99.09,4.31,0,6.39-.2,4.62-.11,9.43,0,14.06-2.36,3.38-1.24,9.63-1.28,14.06-2.06,1.08-1.22,4.34-1.28,6.39-.02.84-.05,1.72,0,2.56-2.58,3.9-.96,10.41-1.28,15.34-.23,3.56-1.28,6.92-1.28,11.5,0,2.79-.92,7.22,1.28,8.95.29,1.92.45,3.21,2.56,3.83.36,3.01.7,5.97,1.28,8.95-.28,1.04.23,2.68,0,3.83-.15.78.15,1.77,0,2.56-1,5.43-1.92,10.84-2.56,16.61-.22,2.03-1.11,4.04-1.28,6.39-.15,2.09,0,4.28,0,6.39-.59,2.51-.84,3.87-1.28,6.39-.78,4.44-.68,8.79-1.28,12.78-.22,1.48-.92,3.91-1.28,6.39-.12.82.11,1.74,0,2.56-1.13,8.08-2.92,16.09-3.83,24.28-.19,1.67.18,3.44,0,5.11-.47,4.5-2.35,10.63-2.56,15.34h-1.28v33.23c2.5,2.88,2.05,6.8,2.56,10.22.36,2.4.96,4.42,1.28,6.39.6,3.75.48,9.22,1.28,12.78.73,3.28,2.66,9.54,3.83,12.78.6,1.67,4.04,10.05,5.11,10.22-.08,1.9.5,3.43,1.28,5.11,3.31,7.16,7.18,13.85,11.5,20.45,5.18,7.9,10.27,13.71,16.61,20.45,3,3.18,5.55,8.13,10.22,8.95-.01.42-.1,1.03,0,1.28.54,1.32,4.88,3.86,6.39,5.11,3.19,2.64,5.63,4.15,8.95,6.39,1.69,1.14,3.15,2.63,5.11,3.83,10.43,6.42,21.9,11.92,33.23,16.61,4.24,1.76,8.42,3.61,12.78,5.11,4.15,1.43,8.54,2.66,12.78,3.83,1.62.45,3.46.86,5.11,1.28,13.61,3.39,25.47,5.75,39.62,6.39v1.28h17.89v-1.28c17.42-.89,26.47-3.93,42.17-8.95,3.02-.97,6.99-1.35,10.22-2.56,1.25-.47,2.52-.75,3.83-1.28,2.55-1.02,4.67-3.07,6.39-3.83,1.46-.65,3.72-.61,5.11-1.28,10.45-5.04,21.32-12.27,30.67-19.17,4.42-3.26,8.57-6.71,12.78-10.22,1.75-1.45,2.63-2.76,3.83-3.83,1.48-1.32,3.7-2.5,5.11-3.83,6.35-6.02,9.15-11.18,14.06-16.61,13.29-14.71,18.65-20.7,29.39-38.34,1.46-2.4,3.37-4.53,5.11-7.67.96-1.73,1.67-3.4,2.56-5.11,4.62-8.9,6.7-13.59,10.22-23,1.63-4.35,2.51-7.05,3.83-11.5,2.38-8.02,4.74-11.24,5.11-20.45,2.48-2.6,1.03-7.83,1.28-11.5.11-1.69-.17-3.44,0-5.11.12-1.2,1.74-6.3,2.56-7.67v-15.34l-2.56-14.06Z" style="fill:none; stroke:#000; stroke-miterlimit:10; stroke-width:2px;"/></svg>