<svg xmlns="http://www.w3.org/2000/svg" width="300" height="450" viewBox="0 0 300 450">
  <defs>
    <linearGradient id="bg" x1="0" y1="0" x2="0" y2="1">
      <stop offset="0%" stop-color="#18181b"/>
      <stop offset="100%" stop-color="#0f0f12"/>
    </linearGradient>
    <linearGradient id="accent" x1="0" y1="0" x2="1" y2="0">
      <stop offset="0%" stop-color="#facc15"/>
      <stop offset="100%" stop-color="#eab308"/>
    </linearGradient>
  </defs>
  <rect width="300" height="450" fill="url(#bg)"/>
  <rect width="300" height="3" fill="url(#accent)"/>
  <polygon points="0,450 0,350 120,450" fill="#1c1c22" opacity="0.5"/>
  <rect x="20" y="22" width="68" height="24" rx="4" fill="#eab308"/>
  <text x="54" y="39" font-family="system-ui, sans-serif" font-size="12" font-weight="800" fill="#18181b" text-anchor="middle" letter-spacing="1">AWARD</text>
  <text x="20" y="78" font-family="system-ui, sans-serif" font-size="30" font-weight="900" fill="#ffffff">BEST IN</text>
  <text x="20" y="112" font-family="system-ui, sans-serif" font-size="30" font-weight="900" fill="#facc15">CLASS 2025</text>
  <text x="20" y="142" font-family="system-ui, sans-serif" font-size="13" font-weight="400" fill="#a1a1aa">Voted #1 Gaming Chair</text>
  <g transform="translate(50, 165)" opacity="0.05">
    <rect x="30" y="0" width="140" height="100" rx="8" fill="#facc15"/>
    <rect x="60" y="100" width="80" height="15" fill="#facc15"/>
    <polygon points="60,115 140,115 160,130 40,130" fill="#facc15"/>
  </g>
  <rect x="20" y="290" width="260" height="1" fill="#27272a"/>
  <text x="150" y="325" font-family="system-ui, sans-serif" font-size="40" fill="#facc15" text-anchor="middle">&#9733;&#9733;&#9733;&#9733;&#9733;</text>
  <text x="150" y="350" font-family="system-ui, sans-serif" font-size="14" font-weight="600" fill="#a1a1aa" text-anchor="middle">12,847 Reviews · 4.9 Average</text>
  <rect x="20" y="370" width="260" height="1" fill="#27272a"/>
  <text x="20" y="408" font-family="system-ui, sans-serif" font-size="14" font-weight="500" fill="#a1a1aa">From</text>
  <text x="70" y="408" font-family="system-ui, sans-serif" font-size="24" font-weight="900" fill="#ffffff">$449</text>
  <rect x="170" y="388" width="110" height="38" rx="19" fill="#eab308"/>
  <text x="225" y="413" font-family="system-ui, sans-serif" font-size="13" font-weight="800" fill="#18181b" text-anchor="middle" letter-spacing="1">CONFIGURE</text>
  <text x="280" y="444" font-family="system-ui, sans-serif" font-size="9" font-weight="500" fill="#4a5568" text-anchor="end">Sponsored</text>
  <rect y="447" width="300" height="3" fill="url(#accent)"/>
</svg>
