<svg xmlns="http://www.w3.org/2000/svg" width="300" height="400" viewBox="0 0 300 400">
  <defs>
    <linearGradient id="bg" x1="0" y1="0" x2="0" y2="1">
      <stop offset="0%" stop-color="#1a0a2e"/>
      <stop offset="100%" stop-color="#0d0519"/>
    </linearGradient>
    <linearGradient id="accent" x1="0" y1="0" x2="1" y2="0">
      <stop offset="0%" stop-color="#a855f7"/>
      <stop offset="100%" stop-color="#ec4899"/>
    </linearGradient>
  </defs>
  <rect width="300" height="400" fill="url(#bg)"/>
  <rect width="300" height="3" fill="url(#accent)"/>
  <polygon points="300,0 300,200 150,0" fill="#2d1050" opacity="0.4"/>
  <circle cx="150" cy="180" r="60" fill="#a855f7" opacity="0.05"/>
  <rect x="20" y="22" width="8" height="8" rx="4" fill="#a855f7"/>
  <text x="36" y="31" font-family="system-ui, sans-serif" font-size="11" font-weight="700" fill="#8b949e" letter-spacing="2">SAMPLE BRAND</text>
  <text x="20" y="78" font-family="system-ui, sans-serif" font-size="28" font-weight="900" fill="#ffffff">PRO GAMING</text>
  <text x="20" y="110" font-family="system-ui, sans-serif" font-size="28" font-weight="900" fill="#a855f7">HEADSET</text>
  <text x="20" y="140" font-family="system-ui, sans-serif" font-size="13" font-weight="400" fill="#8b949e">7.1 Surround · 50mm Drivers</text>
  <g transform="translate(60, 160)" opacity="0.08">
    <circle cx="90" cy="50" r="45" fill="#a855f7"/>
    <rect x="45" y="0" width="90" height="20" rx="10" fill="#a855f7"/>
  </g>
  <rect x="20" y="260" width="260" height="1" fill="#2d1050"/>
  <text x="20" y="290" font-family="system-ui, sans-serif" font-size="13" font-weight="500" fill="#8b949e">Noise Cancellation</text>
  <text x="280" y="290" font-family="system-ui, sans-serif" font-size="13" font-weight="700" fill="#a855f7" text-anchor="end">Active</text>
  <text x="20" y="318" font-family="system-ui, sans-serif" font-size="13" font-weight="500" fill="#8b949e">Battery</text>
  <text x="280" y="318" font-family="system-ui, sans-serif" font-size="13" font-weight="700" fill="#a855f7" text-anchor="end">60 Hours</text>
  <text x="20" y="360" font-family="system-ui, sans-serif" font-size="24" font-weight="900" fill="#ffffff">$249</text>
  <rect x="170" y="340" width="110" height="38" rx="19" fill="#a855f7"/>
  <text x="225" y="365" font-family="system-ui, sans-serif" font-size="13" font-weight="800" fill="#ffffff" text-anchor="middle" letter-spacing="1">SHOP NOW</text>
  <text x="280" y="394" font-family="system-ui, sans-serif" font-size="9" font-weight="500" fill="#4a5568" text-anchor="end">Sponsored</text>
  <rect y="397" width="300" height="3" fill="url(#accent)"/>
</svg>
