<svg xmlns="http://www.w3.org/2000/svg" width="300" height="300" viewBox="0 0 300 300">
  <defs>
    <linearGradient id="bg" x1="0" y1="0" x2="0" y2="1">
      <stop offset="0%" stop-color="#0f172a"/>
      <stop offset="100%" stop-color="#1e293b"/>
    </linearGradient>
    <linearGradient id="accent" x1="0" y1="0" x2="1" y2="0">
      <stop offset="0%" stop-color="#06b6d4"/>
      <stop offset="100%" stop-color="#0891b2"/>
    </linearGradient>
  </defs>
  <rect width="300" height="300" fill="url(#bg)"/>
  <rect width="300" height="3" fill="url(#accent)"/>
  <circle cx="150" cy="140" r="55" fill="#06b6d4" opacity="0.04"/>
  <text x="20" y="42" font-family="system-ui, sans-serif" font-size="11" font-weight="700" fill="#06b6d4" letter-spacing="2">DEAL OF THE DAY</text>
  <text x="20" y="82" font-family="system-ui, sans-serif" font-size="32" font-weight="900" fill="#ffffff">USB-C</text>
  <text x="20" y="116" font-family="system-ui, sans-serif" font-size="32" font-weight="900" fill="#06b6d4">HUB PRO</text>
  <text x="20" y="145" font-family="system-ui, sans-serif" font-size="13" font-weight="400" fill="#94a3b8">10-in-1 · Dual HDMI · 100W PD</text>
  <g transform="translate(40, 160)" opacity="0.05">
    <rect x="0" y="0" width="220" height="40" rx="8" fill="#06b6d4"/>
    <circle cx="30" cy="20" r="8" fill="#06b6d4"/><circle cx="60" cy="20" r="8" fill="#06b6d4"/>
    <rect x="100" y="12" width="30" height="16" rx="3" fill="#06b6d4"/>
    <rect x="140" y="12" width="30" height="16" rx="3" fill="#06b6d4"/>
  </g>
  <text x="20" y="230" font-family="system-ui, sans-serif" font-size="15" font-weight="500" fill="#64748b" text-decoration="line-through">$89</text>
  <text x="70" y="230" font-family="system-ui, sans-serif" font-size="28" font-weight="900" fill="#ffffff">$49</text>
  <rect x="20" y="248" width="260" height="38" rx="19" fill="#06b6d4"/>
  <text x="150" y="273" font-family="system-ui, sans-serif" font-size="14" font-weight="800" fill="#0f172a" text-anchor="middle" letter-spacing="1">GRAB THE DEAL</text>
  <text x="280" y="296" font-family="system-ui, sans-serif" font-size="9" font-weight="500" fill="#4a5568" text-anchor="end">Sponsored</text>
  <rect y="297" width="300" height="3" fill="url(#accent)"/>
</svg>
