<svg xmlns="http://www.w3.org/2000/svg" width="300" height="600" viewBox="0 0 300 600">
  <defs>
    <linearGradient id="bg" x1="0" y1="0" x2="0" y2="1">
      <stop offset="0%" stop-color="#0f172a"/>
      <stop offset="100%" stop-color="#1e293b"/>
    </linearGradient>
    <linearGradient id="accent" x1="0" y1="0" x2="1" y2="0">
      <stop offset="0%" stop-color="#f43f5e"/>
      <stop offset="100%" stop-color="#e11d48"/>
    </linearGradient>
  </defs>
  <rect width="300" height="600" fill="url(#bg)"/>
  <rect width="300" height="3" fill="url(#accent)"/>
  <polygon points="0,0 120,0 0,200" fill="#1a2744" opacity="0.5"/>
  <circle cx="150" cy="250" r="100" fill="#f43f5e" opacity="0.03"/>
  <circle cx="150" cy="250" r="70" fill="#f43f5e" opacity="0.04"/>
  <rect x="20" y="22" width="8" height="8" rx="4" fill="#f43f5e"/>
  <text x="36" y="31" font-family="system-ui, sans-serif" font-size="11" font-weight="700" fill="#8b949e" letter-spacing="2">STREAMING PRO</text>
  <text x="20" y="80" font-family="system-ui, sans-serif" font-size="34" font-weight="900" fill="#ffffff">BROADCAST</text>
  <text x="20" y="118" font-family="system-ui, sans-serif" font-size="34" font-weight="900" fill="#f43f5e">STUDIO</text>
  <text x="20" y="148" font-family="system-ui, sans-serif" font-size="14" font-weight="400" fill="#94a3b8">Professional Streaming Bundle</text>
  <g transform="translate(40, 175)" opacity="0.06">
    <rect x="0" y="0" width="180" height="120" rx="8" fill="#f43f5e"/>
    <circle cx="90" cy="60" r="25" fill="#f43f5e"/>
  </g>
  <rect x="20" y="310" width="260" height="1" fill="#2a3652"/>
  <text x="20" y="340" font-family="system-ui, sans-serif" font-size="11" font-weight="700" fill="#64748b" letter-spacing="2">INCLUDES</text>
  <g font-family="system-ui, sans-serif">
    <circle cx="28" cy="366" r="4" fill="#f43f5e"/>
    <text x="42" y="370" font-size="13" font-weight="500" fill="#94a3b8">USB-C Condenser Microphone</text>
    <circle cx="28" cy="396" r="4" fill="#f43f5e"/>
    <text x="42" y="400" font-size="13" font-weight="500" fill="#94a3b8">1080p60 Capture Card</text>
    <circle cx="28" cy="426" r="4" fill="#f43f5e"/>
    <text x="42" y="430" font-size="13" font-weight="500" fill="#94a3b8">Ring Light with Diffuser</text>
    <circle cx="28" cy="456" r="4" fill="#f43f5e"/>
    <text x="42" y="460" font-size="13" font-weight="500" fill="#94a3b8">Green Screen Backdrop</text>
    <circle cx="28" cy="486" r="4" fill="#f43f5e"/>
    <text x="42" y="490" font-size="13" font-weight="500" fill="#94a3b8">Stream Deck Mini</text>
  </g>
  <rect x="20" y="510" width="260" height="1" fill="#2a3652"/>
  <text x="20" y="545" font-family="system-ui, sans-serif" font-size="14" font-weight="500" fill="#64748b">Bundle Price</text>
  <text x="280" y="545" font-family="system-ui, sans-serif" font-size="14" font-weight="500" fill="#64748b" text-anchor="end" text-decoration="line-through">$599</text>
  <text x="20" y="575" font-family="system-ui, sans-serif" font-size="30" font-weight="900" fill="#ffffff">$399</text>
  <rect x="170" y="552" width="110" height="38" rx="19" fill="#f43f5e"/>
  <text x="225" y="577" font-family="system-ui, sans-serif" font-size="13" font-weight="800" fill="#ffffff" text-anchor="middle" letter-spacing="1">GET BUNDLE</text>
  <text x="280" y="594" font-family="system-ui, sans-serif" font-size="9" font-weight="500" fill="#4a5568" text-anchor="end">Sponsored</text>
  <rect y="597" width="300" height="3" fill="url(#accent)"/>
</svg>
