<svg xmlns="http://www.w3.org/2000/svg" width="300" height="600" viewBox="0 0 300 600">
  <defs>
    <linearGradient id="bg" x1="0" y1="0" x2="0" y2="1">
      <stop offset="0%" stop-color="#111827"/>
      <stop offset="50%" stop-color="#0d1117"/>
      <stop offset="100%" stop-color="#111827"/>
    </linearGradient>
    <linearGradient id="accent" x1="0" y1="0" x2="1" y2="0">
      <stop offset="0%" stop-color="#3b82f6"/>
      <stop offset="100%" stop-color="#2563eb"/>
    </linearGradient>
  </defs>
  <rect width="300" height="600" fill="url(#bg)"/>
  <rect width="300" height="3" fill="url(#accent)"/>
  <line x1="0" y1="150" x2="300" y2="170" stroke="#1e2d4a" stroke-width="1" opacity="0.4"/>
  <line x1="0" y1="350" x2="300" y2="330" stroke="#1e2d4a" stroke-width="1" opacity="0.3"/>
  <rect x="20" y="22" width="8" height="8" rx="4" fill="#3b82f6"/>
  <text x="36" y="31" font-family="system-ui, sans-serif" font-size="11" font-weight="700" fill="#8b949e" letter-spacing="2">CLOUD GAMING</text>
  <text x="20" y="82" font-family="system-ui, sans-serif" font-size="36" font-weight="900" fill="#ffffff">PLAY</text>
  <text x="20" y="120" font-family="system-ui, sans-serif" font-size="36" font-weight="900" fill="#3b82f6">ANYWHERE</text>
  <text x="20" y="150" font-family="system-ui, sans-serif" font-size="14" font-weight="400" fill="#94a3b8">Stream AAA games on any device</text>
  <g transform="translate(50, 175)" opacity="0.05">
    <rect x="0" y="0" width="200" height="120" rx="12" fill="#3b82f6"/>
    <polygon points="80,30 80,90 130,60" fill="#3b82f6"/>
  </g>
  <rect x="20" y="320" width="260" height="1" fill="#1e2d4a"/>
  <text x="20" y="350" font-family="system-ui, sans-serif" font-size="11" font-weight="700" fill="#64748b" letter-spacing="2">WHY SWITCH</text>
  <g font-family="system-ui, sans-serif">
    <text x="20" y="380" font-size="22" font-weight="900" fill="#3b82f6">4K</text>
    <text x="60" y="380" font-size="13" font-weight="500" fill="#94a3b8">HDR Streaming</text>
    <rect x="20" y="395" width="260" height="1" fill="#1a2540" opacity="0.5"/>
    <text x="20" y="420" font-size="22" font-weight="900" fill="#3b82f6">0</text>
    <text x="35" y="420" font-size="13" font-weight="500" fill="#94a3b8">Downloads required</text>
    <rect x="20" y="435" width="260" height="1" fill="#1a2540" opacity="0.5"/>
    <text x="20" y="460" font-size="22" font-weight="900" fill="#3b82f6">500+</text>
    <text x="82" y="460" font-size="13" font-weight="500" fill="#94a3b8">Games available</text>
    <rect x="20" y="475" width="260" height="1" fill="#1a2540" opacity="0.5"/>
    <text x="20" y="500" font-size="22" font-weight="900" fill="#3b82f6">$9</text>
    <text x="50" y="500" font-size="13" font-weight="500" fill="#94a3b8">/month · Cancel anytime</text>
  </g>
  <rect x="20" y="530" width="260" height="44" rx="22" fill="#3b82f6"/>
  <text x="150" y="558" font-family="system-ui, sans-serif" font-size="15" font-weight="800" fill="#ffffff" text-anchor="middle" letter-spacing="1">START FREE TRIAL</text>
  <text x="280" y="594" font-family="system-ui, sans-serif" font-size="9" font-weight="500" fill="#4a5568" text-anchor="end">Sponsored</text>
  <rect y="597" width="300" height="3" fill="url(#accent)"/>
</svg>
