<svg xmlns="http://www.w3.org/2000/svg" width="300" height="400" viewBox="0 0 300 400">
  <defs>
    <linearGradient id="bg" x1="0" y1="0" x2="0.3" y2="1">
      <stop offset="0%" stop-color="#0c1222"/>
      <stop offset="100%" stop-color="#0a1628"/>
    </linearGradient>
    <linearGradient id="accent" x1="0" y1="0" x2="1" y2="0">
      <stop offset="0%" stop-color="#f59e0b"/>
      <stop offset="100%" stop-color="#d97706"/>
    </linearGradient>
  </defs>
  <rect width="300" height="400" fill="url(#bg)"/>
  <rect width="300" height="3" fill="url(#accent)"/>
  <line x1="0" y1="150" x2="300" y2="130" stroke="#1c2a42" stroke-width="1"/>
  <line x1="0" y1="250" x2="300" y2="270" stroke="#1c2a42" stroke-width="1"/>
  <rect x="20" y="20" width="70" height="26" rx="4" fill="#d97706"/>
  <text x="55" y="38" font-family="system-ui, sans-serif" font-size="12" font-weight="800" fill="#ffffff" text-anchor="middle" letter-spacing="1">EDITOR'S</text>
  <text x="20" y="82" font-family="system-ui, sans-serif" font-size="30" font-weight="900" fill="#ffffff">MOUSEPAD</text>
  <text x="20" y="116" font-family="system-ui, sans-serif" font-size="30" font-weight="900" fill="#f59e0b">XL PRO</text>
  <text x="20" y="148" font-family="system-ui, sans-serif" font-size="13" font-weight="400" fill="#8b949e">900x400mm · 4mm Thickness</text>
  <g transform="translate(20, 170)" opacity="0.06">
    <rect x="0" y="0" width="260" height="100" rx="6" fill="#f59e0b"/>
  </g>
  <rect x="20" y="280" width="82" height="26" rx="13" fill="#1c2a42"/>
  <text x="61" y="298" font-family="system-ui, sans-serif" font-size="11" font-weight="700" fill="#f59e0b" text-anchor="middle">Cordura</text>
  <rect x="110" y="280" width="80" height="26" rx="13" fill="#1c2a42"/>
  <text x="150" y="298" font-family="system-ui, sans-serif" font-size="11" font-weight="700" fill="#f59e0b" text-anchor="middle">Speed</text>
  <rect x="198" y="280" width="82" height="26" rx="13" fill="#1c2a42"/>
  <text x="239" y="298" font-family="system-ui, sans-serif" font-size="11" font-weight="700" fill="#f59e0b" text-anchor="middle">Stitched</text>
  <text x="150" y="340" font-family="system-ui, sans-serif" font-size="14" font-weight="600" fill="#f59e0b" text-anchor="middle">&#9733;&#9733;&#9733;&#9733;&#9733; 4.9/5</text>
  <text x="20" y="380" font-family="system-ui, sans-serif" font-size="24" font-weight="900" fill="#ffffff">$39</text>
  <rect x="170" y="360" width="110" height="38" rx="19" fill="#f59e0b"/>
  <text x="225" y="385" font-family="system-ui, sans-serif" font-size="13" font-weight="800" fill="#0c1222" text-anchor="middle" letter-spacing="1">BUY NOW</text>
  <text x="280" y="394" font-family="system-ui, sans-serif" font-size="9" font-weight="500" fill="#4a5568" text-anchor="end">Sponsored</text>
  <rect y="397" width="300" height="3" fill="url(#accent)"/>
</svg>
