<svg xmlns="http://www.w3.org/2000/svg" width="336" height="280" viewBox="0 0 336 280">
  <defs>
    <linearGradient id="bg" x1="0" y1="0" x2="0" y2="1">
      <stop offset="0%" stop-color="#0f172a"/>
      <stop offset="100%" stop-color="#1e293b"/>
    </linearGradient>
    <linearGradient id="accent" x1="0" y1="0" x2="1" y2="0">
      <stop offset="0%" stop-color="#10b981"/>
      <stop offset="100%" stop-color="#059669"/>
    </linearGradient>
  </defs>
  <rect width="336" height="280" fill="url(#bg)"/>
  <rect width="336" height="2" fill="url(#accent)"/>
  <circle cx="280" cy="60" r="60" fill="#10b981" opacity="0.04"/>
  <text x="24" y="42" font-family="system-ui, sans-serif" font-size="12" font-weight="700" fill="#10b981" letter-spacing="2">FREE SHIPPING</text>
  <text x="24" y="80" font-family="system-ui, sans-serif" font-size="28" font-weight="900" fill="#ffffff">GAMING</text>
  <text x="24" y="112" font-family="system-ui, sans-serif" font-size="28" font-weight="900" fill="#10b981">ESSENTIALS</text>
  <text x="24" y="140" font-family="system-ui, sans-serif" font-size="13" font-weight="400" fill="#94a3b8">Mice · Keyboards · Mousepads</text>
  <g transform="translate(40, 155)" opacity="0.05">
    <ellipse cx="130" cy="30" rx="110" ry="35" fill="#10b981"/>
  </g>
  <rect x="24" y="200" width="72" height="24" rx="12" fill="#1e3a38"/>
  <text x="60" y="216" font-family="system-ui, sans-serif" font-size="11" font-weight="700" fill="#10b981" text-anchor="middle">Mice</text>
  <rect x="104" y="200" width="90" height="24" rx="12" fill="#1e3a38"/>
  <text x="149" y="216" font-family="system-ui, sans-serif" font-size="11" font-weight="700" fill="#10b981" text-anchor="middle">Keyboards</text>
  <rect x="202" y="200" width="90" height="24" rx="12" fill="#1e3a38"/>
  <text x="247" y="216" font-family="system-ui, sans-serif" font-size="11" font-weight="700" fill="#10b981" text-anchor="middle">Pads</text>
  <rect x="24" y="236" width="288" height="36" rx="18" fill="#10b981"/>
  <text x="168" y="260" font-family="system-ui, sans-serif" font-size="14" font-weight="800" fill="#0f172a" text-anchor="middle" letter-spacing="1">BROWSE COLLECTION</text>
  <text x="312" y="16" font-family="system-ui, sans-serif" font-size="9" font-weight="500" fill="#4a5568" text-anchor="end">Sponsored</text>
  <rect y="278" width="336" height="2" fill="url(#accent)"/>
</svg>
