<svg xmlns="http://www.w3.org/2000/svg" viewBox="0 0 970 250" width="970" height="250">
  <rect width="970" height="250" fill="#f7faff" stroke="#cfd8f7" stroke-width="1"/>
  <text x="950" y="18" font-family="Inter, Arial, Helvetica, sans-serif" font-size="9" fill="#64748b" text-anchor="end">Ad</text>

  <rect x="16" y="16" width="130" height="38" rx="9" fill="#eff6ff"/>
  <text x="81" y="39" font-family="Inter, Arial, Helvetica, sans-serif" font-size="18" fill="#1e40af" text-anchor="middle" font-weight="700">SummitTrail</text>

  <text x="176" y="34" font-family="Inter, Arial, Helvetica, sans-serif" font-size="24" fill="#0f172a" font-weight="800">Compact weekend kits, ship in 24h</text>
  <text x="176" y="68" font-family="Inter, Arial, Helvetica, sans-serif" font-size="28" fill="#0f172a" font-weight="800">Outdoor essentials for real hikers</text>

  <line x1="176" y1="86" x2="530" y2="86" stroke="#93c5fd" stroke-width="3"/>
  <text x="176" y="108" font-family="Inter, Arial, Helvetica, sans-serif" font-size="16" fill="#334155">High-lumen headlamps + hydration packs from approved guides</text>
  <rect x="176" y="126" width="190" height="36" rx="8" fill="#1d4ed8"/>
  <text x="271" y="150" font-family="Inter, Arial, Helvetica, sans-serif" font-size="14" fill="#ffffff" text-anchor="middle" font-weight="700">Shop weekend bundles</text>

  <g transform="translate(620,40)">
    <rect x="0" y="0" width="320" height="180" rx="10" fill="#0b1020" opacity="0.08"/>
    <circle cx="160" cy="90" r="34" fill="#dbeafe" opacity="0.45"/>
    <path d="M146 74 L146 106 L182 90 Z" fill="#1e40af"/>
    <rect x="52" y="126" width="216" height="12" rx="6" fill="#1e3a8a"/>
    <rect x="77" y="146" width="165" height="10" rx="5" fill="#60a5fa"/>
  </g>

  <text x="176" y="204" font-family="Inter, Arial, Helvetica, sans-serif" font-size="12" fill="#475569">Save 18% with your first-order code</text>
  <text x="176" y="222" font-family="Inter, Arial, Helvetica, sans-serif" font-size="10" fill="#64748b">Terms apply. Availability varies by shipping region.</text>
</svg>
