<svg xmlns="http://www.w3.org/2000/svg" width="970" height="250" viewBox="0 0 970 250">
  <defs>
    <linearGradient id="bg" x1="0" y1="0" x2="1" y2="0.5">
      <stop offset="0%" stop-color="#1a0a2e"/>
      <stop offset="100%" stop-color="#16213e"/>
    </linearGradient>
    <linearGradient id="accent" x1="0" y1="0" x2="1" y2="0">
      <stop offset="0%" stop-color="#f97316"/>
      <stop offset="100%" stop-color="#ef4444"/>
    </linearGradient>
  </defs>
  <rect width="970" height="250" fill="url(#bg)"/>
  <rect width="970" height="3" fill="url(#accent)"/>
  <polygon points="650,0 970,0 970,250 750,250" fill="#1e0f3d" opacity="0.6"/>
  <polygon points="720,0 970,0 970,250 820,250" fill="#220f45" opacity="0.4"/>
  <text x="50" y="70" font-family="system-ui, sans-serif" font-size="14" font-weight="700" fill="#f97316" letter-spacing="3">LIMITED TIME OFFER</text>
  <text x="50" y="120" font-family="system-ui, sans-serif" font-size="48" font-weight="900" fill="#ffffff" letter-spacing="1">BLACK FRIDAY</text>
  <text x="50" y="165" font-family="system-ui, sans-serif" font-size="20" font-weight="500" fill="#c4b5fd">Up to 40% off gaming peripherals</text>
  <rect x="50" y="185" width="160" height="44" rx="22" fill="#f97316"/>
  <text x="130" y="213" font-family="system-ui, sans-serif" font-size="15" font-weight="800" fill="#ffffff" text-anchor="middle" letter-spacing="1">SHOP DEALS</text>
  <text x="700" y="100" font-family="system-ui, sans-serif" font-size="72" font-weight="900" fill="#ffffff" text-anchor="middle" opacity="0.15">40%</text>
  <text x="700" y="145" font-family="system-ui, sans-serif" font-size="28" font-weight="700" fill="#ffffff" text-anchor="middle" opacity="0.15">OFF</text>
  <g fill="#f97316" opacity="0.2">
    <circle cx="860" cy="50" r="3"/><circle cx="880" cy="50" r="3"/><circle cx="900" cy="50" r="3"/><circle cx="920" cy="50" r="3"/>
    <circle cx="860" cy="70" r="3"/><circle cx="880" cy="70" r="3"/><circle cx="900" cy="70" r="3"/><circle cx="920" cy="70" r="3"/>
    <circle cx="860" cy="90" r="3"/><circle cx="880" cy="90" r="3"/><circle cx="900" cy="90" r="3"/><circle cx="920" cy="90" r="3"/>
  </g>
  <text x="940" y="18" font-family="system-ui, sans-serif" font-size="9" font-weight="500" fill="#4a5568" text-anchor="end">Sponsored</text>
  <rect y="247" width="970" height="3" fill="url(#accent)"/>
</svg>
