<?xml version="1.0" encoding="UTF-8"?><svg id="Layer_1" xmlns="http://www.w3.org/2000/svg" width="746.94" height="265.18" viewBox="0 0 746.94 265.18"><path d="M744.88,194.46c.73-1.99,1.58-.52.65-3.9-1.3-4.75-7.9-11.08-11.38-14.98-20.99-23.46-47.39-48.86-71.62-68.96-7.82-6.48-19.81-16.52-28.29-21.49-10.74-8.01-21.65-16.11-32.98-23.32C547.55,27.64,482.38,3.21,418.17,1.16c-22.56-.72-43.58.95-65.88,4.74-7.58,1.29-15.25,2.91-22.63,5.03-23.76,3.71-49.14,13.35-71.59,21.48-8.13,2.94-16.89,5.09-24.72,8.8-4.58,2.17-9.6,5.92-14.33,8.12-6.15,2.86-12.91,5.06-19.52,6.51-2.86-.73-5.89-.33-8.76-.68-.96-.11-1.66-1.17-2.61-1.23-.82-.05-10.44,3.4-13.22,3.73-1.44.18-2.47-.53-3.67-.48-1.64.07-9.59,6.06-12.96,7.29-1.25.45-2.15-.14-3.06.12-1.45.41-7.05,8.42-10.03,10.16-1.83,1.06-4.2.36-5.62,2.87-.93,1.65.16,2.34-.6,4.25-1.17,2.94-2.36,2.27-3.81,3.36-.3.22-.01,1.14-.09,1.19-1.04.68-11.59,1.78-13.7,2.24-9.18,2.01-25.52,11.03-34.69,15.42-19.01,9.1-39.35,18.94-57.69,29.2-1.21.68-2.19,1.35-3.25,1.95-.78.45-1.63.68-2.6,1.3-.69.44-1.07-.13-1.95,1.3-.41.67-1.42,3.74-1.3,3.9-2.5,1.55-17.69,6.48-18.58,7.78-.88,1.29.48,7.17,1.35,8.47,1.07,1.58,3.81,1.9,5.51,2.63.82.35,1.34.42,1.95.65-1.23,3.63-5,.74-4.41,6,.97,8.58,10,26.72,13.52,35.65,3.58,9.08,6.91,18.28,10.96,27.17.32,1.82-1.43,4.41-2.5,6.02-1.48,2.24-6.48,5.75-3.74,8.95.64.75,2.22.59,3.09.81,1.29.33,1.9.46,3.25.65,5.93.82,18.54,1.55,24.08,0l3.21,5.57c5.96,3.06,12.49,5.19,18.92,7.12,4.04,1.21,13.16,4.17,16.92,4.23.21,0,.44.02.65,0,4.19,1.11,8.7.63,13.02.65,5.2.03,10.42,0,15.62,0,6.71,0,13.46.02,20.18,0,90.37-.28,180.29-1.3,270.74-1.3.67,1.08,2.47.65,3.57.66,31.99.34,64.02-.05,96.01-.01,22.55.03,45.14,0,67.69,0,22.07,0,44.7,0,67.04,0,6.61,0,13.25.09,19.86.01,1.1-.01,2.89.42,3.57-.66,7.63-.22,13.93-.81,21.48-1.95,5.42-.82,11.06-1.52,16.27-3.25,1.36-.45,1.89-.41,3.25-1.3,2.44.31,3.37-2.01,4.43-3.71,5.25-8.42,9.41-18.59,13.8-27.53,3.01-6.14,5.64-12.02,8.46-18.22.08-.18-.08-.47,0-.65,1.81-4.01,4.12-6.98,5.86-11.71Z" style="fill:none; stroke:#000; stroke-miterlimit:10; stroke-width:2px;"/></svg>