<?xml version="1.0" encoding="UTF-8"?><svg id="Layer_1" xmlns="http://www.w3.org/2000/svg" width="366.85" height="747.67" viewBox="0 0 366.85 747.67"><path d="M1,1v745.67h364.85V1H1ZM351.89,628.09c-.99,2.78-1.93,5.34-3.06,8.09-.02.07-.05.13-.07.17-.19.46-.37.96-.57,1.43-1.57,3.68-2.92,6.7-4.85,10.26-.97,1.8-1.69,4.82-3.99,5.42-.27,2.59-1.23,4.77-2.56,6.99-10.81,18.09-28.29,35.71-45.33,48.02-1.82,1.31-3.56,2.47-5.42,3.71-.74.49-1.52.95-2.28,1.43-10.04,6.35-19.44,10.96-30.5,15.39-35.62,14.28-71.92,18.44-110.17,14.54-4.81-.49-9.7-1.2-14.4-2.28-41.1-6-78.08-24.19-102.85-58.06-3.98-5.44-6.7-11.11-9.98-16.81-1.47-2.55-2.5-5.31-3.47-8.08-3.21-6.82-5.14-14.71-6.47-22.17-4.25-23.86-3.22-48.51-1.51-72.6,1.85-25.97,5.11-51.84,8.26-77.68.42-3.49.68-7.04,1.14-10.55.01-3.22.87-6.37,1.14-9.55.68-8.23.33-16.85.28-25.07-.03-4.9-.95-13.92.09-18.17.46-1.9,1.86-4.36,2.12-6.14.13-.89.26-4.48.07-5.2-.23-.86-2.61-2.91-2.57-4.28-.58-.85-.84-.99-1.18-2.1-1.82-5.94-2.96-14.61-4.15-20.93-2.11-11.24-4.2-22.58-5.21-33.98-.31-3.49-.63-7.28.16-10.82l10.67-13.56c-.44-7.02-1.57-14.06-2.27-21.09-.18-1.79-.11-3.81-.29-5.56-3.75-37.93-7.59-75.76-9.11-113.89-.17-4.19-1.56-15.15.03-18.48.57-1.2,2.56-3.38,3.52-4.46,3.42-3.84,7.86-7.93,11.7-11.39.74-.66,1.8-1.62,2.7-2,4.61-4.17,7.88-6.01,13.68-8.27,12.73-4.95,26.47-8.75,39.48-13.11,21.15-7.07,43.14-15.56,64.56-21.38,1.33-.47,5.51-2.33,6.66-2.21,2.22.23,2.66,4.08,2.76,5.76.53,8.86-.29,17.92-.02,26.82.02.54-.03,1.08.3,1.55.97-.52,5.51-1.89,5.85-2.56.25-1.2.08-6.39.98-7.01.55-.38,1.29.19,1.86.16,3.14-.15,6.66-.77,9.26-.86,1.05-.03,2.52-.29,3.28-.29h5.13c1.54,0,3.48-.31,5.27-.29l8.04-.65c3.87-1.15,7.72-2.3,11.62-3.34,1.05-.28,2.07-.59,3.14-.86,1.44-1.17,7.68-1.38,8.21-3.06.16-.52,0-1.04.06-1.5.14-5.83-.19-11.71-.01-17.54.12-4.06.72-8.19.88-12.24.05-1.16-.44-2.25-.17-3.29.21-.81,1.23-2.06,2.08-2.23,2-.4,8.57,3.46,10.62,4.51,1.13.51,2.12,1.18,3.42,1.71.92.38,2.28.43,2.85,1.43.38.19.76.38,1.14.57,3.05,1.12,6.16,2.43,8.84,4.28.71.32,1.5.82,2.28,1.14.88.37,2.33.51,2.85,1.43,3.16,1.47,6.35,2.91,9.41,4.56.19.09.38.19.57.29,1.1.52,2.2,1.06,3.29,1.6l35.47,17.21c1.85.52,3.21,1.51,4.95,2.32,5.81,2.71,12.39,5.35,17.86,8.51,1.47.85,1.54.73,2.85,2,.33.32.84.82,1.14,1.14.96.27,1.77,1.28,2.43,1.99,2.5,2.68,5.13,5.88,7.54,8.71.5.58,1.21,1.4,1.43,2.13,1.24,1.12,2.94,3.39,3.71,4.85,2.38,2.25,4.27,5.18,5.99,7.98.77.91.69.92,1.14,2,.62-.23,1.02,1.34,1.07,1.63,1,5.11-.08,15.14-.23,20.73-.96,35.28-3.84,70.57-6.26,105.76-.89,12.96-2.43,26.03-2,39.07.43,13.34,1.76,27.3,2.86,40.61,3.21,38.75,7.74,77.28,14.61,115.51,3.26,18.13,7.44,36.1,9.05,54.52,2.67,30.58-1.2,58.94-11.4,87.65Z" style="fill:none; stroke:#000; stroke-miterlimit:10; stroke-width:2px;"/></svg>