<svg xmlns="http://www.w3.org/2000/svg" viewBox="0 0 117.13 78.53">
  <defs>
    <linearGradient id="eg-grad" x1="250.41" y1="693.15" x2="-69.58" y2="694.99" gradientTransform="translate(56.1 -126.75) scale(.24)" gradientUnits="userSpaceOnUse">
      <stop offset="0" stop-color="#3fa3db"/>
      <stop offset="1" stop-color="#3258a6"/>
    </linearGradient>
  </defs>
  <path d="M114.53,21.66l-16.41,5.19c-9.45-12.17-29.46-14.15-37.76.4-5.7,9.98-5.11,24.42,5.04,31.21,10.41,6.97,25.69,4.8,31.41-6.98l-15.09-2.04,2.12-3.51c1.69-3.6,1.42-7.34.52-11.1l32.78,4.58c-.46,19.96-14.67,37.74-35.29,39.02-28.95,1.79-48.84-22.21-41.26-50.36C46.9,4.62,70.56-4.28,92.72,2.87c9.55,3.08,17.55,9.68,21.81,18.79Z" fill="url(#eg-grad)"/>
  <path d="M50.33,1.54c.33,1.02.39,2.17.18,3.47.22,1.3.16,2.46-.18,3.48-2.84,2.24-5.27,4.9-7.43,7.8-6.28-.73-13.11.96-18.08,4.9-4.15,3.3-5.95,7.45-7.08,12.57l19.16-3.71c-.85,4.97-1.34,10.03-.73,15.07l-16.27,3.37c2.19,7.36,9.47,12.7,17.12,13.18,1.09.07,4.67-.35,5.16-.13.39.18,3.24,4.15,3.95,4.91,1.19,1.28,3.3,3.28,4.67,4.31.71.45.58,5.06.31,5.35-.08.08-.19.12-.31.16-24.02,6.42-46.15-5.45-50.23-30.61C-4.24,15.97,21.74-6.15,50.33,1.54Z" fill="#3258a6"/>
  <path d="M53.45,2.5l.5.4c.09.14.03,3.01-.27,3.2-1.05.68-2.37,1.62-3.35,2.4-.37-2.18-.42-4.78,0-6.95,1.22.33,1.89.5,3.11.96Z" fill="#345ba9"/>
  <path d="M50.81,70.76c1.06.8,2.73,1.76,3.91,2.44.35.2,1.8.71,1.84.8.08.19.09.46-.16.6-.98.55-4.31,1.33-5.59,1.67v-5.51Z" fill="#345ba9"/>
  <path d="M53.45,2.5c1.21.46,2.4.92,3.59,1.44.12.56-.08.38-.31.53-.88.57-2.09,1-3.04,1.62-.54-1-.11-2.45-.24-3.59Z" fill="#335fab"/>
</svg>
