<?xml version="1.0" encoding="UTF-8"?><svg id="Layer_1" xmlns="http://www.w3.org/2000/svg" width="765.28" height="264.99" viewBox="0 0 765.28 264.99"><path d="M763.31,204.63c-.57-1.99-1.94-3.56-3.01-5.26-.56-.89-.64-1.46-1.5-2.63-1.6-3.54-3.72-7.36-6.01-10.52-1.93-4.26-4.69-8.07-7.14-12.02-.86-1.39-1.79-2.81-2.63-4.13-1.37-2.15-2.71-4.28-4.13-6.39-2.13-3.16-4.86-8.37-7.51-10.9-2.52-3.82-5.25-7.66-8.12-11.23-1.37-1.71-2.68-3.41-4.28-4.92-.53-1.34-1.81-2.87-3.01-3.76-.74-1.29-1.24-1.44-1.88-2.25-1.39-1.78-2.67-3.18-4.13-4.88-2.98-3.47-5.56-6.71-9.02-9.77,0-.74-.51-1.04-.93-1.51-5.11-5.56-10.81-10.68-16.35-15.77-2.69-2.47-5.13-5.52-8.27-7.51-6.07-5.79-12.85-11.28-19.57-16.3-5.21-3.89-10.68-7.95-16.12-11.5-.67-.44-1.57-.69-2.25-1.13-.63-.4-1.26-.74-1.88-1.13-.87-.55-1.78-.98-2.63-1.5l-.05-.05s.04.04.05.05c-.01-.03.02-.13-.37-.37-.09-.06-.28.06-.38,0l-.04-.04c-.11-.13-.32-.47-.71-.71-5.66-3.4-9.38-5.39-15.4-7.89-1.26-.52-2.49-1-3.76-1.5-1.56-.62-4.97-2.86-6.39-3.01v-.38c-1.13-1.01,1.3-.93.38-1.5-.66-.41-1.54-.78-2.25-1.13-.53-.26-1.24-.45-1.88-.75-1.38-.65-2.73-1.26-4.13-1.88-2.26-.99-4.43-2.14-6.76-3.01-5.32-2.69-10.98-4.63-16.53-6.76l-.22-.11c-.15-.08-.32-.19-.53-.27-.11-.04-.27.04-.38,0l-.1-.05c-.14-.08-.37-.22-.66-.33-.11-.04-.27.04-.38,0-1.63-.61-3.23-1.28-4.88-1.88-1.14-.41-2.26-.73-3.38-1.13-1-.35-1.98-.78-3.01-1.13-.56-.19-1.17-.51-1.88-.75-.14,0-.25,0-.35.02.03-.05.15-.06.35-.02-41.66-13.97-87.32-21.73-131.32-23.28-5.16-.18-9.25-.44-14.45-.02-2.4.19-4.75.5-7.14.75-2.16-.36-3.63-.66-5.84-.75-.72-.03-1.51.38-1.3-.75h-14.65c-.26.86-.97.73-1.67.77-9.33.54-18.57.44-27.8,1.5-8.19.94-16.47,1.63-24.35,3.07-7.93,1.45-15.9,2.71-23.73,4.45-29.86,6.65-59.26,18.76-87.75,30.61-.54.23-1.03-.15-1.5-.2-3.44-.4-7.02-1.94-10.43-2.53-6.18-1.09-12.8-1.31-19.07-1.23-.64,0-1.67-.24-2.06.38-6.82.3-12.05,1.71-18.41,3.76-10.72,3.45-18.36,7.85-26.67,15.4-9.39,8.53-12.26,14.47-18.78,24.8-.38.6-.75.96-.85,1.78-.46.58-7.93,2.71-9.22,2.99-5.4,1.19-8.72.42-13.72,3.56-11.96,7.52-23,16.81-34.07,25.47-7.28,5.7-16.04,11.45-22.54,18.03-3.24,2.21-5.99,5.03-9.02,7.51-1.81,1.48-4,2.97-5.82,4.51-1.89,1.59-12.01,9.75-12.58,10.9-2.07,1.03-3.51,3.06-5.26,4.51-1.43,1.19-5.6,3.88-6.39,5.26-.05.09.05.26,0,.38-.71,1.66-1.2,4.2-1.5,6.01.07-.28.21-.46.4-.57-.12.19-.25.39-.4.57-.06.36-.36.73-.39,1.31-.11,2.28.59,2.07,2.26,2.38.11.04.24.07.38.08,5.08,1.1,10.59,1.49,15.78,1.88.61.19,1.24.33,1.88.38l-.38.75c-.3.2-1.28,1.4-1.88,1.88-.36.28-.52.55-.75.75-.32.28-.51.52-.75.75.02-.02.06-.02.1-.03-.03,0-.06.02-.1.03-.04.02-.07.04-.1.06-.25.12-.89.33-1.42.87-.6.61-2.83,3.3-2.99,3.96h-.38c-3.35-.4-7.36,2-9.39,4.51-.87,1.08-1.76,2.35-1.88,3.76-.75,1.73,0,1.93,0,2.63-.1,7.09.45,9.66,3.38,16.15,1.6,3.53,2.71,5.14,4.88,8.27,1.03,1.47,1.79,3.41,3.38,4.51,2.07,3.41,4.65,5.67,7.51,8.27.64.58,1.05,1.2,1.88,1.88,1.68,1.36,3.07,2.25,4.88,3.38,1.01.63,1.93,1.33,3.01,1.88.41.21.81.23,1.13.38l.25.12c.35.19.66.4,1.26.63,2.59.98,4.51,1.28,7.14,1.88l.1.03c.2.08.55.25,1.03.34.12.02.25-.02.38,0l.17.04c.32.09.67.26,1.33.33.12.01.25,0,.38,0,.19.48.71.37,1.13.38.12,0,.25.01.38,0,3.42.71,8.22,2.32,11.65,2.25.73.67,1.76.29,2.63.38l5.54,1.42c.78.15,1.57.1,2.35.09,2.43.59,5.02,1.29,7.51,1.5.12.01.25,0,.38,0,1.33.08,2.79.03,4.13,0,1.65-.04,3.82-.29,5.64-.38,3.02-.15,7.4,0,10.14-.38,1.24.05,2.52-.08,3.76,0,.25.02.5-.02.75,0,.89.07,1.99.28,3.01.38,9.43.89,19.2,1.4,28.64-.1,2.2-.35,4.64-.87,6.68-1.78.37,0,.75-.02,1.13,0,1,.06,2.69.25,3.38-.38.25,0,.5,0,.75,0,1.87,0,3.76,0,5.64,0,.13,0,.25,0,.38,0,.25,0,.5,0,.75,0,2,0,4.01,0,6.01,0,9.39,0,18.79-.04,28.18,0,7.16.03,14.32.26,21.41.38.13,0,.25,0,.38,0l5.45,1.13h5.64c1.73,0,3.97.25,5.82.38,1.87.13,3.77.23,5.64.38.25.02.5-.01.75,0,.58.62,1.86.4,2.79.38.07,0,.14,0,.22,0,8.35.85,17.11,2.17,25.55,3.38.41.06,1.15.27,1.88.38.24.03.51-.03.75,0,.14.08.29.09.45.07,1.36.23,2.84.61,4.43.68.26.57,1.01.36,1.5.38.12,0,.25,0,.38,0,.12,0,.25,0,.38,0,.13.48.74.39,1.13.38,2.05-.07,3.35.59,5.26.75.12.01.25,0,.38,0,.69.62,2.39.44,3.38.38,2.61,1.18,5.81.77,8.43,1.15.71.1,1.33.6,2.09.73,4,.7,6.68,1.4,10.9,1.5.39.62,1.43.37,2.06.38,5.57.07,11.16,0,16.72,0,.39.62,1.43.38,2.06.38,21.21.22,42.33-.48,63.51-.37,4.81.03,8.32.46,12.95.74v.38h60.49v-.38c2.59-.16,6.7-.52,9.02-1.5.86-.36.76-.52,1.13-.75,4.31-.05,8.67-.13,12.98-.36,28.63-1.51,57.18-3.42,85.83-4.9,4.36-.23,8.87-.57,13.15-.75.37-.02.75.02,1.13,0,1.81-.09,4.06.38,5.64-.38,2.42,0,5.06-.38,7.33-.38h6.76c2.85,0,6.57-.72,9.58-.75l25.55-1.13c.13,0,.25,0,.38,0,.25,0,.5,0,.75,0,1.27.75,3.31.3,4.88.38,15.23.76,32.98-.47,48.27-1.88,8.22-.76,20.03-1.75,27.62-4.51,2.78-1.01,1.64-.88,3.4-2.05.74-.5,4-1.54,5.24-2.08,1.6-.7,2.49-.91,4.13-1.88.74-.43,1-.77,1.5-1.13,3.14-2.19,3.93-3.09,6.39-6.01.79-.94,2.38-1.9,2.63-3.38,3.08-3.51,6.01-7.25,9.02-10.9,1.01-.46,1.55-1.56,2.25-2.25.13-.12.25-.26.38-.38,2.34-2.18,5-4.04,7.51-6.01.34-.27.61-.58.83-.83l.3-.3c.08-.06.3.06.38,0,.14-.11.25-.28.38-.38.36-.27.77-.48,1.13-.75.36-.28.53-.56.75-.75.1-.08.6-.02.93-.38.95-1.01.06-1.78-.56-2.63Z" style="fill:none; stroke:#010101; stroke-miterlimit:10; stroke-width:2px;"/></svg>