<?xml version="1.0" encoding="UTF-8"?><svg id="Layer_1" xmlns="http://www.w3.org/2000/svg" width="465.24" height="766.65" viewBox="0 0 465.24 766.65"><path d="M463.91,561.01c-.14,1.85-.8,4.1-1.33,5.88-.22,7.35-.54,12.44-1.31,19.66-.2,1.87.18,4.2.01,5.87-.18,1.79-1.26,4.29-1.3,5.76-.03,1.23.95,1.9.84,3.39-.09,1.25-1.07,2.38-1.27,3.58-.94,5.49-1.41,9.73-2.62,15.3-.59,2.73-.04,6.26-.49,8.69-.23,1.21-1.64,2.23-1.98,3.7-.74,3.22-.31,6.07-1.63,9.73-2.86,7.94-7.12,16.98-10.49,24.46-2.98,6.61-5.84,13.33-9.83,19.44-.39.6-.64,1.18-1.39,1.45-1.83,3-5.24,7.91-7.43,10.71-.61.78-2.08,2.57-3.06,2.84-6.85,10.4-14.92,18.38-23.4,27.5-5.12,2.63-10.16,6.91-14.83,10.51-.61.47-1.18.82-1.97.87-3.07,2.33-7.77,3.77-10.65,5.74-2.52,1.73-5.09,3.76-7.83,5.27-5.49,3.02-13.74,4.25-19.53,6.03-1.03.31-3.62,1.96-4.83,2.38-.9.31-1.67.32-2.6.24-7.33,2.77-12.38,3.85-20.32,4.37-1.67.11-3.36-.06-5.02,0-5.27,2.17-29.13,1.12-35.39,0-2.67-.27-5.96.37-8.54.02-2.68-.36-2.63-.78-6.09-.87-5.32-.13-9.53-2.74-14.55-3.4-6.18-.81-11.3-1.21-17.14-4.05-1.95.35-3.03-1.18-4.37-2.18-.82.02-1.53-.7-2.18-.87-4.54-1.18-8.17-2.96-12.23-5.24-7.4-4.16-14.34-7.55-20.93-12.95-2.9-2.37-5.69-4.99-7.91-8.02-2.57-.77-6.99-4.78-9.18-6.77-5.85-5.33-10.35-11.05-15.5-16.83-4.52-5.07-8.51-8.26-12.56-14.09-.4-.57-.63-1.39-.77-2.08-.86-1.11-3.86-4.99-4.39-5.88-1.13-1.93-1.45-4.55-3.03-6.46-2.31-2.78-4.81-5.49-6.92-8.49-.83-1.18-2.96-4.45-2.26-5.82-3.55-3.56-7.05-8.16-10.05-12.23-1.84-2.5-3.05-5.01-4.61-7.41-.88-1.36-2.86-2.58-3.88-3.98-1.25-1.72-1.58-3.54-2.43-5.21-.16-.31-.21-.85-.44-1.31-1.79-.48-3.25-3.75-4-5.39-1.16-2.53-1.47-4.9-2.34-7.28-.5-1.37-1.68-2.61-1.96-3.93-.91-1.06-1.97-2.26-2.62-3.5-.34-.65-.33-1.08-.44-1.31-.87-.38-1.2-1.3-1.31-2.18-.43-.58-.54-.81-.87-1.31-.63-.95-.73-.98-1.31-2.18-.3-.62-.54-.86-.87-1.75-1.07-.5-1.2-1.76-1.75-2.62-.07-.1.07-.34,0-.44-2.03-3.03-7.31-9.51-8.3-12.67-.64-.32-.99-.92-1.32-1.52-6.45-11.61-13.58-23.3-20.52-34.75-2.52-4.16-5.29-8.44-7.86-12.67-4.36-7.16-8.77-14.03-13.11-21.19-.77-1.27-1.58-2.8-2.18-4.16-1.13-1.31-5.64-8.55-6.12-10.05-3.84-5.66-6.92-11.52-10.33-17.42-2.78-4.8-5.51-9.06-8.03-14.04-.82-.67-1.77-1.84-2.28-2.75-1.56-2.82-2.52-6.06-3.4-9.05-1.7-5.77-2.93-11.91-1.75-17.91-1.65-7.24.44-17.52.87-25.13.52-9.2-.4-18.71.49-27.91.22-2.26,1.08-5.03,1.26-7.48.76-10.51-.33-27.05,5.68-36.04,1.14-4.38.6-8.88.88-13.32.15-2.5.71-5.34.89-7.85.31-4.3-.28-10.47,1.64-14.52,2.44-5.16,9.36-9.9,13.18-14.34,2.95-3.43,4.91-7.72,7.43-10.93.79-1.01,4.2-3,4.6-3.7.4-.7.03-1.82.28-2.12.13-.16,1.04-.1,1.48-.47,1.43-1.22,2.77-4.33,3.26-6.15-.77-7.67,1.37-15.83.87-23.37-.22-3.39-1.35-5.4-.32-9.07.36-1.27,4.03-9.09,4.91-9.06.49.02.41,1.83,1.53,1.3-.34-.92.31-1.61.44-2.19.7-3.08.67-6.64,1.31-10.05,2.18-11.62,3.58-23.54,5.71-35.14.88-4.8,2.54-9.6,3.04-14.48.13-1.21-1.04-2.7.42-3.25.39-5.87,2.14-9.77,3.72-15.29,5.9-20.57,12.83-41.11,22.03-60.46.18-.47.74-.19.9-.28.29-1.65,1.52-2.5,2.62-3.5,2.64-2.38,2.94-1.87,6.55-1.31.39-.57.45-1.46,1.31-1.75.62-1.6,1.21-3.28,2.18-4.81-.07-1.22.79-2.19,1.53-3.05.34.22.47.53.66.87.46.85.51,1.68.44,2.62.03,0,.26.43.42.44.29-.61.25-1.7.45-2.19.5-1.19,1.76-1.9,1.78-2.04.09-.54-.5-1.37-.47-1.89.11-1.6,2.13-2.69,3.06-3.5.81-.7.97-.76,1.75-1.31,6.85-4.85,13.66-9.29,20.54-13.98,3.56-2.43,7.22-5.85,11.36-6.99,2.7-3.55,6.63-4.17,10.12-6.6,1.36-.94,2.73-1.87,4.11-2.79l-.25-.21c.17,0,.34.02.51.04,10.88-7.24,22.34-13.71,34.45-19.27,5.91-2.71,11.35-4.96,17.48-6.99,2.6-.86,4.63-2.27,7.43-2.62,5.27-1.44,10.67-2.91,16.07-3.81,2.76-.46,6.99-1.12,9.71-.99.1,0,.35-.3.64-.25,1.29.2,1.85,1.25,1.98,2.44.4,3.82.05,9.13,0,13.11.29,0,.58,0,.87,0l.31-.35c.56-.25,1.44.05,1.88-.08.31-3.61-.42-7.84,0-11.36-.08-1.11-.07-2.04.44-3.06.88-1.77,3.48-1.59,5.24-1.75.46-.16.55-.35,1.31-.44,3.74-.43,9.19-.35,13.11-.44,10.47-.23,20.99.17,31.46,0,22.38-.17,45.03.56,67.29.87.58,0,1.17,0,1.75,0,1.56.02,4.6-1.47,6.12.44.29-.02.58.01.87,0,.76-1.16,2.01-.13,2.62,0,1.48.31,5.14.63,6.11,1.09,1.53.73,1.06,2.72,1.33,3.84.06.24,1.7,1.03,1.3,2.27l.87-.65c.06-.9.4-1.73.44-2.62.7-.25.98.31,1.31.44,1.18.47,1.39,1.17,1.75,2.62,1.3-.23,2.5.24,3.72.34,1.46.12.73-.83,2.4.53,2.34,1.9,5.21,6,6.55,8.74.64,1.3,1.14,2.38,1.79,3.67.48.96,1.24,3.98,1.27,5.07,1.28,3.24,2.12,6.7,3.06,10.05,1.14,4.07,2.42,8.16,3.5,12.23.66,2.48.9,5.04,1.75,7.86.53,1.75,1.58,3.59,1.31,5.68.46.37.58.64.76,1.18.72,2.09,1.62,6.37,2.19,8.76,1.4,5.92,2.43,12.27,3.6,18.02,1.04,5.09,2.09,10.18,3.06,15.29.27,1.44.61,2.92.87,4.37.32,1.76.32,2.5.87,4.37.66,2.24.56,2.64.87,4.81,1.23,8.43,2.59,16.89,3.93,25.34.03.21.67,1.32.87,2.62.55,3.56,1.55,7.86,1.75,11.36.07,1.27.14,3.15,0,4.37,1.1.79-.16,2.42.44,3.5,1.02.33,1.18,4.9,1.31,6.34.27,3.2.34,6.67,0,9.83-.19.9.41,1.86.44,2.62,0,.14,0,.29,0,.44-.1,4.92.28,8.47.44,13.32.24,7.08,1.49,13.75,1.76,20.52.31,7.81.06,15.69.27,23.52.05,1.27.1,2.54.14,3.8.57,16.36.21,32.63.87,48.94.79,19.24,1.04,40.54,4.37,59.42.32,1.79.57,3.63.92,5.42.79,4.12.44,6.63.83,10.75.52.61.81,1.85.87,2.62.19,2.17-.48,3.94-.45,5.88.03,2.36.56,7.67.92,10.04.22,1.47,1.49,2.39,1.7,3.54.46,2.49.06,6.37.46,9.37.24,1.84,1.21,4.51,1.31,6.12.03.43,0,.88,0,1.31.95,3.4,1.25,6.55,1.31,10.05.86,1.2,1.05,2.58,1.31,3.93.37,1.92.34,2.87.44,4.81,1.83,1.77.67,4.71.89,6.73.21,1.86.48,3.77.79,5.71.11.34.2.69.17,1.03.83,5.06,1.86,10.28,2.45,15.2,2.45,20.15,5.14,41.28,4.01,61.59-.03.58-.45,1-.46,1.05-.3,5.29-.72,7.72.44,13.11,1.41,6.6,1.44,19.44.89,26.45Z" style="fill:none; stroke:#000; stroke-miterlimit:10; stroke-width:2px;"/></svg>