<?xml version="1.0" encoding="UTF-8"?><svg id="Layer_1" xmlns="http://www.w3.org/2000/svg" width="689.02" height="253.08" viewBox="0 0 689.02 253.08"><path d="M674.34,183.84c-25.4-35.56-62.08-69.2-97.24-94.98-3.36-2.46-8.51-6.57-12.06-8.29-3.98-3.95-9.18-6.56-13.79-9.65-25.15-16.86-46.9-28.84-74.92-40.45-.48-.2-1.06-.6-1.84-.92-1.68-.69-3.4-1.19-5.06-1.84-1-.39-2.03-.93-3.22-1.38-.51-.19-.97-.31-1.38-.46-.76-.28-1.5-.63-2.3-.92-.98-.36-1.9-.61-2.76-.92-.47-.17-.93-.3-1.38-.46-.23-.08-.53-.32-.92-.46-.09-.05-.18-.08-.27-.09-.84-.29-1.66-.54-2.48-.83-3.18-1.1-6.39-2.18-9.65-3.22-.99-.32-1.61-.69-2.3-.92-1.43-.48-2.65-.96-4.14-1.38-.96-.27-2.39-.22-3.22-.46-.61-.18-1.49-.78-2.41-1.04-15.36-4.37-30.98-7.59-46.77-9.99-2.49-1.28-5.43-.67-8.04-.93-5.12-.49-10.27-1.4-15.4-1.83-.1-.01-.2-.02-.31-.03-1.5-.14-3.12-.35-4.75-.43-.31-.01-.61,0-.92,0-2.05-.85-5.02-.45-7.35-.46-.46,0-.92,0-1.38,0-.48-.76-1.74-.46-2.52-.47-3.98-.05-7.98-.04-11.96,0-.78,0-2.04-.29-2.52.47-.61.01-1.23-.02-1.84,0-.33,0-.67.03-1.02.05-1.98,0-4.24-.47-5.87.41-.15,0-.31,0-.46,0-1.74,0-4.15-.39-5.52.46-.76,0-1.54-.03-2.3,0-1.61.07-3.23.3-4.72.43-.12,0-.23.02-.34.03-2.98.22-12.58.56-14.49,1.84-.57.38-.75.96-1.13,1.38-3.77-1.53-8.81.16-12.87.92-.28.05-.64-.06-.92,0-38.38,7.57-75.57,21.88-110.93,38.21-1.63.75-3.47,1.61-4.89,2.69-.68-.12-1.57.09-2.3,0-20.15-2.46-38.97,5.47-52.86,19.76-4.95,5.09-9.77,10.74-12.41,17.47-1.19.75-2.23,1.66-3.22,2.3-15.35,9.9-28.96,19.59-43.66,30.33-4.76,3.48-9.44,7.19-14.25,10.57-3.08,2.17-6.02,3.96-9.19,5.97-7.11,4.51-10.71,8.41-16.07,14.95-1.57,1.91-7.91,9.61-8.49,11.27-.35,1.01-.64,2.36.21,3.2,1.02,1.01,2.68.12,3.19.51.18.14-.04.67.03.87-1.14.33-.8,1.25-.92,2.06-.49,3.21-.82,6.33,0,9.43,1.19,4.46,6.01,10.95,8.35,15.32,2.6,4.84,5.17,9.71,7.73,14.56,4.58,8.64,8.01,18.59,14.25,26.2,9.81,11.96,24.32,13.63,38.89,15.57,8.13,1.08,18.26,2.4,26.37,2.35l16.3,1.4c15.83.2,31.58-.27,47.37-.47.78,0,2.04.29,2.52-.47,1.68,0,3.37,0,5.06,0,3.72,0,7.92.39,11.49-.46,46.22-.03,92.58-.71,138.8-.92.48.76,1.74.46,2.52.47,43.02.45,85.93.43,128.93.91,54.19.6,107.53,2,161.55-3.68,21.24-2.23,68.58-6.38,73.77-32.63,1.99-10.04-7.65-22.87-13.41-30.94Z" style="fill:none; stroke:#000; stroke-miterlimit:10; stroke-width:2px;"/></svg>