<?xml version="1.0" encoding="UTF-8"?><svg id="Layer_1" xmlns="http://www.w3.org/2000/svg" width="378.15" height="689.02" viewBox="0 0 378.15 689.02"><path d="M377.1,462.91c.47-44.49-8.03-88.94-12.4-133.09-5.86-59.25-6.65-119.03-7.36-178.49-.28-23.43,1.39-45.84-5.49-68.62-1.22-4.04-2.31-8-5.51-11.01-2.65-13.51-9.65-20.41-19.73-28.91-4.54-3.83-8.42-6.39-13.31-9.64-5.29-3.52-9.03-5.77-14.68-8.72-4.07-2.12-7.08-3.75-11.47-5.51-7.91-3.16-15.18-5.2-23.4-7.34-12.15-3.17-24.54-5.99-37-7.74-2.05-.29-15.05-1.96-15.76-1.42-.14.1.06.66,0,.9-.68,2.24.36,2.57-1.84,2.75l-20.86-1.85-29.16.02h-.46c.07-1.61.44-3.25-1.59-3.23-15.12.14-31.22,3.3-46.3,4.68-1.15-.01-2.55.69-3.51.85-6.94,1.17-12.49,2.41-19.27,4.13-4.7,1.19-8.65,2.18-13.31,3.67-5.18,1.66-10.12,3.44-15.14,5.51-.36.15-.64.34-.92.46-1.45.61-2.73,1.19-4.13,1.84-13.8,6.34-34.85,18.18-38.09,34.42-1.11,1.15-1.64,2.36-2.29,3.67-5.16,10.38-6.29,24.49-7.34,36.03-3.21,35.32.7,67.59,4.13,102.56.53,5.37,1.26,10.74,1.84,16.06.04.41.03.96,0,1.38-7.03,1.37-6.62,5.95-5.51,11.93l5.51,69.75c-.03,2.16-.37,5.02,2.29,5.51.28.35.4.79.92.92-.02.07.4.68.25,1.37-3.63,17.44-2.72,29.99-2.99,47.52-.12,8.06-1.59,16.23-.47,24.3.48,3.46,2.16,6.39,1.83,9.87-2.28,10.66-2.33,25.22-3.68,36.48-1.36,11.41-3.09,22.8-4.58,34.19-3.02,23.05-6.23,42.58-5.05,66.08.13,2.67.23,5.12.46,7.8.09,1.01-.4,2.57.46,3.21-.08,3.38.78,6.37,1.38,9.64.35,1.92.14,3.4.92,5.51-.32,1.36.69,2.65.92,3.67.6,2.73,1.07,4.63,1.84,7.34.96,3.41,2.14,6.47,3.21,9.64.2.58.05,1.61.46,2.75.95,2.68,2.16,5.26,3.21,7.8.15.36.35.65.46.92,4.19,10.01,8.13,17.59,14.23,26.62.83,1.23,1.76,1.72,1.84,1.84.29.41.63.95.92,1.38.18.27.31.94.92,1.84,1.03,1.52,1.81,2.39,2.75,3.67,1.44,1.95,2.55,3.58,4.13,5.51,1.8,2.2,3.58,4.34,5.51,6.42.65.71,1.24,1.22,1.84,1.84,1.83,1.91,3.58,3.69,5.51,5.51.79.74,1.51,1.08,1.84,1.38.43.39.82.88,1.38,1.38.99.88,1.86,1.52,2.75,2.29.4.34.77.87,1.38,1.38,1.54,1.29,3.01,2.44,4.59,3.67,1.43,1.11,2.61,2.16,4.13,3.21,1.14.79,1.73,1.55,3.21,2.29.57,1.28,1.57,1.49,2.75,1.84,2.2,1.94,4.89,3.69,7.38,5.24,1.32.82,2.93,1.41,4.09,2.1.37.22.76.56,1.38.92,61.53,35.79,140.42,33.6,199.16-6.88,19.01-13.1,30.26-25.95,43.14-44.97.63-.94,1.21-1.8,1.84-2.75,1.48-2.27,3.18-4.58,4.59-6.88.84-1.37,1.5-2.78,2.29-4.13.62-1.05,1.23-2.15,1.84-3.21,5.55-9.7,13.32-23.13,16.54-33.71.3-1,.58-1.94.44-3,.48-.75.98-1.5,1.38-2.29.53-1.06.55-1.31.92-2.29,1.96-5.22,3.82-10.75,5.51-16.06,3.79-11.93,5.96-22.04,7.8-34.42,1.16-7.85,2.41-16.26,3.21-24.32.16-1.6.33-3.33.46-5.05.18-2.42.38-4.92.46-7.34.76-.48.46-1.74.47-2.52Z" style="fill:none; stroke:#000; stroke-miterlimit:10; stroke-width:2px;"/></svg>