<?xml version="1.0" encoding="UTF-8"?><svg id="Layer_1" xmlns="http://www.w3.org/2000/svg" width="695.39" height="225.52" viewBox="0 0 695.39 225.52"><path d="M689.75,177.18c-20.35-43.51-60.26-80.25-98.96-107.46-.58-.41-1.22-.55-1.55-.77-5.12-3.55-9.99-7.38-15.46-10.82-1.29-.81-2.58-1.53-3.87-2.32-8.64-5.3-17.32-10-26.29-14.69-1.06-.55-2.04-1.02-3.09-1.55-29.79-15.04-58.99-25.58-92-31.7-15.51-2.88-32.17-5.35-47.93-5.41-1.82-1.5-5.26-.64-7.73-.77-20.22-1.06-40.46-.96-60.68.78-2.23.19-10.06.77-11.22,1.54-1.21.8-1.62,2.65-2.32,3.87-.89-1.05-.67-2.16-1.55-3.09-.28-.29-.04-.71-1.05-.72-33.77,4.63-67.13,12.13-99.09,23.9-14.33,5.28-24.17,11.47-37.48,17.8l-5.99-2.12c-3,.77-6.7-1.22-9.23-1.6-1.12-.17-1.73,1.47-2.81,1.3-.69-.11-1.21-1.43-2.45-1.47-.5-.02-.29,1.56-.85,1.63-.91.12-2.08-.78-3.06-.75-1.28.04-2.34,1.25-3.05,1.2-.59-.04-1.18-1.24-2.31-1.31-.48-.03-.28,1.51-.88,1.62-5.52,1.01-9.94,1.27-15.74,3.82-2.13.94-1.85,1.9-3.87,2.32-.2-.08-.12-1.2-1.54-.77-.67,5-1.61,1.82-3.4,2.36-.88.27-.94,1.75-1.44,2.07-.76.47-2.2.04-2.92.56-.84.61-.49,2.3-.87,2.62-.48.4-1.89-.17-2.76.31-3.3,1.8-8.08,8.69-10.68,11.34-.82.84-2.37.88-2.67,1.61-.14.34-.03,1.73,0,2.32-4.76.88-2.33,1.64-3.04,4.15-.24.84-2.07.32-2.38,1.26-.56,1.75,1.44,3.7-2.32,3.1,2.04,5.17-1.13,3.52-1.94,5.36-.35.79.57,1.96.45,2.62-.16.86-3.41.87-1.6,4.39-26.09,21.27-59.95,37.85-86.52,59.21-3.23,1.58-2.45,3.65-3.16,5.73-.05.15-1.59.48-1.44,1.78.1.84,2.34,4.75,2.99,5.95,2.11,3.94,3.48,4.33,5.41,6.96,2.71,3.67,21.65,30.15,21.65,32.08v11.21h11.98c.79,0,10.05,8.02,13.88,7l97.51.02,2.22-1.67,162.02.06v2.32h54c6.33.21,12.55.27,18.52,0h9.43v-.77c40.3-4.98,83.24.56,124.14-1.61l2.22,1.67,139.84-.08c1.15-3.02,4.23-.4,6.32-2.32l20.4-28.3c2.74-4.36-1.66-11.25-3.77-15.75Z" style="fill:none; stroke:#000; stroke-miterlimit:10; stroke-width:2px;"/></svg>