<?xml version="1.0" encoding="UTF-8"?><svg id="Layer_1" xmlns="http://www.w3.org/2000/svg" width="365.88" height="695.58" viewBox="0 0 365.88 695.58"><path d="M364.81,525.2c.48-38.87-8.38-77.72-12.22-116.35.19-7.13-1-14.25-1.38-21.34-1.34-24.89-1.34-49.97-1.33-74.99,1.12-.7.68-2.57.69-3.72.07-7.12,0-14.27-.01-21.38,0-.23,0-.45,0-.68,1.12-.7.68-2.57.69-3.72.29-27.11,2.17-54.01,2.7-81.08,1.26-2.79.67-6.95.68-10.18,0-1.58,0-3.17,0-4.75,1.25-4.09.67-9.22.68-13.57,0-.9,0-1.81,0-2.71,1.25-3.85.67-8.78.68-12.89,0-1.36,0-2.71,0-4.07,1.25-3.85.67-8.78.68-12.89,0-1.81,0-3.62,0-5.43,1.25-3.85.67-8.78.68-12.89,0-3.38.08-6.8,0-10.18,1.12-.71.68-2.58.69-3.72.09-8.41,1.17-23.52-2.05-30.88-.33-.75-1.38-2.23-2.36-2.03l-1.71,3.73c-2.91-2.76-1.75-5.77-2.03-9.17-.51-6.2-2.23-5.19-5.8-8.79-3.18-3.21-4.92-4.68-8.45-7.5-1.68-1.34-3.03-2.2-4.75-3.39-2.3-1.59-3.28-2.52-6.11-4.07-.63-.34-1.07-.93-2.04-1.36-7.98-6.12-17.78-11.17-26.89-15.51-26.06-12.39-53.8-21.19-82.05-27.21-1.96-.81-1.78,7.02-1.64,7.44-5.83-.84.68-4.53-6.11-6.78-6.36-2.11-15.53-1.93-22.39-2.04-.9-.01-1.81,0-2.71,0-3,0-6.94-.58-9.5.68-1.75-.05-13.06,1.39-13.85,1.96-1.21.85,1.19,7.34-3.79,5.12-.23-1.78.72-4.43-.67-5.73-1-.94-3.56-.08-4.89.2C110.08,11.51,56.65,30.75,26.94,56.41c-1.33,1.15-9.45,9.05-9.82,9.86-1.61,3.55,1.86,12-3.74,13.55-.4-.44,1.08-5.97-1.98-4.02-.55.35-2.63,9.06-2.76,10.48-.39,4.28-.02,9.49-.01,13.9,0,4.34-.57,9.48.68,13.57,0,4.06,0,8.15,0,12.21,0,3.45-.58,7.82.68,10.85,0,2.71,0,5.43,0,8.14,0,3.45-.58,7.82.68,10.85,0,2.03,0,4.07,0,6.11,0,3.88-.58,8.6.68,12.21,0,1.58,0,3.17,0,4.75,0,3.45-.58,7.82.68,10.85,0,2.03,0,4.07,0,6.11,0,3.45-.58,7.82.68,10.85.04,3.45.68,7.66.68,10.52v11.19c0,.19-2.86-.16-3.72.01-3.27.66-5.28,8.82-5.78,11.87,1.3,19.39,1.28,38.96,2.71,58.33.26,3.48.44,8.77,1.35,11.88.24.82,2.54,5.82,2.82,5.99.93.59,4.96-.25,5.32.11.77.77-.11,19.11-.68,21.71-5.6,2.73-5.24,7.4-5.43,12.89-.09,2.7-.5,6.62.68,8.82,0,.68,0,1.36,0,2.04.02,3.68-.58,8.26.68,11.53,0,.23,0,.45,0,.68,0,5.04-.57,10.8.68,15.6,0,.45,0,.9,0,1.36,0,6.66-.09,13.35-.01,20.02.01,1.15-.43,3.02.69,3.72-.08,2.07-.57,3.75-.68,5.43-1.8,29.09-9.26,57.69-10.18,86.83-1.14,4.13-1.14,10.12,0,14.25,0,1.13,0,2.26,0,3.39.01,2.13-.56,5.22.68,6.78.14,4.24.82,6.38,1.36,10.18,2.87,20.27,8.09,39.64,16.28,58.34,2.39,5.45,4.54,9.74,7.46,14.92,1.74,3.1,3.51,5.85,5.43,8.82,2.8,4.33,4.91,7.43,8.14,11.53,4.92,6.25,9.13,10.84,14.92,16.28,6.44,6.05,11.72,10.05,19,14.92,1.38.92,2.64,1.83,4.07,2.71,7.9,4.91,16,9.77,25.1,12.21,7.71,4.68,29.91,9.49,39.35,10.85,6.18.9,13.4,1.24,19.67,1.36,1.79,1.28,6.27.64,8.82.68,7.89.13,15.85.03,23.74,0,2.79,0,6.56.57,8.82-.68.68,0,1.36.02,2.04,0,.68-.02,1.36.04,2.04,0,1.57-.09,2.79-.56,4.07-.68.89-.08,1.83.1,2.71,0,11.11-1.22,21.91-3.61,32.56-6.78,3.5-1.04,6.75-2.15,10.18-3.39,4.16-1.5,8.17-2.94,12.21-4.75,3.98-1.78,7.05-3.28,10.85-5.43,4.77-2.69,9.08-5.7,13.57-8.82,8.48-5.89,15.69-11.22,22.74-18.98.76-.84,1.7-1.38,1.68-2.72,6.28-5.12,12.21-14.68,16.28-21.71,4.33-7.48,8.73-15.84,12.21-23.74,8.18-18.58,15.4-47.56,16.28-67.84,1.12-.71.68-2.57.69-3.72Z" style="fill:none; stroke:#000; stroke-miterlimit:10; stroke-width:2px;"/></svg>