<?xml version="1.0" encoding="UTF-8"?><svg id="Layer_1" xmlns="http://www.w3.org/2000/svg" width="442.7" height="696.12" viewBox="0 0 442.7 696.12"><path d="M441.6,331.3c-.13-.96-1.04-.69-1.06-.98-.11-1.44,1.94-1.95-.47-3.7.21-.72.07-1.41.5-2.48.08-.21.92-.36.97-.81.22-2.43-.45-7.99-.9-10.44-.17-.92.42-1.93-1.06-1.64.24-1.61.69-2.86.99-4.46.16-.86.46-1.14.5-2.48.1-3.16-.37-6.94-1.98-9.68l1.48-.24c.02-1.48-.02-2.98,0-4.46.01-.99.02-1.99,0-2.98-.02-1.35.25-3.58.03-4.69-.11-.56-1.29-.09-1.47-.29-.25-.27.09-1.49-.05-2.12-.05-.21-1.75-.74-.98-1.82.19-.27,1.29,1.26,1.48.99.02-1.48-.01-2.98,0-4.46.01-1.3.09-2.68,0-3.97-.07-1.02-.38-4.67-.99-4.96-.13-.06-.72-.01-.99,0-.2-1.71,1.39-2.01,1.54-3.71.1-1.13-.62-3.12-1.04-4.22-.32-1.63.45-5.16,0-6.45-.21-.6-2.29.13-1.47-3.13.09-.38.84-.3.94-.66.72-2.53-.39-5.25-.95-7.12-.26-.88.28-4.1,0-4.46l-1.48.49c-.56-.69.92-6.44.85-7.8-.04-.75-.77-1.22-.83-1.9-.15-1.54.26-3.64.01-4.92-.11-.57-1.29-.09-1.47-.29-.27-.29.12-1.52-.04-2.13-.09-.37-1.88-.37-1-1.31.2-.22,1.34.67,1.48.49-.26-3.18-.09-7.11-.45-10.2-.16-1.38-3.91-3.39-2.51-6.17l1.49,1.23c-.29-2.52-1.02-5.01-1.46-7.47-.19-1.08.2-2.43-.03-3.33-.09-.34-2.03-1.29-2.38-2.72-.29-1.2.27-2.19.14-2.85-1.13-5.69-6.6-10.65-10.17-14.88-9.74-11.55-19.65-23.22-27.28-36.46-3.68-6.39-7.41-13.57-8.73-20.25-.46-2.36-2.52-3.94-2.67-4.43-.39-1.25-.13-3.84-.62-5.22-.37-1.04-3.75-4.71-3.26-5.74.04-.08.79-.03.89-.41.72-2.84-.9-3.16-.98-3.49-.17-.66.15-1.85-.01-2.14-.08-.15-1.55.86-2.44-1.79-.3-.91.83-.56.95-1.02.93-3.46-1.55-4.24-2.45-6.01-1.6-3.15-2.05-7.28-4-11.03-1.53-2.94-2.7-4.87-5.14-7.27-1.92-1.89-4.99-4.77-7.76-4.15-.11,3.81.37,7.68-.49,11.41-.32.04-.67-.02-.99,0-.56-2.89-.91-6.32-1.53-9.14-.17-.76-.74-1.3-.91-2.07-.32-1.49-.16-3.92-.66-5.3-1.07-2.97-20.21-12.97-23.63-16.17-11.07-6.15-22.68-13.4-34.19-19.38-.76-.39-2.32-.37-2.59-.54-12.3-7.83-28.17-14.45-42.29-19.38-.42-.15-.89-1.72-2.85-.96l.5,29.77v3.47c-.25,1.12-1.05,2.17-.99,3.47-.16.03-.33-.02-.5,0-5.51.67-11.27-1.12-17.11-1.21-3.39-.05-7.11.08-10.44.16-.9.02-.65.95-1.06,1.04-6.39,1.44-13.39,1.99-20.14,3.69-3.49.88-14.5,5.12-17.13,4.43-.73-.19-1.45-.76-2.08-1.17.14-.54.12-3.07-.01-3.63-.09-.4-.9-.13-1.02-1.05-.35-2.69-.39-8.04-.48-10.92-.28-9,.26-18.07.02-27.07-.33-.03-.66.02-.99,0-3.41-.2-8.7.92-12.13,1.51-10.44,1.8-20.54,4.27-30.93,6.77-9.34,2.25-18.88,4.37-27.88,7.59-4.14.28-12.58,4.15-16.93,5.64-17.18,5.93-34.52,12.44-50.42,21.02-1.16.62-2.65.19-3.11,1.82-.37,2.11-1.29,4.44-1.68,6.5-2.59,13.74-4.68,28-7.19,42.18-4.61,25.98-8.38,50.15-12.91,75.88-1.39,7.88-.07,17.46-2.54,25.24l-.46,13.67c-1.72-.02-.77,6.31-.97,7.71-1.85,13.24-1.31,27.1-2.96,40.19-.12.96-1.02.5-1.09,1.44-.24,3.46,1.11,8.48.59,12.45-.12.92-.93.65-1.02,1.05-.17.74-.16,3.57-.05,4.41.12.95.99.66,1.05,1.03.15.93-.54,1.75-.53,2.37,0,.32.92.04,1.05.99.26,1.95.33,12.18,0,13.9-.12.6-1.44-.05-1.56.54-.27,1.35.35,3.46.03,4.85-.1.43-1.08.16-1.04,1.07.05,1.32,1.3,2.08,1.1,4.01-.11,1.08-1.24.57-1.05.96,1.91,3.9.04,3.85.22,5.44.09.79.98,2.09,1.09,3.57.3,4.1-.78,12.06.18,15.72.13.51.9.12,1.01.57.25,1.13-.91.54-1.03,1.04-.21.91,1.71,5.12,2.5,5.83.39.35.82-.01,1.25.29,2.02,1.43,1.28,6.08,2.01,7.95.2.52,1.99,2.95,2.21,1.75.06-.24-.08-.54,0-.74.47-.06,1.07.09,1.49,0,.14-.03.27-.08.41-.12,1.44-.26,1.42,2.09,1.03,2.56-.15.18-3.51,1.14-4.41,1.54-.79-.09-3.58.05-3.9.57-.18.28-.21,5.87-.11,6.66.12.92.92.65,1.02,1.05.48,2.02.13,9.06.47,11.85.12.95.94.47,1.07,1.42.28,2.12.13,4.13.43,6.5.51,4.05.7,10.59,1.53,14.28.03.11.7,1.24.98,1.83.3.61,1.58,2.68,1.99,3.22.83,1.11,3.95,3.72,4.34,4.81.1.28-.45,1.4-.44,2.16,0,.22.83,1.87,1.01,3.99.08,1.01,1.87.51.54,2.19-.98.02-2-.08-2.98,0-1.65.13-1.81.11-1.94,2.3-.16,2.69,1.2,3.31,1.37,4.49.12.79-1.11,1.31-.91,1.63.02.04.64-.08.81.16,1.06,1.48.31,4.67.71,6.52.28,1.31,1.06,3.94,1.46,5.4.14.51.93.29.97.35.76,1.05-.99.95-.99,1.23,0,.74.73,1.01.88,1.61.34,1.37,1.48,5.05,1.53,5.97.06,1.2-1.15,1.6-.41,2.58-.51.12-1.21,1.11-1.98,1,1.45,1.72-.64,2.76.53,5.58.24.58,1.13.22.96.61-.54,1.27-3.1,2.15-1.98,5.21l1.48-1.48c.71,2.03-1.11,2.15-1.37,2.58-1.05,1.73,1.53,4.03,1.38,4.61-.12.46-1.36.53-1.5,1.1-.25.99.17,2.52.02,3.62l1.24-.99c1.1.94-.93,1.23-1.14,1.58-1.03,1.74,1.54,4.04,1.39,4.61-.13.51-2.31.31-1.48,3.88.03.14,1,.73,1.48,2.33.38,1.27.23,2.87.65,3.82.22.5,2.13,1.44,2.32,1.63.08.08-.15.78.06.95.29.23.88-.36,1.18-.38.14,0,.12.64,2.23.92,1.14.15,1.77-.55,2.23.99,2.91-2.85,5.23.16,7.69.99,1.15,1.98,1.9,6.37,1.99,8.69.05,1.37-1.2.55-1.99.74-.66-.3-1.07-1.16-1.98-.99-.75,1.69-.16,1.77.49,2.97,0,2.31,0,4.64,0,6.94,0,2.22-.04,4.44-.09,6.66-.02.76-.7,1.4.58,1.77-.42,8.84,2.04,18.55,3.97,26.79,2.06,8.83,4.17,15.76,7.44,24.31,3.08,8.05,6.23,15.04,10.35,22.25.85,1.5,1.14,3.18,2.55,3.54-1.07,1.24-.14,1.15.07,1.55,2.83,5.45,7.46,12.04,11.34,16.8.24.29.32.74.99,1.49.59.66.82.9,1.49,1.49.17.15.32.35.5.5.4,1.87,2.34,2.84,3.47,4.22,4.89,5.96,9.65,10.82,15.38,16.12,5.76,5.34,12.78,11.69,19.35,15.87,1.26,1.62,3.28,2.4,4.71,3.47,38.52,28.77,82.01,50.48,130.75,37.99,39.91-10.23,74.98-45.3,99.67-77.17.52-.67.44-1.41.5-1.49.62-.8,1.32-1.61,1.98-2.48,8.5-11.17,16.8-22.49,24.31-34.72.69-1.12,1.29-2.33,1.98-3.47.48-.79.7-1.51.99-1.98,1.79-2.96,3.78-6.05,5.46-8.93.55-.94.56-1.09.99-1.98.27-.57.46-1.42.5-1.49,4.3-7.29,9.83-15.55,13.35-23.7.85-1.97,1.58-4.44,2.02-6.56,4.05-4.13,12.78-27.48,14.88-34.72.21-.1.78.24.98-.35.25-.76.09-1.95.43-2.96,4.91-14.92,10.29-28.45,12.48-44.31.13-.09.82.16.95-.02.26-.35-.13-1.87.04-2.62.74-3.12,1.68-7.32,2.47-11.25.94-4.65,2.12-9.32,2.98-13.89.46-2.43.61-4.54.99-6.94.52-3.22,1.58-7.07,1.96-10.19.13-1.06-.18-4.88.02-5.18.03-.04.86.2,1-.32.63-2.35.41-9.26.49-12.08.96.13,1.2.02.99-.99-.45-2.31.4-4.96.5-6.94.13-2.84-.4-6.58-.03-9.2.26-1.85,2.07-2.72.03-4.69.08-.44-.04-1.01,0-1.49,1.04-.84.2-2.56.57-3.65.26-.76,1.36-.81,1.72-1.53.24-.5.4-9.96.19-10.7-.14-.5-1.46-.44-.99-3.23.29-1.71,1.62-.45,1.91-1.53.27-.97.26-6.26.11-7.43Z" style="fill:none; stroke:#000; stroke-miterlimit:10; stroke-width:2px;"/></svg>