<?xml version="1.0" encoding="UTF-8"?><svg id="Layer_1" xmlns="http://www.w3.org/2000/svg" width="681" height="224.69" viewBox="0 0 681 224.69"><path d="M648.65,120.54C602,55.87,499.18.73,418.62,2.76c-1.62-2.58-5.91-1.56-8.54-1.58-34.68-.36-66.53.26-100.92,4.95-12.9,1.76-25.99,4.58-38.39,7.52-17.55,4.16-36.43,9.47-53.3,15.96-17.25,6.63-47.71,25.98-63.01,28.81-10.16,1.88-16.7.11-28.42,3.48-21.06,6.05-28.77,18.26-42.02,34.24-10.25,3.16-64.62,34.35-74.28,41.66-4.43,3.36-10.63,7.7-8.2,14.37.73,1.99,4.06,1.17,4.55,1.67.98.99-1.53,6.02-1.42,8.39.06,1.38,1.44,2.03,1.54,2.39,2.54,9.52,12.21,33.58,17.12,42.02,2.61,4.49,3.86,8.02,9.31,10.14,7.64,2.97,30.71,4.91,39.72,5.41,63.39,3.49,132.75-.14,196.85.02,8.8.02,17.66-.01,26.46,0,65.86.11,131.79.02,197.64,0,17.87,0,35.82.25,53.71.03,2.63-.03,6.92,1,8.54-1.58,10.35,0,20.77.05,31.12,0,5.38-.03,13.02,1.31,17.12-1.56,14.89-.05,52,.55,63.72-7.08,2.68-1.74,5.99-5.03,6.31-8.48.13.09,1.37.08,1.56,0,1.27-.56,4.02-7.32,4.29-8.93,3.22-18.84-19.75-58.39-31.04-74.04Z" style="fill:none; stroke:#000; stroke-miterlimit:10; stroke-width:2px;"/></svg>