<?xml version="1.0" encoding="UTF-8"?><svg id="Layer_1" xmlns="http://www.w3.org/2000/svg" width="365.13" height="681.07" viewBox="0 0 365.13 681.07"><path d="M355.9,393.4c-5.43-92.39,2.8-185.33,4.63-277.55.44-22.19-2.18-33.91-11.95-53.58-15.41-31.02-62.63-46.06-94.59-53.72-9.92-2.38-27.83-7.73-37.42-7.54-5.06.1-1.3,8.05-8.21,6.02-7.25-2.15-15.35-1.53-22.82-1.52-4.4,0-22.31,1.95-23.45,1.65-1.68-.46-.57-5.45-3.28-6.06-.66-.15-11,1.31-13.39,1.57-28.42,2.99-65.09,13.36-90.2,26.93-16.85,9.11-33.72,20.36-35.49,41.33-13.51,14.45-7.73,38.38-7.54,55.46.21,18.78-.32,37.59-.09,56.37.03,2.57-.98,6.76,1.55,8.34-.05,14.18.06,28.42,0,42.59-3.43,1.47-4.19,3.18-4.64,6.77-.95,7.55-.78,68.16.85,72.31.38.96,2.13,1.25,2.26,1.53.42.91,1.45,2.32,1.52,3.04.4,4.07-2.72,8.44-3.05,12.92-1.55,20.64,1.08,43.09.07,63.96-1.08,22.53-5.36,44.95-6.15,67.63-1.58,5.26-2.85,13.49-3.11,18.95-1.75,37.79,1.81,64.26,18.32,98.18,10.59,21.76,18.13,31.63,34.99,48.68,9.09,9.2,12.25,12.19,22.82,19.77,3.84,2.76,6.13,4.92,10.65,7.61,2.25,1.34,4.12,1.99,6.08,3.04,52.32,28.11,118.44,29.42,171.89,3.04,3.74-1.85,7.13-3.91,10.65-6.08,5.62-3.46,8.27-4.16,13.69-9.13,5.73-1.63,9.85-6.49,13.69-10.65,6.16-2.42,12.35-10.68,16.69-16.01,62.87-77.03,40.23-137.29,35.03-225.85Z" style="fill:none; stroke:#000; stroke-miterlimit:10; stroke-width:2px;"/></svg>