<?xml version="1.0" encoding="UTF-8"?><svg id="Layer_1" xmlns="http://www.w3.org/2000/svg" width="775.25" height="260.64" viewBox="0 0 775.25 260.64"><path d="M773.02,224.66c-5.95-18.76-20.77-33.68-33.04-48.59-47.93-51.17-102.28-106.69-161.31-122.45-36.31-23.76-83.89-43.13-120.5-44.7-.64-.05-1.31.08-1.94,0-6.31-3.52-16.16-2.07-23.32-1.94-5.08.09-10.56-.49-15.55,0v-1.94c-.65-.04-1.3.05-1.94,0V1.15c-.68.09-1.43-.17-1.94,0-2.05.68-1.88-1.07-3.89,1.94-.61.14-1.35-.18-1.94,0l-87.46,5.83c-35.51,8.91-68.18,16.99-101.07,33.04-8.13,2.28-18.97,3.75-25.27,9.72-21.19-7.88-43.49-4.26-64.14,5.83-10.24,9.74-24.46,20.85-31.1,33.04-1.1,8.62-10.97,9.31-17.49,13.61-21.22,11.61-38.67,26.5-58.31,40.81-8.38,6.11-11.37,9.76-17.49,17.49-3.1,3.92.11,1.32,0,1.94-.06.35-3.87,1.4,0,1.94,1.07.47,21.62.49,23.32,0,.16.36,0,1.29,0,1.94,0,.6.16,1.45,0,1.94-.09.26-2.7,2.22-3.89,3.89-.5.7-1.34,1.3-1.94,1.94-1.24,1.32-2.6,2.5-3.89,3.89-.48.52-2.89.79-3.89,1.94-3.65,4.22-10.84,7.71-13.6,13.6-2.86,15.87,9.28,25.69,17.49,36.93,13.63,12.63,13.57,4.89,25.27,9.72,2.23.92,4.94,5.47,5.83,5.83,1.34.54-3.5,2.1,9.72,3.89,5.33.72,15.82.5,21.38,0,8.58-.77,11.45-3.26,15.55-3.89h244.89c58.19,7.05,119.1,2.58,176.86,5.83,17.39.04,35.12,3.38,48.59,3.89v1.94h75.8v-1.94c2.66-.08,6.18.93,7.77-1.94,2.59-.01,5.18.04,7.77,0,18.22-.3,36.25-1.77,54.42-1.94,14.27.95,70.44-12.98,60.25-29.15Z" style="fill:none; stroke:#000; stroke-miterlimit:10; stroke-width:2px;"/><polygon points="419.29 4.06 418.32 3.09 417.35 5.03 418.32 5.03 419.29 4.06" style="fill:none; stroke:#000; stroke-miterlimit:10; stroke-width:2px;"/></svg>