<?xml version="1.0" encoding="UTF-8"?><svg id="Layer_1" xmlns="http://www.w3.org/2000/svg" width="448.53" height="774.85" viewBox="0 0 448.53 774.85"><path d="M445.39,492.62c-.74-3.51-4.74-7.44-6.44-10.73-3.74-7.25-13.21-17.74-19.32-23.61-.24-.65.26-1.57,0-2.15-3.3-7.4-15.37-17.98-17.17-23.61-4.37-13.62,5.33-63.04,6.44-81.58,1.42-23.75,3.81-46.92,4.29-70.84.26-12.83.08-25.81,0-38.64-.04-5.3,1.72-13.07-2.15-17.17v-3.33c.05-1.76.12-3.52,0-5.26-2.64-38.12-7.7-78.03-12.88-115.93-1.45-10.61-1.77-24.51-4.29-34.35-.59-2.29-1.05-11.97-6.44-8.56-3.27,2.06,2.66,64.73,2.14,77.26-5.9-18.25-1.09-67.23-8.59-81.58-.41-.79-1.49-1.47-2.15-2.15-19.95-20.64-95.08-36.79-122.37-49.38h-64.4c-25.94,12.13-104.03,29.72-122.37,49.38-.64.69-1.78,1.4-2.15,2.15-6.01,12.09-2.23,45.32-6.44,60.11-.92-12.55,3.13-53.18,2.14-55.79-.08-.2-3.55-.33-4.29-.03-5.89,2.4-7.56,35.75-8.59,42.94-5.59,39.02-9.7,78.75-12.88,118.07-1.1,13.61-1.41,27.17-2.15,40.79-.24,4.35-1.97,8.53-2.15,12.88-.95,23.24-2.82,34.03,2.15,57.96.46,2.23-.72,5.04,2.15,6.44-.1,1.41,0,2.87,0,4.29.11,31.25,1.95,64.02,8.59,94.46-2.44-.19-26.89,33.75-30.06,38.64-.85,1.31-1.41,2.9-2.15,4.29-2.37-.38-2.02,2.02-2.15,2.15-2.23,2.16-8.07,10.1-8.59,12.88H1v122.37h2.15c2.48,10.21,103.58,94.72,118.07,103.05,1.8,1.03,1.99,2.44,6.44,4.29,12.29,11.44,28.27,24.19,42.94,32.2,10.9,5.95,28.76,15.54,40.79,17.17v2.15h21.47v-2.15c16-1.5,27.03-8.14,40.79-15.03,10.17-5.09,20.55-12.88,30.06-19.32,11.39-7.72,21.32-17.46,32.2-25.76,15.78-12.04,106.6-84.74,109.49-96.61h2.15v-122.37h-2.15Z" style="fill:none; stroke:#000; stroke-miterlimit:10; stroke-width:2px;"/></svg>