<?xml version="1.0" encoding="UTF-8"?><svg id="Layer_1" xmlns="http://www.w3.org/2000/svg" width="700.51" height="229.15" viewBox="0 0 700.51 229.15"><path d="M631.14,93.04c-4.1-3.81-8.58-7.32-12.87-10.92-2.57-2.16-5.02-4.47-7.66-6.56-1.2-.95-2.6-1.79-3.83-2.73-9.51-7.32-18.76-13.54-28.98-19.69C504.91,9.3,413.54-8.29,328.34,5.72c-24.06,3.95-47.9,10.21-70.98,17.89-4.63.4-12.29,3.83-16.95,5.47-18.44,6.47-36.67,13.82-54.68,21.33-1.45.01-2.48.78-3.83,1.09-4.93-.65-9.61-2.57-14.56-3.22-27.9-3.66-52.25,7.88-68.02,30.56-3.21,4.62-2.57,6.68-8.2,9.3-26.87,12.47-57.96,22.2-83.87,36.16-1.34.72-3.28,1.75-4.1,3.01-1.33,2.05-2.33,13.88-1.74,16.24.18.7,1.94.58,2.21,1.46-3.05,1.39-2.93,3.03-2.19,6.02.63,2.54,2.46,5.15,3.73,7.48,11.76,21.44,25.57,41.82,37.36,63.26.74,1.17,2.16,1.31,3.2,1.99,2.84,1.86,5.66,3.86,9.3,3.28l15.56,1.12c139.3-.46,278.77-1.11,418.09-1.12,18.49,0,37.02.24,55.51,0,.93-.01,2.43.35,3-.56h28.98c19.31.18,38.7.23,57.97-.55,7.6-.31,19.61.11,26.55-2.16,6.46-2.11,14.08-10.51,19.38-14.79.16-.13.89-.14,1.37-.53,3.25-2.62,6.64-5.24,9.57-8.22,2.05-1.03,8.7-6.01,8.49-8.26-15.98-36.88-38.88-71.52-68.36-98.94Z" style="fill:none; stroke:#000; stroke-miterlimit:10; stroke-width:2px;"/></svg>