<?xml version="1.0" encoding="UTF-8"?><svg id="Layer_1" xmlns="http://www.w3.org/2000/svg" width="383.53" height="701" viewBox="0 0 383.53 701"><path d="M380.37,217.36c-1.27-37.83-1.94-75.91-6.58-113.48-2.09-16.92-5.46-37.21-13.79-52.16-9.03-16.21-22.43-25.46-40.11-30.49-23.95-6.83-50.45-11.32-75.01-15.97-.04,0,.07-.17-.6-.3-3.16-.6-9.07-2.18-11.99-1.8-1.29.17-3.02,1.09-4.5.6-.25-.09-.48-.17-.69-.25-.19-.18-.42-.24-.67-.25-.81-.3-1.54-.55-2.99-.7-5.95-.63-12.77-1.16-18.73-1.2-.79-.55-2.26-.3-3.3-.3-3.19-.01-6.4-.05-9.59,0-.26,0-.52.02-.8.03-1.36-.01-2.87-.3-4,.27-2.09.04-4.2,0-6.3,0-1.04,0-2.51-.25-3.3.3-1.2,0-2.4,0-3.6,0-1.13,0-2.7-.25-3.6.3-2.69.02-4.33-.2-6.89.9-.45.19-.8.04-1.2.6-1.22.33-2.02-.8-3.09-.8-2.16,0-11.46,1.87-13.7,2.6l-3.3.6c-1.35.06-2.33.38-3.6.6-1.81.31-5.8.74-7.27,1.22-.86.28-2.24.65-3.52.88-3.49.63-7,1.16-10.49,1.8-.42.08-.75.27-.9.3-14.12,2.62-28.1,4.9-41.97,8.69-5.81,1.59-11.26,3.26-16.79,5.7-.42.18-.8.41-1.2.6-1.08.5-1.95.95-3,1.5-.2.1-.4.19-.6.3-8.07,4.43-14.28,10.94-20.09,17.99-6.5,7.89-9.1,20.1-11.69,29.98-.21.81-.4,1.59-.6,2.4-.1.4-.2.79-.3,1.2-2.63,10.72-4.32,19.85-5.4,30.88-.54,2.13-.63,4.41-.6,6.6-2.44,27.77-3.9,55.68-5.4,83.49-.57,10.55-1.56,21.03-1.5,31.63-.74.79,0,5.72-.3,6-.14.14-2.04-.33-2.72.51-.94,1.17-.92,4.03-.88,5.48,0,.4,0,.8,0,1.2-.55.89-.3,2.46-.3,3.6,0,.8,0,1.6,0,2.4-.55,1.13-.3,2.87-.3,4.2,0,.8,0,1.6,0,2.4-.58,1.01-.26,2.65-.3,3.9-.71,25.02-2.1,49.35-.89,74.48.18,3.68-1.14,10.23,4.49,9.75-.18,1.34.7,10.09.3,10.49-.13.13-2.6-.34-3.15.59-.09,8.89-.38,17.93-.16,26.85.4,15.83,1.53,33.08,3.31,48.85.6,5.32,2.39,21.78,5.39,25.48.7.87,1.51.91,1.94,1.36.46.47,2.24,11.19,2.55,12.89.12.65.17,1.37.3,2.1.28,1.5.62,3.01.9,4.5.32,1.69.57,3.4.9,5.1.18.91.43,1.81.6,2.7.19,1,.4,2,.6,3,.1.5.21,1.01.3,1.5.19,1-.04,2.29.6,3.3.11,2.4,1.03,4.63,1.5,6.89.19.92.4,1.79.6,2.7.94,4.25,1.88,8.09,3,12.29.19.71.06,1.67.6,2.4.13,1.77.84,3.44,1.41,5.06-.05.1-.04.21.1.34,0,0,.02.01.03.02.1.29.19.59.27.88.21.78.37,1.58.6,2.4.1.35.23.64.3.9.38,1.33.8,2.59,1.2,3.9.09.31.21.61.3.9.05.16-.05.44,0,.6.92,3.01,1.72,6.11,3,8.99,0,.1,0,.2,0,.3.04.9.68,1.7.9,2.4.11.35.17.78.3,1.2.18.6.47,1.08.6,1.5.5,1.6.96,3.19,1.5,4.8.2.61.47,1.11.6,1.5,9.13,26.65,20.12,53.8,34.53,78.03,29.66,49.88,71.27,69.76,129.31,67.67,34.87-1.25,63.3-12.06,88.27-36.29.41-.4.8-.8,1.2-1.2.3-.29.61-.6.9-.9.2-.2.4-.39.6-.6,1.32-1.35,2.63-2.79,3.9-4.2.25-.27.57-.53.9-.9.84-.96,1.57-2.03,2.4-3,.77-.9,1.4-2.28,1.5-2.4.53-.62,1.85-1.68,2.7-2.7.54-.65.93-1.04,1.5-1.8.09-.11.23-.2.3-.3.3-.43,1.07-1.06,1.2-1.5.06-.2-.02-.62,0-.9.62.02.84-.5,1.2-.9.45-.51.55-.74.9-1.2.23-.31.56-1.02.9-1.5.26-.37.58-.74.9-1.2.41-.59.79-1.21,1.2-1.8.48-.7,1.01-1.36,1.5-2.1.12-.18.18-.42.3-.6.4-.61.8-1.17,1.2-1.8,1.33-2.08,2.62-4.18,3.89-6.3,0,0,0,0,0,0,0,0,0,0,0,0,19.49-32.7,31.81-70.96,41.08-107.61.16-.65.41-1.35.6-2.1,2.84-11.39,5.5-22.96,7.79-34.47.15-.73.44-1.55.6-2.4.36-1.89,1.04-4.83,1.2-6.6,2.4-12.06,4.34-24.27,5.95-36.47,9.6-72.47,7.28-145.94,4.83-218.78Z" style="fill:none; stroke:#000; stroke-miterlimit:10; stroke-width:2px;"/></svg>