<?xml version="1.0" encoding="utf-8"?>
<!-- Generator: Adobe Illustrator 22.0.1, SVG Export Plug-In . SVG Version: 6.00 Build 0)  -->
<svg version="1.1" id="圖層_1" xmlns="http://www.w3.org/2000/svg" xmlns:xlink="http://www.w3.org/1999/xlink" x="0px" y="0px"
	 viewBox="0 0 500 20" style="enable-background:new 0 0 500 20;" xml:space="preserve">
<style type="text/css">
	.st0{fill:#E80000;}
</style>
<g>
	<g>
		<path class="st0" d="M0,10c0,0,7.8-0.2,21.5-0.3c13.7-0.2,33.2-0.5,56.6-0.8c11.7-0.2,24.4-0.2,37.8-0.3
			c13.5-0.2,27.7-0.2,42.3-0.3C187.5,8.2,218.7,8.2,250,8c31.2,0.2,62.5,0.2,91.8,0.3c14.6,0.2,28.8,0.2,42.2,0.3s26.1,0.2,37.8,0.3
			c23.4,0.2,43,0.6,56.6,0.8C492.2,9.8,500,10,500,10s-7.8,0.2-21.5,0.3c-13.7,0.2-33.2,0.5-56.6,0.8c-11.7,0.2-24.4,0.2-37.8,0.3
			c-13.4,0.2-27.6,0.2-42.2,0.3c-29.3,0.2-60.5,0.2-91.8,0.3c-31.2-0.2-62.5-0.2-91.8-0.3c-14.7-0.2-28.9-0.2-42.3-0.3
			s-26.1-0.2-37.8-0.3c-23.4-0.3-43-0.5-56.6-0.8C7.8,10.2,0,10,0,10z"/>
	</g>
</g>
</svg>
