<?xml version="1.0" encoding="UTF-8"?><svg id="Layer_1" xmlns="http://www.w3.org/2000/svg" width="740.29" height="289.28" viewBox="0 0 740.29 289.28"><path d="M738.32,189.08c-.9-3.99-3.6-9.51-7.42-11.67-5.9-6.95-11.98-17.83-19.09-23.33-26.07-35.31-59.35-67.69-96.51-91.21-4.43-6.27-12.37-8.69-18.32-11.73-.8-.47-1.43-.82-1.83-.99-8.18-4.82-13.36-8.39-22.27-12.73-.29-.14-.77.14-1.06,0-.3-.14-.63-.9-1.06-1.06-.31-.12-.74.11-1.06,0-8.31-3.92-11.46-6.63-21.21-9.55-1.4-.42-1.65-1.8-5.3-2.12-31.98-14.43-69.84-22.23-105-23.33-58.29-2.53-118.76,8.37-173.93,26.51-.32.1-.74-.11-1.06,0-.17.06-.37.17-.59.3l-1.53.76c-20.29,6.89-40.22,14.35-59.4,23.97-1.82,1.02-3.44-1.61-4.24-1.7-.22-.02-1.54-1.77-3.79-2.11-3.13-.48-6.09,1.34-9.23,1.11-1.07-.08-1-3.14-3.43-3.34-3.09-.25-4.37,3.11-5.53,3.17-2.87.16-2.17-1.73-7.72-.95-4.11.58-12.14,1.65-15.68,2.84-1.98.67-1.02,3.17-1.4,3.35-1.65.75-4.76-.24-7.07.87-1.7.81-2.1,3.34-4.1,4.56-2.29,1.4-2.75-.99-6.75,2.18-3.6,2.85-1.62,3.42-3.63,5.39-1.44,1.41-5.33,1.37-7.1,3.58-1.55,1.92.26,4.21-.78,5.44-1.51,1.78-4.82.96-6.46,3.18-2.1,2.85.38,5.82-.17,7.18-1.76,4.3-4.21,7.71-6.24,14.48-6.19,5.91-13.19,10.96-20.15,15.91-26.69,18.97-54.44,36.93-78.48,59.39-4.7,4.03-13.63,9.25-5.3,13.79,4.76,2.59,7.7.95,12.73,2.12-13.13,16.03,11.01,10.18,20.1,13.3l57.2,40.23c5.44,3.94,9.98,7.14,12.84,9.03,6.85,4.53,11.13,7.01,19.09,9.55,8.34,2.65,72.15,12.6,76.36,9.55,38.73,5.11,79.27,10.49,118.88,12.21,10.87,2.06,26.76.56,32.78.51,9.28-.07,18.39-.77,27.57-1.06,10.08-.32,20.17-.73,30.26-1.2,41-1.2,82.36-1.05,123.03-4.06,12.76-.94,32.38-1.69,43.98-6.4,6.53-2.65,11.37-9.19,20.15-9.55,21.71.81,81.35-4.2,101.81-9.55,7.04-1.84,12.31-.57,17.39-7.54,1.56-2.13,19.47-45.72,20.07-48.87.98-5.17.77-5.49-.34-10.42Z" style="fill:none; stroke:#000; stroke-miterlimit:10; stroke-width:2px;"/></svg>