<?xml version="1.0" encoding="UTF-8"?><svg id="Layer_1" xmlns="http://www.w3.org/2000/svg" width="472.6" height="740.3" viewBox="0 0 472.6 740.3"><path d="M471.54,347.56c-.13-15.81-1.51-36.3-2.11-53.85-.42-12.29.44-24.81-2.11-36.96-.75-13.38-1.18-27.02-4.22-40.12.03-.35,0-.71,0-1.06.06-7.93-2.01-17.71-4.22-25.34-.06-.34.06-.71,0-1.06.02-5.48-2.06-10.62-3.17-15.84-2.1-9.88-3.16-20.25-7.39-29.57-.06-.34.06-.71,0-1.06-.72-4.1-2.02-9.1-4.22-12.67-.07-.34.07-.72,0-1.06-.68-3.12-1.19-6.93-3.17-9.5-4.32-21.29-26.84-71.31-45.4-82.36-21.01-12.51-83.22-31.61-107.32-32.58-11.47-.46-5.99,2.62-3.55,11.45-7.22-3.77-4.44-15.25-16.34-12.7-5.4,1.16-3.8,11.95-10.05,12.71-1.22-5.33,8.25-14.09.53-14.86-18.36-1.84-103.18,15.33-118.8,25.43-9.92,6.41-28.97,31.46-27.43,42.84.43,3.21,2.71.2,3.14,6.78-3.61-.3-4.33-.68-6.44,2.54-3.8,5.78-12.33,50.43-13.62,59.76-6.31,17.58-5.35,38.66-8.71,56.23-1.47,7.69-3.07,9.14-9.24,13.46-4.78,2.26-9.12,5.78-13.73,8.45-1.56.9-3.46,1.2-4.22,3.17-4.02,2.17-8.48,3.88-11.61,7.39-2.17,1.07-4.18,2.03-6.34,3.17-1.28.67-2.06,1.33-2.66,1.77l-.51.34c-8.65,4.81-20.79,10.72-27.45,17.95-13.73,14.9-9.6,41.14-9.56,60.77.09,37.94,1.34,81.47,4.3,119.24.73,9.28,1.47,19.32,5.25,28.01,1.19,5.33,3.16,11.03,7.39,14.78,2.64,5,6.35,8.49,11.61,10.56,8.01,6.93,18.85,10.77,27.45,16.89,2.38,1.7,10.15,7.06,11.61,8.45.36.34.7.71,1.06,1.06,10.14,10.06,14.73,39.02,20.05,54.39,4.4,12.7,9.51,25.61,15.85,37.47,5.73,13.87,12.91,26.56,21.12,39.07,2.59,6.52,6.05,12.94,9.5,19.01,1.09,1.92,2.05,3.44,3.17,5.28,8.36,13.76,18.41,29.59,31.68,39.07,4.12,6.19,11.9,9.87,17.95,13.73,18.03,11.5,32.39,16.52,53.85,19.01,3.65.42,6.84.83,10.56,1.06.35.02.7-.02,1.06,0v1.06h28.51v-1.06c16.35-1.18,48.59-6.69,60.19-19.01,13.14-6.53,21.74-18.49,30.62-29.57,8.31-10.36,15.22-19.65,21.12-31.68,15.77-25.1,26.5-52.69,36.96-80.25,5.56-14.64,11.66-28.01,15.84-43.29,1.21-1.23,2.45-2.65,3.17-4.22,19.16-41.82,20.46-135.78,20.06-182.67Z" style="fill:none; stroke:#000; stroke-miterlimit:10; stroke-width:2px;"/></svg>