<?xml version="1.0" encoding="UTF-8"?><svg id="Layer_1" xmlns="http://www.w3.org/2000/svg" width="753.07" height="264.28" viewBox="0 0 753.07 264.28"><path d="M750.11,221.82c-.69-1.64-3.42-4.68-3.48-4.98-.24-1.25.7-2.1-.12-4.71-2.8-8.89-7.97-17.06-12.54-25.07-.22-.38-.35-.74-.5-1-2.32-4.03-4.48-7.64-7.02-11.53-35.96-55.15-92.86-103.54-152.45-131.39-12.96-6.05-26.1-11.35-39.62-16.05-.51-.18-1-.33-1.5-.5-10.39-3.55-19.51-5.85-30.09-8.53-31.19-7.9-60.99-13.36-93.28-15.55-.1-.01-.21-.02-.31-.03-1.4-.12-3-.4-4.7-.47-1.49-.06-3.02,0-4.51,0-2.42-.93-5.81-.5-8.53-.5v-.5h-17.55v.5c-2.03.05-4.73.5-6.27.5h-10.03c-2.64,0-6.86.74-9.78,1-2.41.22-4.8.75-7.02,1-1.51.18-2.99.3-4.51.5-3.33.43-6.53.59-9.2,1.03-1.44.23-8.91,1.46-9.36,1.98-.99.06-2.02-.09-3.01,0-1.14.11-2.37.32-3.51.5-.53.08-1.25.37-2.01.5-2.37.4-4.69,1.03-7.02,1.5-1.27.26-3.76.05-5.01.5-.22.08-.38.46-.5.5-1.33-.33-2.39.28-3.51.5-.74.15-1.38.37-2.01.5-1.64.35-3.37.24-5.01,1-.36.17-.65.2-1,.5-1.81-.3-3.44.63-5.01,1-.43.1-.92.37-1.5.5-1.51.35-2.99.63-4.51,1-.43.11-1.09-.11-1.5,0-2.17.56-4.38,1.32-6.52,2.01-2.15.69-3.3-.04-3.51,2.51-.03.31-.03.69,0,1-.84,2.01-1.82-.69-3.82-.84-3.83-.29-22.77,7.29-27.76,9.12-9.78,3.59-33.19,11.2-40.82,16.37-1.28.86-3.56,4-5.19,4.34-2.09.44-7.67-3.64-9.96-3.91-2.97-.35-8.74.74-12.51.51-1.98-.12-4.1-.91-6.01-1.01-4.62-.26-10.51,3.17-15.67,3.87-2.37.32-4.91-.22-7.16.36-2.37.62-9.5,6.69-13.53,8.29-1.92.76-4.63.59-6.28,1.99-2.84,2.41-5.76,7.38-9.26,10.3-1.51,1.26-4.9,2.92-5.75,3.77-1.09,1.09-1.95,4.52-2.78,6-2.3,4.13-6.16,8.13-8.04,11.77-.85,1.64-.6,2.75-.99,3.78-.46,1.23-6.79,2.14-8.51,2.77-1.7.62-3.69,1.82-5.36,2.66-17.85,9.01-36.83,19.55-54.16,29.59-5.04,2.92-11.82,6.42-16.39,9.69-.64.46-.94.71-1.32,1.42-.93,1.71.47,4.25,1.13,6.14,1.62,4.64,3.91,8.15,5.89,12.41,1.01,2.18,1.94,4.36,3.01,6.52,1.51,3.04,2.88,6.03,4.51,9.03.93,1.7,1.22,3.14,2.51,5.01.86,2.51,2.37,5.25,3.8,7.48,1.52,2.38,2.61,2.52,3.22,5.05.18.76.28.9.5,1.5,1.47,4,8.1,10.56,11.01,14.31,4.75,6.12,9.3,12.43,14.08,18.51,1.5,1.91,3.36,4.8,5.5,5.79,3.72,4.13,14.71,7.66,20.06,10.03,11.17,4.96,16.54,7.48,28.72,10.15,2.97.65,5.8,3.31,9.39,2.39.88.39,2.11.62,3.01,1,17,7.18,33.97,4.91,52.15,5.01v.5h376.11v-.5c54.45-.48,110.48-.68,164.49-8.02,9.34-1.27,17.92-1.73,26.58-5.52.57-.25,1.52-.24,2.01-.5.08-.05,1.41-.93,1.5-1,1.68-1.24,1.53-1.85,2.51-3.01,2.18-2.57,4.62-5.24,6.52-8.02,3.57-5.22,3.02-9.13.59-14.88Z" style="fill:none; stroke:#000; stroke-miterlimit:10; stroke-width:2px;"/></svg>