<?xml version="1.0" encoding="UTF-8"?><svg id="Layer_1" xmlns="http://www.w3.org/2000/svg" width="418.11" height="753.07" viewBox="0 0 418.11 753.07"><path d="M375.91,197.14c-1.46-14.16-3.01-28.44-2.51-42.59.73-21.04,2.95-41.93,4.51-62.87.8-6.78-.04-7.04-1.5-13.03-1.59-6.47-1.17-9.95-4.51-16.03-1.13-2.06-1.51-2.77-3.01-4.51-5.15-6-21.26-10.76-29.06-13.53-.98-.35-2.01-.65-3.01-1-1.5-.52-3.03-.98-4.51-1.5-1.37-.48-2.68-1.04-4.01-1.5-1.01-.35-2.02-.66-3.01-1-4.35-1.52-8.7-2.92-13.03-4.51-1.98-.73-3.37-1.34-5.51-2-1.27-.39-1.65-.43-3.01-1-19.36-8.08-40.19-15.73-60.12-22.55-1.48-.51-3.03-1.01-4.51-1.5-1.51-.5-2.98-1.01-4.51-1.5-5.63-1.82-11.15-4.04-17.03-5.01v-.5h-1c-1.4,2.54.42,17.37-.97,18.32-.56.38-1.39.19-2.03.22l-.5-14.28-.48-1.04c-9.43,1.56-19.09,1.84-28.6,0-1.73,4.55-.72,9.57-.98,14.32l-2.51.5c-1.08-2.18-.36-7.23-.5-10.02V1.5c-2.34-.18-4.58.44-6.83.94-14,3.13-30.6,10.39-44.67,14.95-21.54,6.99-43.36,13.24-64.74,20.69-.99-.13-1.85.21-2.77.49-8.53,2.53-18.59,5.9-26.79,9.29-5.33,2.2-8.12,3.37-12.03,7.76-1.77,1.99-2.23,2.57-3.51,5.01-1.54,2.94-1.77,3.85-2.51,7.01-.97,4.15-1.19,7.72-1.5,12.02-.6,8.4.99,16.18,1.5,24.55.22,3.62.39,7.4.5,11.02.23,7.7.32,15.42.33,23.14,0,.49,0,.97,0,1.43,0,3.46-.01,6.92-.04,10.38-.33,3.8-.27,8.45-.13,13.1-.24,18.99-.58,37.99-.14,56.94-.87,3.14-3.16,5.54-4.02,8.75-1.68,6.29-.86,17.62-1,24.55-.83.52-.5,1.9-.51,2.75-.2,18.59-1.64,37.1-1.47,55.64.02,2.46-1.02,2.98.75,5.72,1.16,1.79,5.95,5.21,6.5,6.55.35.85-.86,7.59-.27,8.5-1.74,2.11-3.37,4.32-5.01,6.51-1.48,1.98-2.65,2.1-3.01,5.26-1.34,11.75.17,25.65-.48,37.6-1.04,12.45-1.3,25.02-2.03,37.55-.51,8.71-2.77,21.03-2,29.31.16,1.69.36,2.24,1,3.76,2.2,5.29,3.56,3.94,2.51,10.77-.13.23-.16.5-.13.77-.52,2.99-1.36,6.05-1.79,9.08-5.73,40.62-7.4,82.64,1.42,122.91.15.83.2,1.19.5,2,1.49,4.06,2.3,7.12,3.54,11.24,14.19,47.18,46.26,91.1,89.65,115.01,39.23,21.62,84.68,30.95,129.51,26.55,13-1.27,26.12-3.94,38.33-8.51,63.54-16.43,115.58-76.67,135.77-137.28,4.25-12.76,6.41-22.81,8.52-36.07.98-6.15,2.88-12.72,2.51-19.04l1.52-15.76c2.14-114.09-29.49-224.5-41.1-337.2Z" style="fill:#efefef; stroke:#000; stroke-miterlimit:10; stroke-width:2px;"/></svg>