<?xml version="1.0" encoding="UTF-8"?><svg id="Layer_1" xmlns="http://www.w3.org/2000/svg" width="679.73" height="260.39" viewBox="0 0 679.73 260.39"><path d="M677.13,190.96c-3.83-13.63-9.97-26.73-15.88-39.45-4.94-10.64-9.81-21.3-15.98-31.3-.63-1.03-1.16-1.93-2.34-2.41-.46-2.54-2.35-5.7-4.4-7.33-.27-.48-.47-.99-.73-1.47-1.77-3.22-3.76-6.79-6.3-9.46-.47-.49-1.65-2.3-2.5-1.54,0-.24.01-.49,0-.73-.12-2.52-2.32-2.55-3.66-4.03-4.83-5.37-9.12-12.77-15.39-16.49-2.98-4.62-8.73-9.08-13.19-12.46-1.54-1.63-5.32-5.62-7.05-6.51-1.69-.87-3.7-.55-4.74-1.17-.65-.38.4-1.53-1.4-3.32-4.54-4.5-20.6-13.35-26.88-16.72-5.85-3.15-11.71-5.88-17.82-8.19-1.9-1.81-5.57-3.04-8.07-4.02-5.3-2.08-15.33-6.46-20.36-7.55-3.45-.74-2.46.04-6.57-1.44-5-1.8-10.41-2.63-15.56-3.85-5.13-1.22-11.75-3.31-16.86-3.66-2.17-.91-5.28-1.13-7.7-1.46-16.92-2.32-32.88-4.3-50.2-4.4-2.92-.02-5.87-.03-8.79,0-2.26.02-4.42.87-6.23.79-2.86-.13-6.71-3.38-9.9-.79-.97.04-1.96-.05-2.93,0-.48.02-.99.05-1.5.08-3.19.01-6.86-.77-9.49.65-.24.02-.49-.02-.73,0l-43.97,6.6c-1.53.11-5.09.84-6.6,1.47-.24.02-.49-.03-.73,0-7.43.84-20.66,3.32-27.58,5.74-1.16.41-1.01,1.63-1.38,1.62-2.02-.07-4.74-4.27-7.37-4.43-1.5-.09-4.21,1.47-6.13,1.87-8.18,1.71-25.02,4.84-32.08,8.23-2.35,1.13-4.15,3.82-5.34,6.02-.26.47-.53.97-.73,1.47-.87.18-1.04,1.02-1.47,1.47-11.55,1.49-22.78,6.92-33.86,10.48-2.62.84-5.86.5-7.92,2.71-3.77.9-9.3,4.41-12.82,4.41-2.67,0-9.23-3.28-12.8-4.07-6.91-1.53-14.52-2-21.59-1.75l-10.69,2.14c-4.99.42-10.1,3.12-14.66,5.13-7.57,1.93-25.71,17.75-29.92,24.68-1.8,2.98-2.38,6.24-3.8,9.03-1.88,3.7-3.66,7.47-7.33,9.53-23.95,13.45-49.33,24.91-73.29,38.84-1.81,1.05-5.1,1.79-6.6,3.66-1.05,1.32-.06,1.94,0,3.66-.47.27-1.01.45-1.47.73-.65.4-1.93.13-2.58,1.46-1.5,3.08,3.69,10.52,6.24,12.47,1.27,4.62,6.12,7.75,8.79,10.99,2.01,2.43,2.41,3.86,3.66,6.6.21.45.29,1.24.73,2.2,3.03,6.5,11.39,27.76,15.39,31.51,1.67,1.57,4.22,1.81,4.3,4.73.05,1.88-.77,1.45.1,4.07,1.93,5.8,15.49,24.01,19.79,30.05.24.34.2,1.63.82,2.44,1.71,2.24,3.12,3.81,6.12,4.17,7.29.86,16.53.32,25.06.06,6.45.11,12.99.12,19.57.06,80.32,1.17,160.9-.45,241.19,2.09,56.75,1.8,113.29,5.19,170.09,4.4,19.57-.27,39.8-.04,59.23-3.06,16.08-2.5,57.94-11.31,67.16-24.09,2.13.29,3.39-3.92,4.4-5.13.21-.26.51-.47.73-.73.53-.61,1.46-1.39,2.2-2.2.68-.75,1.49-1.44,2.2-2.2,4.76-5.15,9.44-10.19,13.92-15.39.37-.43.91-.77,1.47-1.47.66-.83,2.12-1.66,2.93-2.93,2.52-3.94,1-6.69-.24-11.12Z" style="fill:none; stroke:#000; stroke-miterlimit:10; stroke-width:2px;"/></svg>