<?xml version="1.0" encoding="UTF-8"?><svg id="Layer_1" xmlns="http://www.w3.org/2000/svg" width="388.48" height="679.74" viewBox="0 0 388.48 679.74"><path d="M387.1,448.82c-.1-17.61-.5-35.05-.71-52.61-.02-1.23.46-3.23-.74-3.98-.1-3.74-.29-6.62-.73-10.16.83-5.69-.93-10.94-1.44-16.33-3.1-32.43-4.59-65.01-4.36-97.58.04-6.12.62-12.61.73-18.86,0-.24,0-.48,0-.73,1.49-5.8.52-12.48.7-18.53,1.39-48.22-1.01-95.12-8.78-142.81-.91-5.58-3.69-26.66-6.41-29.87-1.96-2.3-9.7-8.37-12.35-9.78-3.12-1.65-4.27-1.43-7.26-2.18-3.06-.77-4.91-1.16-7.98-2.18-14.39-4.74-28.87-9.52-43.19-14.5-23.12-8.05-49.9-20.62-73.08-26.32-5.83-1.43-9.22-1.13-15.06-1.26-8.4-.19-16.99-.19-25.4,0-.72.02-1.45-.02-2.18,0-29.19.85-63.15,18.32-91.05,28.31-12.68,4.54-25.46,9.07-38.28,13.24-7.48,2.44-15.36,3.43-22.32,7.06-3.04,1.59-13.08,9.56-14.16,12.32-.54,1.37-.83,3.89-1.07,5.47-5.35,35.35-5.11,75.37-4.37,111.01.22,10.82-3.17,19.48-3.65,30.44-.64,14.52-1.22,35.99-.02,50.18.13,1.48.45,1.55.78,2.46.21.59.19.93.73,1.45,1.79,1.75,4.21,1.81,6.23,2.84.57.29,2.24.23,1.03,1.51-.92.96-6.55,2.07-8.7,4.36-.19.2-.86.26-1.08.73-1.35,2.98.29,13.27.35,17.41.33,20.24.2,53.43,7.61,71.84.52,1.29,2.54,2.71,1.46,3.62-.77-.85-1.55-1.59-2.54-2.17-.61-1.32-.29-3.74-2.17-4.35.11,7.38-1.08,14.76-1.49,22.1-.3,5.33.64,11.61.05,16.74-.35,3.04-.72,5.78-1.07,8.52-.13-.16-.26-.24-.4-.2-.07,1.18-.05,2.38-.02,3.58-.27,2.29-.51,4.66-.72,7.3-.27,3.47-1.45,9.33-1.45,12.7v13.79c0,4.07-.58,9.09-.73,13.42-.25,7.51-.61,14.97-.73,22.49-.08,4.94-.07,9.94-.01,14.88.02,1.23-.46,3.23.74,3.98-.08,4.7.04,9.43,0,14.14l2.17,17.78c.03,6.11,2.14,12.11,2.9,18.14-.38,4.13,1.08,8.02,2.33,11.85.32.96,1.19,1.63,1.29,1.94.53,1.49.77,2.61,1.45,4.35,1.91,4.91,3.39,8.4,5.8,13.06,3.82,7.39,7.35,12.43,12.33,18.86,3.76,4.85,6.78,7.97,10.88,12.33,16.77,17.84,32.17,28.9,53.69,40.63,89.3,48.68,183.67,31.36,253.22-41.36,13.61-14.23,17.83-21.11,25.4-39.18.31-.73,1.19-1.52,1.45-2.18,1.37-3.48,2.22-4.79,2.9-8.71.04-.23-.03-.49,0-.73,2.11.43,1.32-1.04,1.65-2.3,1.96-7.48,1.24-12.64,2.06-19.74,1.41-12.1,5.17-22.71,5.75-35.61.75-16.95.06-35.53-.03-52.63Z" style="fill:none; stroke:#000; stroke-miterlimit:10; stroke-width:2px;"/></svg>