<?xml version="1.0" encoding="UTF-8"?><svg id="Layer_1" xmlns="http://www.w3.org/2000/svg" width="676.53" height="241.51" viewBox="0 0 676.53 241.51"><path d="M667.98,133.81C596.21-2.07,421.77-15.47,288.28,13.82c-4.2.92-8.27,2.03-12.34,3.08l-5.12,1.28c-7.31,1.73-15.34,4.12-22.69,6.11-17.41,4.7-28.42,7.79-45.39,13.97-14.6,5.32-28.93,10.6-43.64,15.71-28.95-14.38-63.29-2.17-82.49,22.69-4.27,5.53-4.71,9.69-7.41,13.97C60.8,103.93-1.73,118.17,1.09,139.93c.39,3.01,2.86-.35,3.51.45.88,1.09-2.03,6.51,2.63,5.23,2.5.95,10.44.93,12.22,1.75.09.04.91,1.66.87,1.75-.05.13-1.9.35-2.62.87-7.55,5.49-3.77,4.09-.87,12.22,3.04,8.53,6.99,16.95,10.47,25.31.34.83.51,1.76.87,2.62,1.47,3.47,2.86,7.01,4.36,10.47,1.88,4.31,2.8,7.8,5.24,12.22.78,1.42.51,5.81,3.21,6.83,2.13.8,15.15.23,18.61.15,2.38-.05,4.54.1,6.36.23,5.24,1.03,10.23,3.65,13.71,4.13,13.57,1.89,29.47,1.49,43.64,2.62,5.35.42,11.07,2.42,15.71,2.62,35.33,3.5,74.1-1.08,109.1,2.62,1.56.17,2.96.69,4.36.87.16.02,1.38,1.51,2.62,1.75.28.05.59-.06.87,0l.14.05c.38.15,1.19.62,2.48.83.81.13,1.77-.05,2.62,0,1.14,1.48,3.6.85,5.24.87.58,0,1.16,0,1.75,0,6.67.04,13.41.16,20.08,0,8.53,1.61,17.55.87,26.18.87,6.1,0,12.23,0,18.33,0,10.3,1.61,21.03.87,31.42.87,5.81,0,11.65,0,17.46,0,9.12,1.61,18.71.87,27.93.87,5.81,0,11.65,0,17.46,0,7.95,1.66,16.38.8,24.44.87,26.6.23,47.22,2.57,73.68-3.56,9.04-2.09,16.16-7.27,25.36-7.45,1.99.25,3.96.45,5.7.54,9.33.47,20.3.32,29.68,0,1.59-.05,3.22-.14,4.88-.26,9.67-.11,25.92,1.02,30.91-1.49,2.49-1.25,1.79-2.93,2.62-4.36,1.91-3.31,1.55-4.22,2.62-6.98,6.07-15.78,7.34-22.02,18.33-35.79,1.4-1.76,2.7-4.07,5.24-4.36.76,1.56,3.53,1.12,4.36,1.75,3.07,2.28,6.36,5.16,10.47,5.24,1.35.03,1.65-.84,1.75-.87.28-.09.65.1.87,0,13.71-6.38,5.71-37.68.02-48.46Z" style="fill:none; stroke:#000; stroke-miterlimit:10; stroke-width:2px;"/></svg>