<?xml version="1.0" encoding="UTF-8"?><svg id="Layer_1" xmlns="http://www.w3.org/2000/svg" width="440.7" height="676.92" viewBox="0 0 440.7 676.92"><path d="M411.68,107.63c-1.63-11.85.07-19.49-14.25-22.4-1.12-7.07-4.13-30.72-6.16-35.59-.73-1.76-.72-1.4-1.99-2.42-1.4-1.13-3.22-.91-4.07-1.36-5.28-2.76-10.8-4.56-16.29-6.79-.1-.04-.22-.02-.34,0h-.34c-1.58-.64-3.15-1.4-4.75-2.04-.1-.04-.22-.02-.34,0h-.34c-.39-.15-.82-.47-1.36-.68-1.79-.71-3.63-1.33-5.43-2.04-.47-.18-.89-.5-1.36-.68-.1-.04-.22-.02-.34,0h-.34c-.46-.18-.89-.5-1.36-.68-.1-.04-.22-.02-.34,0h-.34c-23.4-9.1-49.5-20.77-73.3-27.83-2.31-.69-5.15-3.63-8.14-1.36-2.97,2.25-.55,37.04-1.36,42.76-1.72,1.49-5.46,2.09-10.11,2.28-2.77-.06-6.24-.07-9.91-.05-9.46-.31-19.52-.99-24.1.49-.45.03-.91-.04-1.36,0-4.59-.96-12.92,2.57-14.93-2.71-3.67-9.63,2.23-33.37-1.36-43.43-.08-.22.09-.54,0-.68-.4-.6-.54-1.12-1.36-1.36-.52-.15-2.01-.04-2.71,0l-1.36.68c-2.89.49-5.58,1.3-8.14,2.71-5.2.7-13.59,5.19-19,6.79-1.01.3-2.25.33-3.39.68-.71.22-1.2.63-1.36.68-28.78,8.95-57.02,19.41-85.51,29.18-2.15,1.07-2.61,3.14-3.32,5.16-7.52,21.43-11.45,57.64-15.68,81.03-.01.07-.5.34-.68,1.36-.15.84.15,1.87,0,2.71-.01.07-.5.34-.68,1.36-.11.63.11,1.4,0,2.04-.01.07-.5.34-.68,1.36-.34,1.98-.35,4.15-.68,6.11-.01.07-.51.33-.68,1.36-.14.85.14,1.86,0,2.71-.01.07-.51.33-.68,1.36-.11.65.11,1.39,0,2.04-.01.07-.51.33-.68,1.36-.51,3.15-.87,6.36-1.36,9.5-.01.07-.52.32-.68,1.36-.21,1.37-.48,2.72-.68,4.07h-.68l-2.04.68c-8.28,2.26-6.13,2.59-7.47,10.18-1.71,6.5-2.78,13.38-3.41,20.07-.3,3.22,1.65,7.64.55,11.34-.38,1.28-6.49,6.67-8,9.31-4.76,8.33-1.17,14.87-6.79,21.72-2.56,1.49-5.06,5.55-6.46,8.13-8.54,15.73-14.64,91.62-15.26,112.67,0,.23,0,.45,0,.68-1.27,2.47-.67,6.06-.68,8.82,0,.23,0,.45,0,.68-1.22,1.51-.69,4.24-.68,6.11,0,.9,0,1.81,0,2.71l-2.04,27.83c-2.25,30.41-9.65,76.53,3.27,104.18.24.56.51,1.12.81,1.69,9.72,18.98,35.13,46.2,50.9,61.08.97.91,1.37,1.68,2.71,2.71.66.5,1.16,1.17,2.04,1.36.21.24.45.45.68.68.23.23.45.46.68.68.45.43.73.84,1.36,1.36.35.29,1,.39,1.36.68l.31.31c.26.3.57.68,1.05,1.05,1.07.81,2.32,1.3,3.39,2.04l.14.14c.23.27.56.79,1.21,1.21.16.1.52-.1.68,0l.13.13c.22.26.57.84,1.23,1.23.86.52,1.84.86,2.71,1.36.04.02-.15.22.68.68,3.3,1.82,6.74,3.23,10.18,4.75.46.2.88.48,1.36.68,5.15,2.17,10.07,4.9,15.61,6.11,3.33.73,10.23,3.08,12.22-.68,2.26-4.27-10.69-82.11-12.22-93.66-.12-.88.39-2.15-.68-2.71.06-2.28-.39-3.96-.68-6.11-.12-.88.39-2.15-.68-2.71-.58-8.77-2.97-17.25-4.75-25.79-.15-.7.23-1.59-.68-2.04-.03-.22.03-.46,0-.68-.11-.73.24-1.59-.68-2.04-.03-.22.03-.46,0-.68-.11-.73.24-1.59-.68-2.04v-.28c.01-.14.03-.27,0-.4-.2-.97-.54-1.49-.68-2.04-.28-1.1-.23-2.32-.68-3.39,1.03,2.52,2.45,4.49,3.39,7.47,8.06,25.48,10.91,51.84,15.61,78.05,3.22,17.96,12.85,92.58,20.36,103.16,1.01,2.74,2.94,5.23,4.75,7.47.61.75,1.12,1.15,1.6,1.6l.44.44c1.27,1.39,1.95,2.12,3.39,3.39l.41.41c.43.48.82,1.01,1.62,1.62,5,3.82,9.72,6,15.61,8.14,4.67,1.7,7.24,2.53,12.22,3.39,1.73.3,3.41,1.16,5.43.68,8.06,2.35,25.38,3.07,34.25,3.42,12.46.49,25.26.15,37.69-.7,13.82-.3,27.85-.47,41.4-3.39,1.46-.26,2.37-.23,4.07-.68,5.06-.42,10.12-1.88,14.93-3.39.72-.23,1.15-.61,1.36-.68.2-.07.48.07.68,0,3.29-1.19,6.5-2.23,9.5-4.07.65-.4.96-.91,1.2-1.2l.16-.16c.15-.11.53.11.68,0,8.74-6.35,13.37-14.51,16.97-24.43.07-.18.43-.61.68-1.36.12-.36-.12-.99,0-1.36.03-.09.44-.57.68-1.36.11-.38-.11-.98,0-1.36.02-.07.45-.52.68-1.36.15-.56-.15-1.47,0-2.04.02-.07.45-.48.68-1.36.15-.57-.14-1.46,0-2.04.02-.07.46-.45.68-1.36.14-.59-.14-1.45,0-2.04.02-.07.46-.44.68-1.36.1-.41-.09-.95,0-1.36l.11-.32c.15-.4.41-1.01.57-1.72.09-.41-.09-.95,0-1.36l.07-.2c.14-.36.44-1.02.61-1.83.09-.42-.08-.94,0-1.36l.04-.13c.12-.32.47-1.04.64-1.91.12-.63-.12-1.41,0-2.04.01-.07.49-.37.68-1.36.08-.43-.08-.93,0-1.36.03-.14.49-1.02.68-2.04.12-.63-.11-1.41,0-2.04.01-.07.5-.35.68-1.36.11-.63-.11-1.4,0-2.04.01-.07.5-.35.68-1.36.11-.63-.11-1.4,0-2.04.01-.07.5-.34.68-1.36.11-.64-.11-1.4,0-2.04.01-.07.51-.34.68-1.36.11-.64-.11-1.4,0-2.04.01-.07.51-.33.68-1.36.11-.64-.11-1.4,0-2.04,3.29-13.86,5.09-28.04,7.47-42.08.11-.66.49-1.56.68-2.71.04-.22.02-.45,0-.69v-.67c.1-.63.5-1.51.68-2.71.03-.22-.02-.45,0-.68.61-.25.64-.8.68-1.36.07-.89-.13-1.85,0-2.71.01-.08.51-.32.68-1.36.14-.85-.15-1.87,0-2.71.01-.07.5-.34.68-1.36.11-.63-.11-1.4,0-2.04.01-.07.5-.34.68-1.36.15-.84-.15-1.87,0-2.71.01-.07.5-.35.68-1.36.11-.63-.11-1.4,0-2.04.02-.12.5-1.02.68-2.04.11-.63-.11-1.4,0-2.04.01-.07.5-.35.68-1.36.11-.63-.11-1.4,0-2.04.02-.12.49-1.03.68-2.04.12-.63-.12-1.41,0-2.04.01-.07.49-.36.68-1.36.12-.63-.12-1.41,0-2.04.03-.14.49-1.04.68-2.04.12-.63-.12-1.41,0-2.04.01-.07.49-.37.68-1.36.12-.62-.12-1.41,0-2.04.01-.07.48-.38.68-1.36.12-.61-.13-1.43,0-2.04l.06-.18c.13-.35.45-1.08.62-1.86.13-.61-.13-1.43,0-2.04.02-.07.47-.4.68-1.36.13-.6-.13-1.43,0-2.04.02-.07.47-.41.68-1.36.13-.6-.14-1.44,0-2.04.02-.07.46-.43.68-1.36.14-.6-.14-1.44,0-2.04.02-.07.46-.44.68-1.36.14-.59-.14-1.45,0-2.04.02-.07.46-.47.68-1.36.1-.4-.1-.96,0-1.36.02-.07.45-.48.68-1.36.1-.4-.1-.96,0-1.36.02-.09.48-.61.68-1.36.29-1.12.39-2.31.68-3.39.02-.07.45-.54.68-1.36.06-.21-.06-.47,0-.68l.03-.06c.11-.19.47-.66.65-1.29.32-1.14.38-2.38.68-3.39.03-.12.47-.64.68-1.36,2.37-8.1,4.79-16.43,7.47-24.43,1.03.39,3.15-1.03,3.32.93.16,1.89-9.46,30.84-10.78,36.4l-.22,1.64c-.15.21-.35.54-.46,1.08-.09.41.08.94,0,1.36l-.04.13c-.12.32-.47,1.04-.64,1.91-.08.42.07.93,0,1.36-.02.11-.52.89-.68,2.04-.06.44.03.91,0,1.36-.91.45-.53,1.32-.68,2.04-5.54,27.16-15.9,72.02-16.97,98.41-3.95,13.95,9.16,9.04,16.97,6.79.76-.22,1.15-.61,1.36-.68.2-.07.48.07.68,0,11.32-4.1,12.88-7.21,19-16.97,39.41-62.79,37.29-163.26,39.39-235.14,2.19-75.21-17.13-150.35-27.85-224.32Z" style="fill:none; stroke:#000; stroke-miterlimit:10; stroke-width:2px;"/></svg>