<?xml version="1.0" encoding="UTF-8"?><svg id="Layer_1" xmlns="http://www.w3.org/2000/svg" width="738.08" height="233.73" viewBox="0 0 738.08 233.73"><path d="M3.1,152.4c-.77.28-1.02,1.25-.43,1.82s1.17,1.11,1.58,1.46c.2.18.31.42.36.68.23,1.36,1.09,2.46,1.6,3.7,1.31,3.16,1.78,3.32,3.29,5.77,1.32,2.13,2.76,3.79,4.12,5.77,4.3,6.24,8.24,12.87,13.91,18.04.06.05.11.12.16.18,6.3,9.6,14.81,18.02,22.96,26.2.01.02.02.05.04.06,0,0,.02,0,.03,0,1.1,1.1,2.19,2.2,3.26,3.29,5.09,5.38,7.38,5.79,14,8.24,6.7,2.47,6.78,2.47,14,3.29,1.43.16,2.81.68,4.94.82,15.59,1.08,33.54-.02,49.42,0,39.74.06,79.64-2.01,119.4-1.65.02,0,.04,0,.06,0,7.79.6,16.72-.09,24.68,0,47.73.51,95.59.63,143.32.82,3.01.01,6.05.01,9.06,0,1.65,0,3.3,0,4.94,0,1.37,0,2.75.01,4.12,0,1.09,0,2.17.01,3.26,0,.02,0,.04,0,.07,0,21.32,1.43,42.85.92,64.21.82.27,0,.55,0,.82,0,31.23,1.37,62.64,1.01,93.9.82,5.2-.03,10.45.06,15.65,0,10.72-.12,21.43-.77,32.12-.82,2.03,0,5.02.66,6.59-.82.27.03.55-.02.82,0,1.01.07,1.05,0,1.65,0,5.55.03,10.96-.36,16.47-.82,8.78-.74,32.21-2.82,38.71-7.41,3.15-2.23,12.11-14.32,14.83-18.12,1.46-2.03,5.12-5.24,5.77-7.41,1.04-3.5-.86-3.76-2.63-6.85-5.37-9.4-13.69-17.7-20.44-26.1-2.24-2.79-4.25-5.48-6.59-8.24-.25-.29-.57-.53-.82-.82-7.03-8.22-13.68-16.27-21.42-23.89-3.18-3.5-6.84-8.03-10.71-10.71-.4-.28-.92-.48-1.39-.7-.17-.08-.31-.21-.42-.36-2.19-3.15-5.32-5.41-8.07-8-7.73-7.27-14.94-13.93-23.89-19.77-.3-.19-1.34.19-1.65,0,2.81-1.61,1.4-1.06,0-2.47-.14-.14-.67.14-.82,0-.29-.26-.53-.57-.82-.82-1.4-1.22-2.68-2.16-4.12-3.29-1.39-1.09-2.67-2.21-4.12-3.29-1.63-1.22-3.34-2.14-4.94-3.29-.85-.61-1.69-1.09-2.47-1.65-.38-.27-.88-1.09-1.65-1.65-1.11-.81-2.14-1.72-3.29-2.47h-.82c-.51-.44-.81-1.01-1.65-1.65-.7-.54-2.07-.53-2.47-.82-2.8-2.03-5.31-3.88-8.24-5.77-5.48-3.54-10.8-6.67-16.47-9.88-12.84-7.27-24.34-13.05-37.89-18.94-.51-.31-.93-.49-1.28-.57-2.03-.91-4.03-1.86-6.14-2.73-13.46-5.54-26.38-9.91-40.36-14-.81-.24-1.6-.58-2.47-.82-13.52-3.84-39.15-11.95-52.61-11.53-.07,0-.14,0-.21-.02C415.06.2,383.44.37,352.14,1.92c-4.95.24-9.88.39-14.83.82-3.29.29-6.6.44-9.88.82-4.74.55-9.58.46-13.79,3.15-.14.09-.31.15-.47.16-2.17.18-4.21.62-6.33.8-2.34.2-5.01-.68-7.14.64-.18.11-.38.18-.59.18-.72,0-1.43-.03-2.15,0-2.82.11-5.45.51-8.24.82-7.87.88-15.33,2.63-23.06,4.12-3.62.7-7.12,1.66-10.71,2.47-4.23.96-8.21,2.22-12.35,3.29-4.65,1.2-9.35,1.82-14,3.29-1.87.59-2.99.71-4.94,1.65-1.23-.2-2.23.55-3.29.82-1.1.29-2.18.52-3.29.82-8.86,2.43-17.66,5.3-26.36,8.24-8.09,2.73-15.9,6.24-23.89,9.06-3.47,1.22-7.76,3.19-10.71,4.12-.25.08-.57-.08-.82,0-1.81.55-3.35.49-4.94.82-.26.06-.56-.05-.82,0-1.84-.78-9.1-3.2-8.24,0-.24-.09-.58.08-.82,0-1.25-.42-1.91-.66-3.29-.82-2.41-.28-1.08-.57-4.01-.02-.07.01-.14.02-.21.02h-.96c-.53-.05-1.06-.11-1.41,0-.5.16-.72.41-.81.73-.13.49-.51.86-1.01.88s-1.01.07-1.48.04c-.27-.02-.55,0-.82,0-1.79-.03-4.33-1.6-6.59.82-.25-.02-.76-.05-.82,0-1.25,1.02.49.42-1.65,2.47h-.82c-.54-.03-1.11.05-1.65,0-1.05-.09-.27-.61-2.47,0-.26.07-.54.7-.82.82h-.41c-.16-.03-.32-.06-.42,0-1.31.88-2.59.21-2.47,2.47.03.47.01.94,0,1.41-.01.6-.51,1.08-1.11,1.08,0,0-.01,0-.02,0-.28,0-.54-.11-.73-.31-.7-.73-2.3-.74-3.08-.52-.58.16-1.83,1.2-2.47,1.65-.89.63-1.85,1.09-2.33,2.1-.12.26-.1.57.01.83.13.3.3.69.44,1.07.21.56-.07,1.19-.62,1.41-.83.33-1.49.26-1.62.36h-.82c-.99-2.2-1.93.28-2.47.82-.11.06-.23.19-.35.33-.17.16-.33.32-.48.49-.17.11-.34.29-.51.48-.12.11-.24.23-.32.35-.16.17-.36.34-.54.51-.12.1-.24.21-.28.31-.15.34-.82.39-.82,1.65,0,.28.3.81.54,1.36.27.61-.06,1.32-.7,1.5s-1.33.3-1.49.43c-.1.08-1.31-.08-2.47.82-.86.67-.98.77-1.65,1.65-.07.09-.03.25,0,.42v.41c-.14.27-1.54.64-1.64,1.26-.16.97,2.21,2.26.82,3.68-2.12,1.14-4.36,2.09-6.59,3.29-7.44,4-14,7-21.42,11.53-1.69,1.03-4.67,1.8-6.59,3.29l-8.79,5.6c-.22.14-.49.2-.75.16-.12-.02-.24-.03-.34.01-6.47,2.9-13.65,7.75-19.77,11.53-1.87,1.16-4.24,2.19-5.6,3.91-.11.14-.25.25-.41.32-2.6,1.15-3.11,1.48-5.51,3.18-.75.53-1.93.67-2.47,1.65-1.53.86-2.39,1.82-3.29,3.29-.81,1.32-.54,1.77-.82,2.47.03.02.41.02.46.3.49,2.98-.75,20.41,1.38,20.87M7.03,147.71,11.15,146.88" style="fill:none; stroke:#000; stroke-miterlimit:10; stroke-width:2px;"/></svg>