<?xml version="1.0" encoding="UTF-8"?><svg id="Layer_1" xmlns="http://www.w3.org/2000/svg" width="383.03" height="738.08" viewBox="0 0 383.03 738.08"><path d="M372.27,426.4c-.34-6.22-.94-12.31-.86-18.58.21-16.59,3.29-33.49,1.68-49.84-.3-3-1.34-5.69-.82-9.07.38-2.48,2.62-5.66,3.23-8.73,4.26-21.51,4.14-55.69,3.37-77.83-.13-3.73-.79-7.09-.82-10.72-.17-16.59,2.08-33.34,2.51-49.84.89-34.71-.5-68.32-4.98-102.66-1.51-11.61-3.32-31.84-7.42-42.04-.63-1.56-.28-1.71-1.65-3.3-3.15-3.66-11.68-7.81-16.27-9.7-18.24-7.5-39.49-13.26-58.35-19.96-18.71-6.65-42.35-17.82-60.75-22.53-1.33-.34-2.54-.72-3.95-.56-3.62.4-3.87,3.61-4.12,6.59-.11,1.36.09,2.76,0,4.13-1.91.57-3.49-.55-4.95-.83-2.67-.5-8.55-1.65-11.13-1.65h-30.5c-1.97,0-7.97.55-10.3.82-2.01.24-3.62,1.86-5.77,1.65-.2-5.33,1.01-11.94-6.8-10.53-17.65,6.51-35.22,13.31-52.95,19.61-22.1,7.86-47.68,14.85-68.85,23.89-3.93,1.68-12.86,6.16-15.66,9.07-1.48,1.53-1.95,3.77-2.47,5.77-.64,2.46-1.2,6.4-1.65,9.07-1.36,8.13-2.2,16.55-3.3,24.73-6.9,51.39-4.78,93.52-4.14,144.68.02,1.39-.53,3.66.84,4.52-.02,3.29.01,6.6,0,9.89-.87,3.01-.55,6.85-.82,9.89-1.64,18.13-.7,48.36,2.54,66.29.63,3.46,2.61,6.86,3.23,10.37-.12,1.35.15,2.78,0,4.12-.16,1.41-.71,2.45-.82,3.3-.43,3.1,1.33,3.35,1.61,6.26.17,1.8-.69.99-.78,1.16-.35-1.17-.3-4.01-1.64-4.12l.82,9.06c-.85,22.89,3.03,45.58,1.65,69.24-2.75,47.02-15.06,91.93-8.11,139.59,17.79,121.92,136.9,202.29,255.41,156.35,1.41-.55,2.77-1.08,4.12-1.65.64-.27,1.46-.39,2.47-.82,16.44-7.13,28.86-14.48,42.87-25.55,32.53-25.73,52.01-55.15,64.3-94.8,20.07-64.77,3.54-110.78,0-174.76Z" style="fill:none; stroke:#000; stroke-miterlimit:10; stroke-width:2px;"/></svg>