<svg width="292" height="199" viewBox="0 0 292 199" fill="none" xmlns="http://www.w3.org/2000/svg">
<path d="M5.22989 96.3512C4.95794 96.4657 4.71203 96.6339 4.50693 96.8461C4.29597 97.0259 4.12899 97.2518 4.01889 97.5062C4.01889 97.5062 16.8299 114.143 21.5049 114.143H209.178C210.768 112.773 212.288 111.324 213.732 109.801C215.609 107.608 217.257 105.229 218.65 102.701C218.741 102.154 202.985 78.0411 178.395 64.9151C153.805 51.7891 134.528 47.0911 112.154 48.0741" fill="#031F29"/>
<path d="M5.22989 96.3512C4.95794 96.4657 4.71203 96.6339 4.50693 96.8461C4.29597 97.0259 4.12899 97.2518 4.01889 97.5062C4.01889 97.5062 16.8299 114.143 21.5049 114.143H209.178C210.768 112.773 212.288 111.324 213.732 109.801C215.609 107.608 217.257 105.229 218.65 102.701C218.741 102.154 202.985 78.0411 178.395 64.9151C153.805 51.7891 134.528 47.0911 112.154 48.0741" stroke="#003B50" stroke-linejoin="round"/>
<path d="M53.2519 64.6642C51.0106 64.0488 48.6889 63.7766 46.3659 63.8571C37.0759 64.1731 29.1849 69.9941 25.3209 78.3041" fill="#031F29"/>
<path d="M53.2519 64.6642C51.0106 64.0488 48.6889 63.7766 46.3659 63.8571C37.0759 64.1731 29.1849 69.9941 25.3209 78.3041" stroke="#003B50" stroke-linejoin="round"/>
<path d="M95.8839 68.481C95.8979 68.481 96.0919 67.7629 96.1059 67.7629C97.1769 64.6439 99.9599 61.224 103.806 57.252C107.95 52.971 111.183 51.727 112.154 48.071C104.333 48.6047 96.5616 49.7046 88.8999 51.3621C79.6689 53.4363 70.5899 56.1368 61.7259 59.4451C61.7259 59.4451 61.3199 60.8949 55.9919 63.2629C51.7119 65.1629 1.34689 90.4031 1.34689 90.4031V92.3149C1.34689 92.3149 4.4469 97.156 8.5889 97.793C12.1339 98.337 16.2999 96.02 19.4579 94.623C21.5272 93.606 23.8156 93.1159 26.1199 93.196C28.4419 93.184 30.4909 96.196 30.6729 96.323L95.7269 69.3059" fill="#031F29"/>
<path d="M95.8839 68.481C95.8979 68.481 96.0919 67.7629 96.1059 67.7629C97.1769 64.6439 99.9599 61.224 103.806 57.252C107.95 52.971 111.183 51.727 112.154 48.071C104.333 48.6047 96.5616 49.7046 88.8999 51.3621C79.6689 53.4363 70.5899 56.1368 61.7259 59.4451C61.7259 59.4451 61.3199 60.8949 55.9919 63.2629C51.7119 65.1629 1.34689 90.4031 1.34689 90.4031V92.3149C1.34689 92.3149 4.4469 97.156 8.5889 97.793C12.1339 98.337 16.2999 96.02 19.4579 94.623C21.5272 93.606 23.8156 93.1159 26.1199 93.196C28.4419 93.184 30.4909 96.196 30.6729 96.323L95.7269 69.3059" stroke="#003B50" stroke-linejoin="round"/>
<path d="M12.1499 85C12.1499 85 33.3439 88.6719 59.8139 75.3779C86.2839 62.0839 97.9369 49.686 97.9369 49.686C97.9369 49.686 73.1429 54.5329 55.0429 63.8469C40.8809 71.1309 12.1499 85 12.1499 85Z" fill="#E10020"/>
<path d="M95.8839 68.481C95.8979 68.481 96.0919 67.7629 96.1059 67.7629C97.1769 64.6439 99.9599 61.224 103.806 57.252C107.95 52.971 111.183 51.727 112.154 48.071C104.333 48.6047 96.5616 49.7046 88.8999 51.3621C79.6689 53.4363 70.5899 56.1368 61.7259 59.4451C61.7259 59.4451 61.3199 60.8949 55.9919 63.2629C51.7119 65.1629 1.34689 90.4031 1.34689 90.4031V92.3149C1.34689 92.3149 4.4469 97.156 8.5889 97.793C12.1339 98.337 16.2999 96.02 19.4579 94.623C21.5272 93.606 23.8156 93.1159 26.1199 93.196C28.4419 93.184 30.4909 96.196 30.6729 96.323L95.7269 69.3059" stroke="#003B50" stroke-linejoin="round"/>
<path d="M30.6729 96.323C30.6729 96.323 66.4649 76.833 95.5949 68.562C103.793 66.2872 112.24 65.0275 120.745 64.811C148.796 64.811 169.47 83.299 173.978 105.157V107.251C156.441 107.716 57.0849 111.322 51.8939 111.322C43.3329 111.322 38.3819 108.059 30.6729 96.323Z" fill="#031F29" stroke="#003B50" stroke-linejoin="round"/>
<path d="M96.1059 67.7629L93.5139 81.0439L112.883 76.9839C112.883 76.9839 120.958 75.952 124.115 64.811" stroke="#003B50" stroke-linejoin="round"/>
<path d="M94.2939 68.938L91.8749 81.356L80.2179 84.8779C75.0569 85.8489 71.6179 86.188 64.6259 79.947" stroke="#003B50" stroke-linejoin="round"/>
<path d="M173.978 107.251C173.978 107.251 183.587 106.842 194.561 106.251C205.535 105.66 217.328 104.96 217.328 104.96" fill="#031F29"/>
<path d="M173.978 107.251C173.978 107.251 183.587 106.842 194.561 106.251C205.535 105.66 217.328 104.96 217.328 104.96" stroke="#003B50" stroke-linejoin="round"/>
<path d="M273.536 22.7731C256.728 23.5731 232.236 26.8811 207.586 18.0631C182.936 9.2451 152.401 0.929179 143.056 1.19518C133.711 1.46118 130.182 5.75519 122.614 8.25719C115.046 10.7592 109.901 9.77599 102.274 12.703C94.6469 15.63 80.9579 18.3551 75.8209 21.1031C70.6839 23.8511 53.0259 41.771 45.4099 48.733C37.7939 55.695 29.2099 64.7102 30.8859 68.5992C32.5619 72.4882 40.5549 78.999 56.2189 65.399C71.8829 51.799 63.6399 59.4651 73.1429 54.5321C82.6459 49.5991 84.9509 45.5621 84.9509 45.5621C84.9509 45.5621 90.0179 46.1622 98.3039 43.9872C106.59 41.8122 114.525 39.38 114.525 39.38C114.525 39.38 116.88 42.0581 124.425 43.9581C131.97 45.8581 136.396 47.3771 136.396 47.3771C136.396 47.3771 149.706 58.36 156.373 60.661" stroke="white" stroke-width="2" stroke-miterlimit="10" stroke-linecap="round"/>
<path d="M290.7 79.939C290.7 79.939 258.869 85.3771 245.258 90.5271C231.647 95.6771 194.904 95.702 173.6 93.45C152.296 91.198 132.352 95.779 114.238 99.238C96.1239 102.697 94.5859 97.4069 92.6449 92.8379C90.7039 88.2689 99.9009 71.5379 117.509 66.6909C135.117 61.8439 138.431 64.783 149.137 62.425C159.843 60.067 158.88 60.65 163.444 55.104" stroke="white" stroke-width="2" stroke-miterlimit="10" stroke-linecap="round"/>
<path d="M47.8886 149.524V151.562H36.3735V163.893H47.5829V165.931H36.3735V183.509H34.1316V149.524H47.8886ZM52.3215 162.721H54.3596V183.509H52.3215V162.721ZM53.3405 157.676C52.3215 157.676 51.5062 156.912 51.5062 155.791C51.5062 154.67 52.3215 153.906 53.3405 153.906C54.3596 153.906 55.1748 154.67 55.1748 155.791C55.1748 156.912 54.3596 157.676 53.3405 157.676ZM61.6759 183.509V162.721H63.714V165.982C64.6821 164.249 66.5673 162.262 70.083 162.262C73.8025 162.262 75.382 164.453 75.8406 165.166C76.7577 166.644 76.8596 168.58 76.8596 170.414V183.509H74.8216V170.414C74.8216 168.988 74.7706 167.408 74.0063 166.236C73.5478 165.472 72.4268 164.198 69.9302 164.198C67.0769 164.198 65.5992 165.727 64.835 167.102C63.9178 168.733 63.714 170.669 63.714 172.707V183.509H61.6759ZM101.336 162.721H103.374V182.898C103.374 190.744 99.4509 195.228 92.929 195.228C87.5281 195.228 82.9934 192.069 82.7386 186.311H84.8786C85.2353 190.642 88.4962 193.292 92.929 193.292C101.132 193.292 101.336 185.038 101.336 182.898V179.942C99.2471 182.847 96.088 184.07 93.1328 184.07C88.0376 184.07 82.8915 180.35 82.8915 173.115C82.8915 167.102 86.8657 162.262 93.3876 162.262C96.8014 162.262 99.5528 163.791 101.336 166.338V162.721ZM93.1838 164.198C88.0376 164.198 85.0315 168.427 85.0315 173.217C85.0315 178.21 88.1905 182.133 93.0819 182.133C98.228 182.133 101.438 178.108 101.438 173.013C101.438 168.172 98.279 164.198 93.1838 164.198ZM129.285 173.37H111.503C111.503 178.669 115.375 182.133 119.757 182.133C123.12 182.133 125.667 180.146 126.992 177.395L128.724 178.414C127.502 180.758 124.75 184.07 119.604 184.07C113.133 184.07 109.363 179.28 109.363 173.217C109.363 165.982 114.356 162.262 119.451 162.262C125.056 162.262 129.285 166.746 129.285 173.37ZM111.655 171.433H127.145C126.635 167.306 123.578 164.198 119.451 164.198C115.222 164.198 112.216 167.408 111.655 171.433ZM135.318 183.509V162.721H137.356V165.421C138.12 163.638 139.699 162.262 141.941 162.262C142.502 162.262 143.368 162.364 144.132 162.772L143.113 164.606C142.909 164.453 142.502 164.198 141.585 164.198C137.407 164.198 137.356 169.752 137.356 172.351V183.509H135.318ZM154.362 164.657H150.744V183.509H148.706V164.657H146.413V162.721H148.706V155.282H150.744V162.721H154.362V164.657ZM158.455 162.721H160.493V183.509H158.455V162.721ZM159.474 157.676C158.455 157.676 157.64 156.912 157.64 155.791C157.64 154.67 158.455 153.906 159.474 153.906C160.493 153.906 161.308 154.67 161.308 155.791C161.308 156.912 160.493 157.676 159.474 157.676ZM169.847 179.79V195.228H167.809V162.721H169.847V166.338C171.835 163.638 174.688 162.262 178 162.262C184.267 162.262 188.088 166.95 188.088 172.962C188.088 179.076 184.216 184.07 177.898 184.07C172.752 184.07 170.459 180.809 169.847 179.79ZM177.847 182.133C183.095 182.133 185.948 178.057 185.948 172.962C185.948 167.255 182.178 164.198 177.898 164.198C173.822 164.198 169.746 167.102 169.746 172.86C169.746 178.057 172.599 182.133 177.847 182.133Z" fill="#F7F7F7"/>
</svg>
