<svg width="76" height="56" viewBox="0 0 76 56" fill="none" xmlns="http://www.w3.org/2000/svg">
<path d="M25.8 32.473H23.8671C20.6361 32.479 17.4051 32.46 14.173 32.508C13.1403 32.5207 12.1112 32.6332 11.1001 32.844C9.34705 33.214 8.72103 34.007 8.58003 35.785C8.57403 35.861 8.56205 35.938 8.54305 36.105C8.31404 35.943 8.12804 35.831 7.96104 35.692C6.95009 34.8807 6.20776 33.783 5.83125 32.5427C5.45475 31.3024 5.46165 29.9773 5.85106 28.741C6.22613 27.0285 7.10907 25.4691 8.38451 24.2664C9.65995 23.0638 11.2685 22.2739 13 22C15.0911 21.5769 17.2207 21.3732 19.354 21.392C19.5253 21.4122 19.6979 21.3673 19.8376 21.2661C19.9773 21.165 20.0738 21.015 20.108 20.846C20.786 18.996 21.448 17.14 22.202 15.321C23.1633 12.9698 24.6443 10.8668 26.5341 9.16953C28.4239 7.4723 30.6735 6.22494 33.1141 5.52097C35.1663 4.8702 37.3092 4.55118 39.4621 4.57596C44.8571 4.56996 50.253 4.58297 55.65 4.53897C59.9007 4.57795 64.1457 4.22072 68.33 3.47195C70.0347 3.17968 71.6921 2.6583 73.257 1.92197C73.857 1.62197 74.421 1.25198 75.112 0.85498C74.821 1.92798 74.5971 2.94498 74.2691 3.92798C73.516 6.18029 72.3179 8.25823 70.7458 10.0383C69.1738 11.8184 67.26 13.2642 65.1181 14.29C61.7503 15.9501 58.1208 17.0154 54.3901 17.439C51.2269 17.7948 48.0433 17.9361 44.861 17.862C43.2101 17.7997 41.5623 18.0512 40.0051 18.603C39.3499 18.8267 38.7504 19.1883 38.2469 19.6634C37.7433 20.1385 37.3475 20.716 37.086 21.357H63.9C63.758 21.625 63.668 21.806 63.567 21.982C62.1738 24.435 60.2851 26.5711 58.0211 28.2542C55.7571 29.9372 53.1674 31.1305 50.417 31.758C48.4556 32.2522 46.4398 32.4975 44.417 32.488C40.734 32.488 37.05 32.495 33.3671 32.478C33.2116 32.4544 33.0529 32.4906 32.923 32.5793C32.7931 32.668 32.7017 32.8026 32.667 32.956C31.413 36.262 30.1464 39.562 28.8671 42.856C26.577 48.769 22.222 52.401 16.2551 54.242C12.7134 55.2817 9.02096 55.7129 5.33504 55.517C3.72504 55.458 2.11905 55.303 0.511047 55.191L0.485046 55.042C0.585046 54.985 0.672042 54.922 0.771042 54.872C1.74904 54.372 2.75104 53.92 3.70204 53.372C6.80631 51.5424 9.23556 48.7578 10.6271 45.434C11.7071 43.04 12.58 40.552 13.539 38.104C13.839 37.337 14.139 36.571 14.412 35.792C14.4395 35.6527 14.5196 35.5294 14.6356 35.4477C14.7516 35.3659 14.8947 35.332 15.035 35.353C16.7644 35.373 18.4927 35.373 20.22 35.353C21.4669 35.369 22.7057 35.1523 23.873 34.714C24.3681 34.5517 24.8093 34.2571 25.149 33.8621C25.4886 33.4671 25.7138 32.9867 25.8 32.473ZM12.042 27.829C12.612 27.8259 13.1622 27.62 13.5943 27.2482C14.0263 26.8765 14.3119 26.3631 14.4 25.8C14.4194 25.7397 14.4256 25.6761 14.4182 25.6133C14.4107 25.5505 14.3898 25.49 14.3569 25.436C14.324 25.382 14.2798 25.3357 14.2273 25.3003C14.1749 25.2649 14.1155 25.2413 14.0531 25.231C13.5153 25.0397 12.9258 25.0536 12.3976 25.2698C11.8693 25.486 11.4394 25.8895 11.19 26.403C10.675 27.51 10.8 27.726 12.042 27.829Z" fill="white"/>
</svg>
