<svg width="400" height="71" viewBox="0 0 400 71" fill="none" xmlns="http://www.w3.org/2000/svg">
<path d="M87.1953 20.8313V35.9598C87.1953 38.0312 87.1953 40.2875 89.1558 41.952C90.1545 42.8027 91.856 43.3576 93.2245 43.3576C94.5931 43.3576 96.2946 42.8027 97.2933 41.952C99.2538 40.2875 99.2538 38.0312 99.2538 35.9598V20.8313H101.991V36.6995C101.991 38.7709 101.769 40.7683 100.437 42.6178C98.9578 44.6522 96.3686 45.9468 93.2245 45.9468C90.0805 45.9468 87.4913 44.6522 86.0117 42.6178C84.6801 40.7683 84.4582 38.7709 84.4582 36.6995V20.8313H87.1953ZM108.371 20.8313H111.108V42.9137H117.914V45.5029H108.371V20.8313ZM118.965 45.5029L126.251 32.7417L119.63 20.8313H122.737L127.842 30.1155L133.094 20.8313H136.201L129.432 32.7417L136.571 45.5029H133.464L127.805 35.3679L122.072 45.5029H118.965ZM137.086 50.3855V48.0182H155.58V50.3855H137.086ZM158.761 20.8313H161.498V42.9137H168.304V45.5029H158.761V20.8313ZM172.018 20.8313H174.755V45.5029H172.018V20.8313ZM192.624 45.9468C185.486 45.9468 179.789 40.5094 179.789 33.1856C179.789 25.8248 185.523 20.4244 192.624 20.4244C199.726 20.4244 205.46 25.8248 205.46 33.1856C205.46 40.5094 199.763 45.9468 192.624 45.9468ZM192.624 23.0136C187.076 23.0136 182.6 27.5263 182.6 33.1856C182.6 38.8449 187.076 43.3576 192.624 43.3576C198.173 43.3576 202.648 38.8449 202.648 33.1856C202.648 27.5263 198.173 23.0136 192.624 23.0136ZM213.225 45.5029H210.488V19.7956L229.722 39.9546V20.8313H232.46V46.6126L213.225 26.4536V45.5029ZM237.994 44.0234C237.994 43.0247 238.845 42.1739 239.843 42.1739C240.842 42.1739 241.693 43.0247 241.693 44.0234C241.693 45.0221 240.842 45.8728 239.843 45.8728C238.845 45.8728 237.994 45.0221 237.994 44.0234ZM260.429 24.2712L258.247 25.7138C257.914 25.048 257.359 24.3082 256.804 23.8644C256.323 23.4945 255.436 23.0136 254.03 23.0136C251.589 23.0136 249.887 24.5302 249.887 26.8235C249.887 27.7852 250.146 28.34 250.812 28.9688C251.552 29.7086 252.477 30.1155 253.401 30.5224L255.769 31.5581C257.211 32.1869 258.543 32.8527 259.579 33.8884C260.836 35.146 261.354 36.5886 261.354 38.3641C261.354 42.9137 257.988 45.9468 253.549 45.9468C251.922 45.9468 249.887 45.6139 248.186 43.9494C246.965 42.7657 246.225 41.0642 245.893 39.5847L248.556 38.8449C248.741 40.1395 249.333 41.2492 250.035 41.989C251.108 43.0617 252.329 43.3576 253.586 43.3576C256.952 43.3576 258.543 40.9533 258.543 38.475C258.543 37.3653 258.21 36.4036 257.322 35.5899C256.619 34.9241 255.658 34.4802 254.363 33.8884L252.144 32.8527C251.182 32.4088 249.961 31.891 248.852 30.8183C247.779 29.7826 247.15 28.6359 247.15 26.7865C247.15 22.9766 250.072 20.4244 254.067 20.4244C255.584 20.4244 256.804 20.7203 258.025 21.5341C259.024 22.1999 259.874 23.1986 260.429 24.2712ZM276.874 23.4205H270.882V45.5029H268.145V23.4205H262.152V20.8313H276.874V23.4205ZM280.565 20.8313H283.302V42.9137H290.108V45.5029H280.565V20.8313Z" fill="white"/>
<path d="M387.387 1.29688H13.2852C6.65774 1.29688 1.28516 6.66946 1.28516 13.2969V58.1049C1.28516 64.7323 6.65774 70.1049 13.2852 70.1049H387.387C394.015 70.1049 399.387 64.7323 399.387 58.1049V13.2969C399.387 6.66946 394.015 1.29688 387.387 1.29688Z" stroke="white" stroke-miterlimit="10"/>
<path d="M62.1001 47.4048H24.6261V35.2158H28.0521V43.979H58.6741V35.2158H62.1001V47.4048Z" fill="white"/>
<path d="M43.3661 38.979L50.5032 29.3638H36.2301L43.3661 38.979Z" fill="white"/>
<path d="M45.1182 18.9941H41.6132V34.7881H45.1182V18.9941Z" fill="white"/>
</svg>
