<?xml version="1.0" encoding="UTF-8"?><svg id="Layer_1" xmlns="http://www.w3.org/2000/svg" width="683.08" height="235.28" viewBox="0 0 683.08 235.28"><path d="M678.39,151.54c5.1-.17,3.64-4.84,2.98-8.92-3.8-23.26-32.8-57.15-51.03-71.69-1.88-1.5-3-2.75-5.17-4.13-.64-.41-.43-.82-2.07-1.55-10.16-7.77-22.08-16.65-33.59-22.22-.14-.07-.37.07-.52,0-.42-.86-1.23-1.24-2.07-1.55-.15-.06-.36.05-.52,0-.12-.19-.3-.46-.52-.52-.16-.04-.35.03-.52,0-.17-.15-.32-.4-.52-.52-.66-.39-1.4-.65-2.07-1.03-19.27-11.09-44.14-20.08-65.62-25.84-.16-.04-.36.04-.52,0l-.37-.12c-.32-.12-.71-.27-1.18-.39-.16-.04-.35.04-.52,0l-.31-.1c-.31-.12-.73-.29-1.24-.41-.16-.04-.35.04-.52,0-.26-.06-.83-.35-1.55-.52-.46-.1-1.09.1-1.55,0-.06-.01-.3-.37-1.03-.52-.32-.07-.72.06-1.03,0-.06-.01-.41-.39-1.03-.52-1.04-.2-2.08-.32-3.1-.52-.19-.52-.65-.39-1.03-.52-.16-.05-.36.05-.52,0-1.67-.54-2.18-.88-4.13-1.03-.17-.01-.35,0-.52,0-.36-.67-1.05-.39-1.55-.52-5.67-1.44-11.28-2.22-17.05-3.1-.04,0-.11-.02-.19-.03-2.72-.41-5.36-.66-8.08-1.01-.91-.12-1.92-.38-3.1-.52-78.88-9.15-160.36,5.19-234.09,32.29-7.68,2.82-51.69,20.96-55.28,20.94-.17,0-.35.02-.52,0-.24-.4-.67-.37-1.03-.52-5.45-2.21-3.62.31-6.87.47-4.95.23-7.05-4.83-12.94-3.48-.8.18-1.02,1.82-1.71,1.92-3.93.6-14.23-1.43-16.35-.34-1.94.99-.56,2.21-1.38,2.7-3.79,2.27-8.54,2.08-11.35,3.12-1.23.46-8.84,8.1-11.63,9.62-1.72.94-2.38-.38-4.18.42-3.34,1.48-1.52,4.72-2.04,5.7-3.07,5.77-6.84,6.1-9.58,13.98l-3.94,7.68c-26.19,14.42-52.77,28.27-78.56,43.39-1.95,1.14-13.58,7.42-14.11,8.11-1.08,1.42-.02,1.21-.01,1.28.51,6.04,9.25,23.24,17.05,23.25h.52c-.04.18.06.4,0,.52-1.57,3.09-4.7,1.22-3.1,5.68,1.2,3.37,8.3,11.4,4.65,12.14,3.87,6.23,6.69,13.07,10.33,19.38,2.45,4.25,2.81,7.33,7.23,10.33,1.56,1.06,1.68.89,3.1,1.55,2,.93,4.13,1.39,6.2,2.07.87.28,1.38.33,2.07.52,2.73.76,4.84,1.61,7.75,2.07,6.09.96,11.05.93,17.05,1.55l.14.03c.35.1,1.29.39,1.93.48,1.52.23,2.5.44,4.13.52.68.88,2.13.5,3.1.52.34,0,.69,0,1.03,0,.16,0,.33.01.49.02.54.04,1.25.1,1.91.08,17.25.79,34.29,2.84,51.61,2.5,3.31-.07,8.07-1.56,10.8-1.6,57.61-.8,115.29,1.09,172.88-.49,1.38.01,2.76,0,4.13,0,32.88.16,65.83.31,98.7-.52,24.98-.06,49.95-.23,74.93-.52,5.47-.06,11.13.48,16.54-.52,2.75,0,5.52-.04,8.27,0,7.56.11,16.17,1.11,23.25,1.03,11.68,0,24.62.12,36.17-1.55l.34-.04c.87-.1,2.06-.19,2.99-.39l18.98-2.48c4.63-.42,9.18-.95,13.35-1.74,1-.19,2.21-.82,3.1-1.03,4.13-.98,4.71-.44,8.74-2.89,5.58-3.4,34.63-27.87,38.8-32.77,3.37-3.95,12.6-32.15,11.22-35.94-.34-.94-2.4-.82-3.47-1.26Z" style="fill:none; stroke:#000; stroke-miterlimit:10; stroke-width:2px;"/></svg>