<?xml version="1.0" encoding="UTF-8"?><svg id="Layer_1" xmlns="http://www.w3.org/2000/svg" width="725.82" height="226.87" viewBox="0 0 725.82 226.87"><path d="M723.13,190.14c-19.17-34.7-45-68.13-78.98-95.91-8.66-7.25-15.78-15.7-26.33-20.69-.95-2.67-2.07-2.38-3.76-3.76-5.74-4.68-12.61-7.46-18.81-11.28-35.39-21.84-61.12-32.83-101.55-43.25-71.79-20.43-128.37-16.32-199.34-3.76-33.75,5.54-70.55,3.96-95.91,26.33-.64.07-1.37-.16-1.88,0-.8.25-1.45,1.16-1.88,1.88-.63,0-1.25,0-1.88,0-.12-1.16-.85-1.59-1.88-1.88-1.03-.29-2.59.19-3.76,0-.12-.05.46-1.12-1.88-1.88-.56-.18-1.29.15-1.88,0-1.66-.44-2.87-1.44-5.64-1.88-.92-.15-2.71-1.53-5.64-1.88-1.22-.15-2.52.08-3.76,0-1.18-.08-2.38-.03-3.57,0h-2.07c-4.35-.18-8.81-.07-13.16,0-1.87.03-3.77-.1-5.64,0-2.11.12-4.52-.5-5.64,1.88-1-.13-2.85-.19-3.76,0-.61.13-1.32,1.71-1.88,1.88h-2.06c-.6-.06-1.2-.11-1.7,0-.8.18-1.5,1.15-1.88,1.88-.39-.16-1.41-.05-1.88,0-.35.03-1.32,1.35-1.88,1.88h-1.88c-.68.58-1.26,1.24-1.88,1.88-1.68-.04-2.58.91-3.76,1.88-.68.56-1.23,1.29-1.88,1.88h-1.88c-.73.51-1.23,1.3-1.88,1.88-.66.58-1.24,1.27-1.88,1.88-.64.61-1.24,1.26-1.88,1.88l-1.88,1.88c-.63.61-1.32,1.21-1.88,1.88-.56.66-1.39,1.18-1.88,1.88-.48.69-1.52,1.22-1.88,1.88-.38.69-1.65,1.27-1.88,1.88-.19.5-1.61,1.1-1.88,1.88-.19.55.16,1.29,0,1.88-1.15,1.25-2.35,1.24-3.76,3.76-.24.42.19,1.25,0,1.88l-1.88,1.88v1.88c-.32.57-1.59,1.1-1.88,1.88-1.39,13.71-12.89,12.07-24.45,13.16-11.04,8.68-20.49,17.26-30.09,26.33-.63.53-2.46.72-3.76,1.88-.66.59-1.23,1.28-1.88,1.88-1.35,1.25-2.49,2.56-3.76,3.76-.64.61-1.24,1.27-1.88,1.88-.64.61-1.24,1.27-1.88,1.88-.67.54-1.26,1.27-1.88,1.88-.6.59-1.39,1.21-1.88,1.88-.38.39-.77.77-1.15,1.15-.29.25-.56.49-.73.73-.62.63-1.26,1.25-1.88,1.88-.62.63-1.26,1.25-1.88,1.88-.67.57-1.24,1.27-1.88,1.88-.64.61-1.25,1.25-1.88,1.88-.61.64-1.3,1.21-1.88,1.88-.56.64-1.5,1.03-1.88,1.88v1.88h-1.88v5.64h3.76c1.24,0,2.53-.09,3.76,0,1.85.14,3.81-.23,5.64,0,2.51.31,7.06,3.69,11.28,1.88v1.88c-2.55,1.54-3.14,3.37-3.76,3.76-.61.38-1.36,1.29-1.88,1.88-1.09,1.22-2.6,1.5-3.76,3.76-1.02,1.97-3.19.26,0,3.76.6.66,1.21,1.3,1.88,1.88-2.41.5-10.8,1.57-11.28,1.89-1.8,1.2,1.83,5.34,1.88,5.63.1.66-.17,1.4,0,1.88.22.62,1.57,1.22,1.88,1.88,1.08,2.3,2.43,5.57,3.76,7.52.49.72,1.39,1.19,1.88,1.88,3.92,6.84,9.02,21.91,15.04,26.33,3.81,2.8,4.93,1.16,7.52,1.88,1.74.48,2.67,1.45,5.64,1.88,4.48.64,10.25-.21,15.04,0,1.99,3.05,6.37,1.8,9.4,1.88,1.77.05,3.97.25,5.64,0,1.1.78,2.41,1.69,3.76,1.88v1.88h35.73v-5.64c52-.04,104.09.05,156.09,0,2.51,0,5.01,0,7.52,0h20.69c1.88,0,3.76,0,5.64,0,3.13,0,6.27,0,9.4,0h75.22c3.76.03,7.52-.03,11.28,0,.63,0,1.25,0,1.88,0h11.28c.63,0,1.25,0,1.88,0,6.88.07,13.81-.08,20.69,0,23.78.27,47.69-.47,71.46,0,.21,0,.93,3.74,1.88,3.76v1.88h114.71v-1.88c4.64-.03,11.45,1.5,15.04-1.88,20.54-1.39,41.49-6.32,60.18-11.28,3.99-4.38,33.41-13.49,24.45-20.69Z" style="fill:none; stroke:#000; stroke-miterlimit:10; stroke-width:2px;"/></svg>