<?xml version="1.0" encoding="UTF-8"?><svg id="Layer_1" xmlns="http://www.w3.org/2000/svg" width="375.39" height="725.32" viewBox="0 0 375.39 725.32"><path d="M372.26,173.83c-.2-5.03-2-8.71-2.13-10.67v-2.99c.04-1.14.08-2.29,0-3.41-.45-6.05,2.08-14.28-2.13-19.2v-2.13c0-1.42.03-2.85,0-4.27l-2.13-10.67c-.06-.71.07-1.43,0-2.13-.63-6.57-.94-12.66-2.13-19.2-2.17-11.91-7.59-53.16-22.4-55.42-3.58-.55.79,10.77-5.33,6.35-.12-.75.22-1.63,0-2.13-1.6-3.73,1.47-3.4-4.27-8.53h-2.13c-.48-.78-1.25-1.92-2.13-2.13-.65-.16-1.44.08-2.13,0-1.94-1.21-2.96-1.43-4.27-2.13-1.47-.79-2.76-1.42-4.27-2.13-.3-.14-.69-.07-1.09,0h-1.05c-5.18-2.38-9.52-4.45-14.94-6.4-.63-.23-1.5.22-2.13,0-4.34-1.53-8.52-2.8-12.8-4.27-2.44-.84-5.14-3.58-8.53-4.27-1.3-.27-2.91.18-4.27,0-2.3-1.07-4.95-3.5-8.53-4.27-1.29-.28-2.91.19-4.27,0-.21-.11-.48-3.37-4.27-2.13h-2.13c-.61-.36.49-1.64-4.27-2.13-1.4-.14-2.86.1-4.27,0-.14-.06.78-1.27-2.13-2.13-.61-.18-1.41-.09-2.2,0h-2.06c-1.88-.51-3.2-1.55-6.4-2.13-.77-.14-1.62-.06-2.47,0h-1.79c-.81-.11-2.66-1.85-6.4-2.13h-8.53V1h-44.81v2.13c-2.11-.05-4.29-.11-6.4,0-2.68.14-4.34.69-5.68,1.21-.25-.41-1.01-.33-2.85.93-1.36.22-2.9-.2-4.27,0-2.29.33-5.08-.73-6.4,2.13h-.88c-.46-.07-.92-.16-1.25,0-1.55.76-2.72,1.21-4.27,2.13-1.34.2-3.03-.29-4.27,0-3.78.89-7.17,2.75-10.67,4.27-1.29.26-3.34-.39-4.27,0-.9.38-1.42,1.55-2.13,2.13-1.38.15-2.91-.22-4.27,0-7.49,1.22-9.97,4.46-14.94,6.4-1.34.2-3.03-.3-4.27,0-3.04.73-6.15,2.18-8.53,4.27-.63.23-1.51-.24-2.13,0-8.85,3.36-19.82,5.8-27.74,10.67-4.28,2.63-7.7,1.7-8.53,8.53-.17,1.39.11,2.87,0,4.27-.68-.1-1.43.02-2.13,0-.71-.02-1.43-.03-2.13,0l-.03-.06c-.07-.53.83-4.63-2.1-4.21-3.56.52-4.35,4.52-6.4,6.4-.7.65-1.58,1.37-2.13,2.13-5,6.82-3.96,3.89-6.4,12.8-.19.68-.08,1.58,0,2.47v1.8c-.08.46-1.76,1.98-2.13,4.27-.22,1.36.15,2.88,0,4.27-3.1,8.77-3.16,12.55-4.27,21.34-.09.7.07,1.43,0,2.13-3.21,1.76-1.97,5.63-2.13,8.53-.12,2.12.08,4.27,0,6.4-3.45,2.26-2.06,7.23-2.13,10.67-.02.71.01,1.42,0,2.13-.03,1.42.03,2.85,0,4.27-3.62,2.8-2.08,8.8-2.13,12.8-.05,3.53-.17,7.15,0,10.67-3.98,7.76-2.11,19.06-2.13,27.74-.03,14.2.02,28.48,0,42.67-.34,4.82-1.45,8.38-2.13,12.8-.13.84-.05,1.74,0,2.63v1.64c-1.94.81-1.96,2.52-2.13,4.27H1v29.87h2.13c.11,2.91-1.04,6.78,2.13,8.53,0,.71-.04,1.43,0,2.13.54,9.74,4,14.96,6.4,23.47v1.15c-.04.34-.08.68,0,.99.39,1.6,2.1,1.99,2.13,2.13v2.13c.15.68-.2,1.49,0,2.13.28.91,1.32,1.65,2.13,2.13.3,1.23-.2,2.93,0,4.27.28,5.65-.07,11.41,0,17.07.03,2.13.07,4.28,0,6.4-.79,1.84-.67,2.72-.21,3.2-.54,6.06-1.86,13.14-1.92,20.27-.02,2.84-.05,5.69,0,8.53.06,3.44-1.3,8.42,2.13,10.67.04,1.41-.13,2.87,0,4.27.06.71-.06,1.43,0,2.13.38,4.17,2.12,6.06,2.13,6.4.07,1.41-.02,2.85,0,4.27.01.71,0,1.42,0,2.13.07,21.6-3.97,42.61-4.27,64.01-.1,7.1.12,14.24,0,21.34-.16,9.89-.28,19.99,0,29.87.02.71-.02,1.42,0,2.13.07,2.13-.09,4.27,0,6.4.52,11.66.39,18.43,4.27,29.87.09,1.41-.13,2.87,0,4.27.74,7.86,4.1,14.08,6.4,21.34v.99c-.06.41-.13.82,0,1.14.56,1.35-.07,3.48,2.13,4.27,0,.71,0,1.42,0,2.13-.02,1.87,1.96,3.46,2.13,4.27.9,4.18,1.53,3.17,2.13,4.27v1.06c-.08.42-.17.84,0,1.07,1.3,1.82,1.85,1.83,2.13,2.13.46,3.97,2.53,7.22,4.27,10.67,1.39,2.76,3.2,4.47,4.27,6.4v1.05c-.08.41-.16.81,0,1.08.47.8,1.65,1.36,2.13,2.13,2.33,3.71,3.38,6.73,6.4,10.67,1.63,2.12,2.81,2.77,4.27,4.27v2.13c.55.84,1.53,1.37,2.13,2.13.61.78,1.46,1.4,2.13,2.13,2.18,2.38,4.22,4.19,6.4,6.4.71.72,1.43,1.41,2.13,2.13.7.72,1.43,1.42,2.13,2.13s1.41,1.43,2.13,2.13c.72.7,1.4,1.45,2.13,2.13.77.75,1.94,2,2.9,2.98.1.1.2.21.31.31.43.43.81.79,1.05.98,2.01,1.75,3.28,3.95,6.4,6.4.77.61,1.35,1.54,2.13,2.13.45.34,1.68-.34,2.13,0,3.59,2.66,5.43,5.18,10.67,8.53,2.2,1.41,4.03,2.9,6.4,4.27,3.43,1.98,7.4,4.85,10.67,6.4.29.14.69.07,1.08,0h1.05c2.78,1.27,5.42,3.12,8.53,4.27.62.23,1.5-.22,2.13,0,2.43.82,5.12,3.53,8.53,4.27.67.15,1.44-.1,2.13,0,.79,2.03,2.56,1.81,4.27,2.13,1.32.25,2.98-.29,4.27,0,.88.2,2.43,1.74,4.27,2.13.74.16,1.59.07,2.44,0h1.83c.88.14,2.49,1.82,6.4,2.13,1.39.11,2.86,0,4.27,0,2.46,2.64,5.45,1.87,8.53,2.13v2.13h27.74v-2.13c2.72-.25,7.88,1.54,8.53-2.13,1.4-.11,2.88.17,4.27,0,3.41-.41,4.92-1.82,6.4-2.13,1.3-.27,2.93.22,4.27,0,1.72-.29,3.47-.13,4.27-2.13h1.66c.92.07,1.84.18,2.6,0,2.03-.48,3.13-1.74,4.27-2.13,2.61-.91,6.33-1.07,8.53-2.13,2.69-1.3,2.02-2.04,2.13-2.13h2.13c2.73-.27,4.73-3.48,6.4-4.27.58-.28,1.56.28,2.13,0,1.47-.71,2.83-1.41,4.27-2.13,1.42-.72,2.85-1.41,4.27-2.13,4.53-2.32,10.18-3.64,12.8-8.53.6-.25,1.51.24,2.13,0,.76-.29,1.4-1.64,2.13-2.13,2.32-1.57,2.68-2.41,4.27-4.27,1.33-.82,3-1.24,4.27-2.13.8-.56,1.37-1.51,2.13-2.13,3.97-3.24,5.51-5.63,8.53-8.53,5.43-5.21,9.95-9.01,14.94-14.94.64-.76,1.5-1.35,2.13-2.13.35-.43-.35-1.7,0-2.13,1.76-1.59,2.68-2.34,4.27-4.27.62-.76,1.54-1.33,2.13-2.13v-2.13c.5-.71,1.55-1.27,2.13-2.13.17-.25.08-.66,0-1.08v-1.06c.52-.77,1.62-1.33,2.13-2.13.5-.78,1.64-1.34,2.13-2.13.4-.66,1.6-1.23,2.13-2.13.31-.53-.31-1.6,0-2.13l2.13-2.13v-2.13c1.05-1.91,2.87-3.6,4.27-6.4.14-.29.07-.68,0-1.08v-1.05c.83-1.72,3.01-3.46,4.27-6.4.26-.6-.25-1.53,0-2.13l.62-.62c.56-.43,1.31-.92,1.51-1.51,1.16-3.42,1.78-7.07,2.13-10.67,2.17-1.39,1.97-1.99,2.13-2.13.17-.15.06-.7,0-1.26v-.87c3.02-3.49,3.31-8.49,4.27-12.8.28-1.29-.3-2.99,0-4.27.36-1.57,1.55-3.45,2.13-6.4.14-.68-.12-1.44,0-2.13.82-4.65,1.62-7.73,2.13-12.8.47-4.68,1.78-8.96,2.13-14.94.25-4.24-.15-8.55,0-12.8.5-14.12.06-28.53,0-42.67-.03-6.61,1.81-15.82-2.13-21.34v-8.53c.4-4.22,1.27-11.83-2.13-14.94,0-2.13.01-4.27,0-6.4-.03-5.37-2.12-11.03-2.13-12.8-.1-14.91-.04-29.9,0-44.81.01-4.27-.05-8.54,0-12.8,3.62-2.8,2.08-8.8,2.13-12.8.04-2.82.17-5.73,0-8.53,3.19-1.76,2.01-5.62,2.13-8.53.12-2.84-.08-5.7,0-8.53,1.17-5.29,1.96-6.38,2.13-12.8.06-2.13.01-4.27,0-6.4,3.44-2.25,2.07-7.23,2.13-10.67.07-3.55-.03-7.11,0-10.67,3.62-2.8,2.09-8.8,2.13-12.8.06-4.96.11-9.98,0-14.94,2.55-2.52,1.99-5.39,2.13-8.53.1-2.12-.04-4.27,0-6.4h2.13v-68.28h-2.13Z" style="fill:none; stroke:#000; stroke-miterlimit:10; stroke-width:2px;"/></svg>