<?xml version="1.0" encoding="UTF-8"?><svg id="Layer_1" xmlns="http://www.w3.org/2000/svg" width="370.37" height="682.45" viewBox="0 0 370.37 682.45"><path d="M368.54,376.82c-.11-5.63-1.66-13.14-1.66-18.63v-19.87c0-4.21-1.32-10.93-1.66-15.31-.14-1.86-2.39-5.49-2.48-6.62-.37-4.56,1.1-10.73.83-14.07,2.34-1.96,1.76-5.61,1.66-8.28-.41-10.83.25-47.52-3.31-54.64-.65-1.3-.5-2.72-2.48-3.31-.58-8.85-1.56-17.68-2.48-26.49-.08-9.15-.82-18.33-2.48-27.32-.55-5.78-1.13-11.63-1.66-17.38l-1.66-16.56c-.03-.27.03-.55,0-.83-.73-7.86-4.01-25-3.31-31.46l-1.66-5.79c-.1-.81.1-1.68,0-2.48-.14-1.12-.4-2.17-.61-3.03l-.22-1.11c-.11-.8.11-1.68,0-2.48-.15-1.09-.5-2.12-.7-2.79l-.13-.53c-.08-.53.08-1.12,0-1.66-.15-1.04-.38-2-.57-2.86l-.26-1.28c-.08-.53.09-1.13,0-1.66-.25-1.49-.55-2.73-.83-4.14-.1-.51.11-1.15,0-1.66-.19-.89-.41-1.68-.62-2.48l-.21-.83c-.17-.72.18-1.8,0-2.48l-.11-.45c-.22-.91-.31-1.63-.71-2.86-.33-1.01-.23-1.99-.83-3.31-.43-.95-1.17-1.24-1.52-1.52l-.14-.14c-.32-.48-.25-1.87-.83-2.48-2.24-3.27-5.4-5.64-8.28-8.28-1.97-1.81-3.03-2.57-4.97-4.14-.3-.24-.52-.59-.83-.83-2-1.58-3.42-2.18-4.97-3.31-1.14-.83-2.07-1.62-3.31-2.48-1.75-1.21-2.85-1.64-4.14-2.48-1.52-.99-2.68-1.6-4.14-2.48-.72-.43-1.38-1.01-2.48-1.66-.3-.18-.52-.65-.83-.83-.83-.47-1.9-.51-2.48-.83-.29-.16-.52-.66-.83-.83-1.15-.62-2.18-1.08-3.31-1.66-1.13-.57-2.15-1.1-3.31-1.66-1.12-.54-2.11-1.11-3.31-1.66-2.22-1.01-3.45-1.57-5.79-2.48-1.5-.58-2.35-1.86-4.97-2.48-.82-1.34-2.22-1.19-3.31-1.66-1.39-.59-2.78-1.08-4.14-1.66-.55-.23-1.07-.58-1.66-.83-.97-.41-1.82-.56-2.48-.83-1.56-.64-2.36-1.04-4.14-1.66-1.28-.44-2.02-1.06-4.14-1.66-.98-.27-1.29-1.53-4.14-1.66-1.06-1.34-2.78-1.13-4.14-1.66-1.39-.53-2.7-1.13-4.14-1.66-1.68-.62-3.35-1.07-4.97-1.66-.84-.31-1.67-.54-2.48-.83-1.3-.47-2.27-1.06-4.14-1.66-.83-.27-1.62-.56-2.48-.83-1.64-.5-2.92-1.12-4.97-1.66-2.32-.61-4.2-2.47-7.45-2.48-1.41-1.41-3.17-1.35-4.97-1.66-2.2-.82-11.77-4.53-13.24-4.14-.28.07-.77-.1-.83,0-.03.05-.05.15-.08.28-2.33,7.82-.71,15.72-.75,23.73-.02,3.43,1.48,11.36-2.48,9.93-.73.17-1.14-.62-1.66-.83-1.5-.61-1.31-.79-3.31-.83-.05,0-.1,0-.17,0-5.8.42-12.38-.62-18.04,0-.23.02-.59.78-.83.83-.51.1-1.19-.12-1.66,0-1.07.28-2.07,1.03-3.31.83.21-4.06-.81-11.64-.83-16.56-.03-6.06.02-12.15,0-18.21h-1.66v.83c-.99-.54-19,5.38-21.52,6.62-.92.07-1.97-.24-2.48.83-3.37.59-7.01,1.47-9.93,3.31-.67.1-1.36.05-1.66.83-1.74.03-3.68.36-4.97,1.66-1.56.29-3.13-.02-4.14,1.66-1.32.16-1.85.68-2.48.83-2.47.57-2.62,1.07-4.14,1.66-1.18.45-3.2-.15-4.14,1.66-1.38.15-1.78.64-2.48.83-3.18.82-3.74,1.7-5.79,2.48-1.44.55-2.74,1.1-4.14,1.66-1.71.68-4.38.29-5.79,2.48-2.78.4-2.92,1.26-4.14,1.66-.66.21-1.13.62-1.66.83-.59.24-1.11.6-1.66.83-1.65.69-4.4.28-5.79,2.48-.8.18-1.25.7-1.66.83-.65.21-1.12.62-1.66.83-1.53.61-2.21,1.14-3.31,1.66-2.1.97-3.01,1.91-4.14,2.48-1.13.58-2.15,1.02-3.31,1.66-.54.29-1.11.52-1.66.83-1.98,1.12-3.85,2.09-5.79,3.31-.87.55-1.64,1.1-2.48,1.66-1.7,1.13-3.3,2.11-4.97,3.31-.8.58-1.23,1.33-1.66,1.66-2.05,1.55-3.27,1.9-5.79,4.14-.29.26-.54.56-.83.83-2.15,1.98-4.38,2.27-6.62,5.79-.88-.31-2.73,2.68-3.31,3.31-5.56,6.08-4.2,7.93-5.79,14.9-.98,4.28-1.76,8.92-2.48,13.24-3.73,22.25-5.38,45.39-7.45,67.88-.04.27.03.55,0,.83-1.84,5.6-1.38,11.62-1.66,17.38l-2.48,28.15c-.96,9.09-1.89,18.19-2.48,27.32-.29.86-3.23,2.55-4.16,7.02-2.31,11.2-1.74,39.92-1.64,52.58.03,3.43,1.65,6.28,1.66,6.62.31,10.31-.91,12.32-1.66,20.7-.52,5.85-1.66,13.75-1.66,19.45v17.38c0,6.52-1.64,13.72-1.66,20.28h-.83v11.59h.83c.84,2.67,3.16,4.34,5.79,4.97,2.04,51.13,6.66,117.7,27.32,164.73.22.51.04,1.31.83,1.66.03.27-.05.57,0,.83,1.56,7.47,7.41,17.74,10.76,24.83,1.63,3.45,3.2,6.56,4.97,9.93.94,1.79,1.79,2.89,2.48,4.14.85,1.53,1.36,3.07,2.48,4.97.42.72.12,2.16,1.66,2.48.08.26-.09.6,0,.83,1.04,2.52,2.33,3.88,4.14,5.79.33,2.25,1.76,3.52,3.31,4.97.43,2.96,3.52,4.73,4.97,6.62,3.13,4.09,4.68,6.12,8.28,9.93,2.23,2.36,4.22,4.42,6.62,6.62,2.25,2.06,3.46,3.07,5.79,4.97,3.43,2.79,6.21,5,9.93,7.45,3.19,2.1,6.07,4.85,9.93,5.79,2.83,2.35,6.15,4.55,9.93,4.97,6.51,4.2,13.39,5.51,20.7,7.45,4.57,1.22,6.99,1.66,11.59,2.48,5.05.9,9.71,2.07,14.9,2.48v.83h33.11v-.83c5.41-.44,10.43-1.53,15.73-2.48,2.91-.52,4.7-1,7.45-1.66,6.43-1.53,10.09-2.61,16.18-4.83.12-.04.24-.08.37-.14,5.33-1.95,8.23-3.32,13.24-5.79,4.67-2.3,7.25-3.91,11.59-6.62,4.35-2.72,6.68-4.29,10.76-7.45,3.2-2.48,6.12-4.67,9.11-7.45,2.13-1.99,3.81-3.64,5.79-5.79,2.28-2.47,5.41-5.11,6.62-8.28,3.54-3.44,5.64-6.7,8.28-10.76,1.21-1.86,2.88-3.48,3.31-5.79,3.24-4.19,3.53-6.26,5.79-9.93.18-.26.6-.48.83-.83.13-.19-.13-.63,0-.83.87-1.47,2.2-2.91,3.31-4.97,1.3-2.43,2.14-5.02,3.31-7.45.81-1.68,1.68-3.21,2.48-4.97.47-1.03,1.06-1.94,1.66-3.31.1-.23-.1-.59,0-.83l1.04-2.08c.26-.49.49-.92.62-1.23.1-.24-.09-.59,0-.83l.74-.74s.08-.07.09-.09c.09-.24-.1-.59,0-.83l1.15-2.3c.19-.36.37-.7.51-1.01.1-.23-.11-.61,0-.83l.75-.75s.07-.06.08-.08c.09-.24-.06-.57,0-.83.76-.32.71-.99.83-1.66.05-.27-.07-.58,0-.83,1.42-.78,1.22-2.17,1.66-3.31,1.23-3.25,3.03-6.36,3.31-9.93,2.59-4.47,2.7-8.08,4.14-12.42.73-2.2,1.06-3.8,1.66-5.79,1.61-5.38,2.82-10.28,4.14-15.73,9.64-39.81,14.39-80.64,14.9-121.69.37-.62,3.02-1.55,4.14-3.31.53-.83,1.29-1.25,1.66-2.48h.83v-14.9h-.83Z" style="fill:none; stroke:#000; stroke-miterlimit:10; stroke-width:2px;"/></svg>