<?xml version="1.0" encoding="UTF-8"?><svg id="Layer_1" xmlns="http://www.w3.org/2000/svg" width="725.53" height="265.08" viewBox="0 0 725.53 265.08"><path d="M724.35,238.24c-8.2-12.55-17.22-24.59-26.24-36.53-4.6-6.09-7.32-10.41-12.65-16.1l-18.96-24.17c-29.17-32.36-60.36-60.15-96.06-85.1-36.22-25.31-72.32-44.76-115.02-57.51-6.8-2.03-14.67-5.71-21.85-5.75-27.22-9.33-56.79-8.86-85.11-11.5-12.94-1.21-26.53-.41-39.54,1.29-3.68.48-13.77.28-12.22,5.61-5.65,2.52-4.53.47-6.9-1.15-1.79-1.23-1.37-1.21-3.82-1.08-6.88.38-47.02,9.39-51.76,12.51-1.44.95-1.26,2.73-1.93,3.51-5.63,6.57-21.67,9.41-30.53,12.6-8.84,3.19-16.39,7.6-25.83,9.25-1.36-2.27-3.53-2-5.75-2.3-1.09-.15-2.41.19-3.45,0-2.93-.53-6.04-2.2-8.05-2.3-1.5-.07-2.55.99-3.45,1.15-2.91.08-7.03-2.77-9.2,0-.76-.04-1.54.05-2.3,0-2.25-.14-7.7-.46-9.3.53-1.72,1.07,1.38,3.92-3.35,6.37l-1.72-2.31,1.12-1.2c-3.99.03-7.36,2.1-10.9,3.5-1.5.6-4.02.01-5.79,1.71-2.27,2.18.21,4.63-.07,5.08-.14.22-3.36,1.39-4.49,2.42-5.93-5.47-5.29.86-6.9,2.3-1.28,1.15-8.47,4.04-7.86,7.25.16.86,1.81,1.84,1.84,2.55.01.36-3.89,5.62-4.31,5.14-.17-.19.08-4.4-3.36-2.19-.48.31-4.96,8.51-5.67,9.87-.76,1.45-2.54,3.89-.19,4.99-.07.21,1.37,1.9,1.09,2.2-1.76,1.93-12.34,4.58-14.89,7-8.85,2.5-17.78,5.01-26.45,8.05-10.15,3.55-11.08,3.3-19.55,10.35-.41.34-.75.8-1.15,1.15-.81.7-1.5,1.57-2.3,2.3-4.3,3.91-17.47,15.09-18.37,20.2-1.17,6.69,5.49,15.06,5.84,22.22,2.46,1.16,4.04-.48,5.62-1.01,1-.34,1.67-.91,2.3-1.15,4.06-1.53,7.74-5.11,10.35-1.15,1.37,2.07,2.16,4.74,3.46,6.88-1.16-.28-1.68.85-2.3,1.17-1.98,1-4.8.68-6.29,3.49-.94,1.77-2.79,14.16-2.39,16.09,3.78,4.6,22.78,40.23,25.36,40.23h18.98l-10.36,2.32,2.31,5.74c.05.39-.08.81,0,1.15-6.41.58,1.77,5.16,2.31,7.47.3,1.25-3.66-2.01-2.3,1.14.86,1.99,3.14,7.36,4.03,8.63.98,1.41,2.41,2.3,3.99,2.91,24.37,9.51,49.29,6.94,74.78,7.45,29.09.59,58.97,3.7,87.41-3.45,69.11-.37,138.01,1.24,207.03,1.15,1.2,1.9,4.37,1.15,6.31,1.17,19.56.21,39.18-.5,58.72-.07,45.24.99,90.91,6.22,136.25,2.35,10.07.65,19.99-.38,29.9-1.15.4-.03.81-.06,1.22-.09,4.56-.19,10.16,1.28,13.73-1.06.76-.06,1.54.06,2.3,0,6.99.45,13.87-1.04,20.7-2.3,10.8-2,10.84-.19,18.4-9.2,2.42-2.88,6.67-6.18,5.54-10.62Z" style="fill:none; stroke:#000; stroke-miterlimit:10; stroke-width:2px;"/></svg>