<?xml version="1.0" encoding="UTF-8"?><svg id="Layer_1" xmlns="http://www.w3.org/2000/svg" width="517.06" height="725.4" viewBox="0 0 517.06 725.4"><path d="M514.68,417.97c-.08-24.14-2.91-48.15-4.88-71.95-.03-.41-.06-.82-.1-1.23-.32-5.98,1.45-13.14-1.12-18.28-.01-.41.01-.81,0-1.22-.34-9.7-1.03-19.62-1.22-29.27-.26-13.19.18-26.44.02-39.65-.03-2.06.78-5.42-1.24-6.69-.11-9.77.65-19.65-1.22-29.27,2.02-1.27,1.22-4.63,1.24-6.69.43-41.31-.59-89.35-3.63-130.54-.28-3.83-.61-9.43-3.7-11.54-4.92-3.37-6.12-9.59-11.55-14.66-12.32-11.5-54.86-27.06-72.28-33.81-11.73-4.54-35.63-15.16-46.9-16.62-17.84-2.3-11.43,17.8-14.38,28.5-.34-.16-.91.17-1.22,0-.44-2.85.95-8.92-.54-11.05-3.05-4.38-49.84-1.76-57.89-2.26l-1.33,10.86h-1.22c-.04-3.28-1-9.18-1.22-13.41-.24-4.72.9-7.78-1.22-12.19-2.79-5.81-7.93-6.51-13.71-5.79-25.64,3.17-60.41,16.39-85.07,25.3-14.7,5.31-29.67,10.26-43.9,17.07-10.34,4.95-18.1,8.7-20.45,21.63-4.78,26.32-5.08,64.27-6.38,91.78-.39,8.31-1.64,15.76-1.22,24.39.15,3.01.81,5.61,1.22,8.54.59,4.19,1.37,3.8-1.22,8.54-.62,1.14-2.66,3.55-3.66,4.88-1.89,2.52-10.94,11.2-10.97,13.41l-71.95,60.97c-.77.46-1.66.76-2.44,1.22-12.97,7.63-26.4,18.01-28.05,34.14-.38,3.74-.71,10.53,1.22,13.41-.43,24.23,4.03,49.53,7.32,73.17,5.73,41.23,13.27,82.19,25.61,121.94.59,6.69,6.61,26.28,10.45,31.63,11.09,15.46,41.91,12.55,59.06,19.59,6.04,2.48,12.53,9.11,15.85,14.63.88,1.46.6,4.79,3.05,6.07,1.33-.99,2.16-2.29,3.05-3.63l1.22,2.44c-4.21,11.64-.28,17.2,4.31,28.01,5.57,13.12,12.54,24.25,21.3,35.4,9.05,11.52,16.74,18.9,28.05,28.05,10.16,8.22,16.44,12.23,28.05,18.29,10.9,5.69,17.49,8.41,29.27,12.19,25.28,8.12,46.91,11.22,73.76,9.74,3.92-.22,10.28-1.2,14.04-2.43,5.39-.03,7.88-1.65,12.19-2.44,10.72-1.96,16.78-4.01,26.83-7.32,24.24-7.99,35.87-14.32,56.09-29.27,35.4-26.16,54.29-54.11,70.73-95.12,21.84-54.49,23.93-104.12,23.19-162.81-.03-2.06.78-5.42-1.24-6.69Z" style="fill:none; stroke:#000; stroke-miterlimit:10; stroke-width:2px;"/></svg>