<?xml version="1.0" encoding="UTF-8"?><svg id="Layer_1" xmlns="http://www.w3.org/2000/svg" width="746.34" height="285.79" viewBox="0 0 746.34 285.79"><path d="M745.32,204.45c-.58-7.47-14.82-21.04-19.98-27.07-17.9-20.88-36.59-41.42-57.38-59.7-4.09-3.6-9.04-7.69-13.72-10.45-3.22-3.4-19.23-17.58-22.75-18.96-1.51-1.71-4.4-5.69-6.14-6.71-9.46-5.54-19.84-13.41-29.89-19.83-16.66-10.65-49.71-30.93-68.26-35.08-15.59-6.65-33.55-12.99-50.25-16.12-.31-.06-.64.06-.95,0-11.93-3.53-24.57-5.75-36.98-6.64-3.04-.7-9.98-1.9-12.8-1.9h-14.22c-.37,0-1.56-.97-2.81-.98-5.68-.07-13.39.23-18.52,1.93-4.46,1.47-5.66,3.6-8.53,6.64-.38.4-1.61.58-1.9.95-5.51-.92-14.25-6.71-19.45-6.68-1.24,0-11.59,3.95-13.73,4.78-1.83-4.72-.58-6.72-6.88-5.47-4.34.86-30.39,11.41-34.55,13.81-2.41,1.39-4.93,5.18-6.64,5.68-2.27.67-6.49.52-9.76,1.14-3.79.71-5.51,1.91-8.53,2.84-1.93.6-3.8,1.3-5.69,1.9-12.87,4.1-54.89,15.57-63.52,21.81-1.38.05-2.61-.22-3.79-.95-.43-.26-.86-1.59-2.16-2.16-1.51-.65-2.45.29-2.58.26-4.09-1.05-8.07-2.45-12.33-2.84-.21-3.42-1.63-1.5-5.11-1.91-1.07-.11-.45,1.24-.57,1.91-3.87-.16-8.49-.24-12.33,0-.06-.62.07-1.27,0-1.89-2.92-.3-5.45-.11-6.64,2.84-3.48.84-6.22,2.46-9.45,3.35-4.09,1.14-3-2.29-6.67,3.28-3.11.97-4.98,2.89-7.65,4.2-1.48.72-3.51.28-4.72,1.01-.99.6-.68,2.12-.9,2.38-2.9,3.43-2.97,8.6-7.64,10.88-1.01.49-2.17-.48-3.23.47-3.33,2.99-2.36,8.36-5.04,12.09-1.48,2.05-3.05,2.33-4.1,3.56-1.49,1.76,1.28,1.58-4.64,4.28-3.03,1.38-6.38,2.45-9.48,3.79-8.56,3.71-17.06,7.66-25.6,11.38-1.02.44-2.06.61-2.84.95-12.06,5.25-24.02,10.86-36.03,16.12-7.5,3.29-15.04,5.81-22.75,9.48-5.35,2.55-6.54.29-5.69,8.53-1.25.62-2.03,1.47-2.84,1.9-1.26.67-2.45,1.1-3.79,1.9-1.28.76-1.84-1.51-1.9,2.84-.05,4.18.66,5.16,3.79,7.58.13,1.35,2.57,3.5,2.54,4.25-.05,1.33-1.68.37-.65,4.28,1.5,5.68,7.15,12.56,8.11,17.04,2.02,9.44,2.7,9.7,7.06,18.04,8.18,15.62,17.38,29.48,28.26,43.35,1.01,3.39-1.8,9.72-1.34,13.15.14,1.01,1.37,1.08,1.52,1.33.34.6.57,1.38.95,1.9.79,1.08,2.75,2.72,3.79,3.79,1.74,1.79,2.35,3.09,4.74,4.74,4.17,2.87,7.36,1.89,12.32,3.32,6.64,1.91,14.01,7.12,20.86,9,10.08,6.4,23.93,4.57,35.54,4.75,62.64,1,125.95-2.07,188.63-2.9,75.55-1,151.23.89,226.6,2.93,31.76.86,65.65-.74,97.22-3.83,12.75-1.25,27.14-2.41,39.14-7.79,3.44-1.54,5.53-4.37,8.37-5.85,8.58-4.45,16.88-8.05,25.49-12.9,4.27-2.41,12.88-5.6,15.6-9.52,3.23-4.66,4.68-15.16,7.4-21.04,1.42-3.07,3.78-5.66,5.44-9.26,1.15-2.5,1.33-2.9,1.9-5.69.24-1.2,1.21-1.7,1.02-4.22Z" style="fill:none; stroke:#000; stroke-miterlimit:10; stroke-width:2px;"/></svg>