<?xml version="1.0" encoding="UTF-8"?><svg id="Layer_1" xmlns="http://www.w3.org/2000/svg" width="432.04" height="747" viewBox="0 0 432.04 747"><path d="M424.62,482.51c-.13-1.22-.39-3.14-1.16-4.1-3.33-27.9-12.01-56.25-16.62-83.84-5.51-33.01-7.86-70.57-9.35-104.09-.41-9.21.17-18.36-1.26-27.54l1.88-22.54c4.04-39.5,4.22-81.15,4.92-120.88.27-15.39,1.72-33.53-.65-48.76-.64-4.13-2.84-4.17-5.22-6.53-7.05-7-12.68-14.15-21.93-18.56-8.04-3.84-16.46-4.53-24.86-6.97-22.29-6.48-49.87-18.85-70.54-29.61-2.92-1.52-6.46-4.94-9.67-5.78-2.81-.73-10.47.27-11.14,3.74-1.12,21.22-1.48,42.38-1.25,63.66-.59,3.04-3.56.02-3.71,2.78-1.49.39-1.25-1.3-2.22-1.7-.71-.3-13.52-1.29-15.4-1.38-20.74-.95-43.2,1.66-63.66-.63-3.78-.42-6.73-.25-7.16-4.59-1.14-11.68,1.39-25.16,1.3-37.16-.04-5.57.25-12.62-.03-17.9-.05-1-.63-5.28-.91-5.88-.65-1.38-1.87-.96-2.79-1.23-.54-.16-1.64-.58-1.85-.62-4.38-2.08-11.02-1.98-14.84,1.24-5.45,1.95-11.4,5.26-16.99,7.43-9.94,3.86-20,7.44-29.99,11.12-6.89,1.15-13.3,3.67-19.78,6.18-2.62.3-5.52,1.32-8.01,2.19-17.33,6.04-33.55,9.75-46.39,23.16-4.55,4.75-18.68,19.4-19.98,24.84-.71,2.96.1,6.2-.69,8.59-.62,1.87-3.02,1.88-3.46,5.81-.17,1.53-.2,10.17.73,10.75.59.37,2.16-.12,2.38.08.29.26-.39,6.34.51,7.68-3.35,2.06-4.33,4.8-3.6,8.71.45,2.41,1.37,1.23,2.47.93,2.02,1.76-1.11,1.08-1.24,1.24-.27.33.69,3,.67,4.01-.07,3.25-2.88,9.8-.03,11.99,0,.02-.01.04-.02.06h.08c.45.31,1.02.54,1.77.63v.6c-2.49-.3-.28,3.05-.35,5.04-.11,3.76-4.18,7.08-.89,11.66.15.1,1.09-.3,1.26.39.09.36.61,6.84.58,7.31-.1,1.51-1.54,2.34-1.81,3.76-2.03,10.64,6.58,20.39,8.98,29.92,1.12,4.47.11,9.56,2.13,13.64.16,5.34,1.2,12.13,1.94,17.53,1.14,8.34,4.81,21.58,4.81,29.23,0,1.11-1.34,4.26-1.81,5.79-.59,1.9-1.28,3.36-1.85,5.56-1.76,2.1-1.98,5.37-2.47,8.04-.07.38.06.85,0,1.24-1.7,1.74-1.92,4.52-2.47,6.8-.29,1.19-1.19,2.09-1.17,3.96.16,19.6,6.49,41.63,6.12,61.57.4,3.42.44,7.35,1.85,10.51.02.2-.02.41,0,.62,1.71,14.71,3.03,29.01,4.32,43.58,1.9,21.28,4.58,42.56,4.33,63.98-1.69,21.78-3.72,43.67-4.33,65.53-1.02.64-.62,2.35-.63,3.39-.22,20.74-.63,41.85.4,62.55.23,4.58-.2,5.9,1.47,10.72.22.63.35,1.21.62,1.85-.89,1.15-.57,1.8-.27,3.01,1.72,6.9,3.45,13.85,5.83,20.48,7.98,22.23,22.02,44.98,39.56,60.9.77.7,1.26,1.55,2.48,1.53,4.2,6.38,22.44,17.42,29.66,21.34,13.06,7.1,27.56,13.02,42.05,16.37,4.22,1.34,6.75,1.91,11.13,2.47.87.84,2.33.99,3.48,1.15,50.38,7.35,90.3,8.44,138.25-10.57,2.71-1.08,6.26-2.34,8.49-4.18,5.1-2.17,8.8-4.24,13.6-6.8,14.44-7.69,32.75-18.94,43.89-30.91,1.21.01,1.72-.83,2.48-1.53,30.1-27.68,54.59-70.15,60.57-110.98,1.93-3.79,1.32-8.49,1.85-12.36.35-2.54.78-4.91,1.24-7.42,3.03-16.58-3.56-54.99-5.64-73.8Z" style="fill:none; stroke:#000; stroke-miterlimit:10; stroke-width:2px;"/></svg>