<svg width="400" height="71" viewBox="0 0 400 71" fill="none" xmlns="http://www.w3.org/2000/svg">
<path d="M87.1953 20.9973V36.1258C87.1953 38.1972 87.1953 40.4535 89.1558 42.118C90.1545 42.9687 91.856 43.5236 93.2245 43.5236C94.5931 43.5236 96.2946 42.9687 97.2933 42.118C99.2538 40.4535 99.2538 38.1972 99.2538 36.1258V20.9973H101.991V36.8656C101.991 38.9369 101.769 40.9344 100.437 42.7838C98.9578 44.8182 96.3686 46.1128 93.2245 46.1128C90.0805 46.1128 87.4913 44.8182 86.0117 42.7838C84.6801 40.9344 84.4582 38.9369 84.4582 36.8656V20.9973H87.1953ZM108.371 20.9973H111.108V43.0797H117.914V45.6689H108.371V20.9973ZM118.965 45.6689L126.251 32.9077L119.63 20.9973H122.737L127.842 30.2815L133.094 20.9973H136.201L129.432 32.9077L136.571 45.6689H133.464L127.805 35.534L122.072 45.6689H118.965ZM137.086 50.5515V48.1842H155.58V50.5515H137.086ZM177.626 23.0317V26.4347C176.849 25.6579 175.665 24.7332 174.408 24.1413C173.113 23.5495 171.596 23.1796 170.154 23.1796C164.458 23.1796 160.241 27.7663 160.241 33.4626C160.241 40.1576 165.678 43.5236 170.191 43.5236C171.855 43.5236 173.483 43.0427 174.777 42.3769C176.183 41.6741 177.182 40.7494 177.626 40.3055V43.7085C174.888 45.6689 172.04 46.1128 170.191 46.1128C162.867 46.1128 157.43 40.5645 157.43 33.4256C157.43 26.0648 162.941 20.5904 170.339 20.5904C171.818 20.5904 174.667 20.7753 177.626 23.0317ZM185.411 20.9973V31.0213H198.061V20.9973H200.799V45.6689H198.061V33.6105H185.411V45.6689H182.674V20.9973H185.411ZM219.963 20.9973V23.5865H209.902V30.9103H219.667V33.4996H209.902V43.0797H219.963V45.6689H207.165V20.9973H219.963ZM237.807 20.9973V23.5865H227.746V30.9103H237.511V33.4996H227.746V43.0797H237.807V45.6689H225.009V20.9973H237.807ZM254.912 23.5865H248.92V45.6689H246.182V23.5865H240.19V20.9973H254.912V23.5865ZM273.438 45.6689L270.553 38.715H260.048L257.089 45.6689H254.056L265.412 19.8136L276.471 45.6689H273.438ZM261.121 36.1258H269.48L265.338 26.2497L261.121 36.1258ZM282.688 20.9973V31.0213H295.338V20.9973H298.075V45.6689H295.338V33.6105H282.688V45.6689H279.951V20.9973H282.688ZM303.628 44.1894C303.628 43.1907 304.479 42.3399 305.477 42.3399C306.476 42.3399 307.327 43.1907 307.327 44.1894C307.327 45.1881 306.476 46.0388 305.477 46.0388C304.479 46.0388 303.628 45.1881 303.628 44.1894ZM326.063 24.4373L323.881 25.8798C323.548 25.214 322.993 24.4742 322.438 24.0304C321.957 23.6605 321.07 23.1796 319.664 23.1796C317.223 23.1796 315.521 24.6962 315.521 26.9895C315.521 27.9512 315.78 28.506 316.446 29.1349C317.186 29.8746 318.11 30.2815 319.035 30.6884L321.402 31.7241C322.845 32.3529 324.177 33.0187 325.212 34.0544C326.47 35.312 326.988 36.7546 326.988 38.5301C326.988 43.0797 323.622 46.1128 319.183 46.1128C317.556 46.1128 315.521 45.7799 313.82 44.1154C312.599 42.9318 311.859 41.2303 311.526 39.7507L314.19 39.0109C314.375 40.3055 314.966 41.4152 315.669 42.155C316.742 43.2277 317.962 43.5236 319.22 43.5236C322.586 43.5236 324.177 41.1193 324.177 38.641C324.177 37.5314 323.844 36.5697 322.956 35.7559C322.253 35.0901 321.291 34.6462 319.997 34.0544L317.778 33.0187C316.816 32.5748 315.595 32.057 314.486 30.9843C313.413 29.9486 312.784 28.802 312.784 26.9525C312.784 23.1426 315.706 20.5904 319.701 20.5904C321.218 20.5904 322.438 20.8863 323.659 21.7001C324.657 22.3659 325.508 23.3646 326.063 24.4373ZM342.508 23.5865H336.516V45.6689H333.778V23.5865H327.786V20.9973H342.508V23.5865ZM346.199 20.9973H348.936V43.0797H355.742V45.6689H346.199V20.9973Z" fill="white"/>
<path d="M62.1001 47.5708H24.6261V35.3818H28.0521V44.145H58.6741V35.3818H62.1001V47.5708Z" fill="white"/>
<path d="M43.3661 39.146L50.5032 29.5308H36.2301L43.3661 39.146Z" fill="white"/>
<path d="M45.1182 19.1602H41.6132V34.9542H45.1182V19.1602Z" fill="white"/>
<path d="M387.387 1.46289H13.2852C6.65774 1.46289 1.28516 6.83547 1.28516 13.4629V58.2709C1.28516 64.8983 6.65774 70.2709 13.2852 70.2709H387.387C394.015 70.2709 399.387 64.8983 399.387 58.2709V13.4629C399.387 6.83547 394.015 1.46289 387.387 1.46289Z" stroke="white" stroke-miterlimit="10"/>
</svg>
