<svg width="400" height="71" viewBox="0 0 400 71" fill="none" xmlns="http://www.w3.org/2000/svg">
<path d="M43.3661 38.813L50.5032 29.1982H36.2301L43.3661 38.813Z" fill="white"/>
<path d="M45.1182 18.8281H41.6132V34.6221H45.1182V18.8281Z" fill="white"/>
<path d="M62.1001 47.2388H24.6261V35.0498H28.0521V43.813H58.6741V35.0498H62.1001V47.2388Z" fill="white"/>
<path d="M87.1953 20.6653V35.7938C87.1953 37.8651 87.1953 40.1215 89.1558 41.786C90.1545 42.6367 91.856 43.1916 93.2245 43.1916C94.5931 43.1916 96.2946 42.6367 97.2933 41.786C99.2538 40.1215 99.2538 37.8651 99.2538 35.7938V20.6653H101.991V36.5335C101.991 38.6049 101.769 40.6023 100.437 42.4518C98.9578 44.4862 96.3686 45.7808 93.2245 45.7808C90.0805 45.7808 87.4913 44.4862 86.0117 42.4518C84.6801 40.6023 84.4582 38.6049 84.4582 36.5335V20.6653H87.1953ZM108.371 20.6653H111.108V42.7477H117.914V45.3369H108.371V20.6653ZM118.965 45.3369L126.251 32.5757L119.63 20.6653H122.737L127.842 29.9495L133.094 20.6653H136.201L129.432 32.5757L136.571 45.3369H133.464L127.805 35.2019L122.072 45.3369H118.965ZM137.086 50.2195V47.8522H155.58V50.2195H137.086ZM170.82 23.2545H164.827V45.3369H162.09V23.2545H156.098V20.6653H170.82V23.2545ZM174.51 20.6653H177.248V45.3369H174.51V20.6653ZM196.337 35.5348V32.9456H206.62V33.5374C206.62 36.2746 205.807 39.2337 204.253 41.3421C203.513 42.3408 200.739 45.7808 195.08 45.7808C187.756 45.7808 182.282 40.1954 182.282 33.0196C182.282 25.8437 187.793 20.2584 195.154 20.2584C197.521 20.2584 200.295 20.8502 202.7 22.6996C203.809 23.5504 204.845 24.6601 205.548 25.6218L203.513 27.4712C202.811 26.4725 201.997 25.5848 201.183 24.919C199.999 23.9573 198.15 22.8476 195.191 22.8476C189.236 22.8476 185.093 27.3233 185.093 33.0566C185.093 39.7886 190.456 43.1916 195.117 43.1916C198.409 43.1916 201.257 41.527 202.663 39.0488C203.106 38.272 203.587 37.0884 203.661 35.5348H196.337ZM224.442 20.6653V23.2545H214.381V30.5783H224.146V33.1675H214.381V42.7477H224.442V45.3369H211.644V20.6653H224.442ZM229.488 20.6653H233.446C235.111 20.6653 237.589 20.7762 239.438 22.0338C240.881 22.9956 242.138 24.882 242.138 27.5082C242.138 31.2811 239.66 34.0553 235.924 34.3142L243.766 45.3369H240.437L232.928 34.5361H232.225V45.3369H229.488V20.6653ZM232.225 23.2545V32.0949H233.964C237.367 32.0949 239.401 30.4673 239.401 27.5822C239.401 26.2136 238.994 24.845 237.441 23.9573C236.331 23.3285 235.074 23.2545 233.89 23.2545H232.225ZM247.241 43.8574C247.241 42.8587 248.092 42.0079 249.091 42.0079C250.089 42.0079 250.94 42.8587 250.94 43.8574C250.94 44.8561 250.089 45.7068 249.091 45.7068C248.092 45.7068 247.241 44.8561 247.241 43.8574ZM269.677 24.1052L267.494 25.5478C267.161 24.882 266.606 24.1422 266.052 23.6983C265.571 23.3285 264.683 22.8476 263.277 22.8476C260.836 22.8476 259.135 24.3642 259.135 26.6575C259.135 27.6192 259.394 28.174 260.059 28.8028C260.799 29.5426 261.724 29.9495 262.649 30.3564L265.016 31.3921C266.458 32.0209 267.79 32.6867 268.826 33.7224C270.083 34.98 270.601 36.4226 270.601 38.198C270.601 42.7477 267.235 45.7808 262.797 45.7808C261.169 45.7808 259.135 45.4479 257.433 43.7834C256.213 42.5997 255.473 40.8982 255.14 39.4187L257.803 38.6789C257.988 39.9735 258.58 41.0832 259.283 41.823C260.355 42.8956 261.576 43.1916 262.834 43.1916C266.2 43.1916 267.79 40.7873 267.79 38.309C267.79 37.1993 267.457 36.2376 266.569 35.4239C265.867 34.7581 264.905 34.3142 263.61 33.7224L261.391 32.6867C260.429 32.2428 259.209 31.725 258.099 30.6523C257.026 29.6166 256.397 28.4699 256.397 26.6205C256.397 22.8106 259.32 20.2584 263.314 20.2584C264.831 20.2584 266.052 20.5543 267.272 21.368C268.271 22.0338 269.122 23.0325 269.677 24.1052ZM286.121 23.2545H280.129V45.3369H277.392V23.2545H271.4V20.6653H286.121V23.2545ZM289.812 20.6653H292.549V42.7477H299.355V45.3369H289.812V20.6653Z" fill="white"/>
<path d="M387.387 1.13086H13.2852C6.65774 1.13086 1.28516 6.50344 1.28516 13.1309V57.9389C1.28516 64.5663 6.65774 69.9389 13.2852 69.9389H387.387C394.015 69.9389 399.387 64.5663 399.387 57.9389V13.1309C399.387 6.50344 394.015 1.13086 387.387 1.13086Z" stroke="white" stroke-miterlimit="10"/>
</svg>
