<?xml version="1.0" encoding="UTF-8"?><svg id="Layer_1" xmlns="http://www.w3.org/2000/svg" width="674.52" height="249.92" viewBox="0 0 674.52 249.92"><path d="M672.19,177.67c-3.82-7.77-10.77-17.63-15.55-25.23-20.3-32.27-44.29-68.75-72.22-94.65C521-1.02,427.28-4.52,345.51,5.11c-1.48.17-8,1.56-8.7,1.03-.33-.25-.39-1.31-.81-1.92-2.42-3.51-5.52-3.24-9.45-2.94-17.4,1.34-40.89,7.26-57.98,11.8-10.25,2.72-17.62,3.2-24.62,11.74-1.3,1.59-2.97,2.81-3.36,5.04-10.81,5.5-25.8,9.42-37.52,13.97-10.9,4.23-21.59,9.08-32.46,13.38-.87.51-1.51.1-2.31-.03-1.53-.25-3.09-.57-4.62-.84-1.52-.27-3.11-.61-4.62-.84-2.24-.34-3.24-.82-5.88-.84-2.07-.02-4.4-.06-6.3,0-2.34.07-3.99.14-6.3.42-1.55.19-3.48.55-5.04.84-13.27,2.45-22.53,7.42-32.93,15.62-6.01,4.74-14.62,16.05-17.71,23.06-.63,1.44-.81,3.36-1.48,4.62-.31.58-1.37,1.62-1.96,2.03-11.31,5.98-22.25,12.64-33.35,18.98-.16.09-.28.34-.42.42-12.74,7.29-26.29,13.92-38.67,21.86l-7.99,4.62v.84c1.54,1.71,3.37,9.86,5.43,10.32.84.19,1.71-.94,2.43-1.01.71-.07,1.08,1.15,2.44,1.24,1.56.1,3.36-1.12,5.05-1.3,4.58-.5,9.12,1.1,13.66,0,.23,1-.18.68-.55.94-2.04,1.4-4.53,2.87-6.6,4.11-1.39.83-8.17,4.16-8.36,4.91l.13.97c6.14,11.72,10.95,24.19,17.12,35.88,5.18,9.8,9.13,13.69,18.01,20.03,5.31,3.79,10.78,7.51,16.81,10.09,2.62,1.12,4.81,1.81,7.57,2.52,8.69,2.24,18.18,3.17,27.11,4.2,15.47,1.78,31.55,3.36,47.08,4.62,2.77.23,5.86.48,8.61.42,1.08.74,3.21.46,4.62.42.35.68,1.43.4,2.1.42,100.65,2.81,202.06,2.52,302.85,1.27.71,0,1.87.27,2.31-.43,6.65.02,13.33.13,19.98.02,12.49-.21,25.07-1.22,37.6-1.28,1.32,0,3.24.35,4.2-.42,2.84-.02,5.94-.42,8.62-.42h7.15c3.07,0,7.41-.6,10.72-.84,16.78-1.24,34.4-3.23,51-5.95,6.18-1.02,13.85-2.22,19.62-4.55,3.24-1.31,5.25-3.1,7.99-5.04,13.74-9.74,25.97-22.93,34.05-37.83,1.01-1.87,2.21-3.4,2.94-5.46.15-.43.22-1.07.42-1.68.1-.3.05-.65.42-.84v-2.1c-.67-1.09-.74-2.28-1.34-3.5Z" style="fill:none; stroke:#000; stroke-miterlimit:10; stroke-width:2px;"/></svg>