<?xml version="1.0" encoding="UTF-8"?><svg id="Layer_1" xmlns="http://www.w3.org/2000/svg" width="389.83" height="674.51" viewBox="0 0 389.83 674.51"><path d="M388.72,476.93c0-2.69,0-5.4,0-8.09,0-1.75.36-4.12-.43-5.54-.19-37.79-11.44-78.94-15.75-116.66-.54-4.71-.77-9.85-.84-15.15,0-.02,0-.05,0-.07,0-.31,0-.61-.01-.92.02-.36.12-.86-.01-1.13,0-.49,0-.97,0-1.46h0v-2.71c.06-8.56.39-17.25.43-24.96.24-53.84,1.53-107.71.86-161.59,0-.72.27-1.89-.43-2.34-.02-11.45,1.85-54.15-2.98-61.74-.62-1.71-2.32-7.61-3.41-8.52-2.12-6.38-9.05-10.4-14.51-13.8-15.57-9.69-37.43-15.12-54.75-22.74-18.61-8.19-40.95-22.99-59.85-27.86-1.6-.41-3.38-1.4-4.51.39l-.05,20.39c-.61,1.41-.76,2.11-.87,3.6-.67,8.47.45,17.66.45,26.14-1.76,1.36-4.94-.43-5.47,2.27-.05,6.52-.69,12.98-.51,19.51.02.65-.44,1.33-.44,1.47-1.11-.14-.69.38-.85.85-.04.12-.33.26-.43.43-.76-3.98-7.18-5.62-10.57-6.25-9.5-1.78-24.12-1.75-32.44,3.7-.4.26-.91.13-1.52.81-1.66,1.87-.89,5.72-1.04,8.13l-.85-.43c.04-1.47.12-3.55-.42-4.91-.39-.99-1.2-1-1.29-1.35-.62-2.41-.22-9.12-.42-12.05-.1-1.48-.27-2.89-.43-4.26-.12-1.09-.25-5.32-.45-5.51-.11-.11-2.56-.45-2.96-.45h-2.98c-.38-7.54-.04-15.25-.43-22.77-.08-1.5-.24-5.11-.51-6.3-.26-1.15-1.4-1.61-1.6-2.65-.97-5.08.24-11.98-.47-16.99-.25-1.75-1.17-3.69-3.15-3.66-2.55.04-10.98,3.39-13.84,4.48-25.09,9.59-49.68,25.66-76.13,31.59-9.65,2.16-15.77,1.53-25.5,5.59-9.24,3.85-14.1,5.04-17.17,14.98-.72,2.35-1.85,4.67-1.7,7.24-.2-.02-.35,0-.42.22-.29,3.49-1.11,7.15-1.3,10.62-.64,11.7.34,23.69.46,35.34.4,38.34.97,76.61,1.24,115,.04,5.43.4,9.91.02,15.52-3.81,56.65-15.13,112.05-23.35,168.04-7.62,51.98-6.67,88.51,19.09,135.11,2.83,5.12,5.79,9.98,8.94,14.9,1.27,1.99,2.51,4,3.83,5.96,11.2,16.68,24.93,35.76,38.75,50.24,7.99,8.38,27.8,26.07,38.32,29.8,4.57,3.23,9.85,5.32,14.9,7.66.28.13.56.29.85.43,7.55,3.46,15.1,6.73,22.99,9.37,1.97.66,3.98,1.12,5.96,1.7.81.24,1.63.6,2.55.85,3,.83,5.91,1.44,8.94,2.13,2.57.58,5.06,1.22,7.66,1.7,1.22.23,2.34.24,3.41.43,2.28.39,4.49.97,6.81,1.28,14.62,1.94,27.11,2.26,41.73,0,.64-.1,1.08-.39,1.28-.43,1.08-.18,2.16-.18,3.41-.43,1.75-.35,3.4-.87,5.11-1.28.59-.14,1.13-.28,1.7-.43,1.61-.4,3.1-.83,4.68-1.28,6.22-1.77,11.43-3.51,17.46-5.96.33-.14.6-.32.85-.43,6.9-2.87,13.04-5.71,19.59-9.37.59-.33,1.68-1.19,2.55-1.7.99-.58,1.98-1.1,2.98-1.7.23-.14.54-.24.85-.43.89-.55,1.69-1.15,2.55-1.7,17.64-11.28,32.6-25.38,45.13-42.15,8.77-10.22,16.11-21.65,22.99-33.21.68-1.15,1.42-2.17,2.13-3.41,13.12-23.01,25.18-54.02,25.12-80.9,0-1.13,0-2.27,0-3.41.66-1.78.59-4.82.43-6.81Z" style="fill:none; stroke:#000; stroke-miterlimit:10; stroke-width:2px;"/></svg>