<?xml version="1.0" encoding="UTF-8"?><svg id="Layer_1" xmlns="http://www.w3.org/2000/svg" width="752.54" height="266" viewBox="0 0 752.54 266"><path d="M749.07,225c-2.06-4.19-2.16-4.27-3.65-8.98-1.85-5.84-4.26-9.98-6.89-15.3-22.38-45.25-57.05-80.77-95.65-112.49-40.94-33.63-90.94-58.53-143.1-69.64-22.02-9.44-64.45-13.58-88.77-15.3-5.47-.39-10.34-1.34-16.07-1.53v-.77h-29.84v.77c-4.16.14-8.12.45-12.24.77-14.79,1.12-30,3.16-44.66,5.47-5.32.84-43.29,7.43-44.8,9.15-.47.54.14,3.45-.09,4.51-3.87-3.64-4.32-2.97-8.81-1.54-16.79,5.36-45.47,14.97-60.58,22.82-2.43,1.26-8.1,6.61-9.66,6.19-.97-.26-1.49-1.87-3.22-2.21-2-.39-4.52.2-6.78-.11-9.06-1.26-9.89-2.83-19.28-1.48-4.29.61-11.72.11-15.07,1-2.04.54-7.24,4.9-9.75,5.94-10.52,1.75-10.78,5.59-17.6,11.48-1.36,1.18-1.35,1.29-3.06,2.3-1.69.99-3.99,1.17-5.68,3.12-1.3,1.5-1.28,3.23-1.97,4.54-1.45,1.33-3.71,2.27-3.83,4.59-.26.25-.51.51-.77.77-4.86,4.76-8.2,6.9-9.18,14.54-15.63,4.15-27.33,12.53-41.32,19.9-12.64,6.65-32.95,15.05-43.62,23.72-.62.5-1.51.75-1.97,1.57-.59,1.04.43,1.37.44,1.49.7,6.97,5.16,14.48,8.42,20.66.36,1.36,1.06,3.12,1.53,4.59,1.48,4.61,3.29,9.42,5.36,13.77,6.02,12.64,13.21,27.46,19.9,39.79,2.97,5.47,6.58,12.88,11.48,16.07,3.43,2.23,7.15,4.11,10.71,6.12,3.09,1.75,5.95,3.81,9.18,5.36,2.95,1.4,7.49,3.56,10.52,4.4,46.98,13,94.77,8.77,142.87,10.94,87.61-.4,175.34,1.8,262.89,2.26v.77h142.33v-.77c31.32-.6,72.22-1.79,102.54-8.42,3.76-.82,5.08-1.23,8.42-3.06,1.32-.72.97-.33,2.3-1.53,1.86-1.7,1.95-2.58,3.06-3.83,1.82-2.04,3.74-3.87,5.36-6.12,1.11-1.54,1.82-3.19,3.06-4.59v-4.59c-1.42-2.02-1.38-4.87-2.47-7.09Z" style="fill:none; stroke:#000; stroke-miterlimit:10; stroke-width:2px;"/></svg>