<?xml version="1.0" encoding="UTF-8"?><svg id="Layer_1" xmlns="http://www.w3.org/2000/svg" width="401.32" height="752.07" viewBox="0 0 401.32 752.07"><path d="M387.88,377.13c-9.51-68.13-21.93-136.15-26.4-204.83-.22-3.3.16-6.7,0-10.01.86-10.13.97-20.36,1.83-30.49,1.5-17.68,5.66-34.84,2.73-52.35-.45-2.69-1.15-5.53-1.82-8.19-3.24-12.79-4.56-14.54-16.68-20.19-15.2-7.08-32.48-11.48-48.18-17.37C276.06,24.96,228.12,2.55,205.81,1.15c-5.25-.33-11.06-.01-16.39,0-4.37,0-8.75.7-12.75.91-.6.03-1.22-.04-1.82,0-.1,0-.19,0-.29,0-1.11,0-2.08-.46-5.17,0-6.48.96-12.27,2.69-18.21,5.46-.78.37-3.45.62-3.64,1.82-35.71,13.9-72.94,24.37-108.56,38.46-7.92,3.13-18.65,6.38-24.35,12.52-4.18,4.51-5.33,7.71-6.37,13.66-.18.61-.26,1.18-.26,1.72-3.06,19.98,1.44,40.39,2.12,60.61.56,16.65-.26,33.45-.05,50.12.02,1.54-.58,4.05.93,4.99-.14,10.6.29,21.27,0,31.86-.18,6.68-.05,8.19-1.82,14.57-5.29,19.05-2.95,51.86-2.73,72.83-1.22,4.96-2.09,16.78.5,20.9,1.24,1.98,5.12,4.23,5.69,6.14.8,2.72-.21,6.51.19,9.37-1.48,2.61-5.22,5.81-6.37,8.19-.11.23.09.62,0,.91-3.09,9.65-.52,38.28-.87,50.56-.36,12.76-1.39,25.8-1.86,38.65-.19,5.37-1.62,12.85-.85,17.69.58,3.65,4.4,6.51,4.49,9.62.04,1.43-1.37,3.67-.91,5.46-.63,1.34-.58,1.25-.91,2.73-4.99,22.62-5.27,59.94-3.63,83.29.43,6.05,1.38,12.75,2.72,18.67.81,9.35,2.16,15.61,4.55,24.58.22.82.81,1.44.91,1.82,8.88,31.95,19.48,53.16,40.97,78.29,11.54,13.49,23.06,24.14,38.24,33.68,6.44,4.05,13.09,7.78,20.03,10.92,43.2,19.58,92.3,24.69,138.37,11.83,14.54-4.05,25.83-8.58,39.15-15.48,1.22-.63,2.25-1.05,3.64-1.82,1.51-.83,3.05-1.84,4.55-2.73,63.28-37.59,100.95-108.6,104.68-181.63,2.78-54.44-4.34-111.59-11.83-165.22Z" style="fill:none; stroke:#000; stroke-miterlimit:10; stroke-width:2px;"/></svg>