<?xml version="1.0" encoding="UTF-8"?><svg id="Layer_1" xmlns="http://www.w3.org/2000/svg" width="757.92" height="293.86" viewBox="0 0 757.92 293.86"><path d="M749.72,226.5c-56.44-92.8-179.29-191.32-286.81-212.39-9.05-1.77-17.43-3.76-26.66-4.94-.32-.04-.66.04-.99,0l-54.31-6.91c-6.96-2.82-15.55,0-22.22,0h-14.81c-3.67,0-12.38,1.22-16.29,1.98-.66.13-2.04,3.49-5.55,3.96-3.03.4-4.8-1.97-5.32-1.98-19.55-.33-46.53,5.69-62.21,14.81-13.28,7.72-27.52,10.82-41.48,17.78-7.98,2.4-26.81,12.26-32.19,12.8-6.59.66-19.39-3.24-26.54-2.91-9.79.46-24.44,4.59-33.12,8.87-11.82,4.76-31.78,24.57-37.6,35.97-2.62,5.12-1.08,10.43-6.29,16.42-5.99,6.89-36.02,25.05-45.97,32.54-4.92,3.7-10.47,6.3-14.81,10.86-3.34,1.78-13.4,7.95-14.81,10.86-2.72,5.61,2.55,16.96,9.87,13.84-2.06,3.8-6.41,2.86-5.74,8.11.34,2.69,23.1,44.89,25.3,47.86,1.14,1.53,15.41,15.02,16.97,16.11-5.82,4.17,2.82,11.93,5.93,14.81,29.03,26.98,146.24,10.9,187.2,17.84,12.95-8.1,3.73-1.64,15.71-.04l133.85-.03c66.97,6.27,129.73,11.31,198.04,9.91,32.83-.67,97.64-1.45,124.89-16.82,5.6-3.16,41.82-28.36,42.95-31.64,1.48-4.31-4.45-13.52-6.98-17.67Z" style="fill:none; stroke:#000; stroke-miterlimit:10; stroke-width:2px;"/></svg>