<?xml version="1.0" encoding="UTF-8"?><svg id="Layer_1" xmlns="http://www.w3.org/2000/svg" width="473.4" height="757.4" viewBox="0 0 473.4 757.4"><path d="M449.31,349.43l-.66-5.96c-.18-1.77-.35-3.54-.59-5.3-.05-.41.05-.84,0-1.25-4.22-95.11-4.49-190.47-12.52-285.35-2.76-9.31-20.06-16.98-28.79-15.02-12.87-11.28-55.62-24.43-73.84-30.04-10-3.08-9.17-7.77-21.28-3.75-5.1,1.69-12.52,5.75-12.52,11.89v23.78c0,2.93-2.59,9.06-1.25,13.14-20.34,4.85-48.09-2.25-67.58,1.25-12.57-15.07,8.84-41.96-15.02-50.06-12.26-4.16-16.76-.02-28.77,3.14-9.74,2.56-65.3,20.32-68.85,25.64-2.56,3.84-.63,10.6-5.01,10.01-1.28-7.1,2.75-10.56-10.01-6.26-6.07,2.04-30.25,32.13-32.19,38.52-6,19.72-11.2,123.3-7.86,144.2,1.11,6.96,8.19,18.12,2.5,22.53-.4.05-.87-.1-1.25,0-5.64,1.46-3.24,1.44-6.26,3.75-3.52,2.7-6.62,4.47-7.57,9.32-4.72,23.95,6.05,62.99,1.04,86.15-1.99,9.18-25.36,33.98-31.24,47.61-5.95,13.77-8.14,28.49-10.66,43.15-7.76,45.02-11.61,96.74-4.13,141.67,4.47,28.02,19.27,56.01,38.8,76.34,6.31,8.73,36.47,40.39,45.05,43.8,3.23,1.28,1.62,1.48,3.75-1.25.2-.26-.2-.97,0-1.25,1.13.51.92,1.62,1.25,2.5,3.37,8.92,35.5,25.02,45.05,30.04,77.18,40.53,146.15,50.4,221.52-1.25,6.15-4.21,10.4-5.17,16.27-11.26,6-2.59,10.94-7.55,15.02-12.52,11.09-8.35,25.35-22.01,32.54-33.79,14.41-17.56,24.61-37.66,32.54-58.82,33.33-88.96,4.62-166.02-7.51-255.31Z" style="fill:none; stroke:#000; stroke-miterlimit:10; stroke-width:2px;"/></svg>