<?xml version="1.0" encoding="UTF-8"?><svg id="Layer_1" xmlns="http://www.w3.org/2000/svg" width="724.34" height="259.98" viewBox="0 0 724.34 259.98"><path d="M723.21,192.97c-.52-2.07-2.07-2.66-2.24-3.04-2.49-5.64-3.43-6.53-6.71-11.51-5.03-7.63-9.5-14.01-15.34-21.1-4.5-5.46-8.79-9.42-13.43-14.39-.84-.9-1.56-1.57-2.19-2.19l-.69-.69c-.99-1.03-1.44-2.39-1.92-2.88-1.94-2-3.73-2.77-4.8-3.84-7.32-7.32-12.23-12.21-20.14-19.18-6.04-5.32-11.96-10.4-18.22-15.34-5.32-4.2-10.81-8.51-16.3-12.47-3.07-2.21-4.54-2.49-6.71-3.84-.53-.33-1.29-2.47-1.92-2.88-.98-.64-1.85-1.29-2.88-1.92-1.11-.68-2.62-1.4-3.84-1.92-1.58-.68-3.18-1.32-4.8-1.92.91-2.94-3.09-2.14-3.84-2.88-1.64-1.62-.57-2.32-4.8-4.8-1.5-.88-2.09-1.28-3.84-1.92-.85-.31-2.04-.74-2.88-.96-1.1-3.79-16.22-9.5-20.14-11.51-8.71-4.47-17.2-10-26.85-12.47-7.38-4.5-15.87-6.8-23.98-9.59-5.44-1.87-9.93-3.16-15.34-4.8-.98-.29-1.93-.68-2.88-.96-1.34-.39-2.6-.61-3.84-.96-7.75-2.18-14.04-4.03-22.06-5.75-5.33-1.14-8.41-2.78-14.39-2.88-12.74-3.34-26.23-3.31-39.32-3.84-4.03-.16-7.84-1.05-12.47-.96-4.45.18-8.99-.25-13.43,0-1.16.07-2.93-.25-3.84,0-.97-1.76-.93-4.04-1.92-5.75-.5-.88-.81-1.63-1.92-1.92v-.96h-9.59c-1.51,1.68-3.71,1.67-5.75,1.92-1.49.18-3.96-.69-4.8.96-4.67-.07-8.08,1.08-12.47,1.92-3.87.74-4.36.28-8.63,1.92-4.31.1-4.28.14-8.63.96-.71.13-1.61.76-2.88.96-.24.04-3.53-1.01-4.8,0-2.14,1.67-1.28,4.49-.96,6.71-.41.18-1.34-.12-1.92,0-.15-.61-1.46-2.05-1.92-2.88-.21-.38.59-1.68-.58-1.97-2.49-.62-3.66.69-5.17,1.01-2.03.43-4.63-1.21-3.84,1.92-.59.11-1.32-.11-1.92,0-1.62-1.32-3.16-1.14-3.84.96-1.59.35-3.19.58-4.8.96-2.08-1.9-6.4,1.13-8.63,1.92-.94.33-1.97.61-2.88.96-1.18-2.03-4.33.59-5.75.96-1.8.46-3.94.51-5.75.96-1.91.47-3.88,1.3-5.75,1.92-.32.02-.64-.03-.96,0-1.2.1-4.98,1.27-3.83,1.91.93.11,1.97-.13,2.87,0,.45.07.86.5.96.96-.88.29-2.02,1.38-2.88,1.92-.07-.07-1.51-.06-1.92,0-.56.08-1.32.83-1.92.96-1.09.24-2.63-.18-3.83,0,.51,2.63,2.02,3.48-.96,4.79-6.65.11-16.46,4.64-23.02,6.71-3.98,1.26-8.24,2.19-11.47,3.35-3.66,1.31-8.71,1.87-10.59,5.28-4.48.6-4.9,1.3-8.63,2.88-2.89,1.22-5.2,2.8-7.67,3.84-1.02.43-2.06.62-2.88.96-2.88,1.21-5.79,2.72-8.63,3.84-2.14.84-7.25,3.72-7.67,3.84-2.55.73-18.01-1.19-23.02-.96-6.65.31-8.4.98-14.39,2.88-3.21,1.02-7.13,1.47-9.59,3.84-4.51,1.05-5.52,2.85-8.63,4.8-1.68,1.05-2.82,1.4-4.8,2.88-2.89,2.17-6.21,5-8.63,7.67-3.06,3.37-4.51,6.77-6.71,9.59-1.29,1.65-4.04,4.68-5.75,5.75-1.53.95-5.55,2.74-7.67,3.84-2.11,1.09-5.36,1.67-7.67,2.88-1.81.95-3.2,2.54-3.84,2.88-17.9,9.39-41.28,19.25-57.54,30.69-1.36.96-2.06,1.23-2.88,2.88-.11.23.09.64,0,.96-.62.07-1.33-.1-1.92,0-2.93.51-9.75,4.93-10.55,7.67-.15.51.1,1.32,0,1.92-.22.18-2.48,4.11-2.88,4.8-.31.53-1.31,1-1.55,1.85-1.08,3.92,6.96,12.13,9.22,15.41,1.18,1.71,2.8,3.22,3.84,4.8.63.96,1.3,1.92,1.92,2.88.14.21.06,1.48.96,2.88.29,1.87.27,3.19-1.91,2.89v.93s4.79.97,4.79.97c1.25,2.04,2.44,3.81,3.84,5.75,1.88,2.63,1.26,1.44,2.88,2.88.21.18-.62,2.9,2.88,1.92,1.52,1.63,1.66,4.96,5.75,4.8,1.96,3.29,2.64,2.5,4.8,4.8,2.01,2.14,4.57,4.48,6.71,6.71,1.49,1.56,2.53,3.52,4.8,5.75,1.3,1.28,2.49,2.55,3.84,3.84.33.31.63.65.96.96,2.92,2.74,5.54,5.12,8.63,7.67,2.01,1.66,3.43,3.09,5.75,4.8,1.03.76,1.81,1.25,2.88,1.92,1.97,1.24,2.11,1.61,4.8,2.88.63.3,1.14.65,1.92.96,5.78,2.27,9.52,2.64,15.34,3.84,2.2.45,4.86,1.64,6.71,1.92,3.78.57,7.68.82,11.51.96.89,1.7,3.95.89,5.75.96.64.03,1.28-.01,1.92,0,1.59,1.71,5.27.94,7.67.96,1.28.01,2.56,0,3.84,0,1.93,1.82,5.89.83,8.63.96,2.75.12,6,.89,7.67.96,4.13.17,8.33-.07,12.47,0v.96h41.24v-.96h.96c15.81,0,31.67.21,47.49.02,1.62-.02,4.26.61,5.26-.98,13.11-.17,26.16-.84,39.32-.96,18.05-.17,36.14.24,54.2.02,1.62-.02,4.27.61,5.26-.98h15.34c29.71,0,59.48,0,89.19,0,34.26.01,70.27-.23,104.54-1.92,4.62-.23,10.38.98,14.39-.96,2.22.06,4.49.05,6.71,0,2.62-.06,5.08-.55,7.14-.81.44.09.93.08,1.49-.15,2.53-.14,5.13.04,7.67,0,1.81-.03,4.71.65,5.75-.96,3.19-.04,6.4.05,9.59,0,1.81-.03,4.71.65,5.75-.96.95,0,1.93.05,2.88,0,3.17-.16,5.64-.65,8.63-.96,8.55-.88,16.52-2.23,24.93-3.84,5.18-.99,8.08-1.33,13.43-2.88,2.37-.69,4.17-.9,6.71-1.92,1.85-.74,2.38-1.18,3.84-1.92,6.28-3.2,6.7-4.63,11.51-8.63.35-.29.62-.67.96-.96.47-.4,1.46-.55,1.92-.96,2.82-2.52,5.06-4.99,7.67-7.67,1.76-1.8,2.74-3.55,3.84-4.8,1.02-1.17,2.47-2.23,3.84-3.84,1.61-1.9,4-2.79,3.84-5.75.38-.27.76-.5.96-.96v-.96c.3.05.65,0,.96,0,3.19.05,1.25-.96,2.21-3.06.43-.94,1.51-2.2,1.63-2.69.31-1.31.65-3.34.32-4.64Z" style="fill:none; stroke:#000; stroke-miterlimit:10; stroke-width:2px;"/></svg>