<?xml version="1.0" encoding="UTF-8"?><svg id="Layer_1" xmlns="http://www.w3.org/2000/svg" width="378.65" height="724.34" viewBox="0 0 378.65 724.34"><path d="M375.07,111.93c.02-.39.08-.92,0-1.29-.13-.59-1.18-1-1.29-1.29.17-5.11-2.11-9.6-3.87-14.19-.58-1.51-.64-3.98-1.29-5.16-1.08-1.95-5.79-5.62-7.74-7.74-2.81-3.05-3.66-3.77-6.45-6.45-.88-.85-1.64-1.71-2.58-2.58-.45-.41-.84-.89-1.29-1.29-2.57-2.29-4.1-3.26-6.45-5.16-5.65-4.55-9.52-7.37-15.48-11.61-3.98-2.84-7.56-5.09-11.61-7.74-.79-.52-1.78-.78-2.58-1.29-.45-.29-1.16-1.69-2.58-2.58-.94-.59-1.91-.87-2.58-1.29-2.43-1.5-4.71-3.41-7.74-5.16-.83-.48-1.75-.82-2.58-1.29-8.16-4.65-12.58-7.18-21.93-9.03.85-3.75-2.85-2.82-5.16-3.87-1.84-.84-3.39-1.71-5.16-2.58-3.44-1.7-6.85-3.53-10.32-5.16-1.72-.8-3.39-1.76-5.16-2.58-2.89-1.33-5.84-1.74-7.74-2.58-6.06-2.69-11.9-6.44-18.06-9.03h-1.29c-.41.45-.83.89-1.29,1.29-3.08,2.64-1.72,1.93-2.58,5.16-2.24,8.46-1.04,16.92-1.29,25.8-.46.16-1.94.95-2.58,1.29-3.01-6.61,1.02-9.64-3.87-15.48-3.35-4-2.67-1.77-6.45-2.58-9.84-2.1-17.48-1.44-27.09,0-3.03.45-4.63-1.04-7.74,1.29-4.93,3.7-1.39,6.77-1.29,9.03.02.43,0,.86,0,1.29l-1.29,5.16c-1.1-.26-2.75.25-3.87,0-.23-9.09.8-17.02-1.29-25.8-.45-1.89-.38-2.01-1.29-3.87-.34-.69-1.47-1.36-1.29-2.58h-3.87v1.91c-.27.59-.67.77-1.29.67-.34-.06-1.08-1.37-1.81-1.34-.44.02-.31,1.61-3.35,2.63-.39.13-.91-.14-1.29,0-3.37,1.23-6.03,2.68-9.03,3.87-1.03.41-1.84.99-2.58,1.29-2.4.97-14.94,4.56-15.48,5.18-.12.14-.08,1.93,0,2.56-2.53-.65-3.34.27-5.16,1.29-.39.22-.83.91-1.29,1.29-1.11-3.3-3.98.7-5.16,1.29-3.55,1.78-5.54,2.02-9.03,5.16-2.47-.76-3.48.53-5.16,1.29-16.21,7.33-29.27,15.96-43.86,25.8-3.37,2.28-7.01,3.95-10.32,6.45-2,1.52-4.11,2.69-5.16,5.16-5.39,2.41-7.81,6.89-11.61,10.32-.98.88-1.68,1.68-2.58,2.58-.43.43-.87.84-1.29,1.29-1.4,1.49-1.86,1.45-3.87,3.87-1.98,2.38-1.97,1.55-3.87,5.16-1.4,2.66-1.62,4-2.58,6.45-1.71,4.38-3.27,6.35-3.87,11.61-.05.42.04.86,0,1.29-2.24,1.11-1.01,4.48-1.29,6.45-.23,1.58-3.49,5.59,0,7.74,0,4.72-.04,9.47,0,14.19.03,3.23-1.01,8.18,1.29,10.32.02,2.15-.01,4.3,0,6.45.01,1.72-.02,3.44,0,5.16,0,.43,0,.86,0,1.29.05,2.44-.89,6.33,1.29,7.74.06,4.72-.03,9.47,0,14.19.03,3.64-1.05,9.06,1.29,11.61,0,3.86-.03,7.75,0,11.61,0,.86-.01,1.72,0,2.58.03,2.83-.96,7.27,1.29,9.03.04,3.43-.03,6.89,0,10.32-.35.02-.92,1.21-1.29,1.29-.77.17-1.82-.18-2.58,0-.65.15-1.64-.38-2.39.19-.58.59-.02,1.81-.19,2.39-1.02,3.46,0,6.3,0,10.32,0,12.24-.17,24.53-.02,36.78.03,2.18-.83,5.73,1.31,7.08-.04.42.03.86,0,1.29-.21,2.93-.03,6.07,0,9.03.06,5.4.47,7.97,1.29,12.9.36,2.19,1.08,3.93,1.29,5.16.37,2.13.89,4.29,1.29,6.45.41,2.21,1.02,5.76,1.29,7.74.5,3.72,1.45,6.05,1.29,10.32-.17,4.41-1.04,10.31-1.29,15.48-.16,3.41-1.35,6.99-1.29,11.61.03,1.87,1.07,5.07,1.29,7.74.23,2.85-1.11,7.21,1.29,9.03.08,5.38,1.19,11.52,1.29,15.48.08,3.43-.09,6.89,0,10.32.01.43,0,.86,0,1.29.17,7.71-.07,15.5,0,23.22-1.71,3.76-2,8.74-2.58,12.9-.52,3.76-1.44,7.88-1.29,11.61.02.42-.06.88,0,1.29-1.82,3.74-2.34,8.77-2.58,12.9-.07,1.25-.1,2.63,0,3.87-1.77.6-1.12,2.51-1.29,3.87-.42,3.29-.01,5.4,0,7.74,0,.86,0,1.72,0,2.58-1.94.9-1.24,3.46-1.29,5.16-2.12,1.1-1.18,4.39-1.29,6.45-.22,3.92.58,8.5-2.58,11.61v41.28c1.91.85.49,5.36,2.58,5.16.05,1.72-.08,3.45,0,5.16.13,3.03,1.04,3.75,1.29,5.16.08.42-.08.88,0,1.29.41,2.11.82,4.36,1.29,6.45,1.71,7.57,3.98,14.59,6.45,21.93.44,1.31.81,2.57,1.29,3.87.93,2.54,1.42,5.05,2.58,7.74,3.18,7.41,7.33,15.09,11.61,21.93,1.99,3.18,4.24,6.03,6.45,9.03.91,1.24,1.64,2.66,2.58,3.87,2.96,3.81,8.17,9.11,11.61,12.9,3.21,3.54,5.62,5.81,9.03,9.03,1.86,1.76,2.76,5.28,6.45,5.16,1.8,2.97,2.44,6.21,6.45,5.16.48,1.07,1.79,2.95,2.58,3.87,1.54,1.8,3.5,2.53,5.16,3.87.26.21,1.02-.21,1.29,0,3.83,2.99,5.65,4.87,10.32,7.74,4.27,2.63,7.53,6.36,12.9,6.45.88,1.56,2.63,1.79,3.87,2.58,1.34.85,2.13,1.69,3.87,2.58,1.36.69,2.83.8,3.87,1.29,2.83,1.33,3.67,1.55,6.45,2.58,2.85,1.05,4.64,2.93,9.03,3.87.41.09.87-.07,1.29,0,2.19,2.73,5.93,2.99,9.03,3.87,3.21.91,7.1,2.07,10.32,2.58.42.07.87-.06,1.29,0,3.11,2.05,7.96,2.37,11.61,2.58.84.05,1.74.04,2.58,0l3.87,2.58h24.51v-1.29c3.23-.03,8.18,1.01,10.32-1.29.43,0,.86.02,1.29,0,6.3-.26,8.77-1.48,14.19-2.58,2.52-.51,4.94-.52,7.74-1.29,5.18-1.42,8.51-3.34,12.9-5.16,1.71-.71,5.14.25,6.45-2.58,7.18-1.32,8.13-2.52,14.19-5.16,3.71-1.61,12.8-3.57,12.9-7.74.43-.09.92.12,1.29,0,5.84-1.85,5.98-3.79,10.32-6.45,2.23-1.37,3.98-2.2,6.45-3.87,1.28-.86,2.62-1.68,3.87-2.58,2.23-1.6,5.81-2.2,5.16-5.16.33-.19.98.19,1.29,0,2.29-1.41,2.99-3.25,3.87-3.87.75-.52,1.94-.76,2.58-1.29,1.91-1.59,4.13-2.63,5.16-5.16,3.55-2.72,4.91-4.82,7.74-7.74,1.83-1.89,3.27-2.31,5.16-5.16.84-1.27,1.87-2.54,2.58-3.87,2.29-.87,2.62-2.56,3.87-3.87,1.3-1.37,2.68-3.56,3.87-5.16,3.06-4.12,4.12-5.62,6.45-10.32,3-3.12,4.68-4.61,5.16-9.03,5.13-7.66,5.63-10.03,9.03-18.06.98-2.31,2.81-4.63,3.87-7.74,3.02-8.87,4.74-16.62,6.45-25.8.08-.42-.07-.87,0-1.29,1.05-5.99,1.99-12.01,2.58-18.06.95-9.75,1.44-18.96,1.31-29.04-.03-2.18.83-5.73-1.31-7.08,0-1.72.01-3.44,0-5.16,0-.43,0-.86,0-1.29-.04-2.83.96-7.27-1.29-9.03-.03-2.15.06-4.3,0-6.45-.05-1.7.65-4.26-1.29-5.16.12-1.68.04-3.47,0-5.16-.07-2.81-1.23-4.45-1.29-5.16-.13-1.7.16-3.47,0-5.16-.25-2.57-1.16-4.16-1.29-5.16-.16-1.24.16-2.62,0-3.87-.59-4.7-.26-9.84-2.58-14.19.24-3.8.87-10.11-1.29-12.9.06-2.15-.02-4.3,0-6.45,2.38-7.32,1.28-16.69,1.29-24.51,0-4.29-.02-8.61,0-12.9,2.43-3.87,1.21-10.57,1.29-15.48.02-1.29-.05-2.58,0-3.87.1-2.57-.09-5.17,0-7.74.28-8.01,1.21-16.23,1.29-24.51,0-.84,0-1.73,0-2.58,2.38-4.29,1.27-11.47,1.29-16.77,0-1.29,0-2.58,0-3.87,0-4.29-.02-8.61,0-12.9,2.38-3.84,1.27-10.6,1.29-15.48.01-3.43,0-6.88,0-10.32,0-4.29-.02-8.61,0-12.9,2.38-3.84,1.27-10.6,1.29-15.48,0-.43,0-.86,0-1.29.02-6.86-.03-13.77,0-20.64,2.37-3.4,1.27-9.73,1.29-14.19.02-4.72-.05-9.47,0-14.19,2.24-1.76,1.26-6.2,1.29-9.03.04-4.29.03-8.61,0-12.9,2.3-2.14,1.26-7.09,1.29-10.32.03-3.43,0-6.89,0-10.32,2.17-1.4,1.25-5.3,1.29-7.74.06-3.84.15-7.78,0-11.61,1.7-.61,1.21-2.47,1.29-3.87h1.29v-20.64l-2.58-2.58Z" style="fill:none; stroke:#000; stroke-miterlimit:10; stroke-width:2px;"/></svg>