<svg xmlns="http://www.w3.org/2000/svg" version="1.1"
    xmlns:xlink="http://www.w3.org/1999/xlink" class="svg-base" width="512" height="512" x="0" y="0" viewBox="0 0 100 100" style="enable-background:new 0 0 512 512" xml:space="preserve">
    <g>
        <path d="M58.124 78.858H41.765c-2.978 0-2.978-4.5 0-4.5h16.359c2.978 0 2.978 4.5 0 4.5zM69.954 87.867h-40.02c-2.978 0-2.978-4.5 0-4.5h40.02c2.978 0 2.978 4.5 0 4.5zM47.695 12.133c-9.918.537-18.849 4.546-25.72 10.738l8.575 8.575c4.569-3.972 10.422-6.664 17.145-7.162zM20.216 51.773c.478-6.555 3.061-12.363 7.156-17.141l-8.595-8.595c-6.234 6.924-10.198 15.66-10.721 25.736zM20.196 56.273H8.056c.47 8.848 3.63 16.982 8.742 23.546.781 1.002 2.267 1.111 3.236.289l5.808-4.92c.944-.8 1.037-2.178.29-3.165a29.691 29.691 0 0 1-5.936-15.75zM85.875 32.311c-2.03 2.493-5.043 6.19-8.411 10.315 1.469 3.516 2.33 7.347 2.33 11.397a29.719 29.719 0 0 1-6.111 18.099c-.724.948-.519 2.313.393 3.081l5.782 4.867c.981.826 2.483.713 3.27-.3a41.815 41.815 0 0 0 8.816-25.748c.001-8.072-2.259-15.447-6.069-21.711zM83.197 28.468c-7.355-9.491-18.603-15.663-31.002-16.332v12.159c7.711.588 15.632 4.182 21.256 11.374 0 0-26.79 19.886-27.743 20.84a5.611 5.611 0 0 0 7.935 7.935c1.42-1.421 29.554-35.976 29.554-35.976zm-.112.138.001-.001z" fill="#ffffff" opacity="1" data-original="#000000"></path>
    </g>
</svg>