<?xml version="1.0" encoding="UTF-8"?><svg id="Layer_1" xmlns="http://www.w3.org/2000/svg" width="375.62" height="748.89" viewBox="0 0 375.62 748.89"><path d="M365.65,376.37c-5.38-85.25-3.61-170.59-13.49-255.68-1.86-15.99-6.08-69.46-17.27-79.23C308.97,18.84,248.94,4.62,213.99,2.75c-2.22-1.55-6.36-.83-9.27-.84-5.33-.02-10.69.02-16.01,0-.04.84.03,1.69,0,2.53-.03.84.03,1.69,0,2.53-.05,1.4.02,2.81,0,4.21h-1.68c-.05-2.59.72-7.7-.84-9.27-2-2.02-5.41-.03-7.97.03-32.61.88-58.82,4.82-89.76,15.13-8.43,2.81-40.52,14.28-44.21,21.12-.53.98-.24,1.92-.44,2.47-.71.25-2.3-.42-3.22.15-.49.31-.57,1.84-.99,2.37-9.57,12.15-12.91,45.81-15.04,62.04-5.73,43.48-7.86,87.41-9.33,131.27l-2.6.89c.43,2.79.86,5.12.86,8,0,.84.02,1.69,0,2.53l-1.68-5.05c-.05,9.29-1.14,18.54-1.69,27.8-1.04,17.44-2.89,37.96-1.72,55.21.73,10.64,3.08,18.84,2.59,30.33-.58,13.66-1.61,27.99-2.56,41.67-4.35,62.37-12.79,116.57-2.61,179.77.01.16.04.33.08.52,4.88,30,10.84,54.42,26.12,80.88,26.62,46.1,73.04,77.04,125.53,85.93,24.27,4.11,40.72,3.94,64.87-.84,17.46-3.46,33.08-8.5,48.86-16.85,2.6-1.38,4.47-2.87,6.74-4.21,1.13-.67,1.79-1.23,2.53-1.68,21.08-12.95,41.7-29.88,55.6-50.55,10.39-15.43,17.12-29.5,22.75-47.18,27.02-84.83,12.18-161.22,6.75-247.27Z" style="fill:none; stroke:#000; stroke-miterlimit:10; stroke-width:2px;"/></svg>