<?xml version="1.0" encoding="UTF-8"?><svg id="Layer_1" xmlns="http://www.w3.org/2000/svg" width="752.28" height="280.02" viewBox="0 0 752.28 280.02"><path d="M749.5,191.64c.27-.22.7-.63.89-.89.12-.17.72-.17.81-.62.58-2.62-14.25-22.56-16.9-26.18-21.71-29.74-44.87-52.8-74.15-75.04-1.17-.89-2.36-1.8-3.57-2.68-4.09-2.97-7.22-5.2-11.61-8.04-3.44-2.22-7.27-4.1-10.72-6.25-56.13-35.06-111.83-54.93-179.24-64.21-23.93-3.29-47-3.09-70.91-4.58-.17-.01-1.01-.93-2.68-.89-.78.02-2.08.1-3.54.2-3.12-.15-6.25-.97-8.97-1.09-16.45-.76-38.61-.36-54.81,1.91-2.65.37-5.18.74-7.72,1.66-1.65.6-2.05,0-2.68,2.68-.19-.1-.57.06-.89,0-.65-.11-2-.1-2.68,0-7.53-2.11-17.51,1.85-25.01,4.02-8.9,2.57-19.95,6.22-28.3,10.11-1.49.69-3.13,1.17-3.86,2.84-3.87,1.47-11.48,2.79-12.51,7.15-7.3,2.33-14.67,4.58-21.9,7.13-11.72,4.13-27.05,12.52-38.4,12.52h-14.29c-1.39,0-6.54,1.39-8.49,1.79-10.94,2.23-15.12,4.78-24.12,10.72-1.4.93-3.04,1.58-4.47,2.68-4.23,3.27-8.31,6.92-11.6,11.19-3.45,4.47-5.34,9.67-8.95,13.83-26.11,13.05-67.67,45.46-89.35,65.65-1.99,1.85-5.96,5.42-7.13,7.61-1.41,2.63-.59,4.23.72,6.88.88,1.77,9.46,13.09,10.82,14.19,2.62,2.12,5.45,1.12,8.63,1.24,1.14.04,2.05.93,2.17.93-2.75,2.63-1.01,3.37,0,6.25-.49.41-1.55.49-1.72,1.51-.41,1.43.72,1.74.82,2.07,2.39,7.29,19.43,19.38,25.91,25.01,1.58,1.38,3.01,2.35,4.47,3.57,6.92,5.83,14.2,13.65,21.44,18.76,5.69,4.02,14.2,8.57,21.09,9.74,26.37,4.46,60.18,6.28,87.01,6.35,6.63,1.65,14.51.89,21.44.89,3.26,0,6.56-.07,9.83,0,3.52.07,9-.59,12.07,0,2.06.39,2.28,2.29,3.12,2.69.24.11.64-.11.89,0,11.22,5.01,40.63,9.95,53.6,11.61,30.12,3.87,56.35,2.24,86.17,1.75,46.87-.76,98.1,2.18,144.32-1.75,23.42-1.99,47.51-6.4,71.03-8.93,18.78-2.01,38.56-2.31,57.07-4.58,3.39-.42,5.75-1.79,8.59-3.47,14.59.06,28.47-1.56,42.88-3.57,4.16-.58,8.37-1.03,12.51-1.79,5.32-.98,11.68-1.03,15.58-5.41,1.34-1.51,1.52-3.15,2.29-4.41,3.04-4.98,4.64-9.24,7.15-14.29,1.81-3.65,5.06-12.19,7.28-14.61,1.99-2.17,2.66-1.47,4.34-2.37,1.26-.67,3.93-1.42,4.47-2.45.93-1.76,3.39-13.63,3.56-16,.12-1.73-2.36-.9-1.78-2.99Z" style="fill:none; stroke:#000; stroke-miterlimit:10; stroke-width:2px;"/></svg>