<?xml version="1.0" encoding="UTF-8"?><svg id="Layer_1" xmlns="http://www.w3.org/2000/svg" width="489.25" height="752.48" viewBox="0 0 489.25 752.48"><path d="M471.24,191.92c-5.82-30.96-13.58-64.48-30.69-91.07-.36-.55-1.2-1.02-1.59-1.59-12.75-18.73-23.43-24.17-40.45-38.07-14.61-11.93-30.48-24.09-44.43-36.87-3.47-3.18-20.76-21.85-22.76-22.45-7.56-2.3-7.86,6.01-8.2,11.3-.19,2.99,1.23,17.82.62,18.52-.31.35-1.32.07-1.38.15l-2.38-.79c1.25,2.45.78,5.26.79,7.92-1.71.41-1.44-1.27-2.58-1.81-4.39-2.07-5.14-.53-8.89-.53-13.05,0-30.44-1.43-42.88-.06-1.17.13-3.82.88-4.63,1.56-.8.66-.42,1.55-.5,1.63-.79-.02-1.59.04-2.38,0-.01-6.48.04-12.98-.04-19.47-.02-1.61.79-3.08.75-4.64-.05-1.96-1.42-8.69-2.24-10.45-1.15-2.47-5.43-5.07-7.95-3.94-1.75.78-9.51,9.77-11.92,11.94-27.83,25.1-59.23,46.02-88.52,69.33-1.77,2.2-1.64,13.07-1.92,16.72-.02.26.01.53,0,.79-.91.28-1.87,2.33-2.79.81-1.02-1.69-1.57-9.71-3.95-9.6-3.86.18-7.12,6.71-9.12,9.58-1.25,1.79-2.01,2.69-3.17,4.76-5.98,10.63-12.14,28.74-15.17,40.75-3.89,15.43-5.21,32.29-7.04,48.09-.62,4.71-.92,8.69-.79,13.48.01.52-.05,1.07,0,1.59.07.67.01,1.36.79,1.59-.89,2.19-.2,6.86-.38,7.18-.33.58-2.1,1.08-2.82,1.92-2.54,2.97-2.06,8.64-2.35,12.32l-15.07,8.73c-16.35,7.58-34.2,15.65-49.99,24.18-4.25,2.29-9.57,4.76-12.67,8.35C-5.97,290.45,1.66,350.44,2.7,378.08c.99,26.37,2.11,52.6,3.97,78.92.33,4.62-.06,9.05.89,13.79,1.78,8.91,8.03,17.13,14.98,22.7,11.11,12.08,26.11,23.34,38.07,34.9,21.04,20.33,43.69,43.59,60.93,67.17,5.37,7.34,14.14,23.6,19.98,28.8.92.82,1.07,2.06,3.17,1.59.95,3.43,2.02,6.95,3.17,10.31,1.11,3.24,2.7,6.35,3.97,9.52,17.43,43.52,41.17,70.62,84.08,90.43,10.91,5.03,20.72,8.57,32.52,11.1,5.13,1.1,10.64,1.75,15.86,2.38,1.75.21,3.14.69,5.55.79,1.58.06,3.18-.05,4.76,0,4.28,1.33,10.73,1.34,15.07,0,7.77-.23,13.79-1.02,21.42-2.38,2.05-.37,4.61,0,6.35-1.59.52-.06,1.07.06,1.59,0,6.63-.79,13.88-4.6,19.83-7.14,37.62-16.07,65.41-49.89,84.08-85.67,25.17-48.25,32.36-97.42,38.77-150.41,1.44-11.94,2.49-23.98,3.27-35.99l2.41-22.57c2.72-84.08-.59-170.01-16.15-252.82Z" style="fill:none; stroke:#000; stroke-miterlimit:10; stroke-width:2px;"/></svg>