<?xml version="1.0" encoding="UTF-8"?><svg id="Layer_1" xmlns="http://www.w3.org/2000/svg" width="676.13" height="258.94" viewBox="0 0 676.13 258.94"><path d="M674.82,145.23c-.14-1.44-1.05-2.23-1.12-2.6-.37-2.02-.4-2.33-1.07-4.3-2.29-6.69-5.88-11.8-9.85-17.55-36.1-52.26-86.6-87.12-147.06-106.04-2.63-.82-4.92-1.41-7.52-2.15-2.82-.8-5.75-1.44-8.6-2.15C466.04,2.14,432.12-.56,397.5,1.84c-.35.02-.72.05-1.09.08-3.59.12-8.09-1.12-10.73.99-29.25,2.59-57.32,8.01-85.98,13.97-9.88,2.05-19.41,2.97-29.02,6.45-6.72,2.43-13.17,6.01-20.65,7.85-11.47,2.81-27.56,6.64-38.9,7.29-5.39.31-11.01,8.02-15.39,10.41-2.97,1.62-26.34,10.45-29.06,10.81-4.1.54-12.28-4.82-16.97-6.2-40.3-11.89-77.69,12.91-88.65,52.02-15.16,9.07-34.58,15.34-49.07,25.09-4.2,2.83-9.39,10.44-10.61,15.21-.34,1.33-.89,1.7.58,2.76,10.24,1.19,20.39,2.28,30.72,2.65,2.07.07,4.31-1.09,3.71,2.15-2.6.68-17.88,6.98-18.22,8.19-.2.71,1.02,1.36,1.02,1.48-.09,3.22-1.98,1.77-2.2,2.83-.72,3.5,11.14,23.43,13.34,28.31.47,1.03-.55,2.93.07,4.29,5.36,11.71,11.79,22.51,16.94,34.24.59.47,1.32.1,1.94.18,1.04.12,2.16-.05,3.22,0,9,.46,17.94-.22,26.87-1.07.45.89,2.13,1.61,2.88,3.02,2.36,4.41,2.67,9.98,8.46,10.89,37.73,5.88,80.85,2.66,119.28,3.24,12.57.19,25.35,1.12,38.11,1.12h12.9c2.99,2.98,4.89,3.86,8.6,5.37,2.16.88,3.96,2.74,6.95,2.19,77.38-.81,154.82.94,232.19-.02,1.82-.02,4.78.69,5.9-1.09,26.15-1.25,40.5-11.89,60.18-26.87,3.75-.21,7.58.3,11.33.04,1.39-.1,2.81-1.11,3.18-1.11h17.2c5.63-2.34,10.64-.01,16.66-2.15.4-.14,1.34.38,1.92-.21.49-1.36.69-2.77,1.31-4.09,3.91-8.35,4.58-18.31,9.07-26.93,4.15-7.96,11.82-15.54,16.23-23.59,2.58-2.23,6.22,1.76,10.16,2.16,4.71.48,11.31-2.6,12.68-7.21.83-2.81.61-17.71.26-21.36Z" style="fill:none; stroke:#000; stroke-miterlimit:10; stroke-width:2px;"/></svg>