<?xml version="1.0" encoding="UTF-8"?><svg id="Layer_1" xmlns="http://www.w3.org/2000/svg" width="440.56" height="676.13" viewBox="0 0 440.56 676.13"><path d="M435.87,363.28c1.65-2.36,3.07-19.83,3.27-24.15,3.2-67.78-12.36-134.97-23.44-201.36-1.5-9-1.82-18.4-4.56-27.16-.03-.36.03-.72,0-1.08-.33-4.12-.16-9.34-2.15-12.9-.33-2.97.09-8.17-1.65-10.71-1.82-2.67-6.9-2.31-9.1-3.26-1.12-.48-3.12-2.33-3.22-3.77-.9-5.72-1.94-29.54-5.42-32.23-.56-.44-1.41-.48-2.11-.56L273.8,2.2c-4.72-.81-3.05,3.67-3.51,6.28-1.13,6.42-.58,10.49-1.03,16.71-.17,2.42-1.25,14.88-1.64,15.56-1.83,3.1-15.13,3.07-18.83,3.21-9.25.37-18.68-.05-27.95,0-.34,0-1.36.9-2.62.9-3.58,0-8.35-1.8-12.44-.9-2.54-12.88.22-26.05-1.08-38.71-.26-2.5.05-4.82-3.51-4.13l-117.55,42.78c-1.56.21-1.84,1.34-2.58,2.21-.76.89-1.79,1.45-1.88,2.92-8.42,41.55-15.14,83.27-20.75,125.3-.11.84-2.1,1.41-2.1,1.87-3.2-.12-8.47.2-9.98,3.46-1.94,4.2-2.24,17.9-2.93,23.42-.17.8-.25,1.55-.26,2.26-1.16,10.91-.42,15.24-9.42,24.62-3.88,4.04-9.49,6.74-12.9,11.29-8.01,10.7-8.3,42.24-9.68,56.44-2.41,24.85-5.55,50.23-5.38,75.26-1.96,4.79-1.1,11.76-1.08,17.2,0,1.43-.02,2.87,0,4.3-1.78,1.12-1.07,4.08-1.09,5.9-.56,52.37-15.22,102.93,31.2,141.4,2.62,5.44,7.85,9.51,11.83,13.98,1.19,1.33,2.24,2.17,3.23,3.23,10.2,10.91,16.65,17.84,29.03,26.88,10.52,7.67,20.84,14.91,33.33,18.28,2.44.66,8.24,4.09,10.28,1.14,1.6-2.31-.57-14.06-1.68-17.27-3.25-23.21-5.57-46.83-9.68-69.89l1.08-3.23c5.55,28.27,9.57,56.91,15.37,85.16,6.01,29.32,6.53,55.48,38.39,67.51,25.18,9.51,57.66,6.37,84.45,7.57l20.92-2.19c11.45.93,27.8-1.83,38.71-5.38,15.72-5.12,22.17-9.22,30.1-23.65,1.16-2.1,2.3-4.24,3.23-6.45.77-1.84,2.04-1.64,2.15-5.38.01-.36.01-.72,0-1.08,4.18-13.3,5.85-27.25,8.6-40.86.26-1.3.76-2.72,1.08-4.3,10.05-50.33,18.54-96.13,32.17-145.79.48-1.74-.06-2.74,2.24-3.66.97.38,2.28.33,3.23,1.08-2.65,4.11-7.01,20.17-8.6,25.8-2.44,8.62-4.35,16.8-6.11,25.6-5.61,28.04-13.58,65.5-16.33,93.33-.25,2.53-.95,6.03.94,7.94,2.5,2.53,15.04-2.29,18.26-3.78,18.1-8.41,27.11-37.3,33.04-55.12,8.03-24.14,17.61-56.47,20.6-81.54,3.29-27.53.7-57.62.14-85.34,1.03,0,.87-.78,1.08-1.08Z" style="fill:none; stroke:#000; stroke-miterlimit:10; stroke-width:2px;"/></svg>