<?xml version="1.0" encoding="UTF-8"?><svg id="Layer_1" xmlns="http://www.w3.org/2000/svg" width="714.21" height="271.61" viewBox="0 0 714.21 271.61"><path d="M710.84,199.68c-.84-1.63-1.44-2.2-2.34-3.51-.93-1.34-1.13-3.39-2.93-4.1-.24-1.8-1.83-3.12-2.93-4.68-10.97-15.67-21.94-29.63-34.55-43.92-.18-.2-.4-.38-.59-.59-1.57-1.77-3.06-3.52-4.68-5.27-.51-.55-1.15-1.1-1.76-1.76-1.7-1.82-3.32-3.93-5.27-5.86-1.2-1.19-2.41-2.41-3.51-3.51-2.56-2.55-4.98-5.11-7.61-7.61-1.43-1.36-3.1-2.62-4.68-4.1-5.18-4.83-10.34-9.51-15.81-14.05-1.2-1-3.21-2.33-4.68-3.51-2.53-2.02-4.9-4.44-7.61-6.44-.69-.51-1.68-1.29-2.34-1.76-.87-.61-2.08-1.9-2.93-2.34l-8.59-6.36c-.57-.49-1.27-.5-1.95-.67-2.35-.77-3.18-3.1-4.71-4.37-.8-.66-2.06-.91-2.91-1.48-18.03-12.16-34.28-22.22-54.46-32.21-3.73-1.85-7.37-3.54-11.13-5.27-.71-.33-1.44-.76-2.34-1.17-5.43-2.46-12.68-7.01-18.74-7.61.18-1.37-3.1-2.23-4.11-2.63-4.24-1.69-8.58-2.92-12.88-4.4-1.4-.48-2.97-1.2-4.68-1.76-.58-.19-1.19-.41-1.76-.59-1.76-.56-3.46-1.22-5.27-1.76-.72-.21-1.57-.37-2.34-.59-1.74-.48-3.53-.75-5.27-1.17-.38-.09-.8-.5-1.17-.59-.51-.12-1.05-.43-1.76-.59-1.26-1.32-4.06-1.79-5.86-1.76-.39,0-.78,0-1.17,0-1.92-.64-3.91-1.21-5.86-1.76-4.48-1.25-8.82-2.39-13.47-2.93-.38-.04-.79.03-1.17,0-1.24-1.4-3.15-.95-4.68-1.17-2.91-.42-5.83-1.05-8.78-1.17-10.97-4.18-37.24-3.82-49.46-3.49-32.03.86-64.36,4.12-95.55,11.61-6.29,1.51-18.92,6.56-24.1,6.99-12.73,1.06-26.73,6.96-38.18,12.71-4.83,2.43-12.38,4.2-17.72,6.29-8.74,3.43-18.97,8.5-27.96,10.39-14.61-4.26-30.43-2.81-44.5,2.64-14.02,5.43-31.11,18.41-38.07,31.91-.48.94-1.05,1.84-1.17,2.93-13.68,5.43-29.21,13.72-42.56,20.39-12.66,6.33-25.23,12.95-37.64,19.75-2.01,1.07-4.08,14.34-3.54,14.91.74.1,1.65-.13,2.34,0l.74,8.92c7.82,14.83,14.15,30.58,22.68,44.96.38,2.85,3.85,7.84,5.27,10.54,2.17,7.44,13.19,25.21,17.47,33.19,1.84,3.42,4.14,6.73,5.96,10.15.65,1.23.65,3.4,2.34,4.1,1.39,3.54,4.23,8.26,6.44,11.13.65.84-.07,1.62,2.19,2.21,24.79,2.65,49.65,2.63,74.53,3.06,14.34.25,28.64.77,43.05.6.99-.01,2.6.38,3.21-.6,61.05.3,122-1.53,183.03-2.32,54.32-.7,109.15-1.76,163.65-1.78,5.95,0,11.92.08,17.87.01.99-.01,2.6.38,3.21-.6,4.68,0,9.38,0,14.05,0,4.15,0,8.94.49,12.88-.59,2.34,0,4.69.03,7.03,0,.78-.01,1.56.02,2.34,0,.98-.02,1.95.03,2.93,0,3.32-.09,5.46.1,8.78-.59,6.38.39,12.71-.76,19.04-1.16,16.14-1.03,32.49-1.46,48.31-4.69,3.28.03,10.25-1.29,12.87-3.23,1.42-1.05,5.2-7.64,6.45-9.65.6-.97.81-1.73,1.17-2.34,1.09-1.84,2.37-3.93,3.51-5.86,1.59-2.67,3.1-5.49,4.68-8.2.52-.89,1.2-1.96,1.76-2.93.57-.98,1.19-1.96,1.76-2.93.79-1.36,1.54-2.73,2.31-4.1.01,0,.02,0,.03,0l.02-.08c.97-1.73,1.96-3.47,2.92-5.18.21-.38.38-.79.59-1.17.89-1.62,1.98-3.74,2.93-5.27.38-.6,1.96-.61,1.77-2.59-.7-1.74-1.5-3.36-2.35-5.02Z" style="fill:none; stroke:#000; stroke-miterlimit:10; stroke-width:2px;"/></svg>