<?xml version="1.0" encoding="UTF-8"?><svg id="Layer_1" xmlns="http://www.w3.org/2000/svg" width="725.66" height="251.63" viewBox="0 0 725.66 251.63"><path d="M716.99,141.73c-.86-1.1-1.91-1.79-2.38-2.38-5.97-7.56-11.78-14.87-18.26-22.23-20.27-23.01-42.65-43.52-68.33-60.65-5.17-3.45-20.93-13.53-26.12-14.76-1.32-2.53-4.99-2.84-7.14-3.97-1.51-.79-3.01-1.88-3.97-2.38-2.47-1.3-3.23-1.45-5.56-2.38-2.03-.82-3.24-1.7-4.76-2.38-4.36-1.94-7.51-3.16-11.91-4.76-3.66-1.33-7.45-2.68-11.11-3.97C488.41-2.31,426.86-2.73,355.03,6.78c-4.73.63-9.59.92-14.29,1.59-21.71,3.09-63.77,7.63-82.55,16.67-2.88,1.39-2.19,1.61-3.97,3.18-7.87,1.76-15.36,5.07-22.99,7.57-17.02,5.57-31.79,11.56-48.45,17.83-2.08.78-1.98,1.09-4.76,1.59-5.88,1.06-4.34-.7-8.72-2-6.85-2.03-31.32.34-38.11,3.19-7.41,3.11-17.46,8.38-23.02,13.89-4.29,4.26-11.98,11.5-14.94,16.41-2.04,3.39-3.61,11.07-4.85,12.62-1.4,1.76-4.05,1.35-5.62,1.93-15.32,5.68-31.86,16.94-46.04,25.4-9.62,5.74-24.31,13.11-32.54,19.84-.13.1-.95-.31-1.63.52-.71.86-1.65,3.83-1.54,5.04.35,4.05,5.98,10.39,6.54,14.91.43.44,1.19.06,1.39.17.77.41,1.41.95,2.38.8l-1.58,1.18c.36.9,6.64,5.17,7.93,6.75,5.39,6.56,9.93,18.89,11.91,26.99,1.63,6.67,4.48,10.6,8.73,15.88,3.92,4.86,3.98,5.08,9.53,7.94,18.89,9.73,34.92,14.45,56.36,17.46.26.04.53-.03.79,0,2.16,1.66,5.54,1.14,7.94,1.59,20.47,3.79,37.47,4.91,58.37,4.8,74.89-.41,150.06-1.88,225-1.62,1.8.07,3.61.05,5.42.03,66.98.41,134.97,4.12,201.76-.82,4.62-.34,8.78-.34,13.49-.79,16.81-1.63,35.63-2.1,50.01-11.91,3.49-2.38,5.58-4.64,8.73-7.14,1.96-1.56,4.87-2.72,7.14-4.76,4.57-4.1,9.85-15.86,12.59-21.94.9-1.99,2.98-5.4,1.7-7.43,2.79-1.98,6.13-5.53,8.73-7.94,9.24-8.56,8.48-8.74,13.49-19.05,1.04-2.14,2.88-3.97,3.97-6.35,3.88-8.49-1.52-12.89-6.35-19.05Z" style="fill:none; stroke:#000; stroke-miterlimit:10; stroke-width:2px;"/></svg>