<?xml version="1.0" encoding="UTF-8"?><svg id="Layer_1" xmlns="http://www.w3.org/2000/svg" width="394.32" height="725.48" viewBox="0 0 394.32 725.48"><path d="M393.21,532.54c-.02-1.5.57-3.94-.9-4.86-1.29-22.01-10.38-45.82-15.05-67.28-1.06-4.87-1.69-10.11-2.66-15.05-.25-1.28-.85-2.47-.89-2.66-.48-2.48-1.56-5.24-1.77-7.08-.38-3.27-.66-6.7-.86-10.26-.05-13.54-.04-27.09-.02-40.64.44-14.55,1.05-29.03.89-41.63-.02-1.5.57-3.93-.9-4.86-.01-3.38.01-6.78,0-10.17-.13-24.95-.55-50.54-1.8-76.11-.33-6.66,1.22-21.85-3.06-27.05-1.17-1.42-2.7-.65-3.99-.87,1.11-34.44.85-70.9-.88-105.8-.38-7.77.4-20.23-.93-27.39-.51-2.74-13.29-20.86-15.9-24.38-.84-1.13-1.29-2.63-2.17-3.57-4.95-5.3-44.76-23.72-54.17-28.17-14.21-6.72-28.7-12.63-43.14-18.82-3.29-1.41-4.4-4.1-8.74-3.26-5.98,1.16-7.13,5.14-6.86,10.45-3.35,2.38-3.05-.63-3.54-3.54-.75-4.4.32-4.77-4.13-7.82-3.12-2.14-24.19-10.86-27.22-10.73-2.6.12-13.37,4.42-16.44,5.72-1.94.82-13.54,6.33-14.19,7.06-2.55,2.86,1.65,9.6-3.53,10.19h-.89c.13-6.86-2.52-11.96-9.74-12.03-34.5,14.95-67.99,31.84-101.21,49.35-2.35.67-2.49,3.25-3.25,4.28-3.75,5.08-16,22.77-16.74,27.96-.74,5.15.3,11.44-.04,16.78-2,31.27-2.97,62.45-3.61,93.77-.15,7.37,1.51,12.68,1.81,19.07.01.29,0,.59,0,.89-1.37.25-4.23-.49-5.19.12-.49.31-3.42,9.74-3.59,11.02-2.5,18.92-1.22,44.11-1.81,63.7-.18,6.11-2.49,13.68-.04,19.88.03,1.48.89,3.13.89,3.54-.28,28-1.35,56.51-1.81,84.51-.11,6.88-.88,18.71.88,24.87,1.02,3.57,4.12,6.26,4.47,10.14-1.87,2.83-3.23,12.25-3.54,15.93-3.42,15.04-7.95,30.02-11.1,45.12-8.77,42.14-6.43,67.27,13.29,105.4,18.14,35.06,42.14,64.52,74.82,86.74,4.17,2.84,7.1,4.62,11.51,7.08,1.45.81,2.76,1.8,4.43,2.66,8.25,4.21,15.15,6.85,23.9,9.74,5.47,1.8,10.91,4.45,16.82,4.43,24.83,8.26,61.35,6.29,86.76.89,3.72-.22,8.44-.52,11.51-2.66,1.17-.3,2.37-.6,3.54-.89,11.98-2.97,21.07-6.52,31.87-12.39,4.85-2.63,7.96-5.59,11.51-7.97,3.4-2.28,6.88-5.18,9.74-7.08,25.7-17.06,44.13-42.86,60.57-69.13,11.42-18.26,27.92-44.89,25.3-67.21,2.4-6.18,1.87-13.37,1.79-19.93Z" style="fill:none; stroke:#000; stroke-miterlimit:10; stroke-width:2px;"/></svg>