<?xml version="1.0" encoding="UTF-8"?><svg id="Layer_1" xmlns="http://www.w3.org/2000/svg" width="680.87" height="232.38" viewBox="0 0 680.87 232.38"><path d="M679.45,189.95c-1.61-6.5-4.95-14.56-7.49-20.86-17.56-43.6-44.53-83.44-81.93-112.25-4.81-3.7-12.31-9.62-17.65-12.07-3.23-2.8-7.43-5.07-11.2-7.18-16.8-9.4-34.39-16.39-52.77-21.86-12.41-3.69-29.41-8.86-42.19-9.53-3.06-.64-6.26-1.34-9.36-1.75C424.25.09,388.85-.21,356.24,3.98c-6.15.79-12.35,1.94-18.43,3.12-3.91.16-6.05,1.92-8.62,2.27-.29.04-.61-.04-.91,0-1.81.23-4.2-.09-5.9.91-.15-.01-.3,0-.45,0-3.54.01-9.15,1.6-12.8,2.4-19.28,4.21-38.25,9.93-57.07,15.75-26.15,8.08-52.18,17.16-77.58,27.22-1.21.04-.49-.9-2.02-.95-2.06-.07-1.53.89-1.89.96-1.19.25-2.52-.99-3.34-1.83-.06-.06.15-.66-.06-.83-.52-.42-3.17-.09-3.57.83-.12,0-.52.69-1.47.4-.92-.28-2.11-2.15-3.29-2.19-1.07-.03-2.18,1.44-3.6,1.34-1.44-.1-1.95-1.69-4.34-1.36-1.28.18-1.6,1.3-2.52,1.39-1.03.09-1.4-.69-2.02-.93-2.19-.85-2.17-.29-4.16.51-1.32.53-.53.77-3.1.85-.63.02-1.06-.53-2.14-.15-.79.28-1.45,2.22-2.7,2.33-1.31.12-2.86-.81-4.38-.28-1.01.35-1.38,2.51-1.98,2.65-1.08.26-3.34-.05-4.67,0-2.84.09-.38,1.52-1.79,2.53-.83.59-3.84-.02-5.02.2-.02.3.02.61,0,.91,0,.15,0,.3,0,.45-.58.19-1.84,2.22-2.14,2.27-.91.15-1.93-.43-2.74-.15-.83.29-.44.86-.56,1.06-.06.09-.53.16-.67.47-.3.67-.24,2.68-1.26,3.01-1.46.47-1.79.09-3.51,1.05-.14.08-.73-.15-.86.03-.31.41.54,2.71-1.28,3.59-1.8.87-4.61.36-3.3,3.64-.16.5.11,2.16-1.05,2.58-.73.26-1.24.04-1.68.15-3.25.8-1.03,3.67-2.01,5.02-.38.53-3.03.43-3.43,2.24-.24,1.09.52,3.67.05,4.26-.47.61-3.23.06-2.78,2.55-29.86,14.65-58.84,31.11-87.54,47.89-2.19,1.98,1.98,7.04,2.35,9.62,3.51,1.11,7.1,1.13,10.78,1.01.42.11.92.31,1.36.45,1.27.42,2.65,1.14,4.09,1.58,1.52.47,5.15.51,2.96,1.9-.08.05-.16.1-.24.15-2.69,1.57-5.47,2.99-8.17,4.54-.7.4-1.25,1.02-1.81,1.36-.24.14-.58.27-.91.45-.54.31-2.83.59-2.54,1.83,3.3,6.53,5.79,13.48,9.02,20.04,6.02,12.22,12.36,24.43,18.47,36.65.15.31.3.6.45.91.1.21,0,.82.26,1.31.49.92,2.52,4.73,3.22,4.96,2.75.94,10.11-.77,12.86.07.12.55-.31,2.19.26,2.28,3.03.48,6.57-.41,9.47-.48,7.63-.19,15.3.11,22.93.02,15.79-.19,31.59-.25,47.42-.45.77,0,2.02.29,2.49-.46,6.16.05,13.24.41,19.3,0,1.29-.09.47-1.12.67-1.82,17.65-.24,35.38-1.22,53.08-.91,1.93.03,4.26-.81,4.33,1.39,14.21-.28,28.43-.26,42.65-.47,4.17-.06,8.52-.43,12.67-.49,12.7-.2,25.41-.09,38.11-.4l1.16-1.39c47.82.08,95.97-1.77,143.83-2.27.76,0,1.51,0,2.27,0,2.87-.03,5.75.03,8.62,0,2.71-.03,5.45,0,8.17,0-.14,2.94,2.19,1.39,3.84,1.34,42.12-1.17,84.59-1.08,126.58-1.81,12.63-.22,25.28-.31,37.91-.43-.34-2.43.25-1.38,1.81-2.27,2.86-.07,13.51.53,15.15-.5l23.35-28.9c.18-.74-.36-.86-.39-1Z" style="fill:none; stroke:#000; stroke-miterlimit:10; stroke-width:2px;"/></svg>