<?xml version="1.0" encoding="UTF-8"?><svg id="Layer_1" xmlns="http://www.w3.org/2000/svg" width="373.45" height="681.13" viewBox="0 0 373.45 681.13"><path d="M371.37,478.78c-2.02-36.54-3.93-73.31-6.49-109.91-1.55-22.12-3.88-44.18-3.22-66.33.87-29.2,4.3-58.51,5.18-87.77,1.38-45.7-.65-91.44-4.56-136.9-.26-3.08-.12-6.71-.66-9.76-.08-.43-.22-.67-.65-.81l-13.03-12.17c-2.04-.97-4.25-2.05-6.48-2.46-12.99-5.75-27.03-10.43-40.31-15.77-22.09-8.88-43.68-18.93-66.16-26.83-8.92-3.13-17.92-6.63-27.36-7.76-5.41-.64-10.52-.51-15.9-.68-1.08-.03-2.79-1.03-3.08.47-.49,2.63.21,6.49-.33,9.27h-6.99s-.49-.45-.49-.49V1.46c0-1.09-5.16.09-6.02.16-6.96.53-15.12.53-21.83,2.23-.52.13-1.1.18-1.42.7-6.9,1.42-15.87,5.44-22.6,8.12-21.67,8.65-42.81,18.64-64.31,27.7-12.35,5.21-26.02,9.84-37.94,15.55-2.6.32-4.8,1.87-6.67,3.57-3.65,3.31-6.9,7.8-10.71,11.08-1.24,2.49-.62,5.32-.83,7.95-3.09,38.44-4.42,77.15-4.58,115.75-.02,5.16,1.01,11.08.36,16.27-.19,1.52-1.4,3.37-1.6,5.23-.16,1.48.05,3.03-.04,4.51-1.31,22.31-.26,44.94-.99,67.32-.09.87.17,1.2.67,1.77.14.17.15.52.51.58,1.08-.26,6.41-.57,6.82.05.17.25.88,5.6.8,6.03-.18.94-.57.74-1.31.82-1.81.19-6.37-.5-7.51.46-1.3,1.09-.32,2.88-.28,4.24.21,8.75.37,17.46.64,26.19.48,15.88.48,30.18,3.35,45.91.83,4.55,2.88,10.72,3.17,15.04.17,2.57-.55,5.84-.67,8.45-1.84,38.15-3.75,76.18-4.55,114.48l1.31,11.85c.26,2.93.46,5.95,1.3,8.78,1.37,10.33,3.71,20.76,7.15,30.56,12.5,42.84,53.59,78.81,93.15,96.89,13.72,6.27,30.98,13.5,45.61,16.81,39.87,9.02,84.06.5,119.72-18.44,12.46-5.93,23.55-13.17,34.46-21.46,8.67-6.59,20.17-15.39,26.66-24.06,3.06-2.29,4.98-5.64,7.48-8.45.66-.74,1.82-1.33,1.95-2.6.55-.64,1.06-1.31,1.63-1.95.57-.65,1.52-1.16,1.63-2.28.31-.36.63-.88.98-1.3,2.2-2.74,3.43-4.85,5.2-7.8.32-.53.67-1.09.98-1.63,1.81-3.16,4.3-6.74,5.2-10.4.03-.1-.02-.22,0-.33.86.19.62-.45.82-.95,6.06-14.73,10.45-29.98,12.18-45.87.41-.71.55-1.94.65-2.77,1.88-16.39.89-31.15,0-47.45Z" style="fill:none; stroke:#000; stroke-miterlimit:10; stroke-width:2px;"/></svg>