<?xml version="1.0" encoding="UTF-8"?><svg id="Layer_1" xmlns="http://www.w3.org/2000/svg" width="689.04" height="237.52" viewBox="0 0 689.04 237.52"><path d="M677.74,135.71c-.15-.27-.31-.54-.49-.8-3.48-5.51-7.63-10.72-11.72-15.78-3.05-4.54-6.58-8.93-10.14-13.08-3.74-4.36-12.22-14.63-16.46-17.58-33.45-33.49-74.98-58.43-120.38-72.14-.07-.02-.15-.01-.23,0h-.22c-.14-.04-.3-.41-.45-.45-.86-.23-1.83-.27-2.71-.45-.15-.06-.29-.38-.45-.45-.82-.34-1.82-.43-2.71-.45-.14-.06-.28-.39-.45-.45-.12-.04-.29-.02-.46,0h-.44c-.31-.1-.59-.35-.9-.45-.12-.04-.29-.02-.46,0h-.44c-.16-.05-.45-.32-.9-.45-.13-.04-.29-.02-.46,0h-.45c-.13-.04-.3-.41-.45-.45-.19-.05-.43-.03-.68,0h-.67c-.13-.03-.29-.41-.45-.45-.19-.05-.43-.02-.68,0h-.67c-.13-.03-.3-.41-.45-.45-.13-.03-.29-.02-.45,0h-.45c-.28-.07-.6-.38-.9-.45-.2-.05-.44-.02-.68,0h-.67c-.12-.03-.43-.34-.9-.45-.14-.03-.29-.02-.45,0h-.45c-.12-.03-.42-.34-.9-.45-.2-.05-.44-.02-.68,0h-.67c-.13-.03-.31-.42-.45-.45-1.17-.25-2.39-.49-3.61-.45-.13-.04-.29-.41-.45-.45-.19-.05-.44-.03-.69,0h-.66c-.41-.11-.83-.33-1.35-.45-.2-.05-.44-.02-.69,0h-.67c-.12-.03-.3-.42-.45-.45-.2-.05-.45-.02-.69,0h-.66c-.28-.06-.61-.39-.9-.45-.28-.06-.6-.03-.92,0h-.89c-.12-.02-.3-.42-.45-.45-.21-.04-.45-.02-.69,0h-.66c-.32-.06-.78-.35-1.35-.45-19.98-3.46-55.74-7.78-75.29-4.96-1.2,0-2.41,0-3.61,0-2.34.01-4.47.33-6.76.45h-.67c-.23,0-.46-.01-.68,0-.45.02-.9-.03-1.35,0h-.67c-.23,0-.46-.01-.68,0-1.39.08-2.69.36-4.06.45h-.67c-.23,0-.46-.02-.69,0-1.19.08-2.29.38-3.16.45h-.88c-.31-.01-.62-.02-.92,0-.3.02-.6-.02-.9,0h-.44c-.15,0-.31-.01-.46,0-1,.08-1.88.38-2.71.45h-.66c-.23-.01-.47-.02-.7,0-.92.08-1.7.4-2.25.45h-.66c-.23-.01-.46-.02-.69,0-.3.03-.61-.03-.9,0-.15.02-.3-.02-.45,0-.9.1-1.67.39-2.25.45h-.66c-.23-.01-.47-.03-.69,0-.85.1-1.52.42-1.8.45h-.66c-.23-.01-.47-.03-.69,0-.15.02-.3-.02-.45,0h-.45c-.15,0-.31-.02-.46,0-.75.1-1.36.39-1.8.45h-.44c-.16-.01-.31-.02-.46,0-.81.12-1.45.4-1.8.45h-.45c-.15-.01-.31-.02-.46,0-.15.02-.3-.02-.45,0h-.44c-.16-.01-.32-.03-.46,0-.71.12-1.28.35-1.8.45h-.41c-.17-.02-.34-.03-.49,0-.66.15-.98.35-1.35.45-.73.07-1.53-.1-2.25,0-.39.06-.75.43-.9.45-.15.02-.3-.02-.45,0h-.45c-.15-.01-.31-.02-.46,0-.71.11-1.2.43-1.35.45h-.9c-.31-.02-.62-.05-.9,0-.61.1-1.2.35-1.8.45h-.45c-.15-.01-.31-.02-.45,0-.49.08-.82.44-.9.45h-.89c-.31-.02-.63-.05-.91,0-.55.09-1.01.39-1.35.45h-.45c-.16-.01-.31-.03-.45,0-.54.1-1.01.39-1.35.45h-.67c-.24-.02-.47-.04-.68,0-.54.1-1.01.39-1.35.45h-.45c-.15-.01-.31-.03-.45,0-.7.13-1.11.4-1.35.45h-.72c-.22-.02-.44-.03-.63,0-.19.03-.37.27-.45.45-22.35,3.61-44.44,9.54-66.28,15.33h-.45c-.16-.02-.32-.03-.45,0-.15.04-.32.42-.45.45h-.45c-.16-.02-.32-.04-.45,0-.78.21-1.64.74-2.25.9h-.45c-.16-.02-.32-.04-.45,0-.46.12-.76.41-.9.45h-.45c-.16-.02-.32-.04-.45,0-.31.08-.61.37-.9.45h-.45c-.16-.02-.32-.04-.45,0-.31.09-.6.37-.9.45h-.22c-.08,0-.16-.02-.23,0-1.35.38-2.73.97-4.06,1.35h-.45c-.16-.02-.33-.04-.45,0-.78.23-1.62.72-2.25.9h-.45c-.16-.02-.33-.04-.45,0-.16.05-.32.41-.45.45h-.45c-.16-.02-.32-.04-.45,0-.16.05-.32.41-.45.45h-.46c-.16-.02-.32-.03-.44,0-.79.21-1.66.22-2.25.9-.66.13-1.33.37-1.8.45h-.39c-.18-.02-.36-.04-.52,0-.73.17-1.27.7-1.8.9h-.51c-.14-.01-.28-.02-.39,0-.19.04-.36.28-.45.45-2.97.58-4.9,1.39-7.66,2.25h-.45c-.16-.02-.33-.04-.45,0-1.06.33-2.24.7-3.16,1.35-7.62,1.67-15.71,4.86-22.99,7.66-4.2.39-17.67,6.11-22.09,8.12-.12.05-.31-.05-.45,0-.33.11-.72.04-.9.45-4.66.85-12.75,6-16.68,5.86-3.79-.14-11.4-3.29-16.88-3.63-8.95-.55-16.53.77-25.04,3.18-.14.04-.31-.04-.45,0-.06.02-.13.06-.22.11l-.68.34c-.14.04-.32-.04-.45,0-.49.16-.78.41-.9.45-.13.05-.32-.05-.45,0-.46.17-.74.39-.9.45-.44.17-.9.26-1.35.45-.32.13-.6.32-.9.45-16.41,7.25-29.18,19.59-35.62,36.52-7.67,3.31-15.49,7.9-22.99,11.72-.1.05-.18.16-.27.27l-.18.18c-.3.15-.85.19-1.35.45-.18.09-.31.38-.45.45-.58.3-1.48.5-2.25.9-7.26,3.77-14.52,7.69-21.64,11.72-3.07,1.74-12.56,6.05-14.43,8.12-1.53,1.69-4.93,15.63-4.05,16.68.24.28,4.11-1.52,4.72-1.36.51.13.09.81.23.91-.63.73-.71,1.8-.9,2.71-.12.57-1.25,4.87-.45,4.96.36.04.98-.31,1.35-.45h.45l.45.9c-1.38.41-8.67,2.18-8.97,3.02-.23.66,3.86,11.17,4.46,13.21.22.77.09,2.02.45,3.16.48,1.53.81,2.94,1.35,4.51.54,1.56,1.27,3.01,1.8,4.51,1.84,5.16,4.3,10.21,6.31,15.33,1.7,4.31,3.03,6.18,4.51,9.47,2.2,4.9.99,13.42,2.32,16.39.33.74,2.3,1.26,3.07,1.43,10.51,2.35,40.59.2,53.22.21.9,0,1.8,0,2.71,0,5.04,1.42,10.54.96,15.78.9,2.44.74,3.33.13,5.18,2.26,30.63-.55,68.27,8.05,98.31,4.07,1.75-.23,2.31.07,2.72-1.85h55.45s2.33,1.73,2.33,1.73c56.09,1.45,112.43.57,168.5-.82,16.32-.4,40.41,1.7,55.7-.89,5.41.36,10.54-3.47,15.54-4.07,3.26-.39,34.14-1.22,35.41.02.44.43-1.15,2.11,1.56,2.73,8.63,1.96,41.81.21,52.79,0,4.76-.09,21.17.33,24.31-.49,2.61-.68,1.01-2.58,1.15-2.68.56-.44,10.81.63,13.53-.67,4.8-2.31,3.38-12.82,4.16-16.58,3.12-15.01,10.91-24.16,19.73-35.95.92.08,1.78.39,2.71.45,4.75,1.2,14.26,3.06,18.96,2.06,2.55-.55,11.77-8.1,12.55-10.44,2.47-7.39-5.4-24.92-9.83-32.29ZM10.43,155.65c1.08,1.23-.43,0-.45,0h.45Z" style="fill:none; stroke:#000; stroke-miterlimit:10; stroke-width:2px;"/></svg>