<?xml version="1.0" encoding="UTF-8"?><svg id="Layer_1" xmlns="http://www.w3.org/2000/svg" width="443.96" height="689.06" viewBox="0 0 443.96 689.06"><path d="M441.39,295.09c-3.5-50.16-11.32-100.07-18.89-149.68-4.2-27.5-7.97-55.08-13.2-82.41-1.39-3.17-6.29-3.04-9.22-3.75-.33-1.83-.67-6.52-1.77-7.68-2.12-2.23-17.22-5.87-19.21-7.82-.74-.73-1.11-4.16-1.88-5.6-2.45-4.62-6.17-4.12-10.11-5.71-20.75-8.42-52.96-23.91-73.41-29.01-4.52-1.13-15.76-2.34-19.78,0-.61.35-.98,1.55-1.32,2.2-1.48,2.82-.82,2.16-1.32,4.84-.48,2.62-.49,5.07-.88,7.47-1.66,1.44-7.63,1.25-4.84-1.75-16.44-4.28-36.46-4.76-51.06,4.98-2.3,1.53-2.55,4.85-3.45-.15-.24-3.69-.21-7.32-.88-10.99-.33-1.81-.15-1.64-.88-3.52-.26-.67-1.19-3.38-1.32-3.52-.82-.89-1.75-.19-2.64,0-2.01-1.29-4.28-1.52-6.59-1.76-.33-.19-.7-.19-1.09-.1-4.18-.36-5.52,0-9.98,1.12-25.82,6.43-65.65,22.72-91.35,32.83-1.28.51-2.01.6-3.52,1.32-6.72,3.19-5.23,3.36-8.35,8.79-1.54,2.68-4.06,1.26-5.27,3.52-2.55,4.71-2.83,23.41-5.06,26.81-.61.93-6.15,1.62-8.13,3.08-2.99,2.2-3.22,9.33-3.96,13.19-1.31,5.45-3.14,10.66-5.27,15.82-6.12,14.8-19.69,26.54-22.72,41.23-9.53,46.21-15.33,100.37-21.6,147.64-5.69,42.87-15.4,104.9-9.74,146.96,4.24,31.51,32.09,68.74,50.45,94.82,15.81,22.45,29.52,43.75,55.97,54.8,10.25,4.28,11.06,2.05,10.96-8.32-.27-29.17-9.37-73.1-19.47-100.53-1.07-2.89-8.29-17.58-8.23-18.59.07-1.09,5.25-.76,5.63-.56,1.09.57,9.59,19.69,10.51,22.23,10.8,29.74,12.46,75.3,17.26,107.8,2.71,18.36,5.37,57.66,18.12,75.26,1,1.55,2.11,2.9,3.3,3.82.88.84,1.79,1.59,2.75,2.24l.09.09c.15.18.35.53.79.79,1,.59,2.03.87,3.08,1.32l.22.11c.19.11.39.23.66.33.13.05.31-.04.44,0,.18.06.42.31.88.44.62.18,1.12.31,1.76.44.05,0,.21.34.88.44.14.02.3-.02.44,0,12.81,3.84,26.29,4.69,39.56,5.71,38.85,3.01,80.03,3.33,118.24-4.4.14.01.29,0,.44,0,.5.03,1.06.08,1.32-.44.29-.02.6.04.88,0,.67-.1.83-.43.88-.44,8.46-1.73,17.16-6.12,20.66-14.51,10.66-19.8,13.51-43.38,17.44-65.42,3.44-19.31,5.86-38.74,8.93-58.1,1.96-12.37,3.07-25.08,5.27-37.36,2.4-13.37,5.83-24.84,10.65-37.48.98-2.57,7.22-19.38,8.03-20.1.25-.22,3.61-.59,3.73-.44,1.19,1.51-11.34,31.43-12.75,36.26-7.2,24.51-9.94,50.73-13.58,75.8,5.7-1.83,13.06-5.13,17.11-9.64.45-.5.58-.93.88-1.32.07-.09-.07-.34,0-.44l.09-.09c.18-.15.52-.33.79-.79.06-.11-.06-.33,0-.44l.06-.06c.16-.13.57-.37.82-.82.25-.45.27-.96.44-1.32.78-.34.98-1.08,1.32-1.76.06-.12-.06-.32,0-.44.74-.35,1.04-1.05,1.32-1.76.17-.44.28-.88.44-1.32,5.35-9.64,11.67-19.68,15.82-29.89,2.73-3.9,4.15-8.49,6.15-12.75,6.32-13.45,11.26-25.34,15.82-39.56,5.44-16.95,11.36-38.27,12.3-56.06.61-11.57-1.57-24.18-1.75-35.81,3.72-23.25,2.5-46.74.87-70.1Z" style="fill:none; stroke:#000; stroke-miterlimit:10; stroke-width:2px;"/></svg>