<?xml version="1.0" encoding="UTF-8"?><svg id="Layer_1" xmlns="http://www.w3.org/2000/svg" width="757.79" height="297.55" viewBox="0 0 757.79 297.55"><path d="M756.43,239.18c-1.65-7.2-21.26-28.66-26.57-35.55-2.44-3.39-2.82-5.22-7.12-7.52,4.45,2.14-1.8-5.41-3.33-7.34-43.58-54.88-99.81-107.69-164.45-140.25-31.42-15.82-53.88-20.98-80.94-27.61-10.02-2.89-20.22-5.53-30.65-8-.24-.07-.55.07-.79,0-5.41-1.63-10.71-7-16.62-8.71-10.94-3.16-27.24-2.88-38.78-3.17-3.68-.09-7.4,0-11.08,0-2.89,0-5.82-.08-8.71,0-.79.02-1.58-.03-2.37,0-7.83.29-17.75,0-25.32,1.58-2.23.47-3.44.87-5.54,1.58-1.82.62-6.29,3.47-7.91,4.75-.59.47-.98.05-2.37,1.58-14.7,2.31-29.29,5.22-43.69,8.93-6.3,1.62-28.5,10.77-31.98,10.85-3.29.07-4.3-2.51-6.99-2.39-8.29.38-17.17,1.71-24.96,4.76-12.81,2.66-42.32,17.83-54.83,24.49-1.24.66-.88,3.24-2.68,3.87-2.09.73-5.43-.46-7.62.29-2.38.8-1.65,3.45-2.64,3.85-3.5,1.42-17.16-.59-21.96,4.61-1.06,1.15.09,3.08-1.62,4.9-2.56,2.73-7.9,1.91-10.23,3.18-5.27,2.87-7.95,9.65-8.5,10.09-5.7,4.49-12.76,5.94-18.92,12-4.97,4.88-5.16,6.21-7.78,12.48-.57,1.36.91,3.25.57,4.01-.66,1.48-23.19,15.73-26.82,18.33-6.43,4.6-51.02,33.85-52.22,36.81-.3.73,6.83,13.69,7.6,13.9.82.23,14.22-7.99,14.55-8.77,4.51.35,2.93,1.78,2.37,5.54-.39.22-1.25,1.16-1.58,1.58-2.32.05-3.41,2.24-4.75,3.17-3.18,2.2-6.52,1.87-4.93,7.68,1.34,4.92,25.99,43.69,30.55,50.2,3.01,4.3,7.95,8.82,11.58,13.35.13.16-.13.63,0,.79,2.6,3.31,5.19,8.68,8.71,11.08-6.96,7.94,9.57,8.66,13.87,11.86,3.22-.41-2.1-1.67-2.53-2.72-.08-.2-.46-4.69.98-4.5.11.04.23.08.34.11,3.56,1.05,7.51,1.3,11.08,2.37.6,1.09.4,3.06.79,3.96.4.9.2,2.78,1.33,3.2,6.46,2.34,24.66-2.16,34.07.84.66.38,1.71.7,1.79.72,20.54,4.09,78.54,1.88,101.73.83,1.36-.06,8.41-.05,8.27-2.41,6.32-.12,16.06,2.04,19.78-3.17-.11,1.93-.05,2.6,1.98,3.17,5.03,1.39,28.09,0,35.21,0,1.06,0,2.11,0,3.17,0,5.08,0,10.97.68,15.83-.79.26,0,.53,0,.79,0,8.9,0,18.04-.43,26.91,0-2.53,2.6,2.09,3.18,3.92,3.6,19.49,4.39,54.51,5.34,74.42,4.32,6.55-.34,13.22.25,19.78,0,4.53.31,8.88.63,13.45.79l-21.36,1.57c45.89,2.04,92.06,3.29,138.13,2.43,28.7-.54,60.9-1.31,89.41-3.98,14.15-1.32,54.4-5.3,62.69-13.7,2.11-2.13,4.79-5.08.99-5.32,2.72-1.96,11.51-6.51,12.66-7.91.21-.25.67-.47.79-.79h.79c2.72-1.72,5.36-3.59,7.91-5.54,6.4-4.89,14.5-10.32,12.32-19.85ZM717,280.05c.52-.27,1.06-.52,1.58-.79-.34.32-1.11,2.53-1.58.79Z" style="fill:none; stroke:#000; stroke-miterlimit:10; stroke-width:2px;"/></svg>