<?xml version="1.0" encoding="UTF-8"?><svg id="Layer_1" xmlns="http://www.w3.org/2000/svg" width="468.15" height="758.64" viewBox="0 0 468.15 758.64"><path d="M454.5,420.03c-12-82.13-12.01-168.75-14.53-251.98-.05-1.57.53-3.81-.63-5.02,0-.42,0-.84,0-1.26-.23-34.79-5.99-70.72-7.08-105.61.95-5.95-21.92-15.46-23.09-14.66-.8.54-.4,1.72-.59,2.25-.8,2.18-.91,5.19-1.26,7.53l-1.25,1.25c-.06-1.04.05-2.1,0-3.14-.09-1.57.56-3.79-.63-5.02v-1.05c.05-.56.12-1.14,0-1.46-2.64-7.01-3.99-5.87-9.42-8.79-4.98-2.68-10.92-5.19-16.32-6.91-.19-.06-.44.06-.63,0-1.48-1.35-3.77-1.93-5.65-2.51-.19-.06-.43.06-.63,0-1.12-1.36-2.87-1.43-4.39-1.88-.19-.06-.44.07-.63,0l-3.14-1.26c-7.38-2.89-14.27-6.01-21.97-8.16-5.74-2.98-12.05-4.46-18.21-6.28-.31-.09-.73-.48-1.26-.63-9.22-2.62-8.15-5.7-17.58,0-.64.39-1.26.83-1.88,1.26-9.29,2.35-11.02-3.08-11.29,9.42l1.22-.62c-.17,3.04-.54,4.49-1.24,8.45l1.27-.93c-1.38,9.91.35,22.14-.63,32.02l-.63,2.51c-.15.07-.41-.04-.63,0h-69.69c.7-8.11.77-37.96-.63-45.2-.83-4.32-18.74-13.97-23.86-10.67-12.45,1-42.2,12.87-55.25,17.58-3.15,1.14-6.65,1.75-9.42,3.77-.19.05-.43-.05-.63,0-.78.2-1.18.61-1.26.63-.35.1-.95-.11-1.26,0-.74.27-1.4.61-1.88,1.26-.2.04-.43-.05-.63,0-.81.2-1.19.61-1.26.63-.19.06-.44-.06-.63,0-1,.32-1.67.79-2.14,1.07l-.37.18c-.19.07-.44-.07-.63,0-.97.35-1.51.73-2.03,1.02l-.48.24c-.18.07-.45-.07-.63,0-.52.22-.83.42-1.26.63-.51.24-1.24.29-1.88.63-.89.46-1.42.6-2.51,1.26-.15.09-.48-.1-.63,0-1.64,1.07-2.63,1.16-3.77,3.14-.09.15.08.44,0,.63-1.61.58-1.17,1.91-1.26,3.14-.04.62.02,1.26,0,1.88-.93.52-.6,1.65-.63,2.51,0,.21,0,.42,0,.63-.01.63,0,1.26,0,1.88-.89.63-.87,3.67-.63,4.39-1.58.86-4.1.84-5.02,3.14-1.66.88-2.68,2.72-4.39,3.77-.4.24-.85.4-1.26.63-.11-.35.13-.98,0-1.26,2.69-3-3.35-8.8-5.65-8.79-2.08.01-25.19,28.01-27,31.39-5.34,9.99-.63,27.32-10.68,37.98-3.79,29.36-9.88,63.91-10.06,93.53-.1,16.96,1.05,17.54,14.46,26.08l5.65,15.07c-7.24-.64-11.19,4.2-15.7,9.42-.73.84-1.62,1.13-2.51,2.51-.87,1.35-.66.83-1.26,2.51-1.93,5.48-1.71,17.96-1.91,24.77-.69,22.57.63,45.23,1.1,67.77-11.92,16.81-23.94,31.15-28.69,51.86-.02.07-.46.36-.63,1.26-.04.2.03.42,0,.63-.08.48-.63.96-.63,2.51,0,.2-.03.43,0,.63-6.06,33.4-10.33,67.66-11.3,101.71-2.2,77.47,23.49,129.44,85.72,175.14,2.93,2.15,8.54,8.26,11.59,5.05,0,.4-.07.9,0,1.26.22,1.09-.29,1.41.64,2.8,1.4,2.07,21.84,14.9,25.54,17.17,33.28,20.4,69.03,34.94,108.17,39.05,1.52.16,5.24,1.26,6.59,1.26h12.56c3.56,0,6.73.18,10.36,0,7.9-.39,14.3-1.58,21.97-3.14,6.66-1.36,12.41-2.91,18.83-5.02,5.42-1.79,10.47-4.04,15.7-6.28.45-.19.84-.45,1.26-.63.54-.24,1.23-.33,1.88-.63,14.99-6.77,36.46-18.23,48.34-29.51.11-.1.52.1.63,0,.68-.69,1.19-.7,1.88-1.88,6.26-3.65,11.08-8.97,16.32-13.81,4.39-4.05,7.85-7.58,11.93-11.93,4.77-5.09,10.1-9.67,13.81-15.7,8.34-6.39,34.48-53,36.64-63.55.4-1.96.24-2.6-.85-4.26.18.03.44.02.63,0,.52-.05,1.39.23,1.76-.1,1.88-1.63,8.74-29.49,9.54-33.81.11-.58-.1-1.29,0-1.88.09-.51.47-1.35.63-2.51.03-.21-.03-.42,0-.63,1.12-1.56,1-3.83,1.26-5.65.09-.61-.09-1.28,0-1.88.01-.1.48-.79.63-1.88.11-.81-.1-1.7,0-2.51l.15-.74c.16-.66.38-1.49.48-2.4.09-.82-.08-1.69,0-2.51.02-.17.52-1.31.63-2.51.37-4.22.47-8.32.63-12.56,1.54-41.03-6.75-70.49-12.47-109.64Z" style="fill:none; stroke:#000; stroke-miterlimit:10; stroke-width:2px;"/></svg>