<?xml version="1.0" encoding="UTF-8"?><svg id="Layer_1" xmlns="http://www.w3.org/2000/svg" width="714.32" height="244.11" viewBox="0 0 714.32 244.11"><path d="M558.35,27.21c-27.98-11.02-58.5-20.43-89.06-23.87-1.18-.04-2.26.55-3.43.57h0c-5.52-1.54-13.17-.38-18.78-1.31-31.63-5.21-75.56,3.4-107.51,9.6-27.8,5.4-55.21,13.14-81.65,22.96h0c-.82.18-1.72.43-2.55.64-19.91,4.92-43.92,16.56-63.15,24.88-2.62,1.13-7.52,4.28-9.96,4.44-2.26.15-4.84-1.04-7.61-.65-1.42.2-2.19,1.13-3.19,1.27-5.49.81-9.77-2.19-14.65-1.25-1.66.32-1.61,2.05-3.01,2.73-1.53.74-5.01,1.09-6.87,1.74h0c-2.43-.1-4.63-.91-6.85.49-2.07,1.31-1.05,2.84-2.35,4.02-2.49,2.26-12.34,4.09-13.43,6.34-.5,1.04-.19,2.25-.93,3.53-.17.29-4.49,4.62-4.78,4.79-2.24,1.26-5.43.24-6.66,4.28-.27.88.56,1.34.57,1.42.04,3.07-3.11,5.94-4.28,8.96h0c-9.89,5.14-19.17,11.51-28.95,16.81-12.28,6.65-25.91,11.33-36.93,20.16h0c-3.33.71-21.78,12.93-26.07,15.71-2.1,1.36-14.6,9.42-15.08,10.45-.91,1.97,1.91,8.31,3.51,9.24,1.46.85,10.47.91,11.48,2.24,1.34,1.77-6.99,3.21-7.58,5.54-.2.81,2.55,7.08,3.11,8.49.23.58.35,1.24.64,1.91.37.87.89,1.69,1.28,2.55,2.87,6.36,6.39,12.89,9.57,19.14,1.37,2.69,7.93,17.06,9.39,17.72,2.5,1.13,6.69.49,9.38.83,17.01,2.14,34.13,5.42,51.13,7.56,14.37,1.8,48.18,3.37,61.66-.12,1.22-.31,2.29-2.03,3.98-1.76,144.74-.09,289.58.06,434.43.04h0c7.34-1.7,14.57.16,22.32,0,12.64-.25,25.26-1.85,37.66-3.8,4.54-.71,13.85.37,14.94-5.15h0c.85-1.02.67-.86,1.27-1.91h0c1-.4,1.49-1.24,2.06-2.08,15.13-22.2,29.07-49.21,38.54-74.36.53-1.41,3.37-9.31,3.37-9.99,0-2.31-3.72-5.33-5.07-7.01-11.67-14.6-29.33-30.31-44.31-41.8-32.66-26.75-70.63-51-105.59-65.99" style="fill:none; stroke:#000; stroke-miterlimit:10; stroke-width:2px;"/></svg>