<?xml version="1.0" encoding="UTF-8"?><svg id="Layer_1" xmlns="http://www.w3.org/2000/svg" width="734.87" height="228.11" viewBox="0 0 734.87 228.11"><path d="M732.18,187.78c-15.24-39.38-34.38-75.22-65.79-104.23-2.7-3.18-5.57-7-9.4-8.54-5.86-5.52-11.35-11.81-18.8-15.38-5.09-4.73-15.92-12.21-22.21-15.38.52-2.71-2.88-1.79-3.85-3.42-1-1.7-.06-3.97-2.12-6.43-4.36-5.2-20.53-12.5-27.13-14.73-1.33-.45-9.75-2.12-10.91-2.01-2.06.2-1.26,2.57-3.32,2.64-3.07.11-14.99-5.25-19.32-6.38-2.36-.62-4.76-.78-6.83-1.29-13.2-3.24-26.64-6.15-40.15-7.69-2.18-.25-4.64.22-6.83,0,.48-2.75-1.39-1.46-2.99-1.67-45.93-5.87-98.7.5-144.14,8.75-16.26,2.95-32.64,6.44-48.52,10.86-4,.3-9.86,1.89-13.67,3.42-3.92,1.57-4.59,3.07-7.04,4.47-7.78,4.44-23.94,8.89-33.11,12.61-7.1,2.89-14.25,5.69-21.36,8.54-2.03,0-4-.53-5.98-.85-9.21-1.52-14.34-4.1-25.24-3.45-23.75,1.42-47.66,14.93-60.2,35.06-1.95,2.21-3.75,4.71-4.27,7.69-25.76,8.91-53.59,22.76-78.6,34.17-5.37,2.45-10.69,5.15-16.23,7.69-8.3,3.81-18.88,7.14-26.49,11.96-1.22.78-1.57,2.17-1.9,2.35-3.39,1.89-6.89-1.87-3.23,7.05.73,1.77,1.87,2.92,2.56,4.27,8.32,16.12,17.87,31.58,27.34,46.99,3.89,6.33,7.37,13.11,11.34,19.42l9.56,2.82h622.03c19.44-9.63,37.42-22.76,56.74-32.97,3.4-2.17.93-4.1.05-6.36Z" style="fill:none; stroke:#000; stroke-miterlimit:10; stroke-width:2px;"/></svg>