<?xml version="1.0" encoding="UTF-8"?><svg id="Layer_1" xmlns="http://www.w3.org/2000/svg" width="364.59" height="734.67" viewBox="0 0 364.59 734.67"><path d="M363.34,383.34v-.24c.03-.81.29-2.01,0-2.65v-17.12s0-.01,0-.02c0-.81,0-1.63,0-2.44v-26.55c.04-13.71.1-27.42,0-41.12-.26-35.5-1.29-70.96-2.85-106.38-.92-20.83-.44-42.04-4.78-62.48-.55-8.5-1.25-22.37-4.71-30.11-1.63-3.65-5.52-5.4-7.54-8.68-1.47-2.4-1.59-4.79-3.02-7-.24-3.39.58-7.56-.23-10.74-1.7-6.7-14.03-19.44-19.28-24.59-3.03-2.97-6.28-6.51-10.06-8.55-2.29-3.1-3.81-3.64-6.68-5.72-5.92-4.3-14.17-8.67-20.99-11.45-1.64-.67-3.07-1.29-4.77-1.91-4.84-1.75-11.1-3.19-16.22-4.77-1.6-.49-3.79-1.21-6.32-2.02-.06-.03-.12-.04-.19-.06-10.26-3.27-26.07-8.05-31.93-6.31-4.98,1.48-.79,13.1-4,13.14-1.81.02-1.29-4.58-1.43-5.7-.97-7.78-1.76-6.5-9.54-6.68-3.63-.96-9.1-1.77-12.84-1.95-12.72-.59-26.43-.22-38.88,2.22-7.65,1.5-5.33,3.02-5.52,10.22-4.63,4.37-3.6-5.35-3.82-7.63-.12-1.2.27-2.47-.89-3.38C142.79,0,114.46,8.25,106.65,10.56c-.26.03-.56.11-.88.26-16.13,4.79-27.1,8.34-41.02,18.13-7.8,5.48-11.65,9.45-18.13,16.22-3.24,3.38-7.67,7.88-10.49,11.45-2.42,3.05-4.31,5.86-5.72,9.54-1.87,4.87-2.52,10.91-2.86,16.22-2.93,4.31-5.63,6.62-7.63,11.45-2.43,5.86-2.71,10.3-3.82,16.22-2.62,14.06-3.89,27.13-4.81,41.46l-2.82,112.13c-.21.02-1.77.8-1.91.95-.22.24-2.81,5.2-2.86,5.72-1.81,17.28-.72,35.54-.91,52.98-.13,11.2-2.95,24.63-.04,35.73.3,1.13.98,2.15,1.91,2.86-.05,3.36,1.97,8.77,1,12.73-.36,1.47-4.63.22-4.65,4.87-.05,10.28,1.38,21.2,1.78,31.49.75,19.15-.24,38.93,5.61,57.36,2.07,35.88,8.66,71.12,15.34,106.29,2.33,25.54,9.92,48.87,23.45,70.51,23.03,36.85,75.01,84.26,120.13,87.83,56.33,4.45,82.88-12.03,120.66-50.54.63-.64,1.27-1.24,1.91-1.91,1.54-1.6,3.1-2.97,4.77-4.77,4.54-4.92,10.23-11.04,14.31-16.22,1-1.27,1.89-2.55,2.86-3.82.58-.77,1.2-1.89,1.91-2.86,8.07-11.1,12.99-20.65,18.13-33.39,5.51-13.68,5.99-21.26,8.59-35.3,1.29-6.96,2.62-14.02,3.82-20.99.68-3.96,1.22-8.33,1.91-12.4.53-3.14.5-5.87.95-8.59.78-4.71,2.12-9.61,2.86-14.31.1-.28.12-.51.11-.72,1.28-8.16,2.46-16.69,3.71-25.04,4.14-27.8,9.26-55.68,9.54-83.95.04-4.12-.03-8.28,0-12.4.36-7.02.29-15.37,0-22.42Z" style="fill:none; stroke:#000; stroke-miterlimit:10; stroke-width:2px;"/></svg>