<svg xmlns="http://www.w3.org/2000/svg" version="1.1" xmlns:xlink="http://www.w3.org/1999/xlink" x="0" y="0" style="enable-background:new 0 0 512 512" xml:space="preserve" class="" viewBox="0 0 24 24">
    <g>
        <path d="M1 11h9a1 1 0 0 0 1-1V1a1 1 0 0 0-1-1H1a1 1 0 0 0-1 1v9a1 1 0 0 0 1 1zM23 0h-9a1 1 0 0 0-1 1v9a1 1 0 0 0 1 1h9a1 1 0 0 0 1-1V1a1 1 0 0 0-1-1zM1 24h9a1 1 0 0 0 1-1v-9a1 1 0 0 0-1-1H1a1 1 0 0 0-1 1v9a1 1 0 0 0 1 1zM23 13h-9a1 1 0 0 0-1 1v9a1 1 0 0 0 1 1h9a1 1 0 0 0 1-1v-9a1 1 0 0 0-1-1z" fill="#ffffff" opacity="1" data-original="#000000" class=""></path>
    </g>
</svg>