<svg xmlns="http://www.w3.org/2000/svg" version="1.1" xmlns:xlink="http://www.w3.org/1999/xlink" x="0" y="0" style="enable-background:new 0 0 512 512" xml:space="preserve" class="" viewBox="0 0 512 512">
    <g>
        <path d="M322.783 356.174H189.217c-6.144 0-11.13 4.987-11.13 11.13V500.87c0 6.144 4.986 11.13 11.13 11.13h133.565c6.144 0 11.13-4.986 11.13-11.13V367.304c.001-6.144-4.985-11.13-11.129-11.13zM322.783 178.087H189.217c-6.144 0-11.13 4.986-11.13 11.13v133.565c0 6.144 4.986 11.13 11.13 11.13h133.565c6.144 0 11.13-4.986 11.13-11.13V189.217c.001-6.144-4.985-11.13-11.129-11.13zM144.696 0H11.13C4.986 0 0 4.986 0 11.13v133.565c0 6.144 4.986 11.13 11.13 11.13h133.565c6.144 0 11.13-4.986 11.13-11.13V11.13C155.826 4.986 150.84 0 144.696 0zM144.696 356.174H11.13c-6.144 0-11.13 4.987-11.13 11.13V500.87C0 507.014 4.986 512 11.13 512h133.565c6.144 0 11.13-4.986 11.13-11.13V367.304c.001-6.144-4.985-11.13-11.129-11.13zM144.696 178.087H11.13c-6.144 0-11.13 4.986-11.13 11.13v133.565c0 6.144 4.986 11.13 11.13 11.13h133.565c6.144 0 11.13-4.986 11.13-11.13V189.217c.001-6.144-4.985-11.13-11.129-11.13zM500.87 0H367.304c-6.144 0-11.13 4.986-11.13 11.13v133.565c0 6.144 4.986 11.13 11.13 11.13H500.87c6.144 0 11.13-4.986 11.13-11.13V11.13C512 4.986 507.014 0 500.87 0zM322.783 0H189.217c-6.144 0-11.13 4.986-11.13 11.13v133.565c0 6.144 4.986 11.13 11.13 11.13h133.565c6.144 0 11.13-4.986 11.13-11.13V11.13C333.913 4.986 328.927 0 322.783 0zM500.87 178.087H367.304c-6.144 0-11.13 4.986-11.13 11.13v133.565c0 6.144 4.986 11.13 11.13 11.13H500.87c6.144 0 11.13-4.986 11.13-11.13V189.217c0-6.144-4.986-11.13-11.13-11.13zM500.87 356.174H367.304c-6.144 0-11.13 4.987-11.13 11.13V500.87c0 6.144 4.986 11.13 11.13 11.13H500.87c6.144 0 11.13-4.986 11.13-11.13V367.304c0-6.144-4.986-11.13-11.13-11.13z" fill="#ffffff" opacity="1" data-original="#000000" class=""></path>
    </g>
</svg>