<?xml version="1.0" encoding="UTF-8"?><svg id="Layer_1" xmlns="http://www.w3.org/2000/svg" width="732.37" height="278.81" viewBox="0 0 732.37 278.81"><path d="M727.6,157.9c-2.37-2.81-4.99-5.65-7.46-8.41-6.92-7.76-15.38-16.32-22.98-23.34-9.93-9.18-20.91-16.48-31.41-24.9-.26-.1-3.07.21-3.27.3-.26-4.89-3.48-7.95-6.82-11-7.25-6.61-18.43-14.3-26.65-19.99C559.67,22.52,479.88-.92,394.92,1.12c-1.97.05-3.74.57-5.83.65-21.22.77-39.94,2.63-60.9,5.83-1.13.17-2.02.56-2.59.65-2.81.45-4.26,1.19-7.13,0-.09-.04-.28-.94-1.07-1.17-6.42-1.88-53.07,11.65-62.11,14.76-4.83,1.66-7.21,1.78-9.17,7.18-16.72,6.14-33.37,12.64-49.37,20.43-6.76,3.29-12.31,8.86-20.48,8.03-1.67-.17-3.31-1.24-4.55-1.24-1.48,0-2.12,1.21-2.25,1.24-.04,0-.08,0-.12,0-.48-.14-.7-1.71-2.15-1.97-1.57-.28-3.02.65-4.52.69-5.84.15-12.06-.15-17.85,1.58-9.32,2.78-16.64,7.97-23.92,14.31-1.06.92-2.32,1.26-3.26,2.25-.64.38-9.31,9.46-10.38,10.68-1.31,1.51-2.69,4.95-3.88,6.81-2.89,3.12-3.58,9.28-6.48,11.01-3.3,1.97-7.93,3.69-11.45,5.72-9.18,5.28-18.37,11.12-27.42,16.31-16.88,9.68-40.79,20.42-55.29,33.01-.12.1-1.69,2.47-1.72,2.62-.26,1.13,1.7,5.43,2.62,6.12,1.53,1.16,7.56,2.68,9.69,4.24,1.55,1.05,6.25,3.71,7.13,4.54-1.15,4.28-5.34,1.39-3.73,7.29,4.8,8.64,9.91,17.14,14.74,25.75,1.31,2.34,2.56,4.77,3.89,7.13,2.4,4.28,1.79,5.46,5.82,9.4,7.49,7.33,26.94,23.75,35.64,28.82,2.24,1.87,4.9,4.42,7.17,6.11,1.21.9,3.35,1.28,3.85,1.66,2.66,2.06,12.24,12.31,15.22,12.31h47.94c2.15,0,4.66.2,6.8-.65,14.56-.29,29.19.37,43.76.03,21.28-.51,42.81-2.29,64.08-2.64,60.56-1,120.74,2.53,181.1,4.56.22,0,.43,0,.65,0,2.67,1.2,6.64.64,9.72.65.43,0,.86-.01,1.3,0,2.52,1.36,6.11.44,9.08.6.21.02.43.04.64.05,45.42,3.59,108.88-.11,153.54-9.72,10.1-2.17,28.83-6.13,36.93-12.31,9.5-4.32,18.83-10.24,27.14-16.59,7.49-5.72,16.83-13.72,22.74-20.99,5.25-5.34,11.37-13.18,14.72-19.94,2.17-4.38,7.48-21.56,7.31-26.05,1.96-5.2.38-9.06-2.91-12.97Z" style="fill:none; stroke:#000; stroke-miterlimit:10; stroke-width:2px;"/></svg>