<?xml version="1.0" encoding="UTF-8"?><svg id="Layer_1" xmlns="http://www.w3.org/2000/svg" width="407.35" height="731.6" viewBox="0 0 407.35 731.6"><path d="M405.6,508.93C371.91,825.21,6.52,791.54,1,481.06c13.05-52.59,31.42-93.49,22.7-148.62-7.5-51.8-10.71-102.55-11.36-154.29,3.74-44.45-13.9-104.63,29.94-131.61,40.14-14.08,84.65-27.23,126.95-38.19,8.69-2.67,24.47-14,25.8,1.04,4.96-1.89-2.02-6.23,4.71-8.34,52.76,17.58,119.1,17.33,163.53,50.64,39.37,27.9,13.09,223.73,12.39,275.58-13.61,71.95,37.43,117.85,29.93,181.66Z" style="fill:none; stroke:#000; stroke-miterlimit:10; stroke-width:2px;"/></svg>