<?xml version="1.0" encoding="UTF-8"?><svg id="Layer_1" xmlns="http://www.w3.org/2000/svg" width="407.59" height="745.99" viewBox="0 0 407.59 745.99"><path d="M392.87,613.83c-1.11,3.12-2.16,5.99-3.44,9.09-.03.07-.05.14-.08.19-.21.52-.42,1.08-.64,1.6-1.77,4.13-3.28,7.53-5.44,11.52-1.09,2.02-1.9,5.42-4.48,6.08-.3,2.91-1.38,5.35-2.87,7.85-12.14,20.31-31.76,40.09-50.89,53.92-2.04,1.47-4,2.78-6.08,4.16-.84.56-1.71,1.06-2.56,1.6-11.27,7.13-21.83,12.3-34.24,17.28-39.99,16.04-80.75,20.7-123.69,16.32-5.4-.55-10.89-1.35-16.16-2.56-46.15-6.74-87.66-27.16-115.47-65.18-4.47-6.11-7.53-12.47-11.21-18.88-1.65-2.87-2.8-5.96-3.89-9.07-3.61-7.66-5.77-16.51-7.27-24.9-4.77-26.79-3.61-54.46-1.69-81.51,2.07-29.16,5.74-58.21,9.28-87.21.48-3.91.77-7.9,1.28-11.84.01-3.61.98-7.15,1.28-10.72.76-9.24.37-18.92.31-28.15-.03-5.5-1.07-15.63.1-20.4.52-2.13,2.09-4.89,2.38-6.9.15-1,.29-5.03.08-5.84-.25-.96-2.93-3.27-2.88-4.8-.65-.95-.95-1.11-1.33-2.35-2.05-6.67-3.33-16.4-4.66-23.5-2.37-12.62-4.72-25.35-5.85-38.15-.35-3.92-.71-8.18.17-12.15l11.98-15.22c-.5-7.89-1.77-15.79-2.55-23.68-.2-2.01-.13-4.28-.32-6.24C7.84,201.61,3.52,159.14,1.81,116.33c-.19-4.7-1.75-17.01.03-20.74.64-1.35,2.87-3.8,3.95-5.01,3.84-4.31,8.83-8.9,13.13-12.79.83-.75,2.02-1.81,3.03-2.25,5.18-4.69,8.85-6.75,15.36-9.28,14.29-5.55,29.72-9.83,44.33-14.71,23.74-7.94,48.43-17.47,72.48-24.01,1.49-.52,6.19-2.61,7.48-2.48,2.5.25,2.99,4.59,3.1,6.47.6,9.95-.33,20.12-.03,30.11.02.61-.03,1.21.33,1.74,1.09-.59,6.19-2.12,6.57-2.88.28-1.35.09-7.17,1.1-7.87.62-.43,1.45.21,2.09.18,3.53-.16,7.48-.87,10.4-.96,1.17-.04,2.83-.32,3.68-.32h5.76c1.73,0,3.91-.35,5.92-.32l9.03-.73c4.34-1.29,8.67-2.59,13.05-3.75,1.18-.31,2.32-.66,3.52-.96,1.62-1.32,8.63-1.55,9.21-3.44.18-.58,0-1.17.07-1.68.16-6.55-.21-13.14-.01-19.69.14-4.56.81-9.19.99-13.74.05-1.31-.49-2.53-.19-3.69.23-.91,1.38-2.31,2.33-2.5,2.24-.45,9.62,3.88,11.92,5.07,1.27.57,2.38,1.32,3.84,1.92,1.04.43,2.56.48,3.2,1.6.43.21.85.43,1.28.64,3.42,1.26,6.92,2.73,9.92,4.8.8.36,1.68.92,2.56,1.28.99.41,2.61.57,3.2,1.6,3.55,1.65,7.13,3.27,10.56,5.12.21.1.42.22.64.32,1.23.59,2.47,1.19,3.7,1.79l39.83,19.33c2.08.58,3.6,1.7,5.55,2.61,6.53,3.04,13.91,6,20.05,9.55,1.65.95,1.73.82,3.2,2.24.37.36.94.92,1.28,1.28,1.08.31,1.98,1.44,2.72,2.24,2.81,3.01,5.76,6.6,8.47,9.77.56.66,1.36,1.57,1.61,2.39,1.4,1.26,3.3,3.8,4.16,5.44,2.67,2.53,4.79,5.81,6.72,8.96.87,1.02.78,1.04,1.28,2.24.7-.26,1.14,1.5,1.21,1.84,1.12,5.74-.09,17-.26,23.27-1.07,39.61-4.31,79.24-7.03,118.74-1,14.55-2.72,29.22-2.25,43.86.49,14.98,1.97,30.65,3.21,45.59,3.61,43.51,8.69,86.76,16.4,129.69,3.66,20.36,8.35,40.53,10.16,61.21,3,34.33-1.35,66.18-12.8,98.4Z" style="fill:none; stroke:#000; stroke-miterlimit:10; stroke-width:2px;"/></svg>